G04 #@! TF.GenerationSoftware,KiCad,Pcbnew,(5.1.4)-1*
G04 #@! TF.CreationDate,2020-04-16T14:11:22+01:00*
G04 #@! TF.ProjectId,sot23Breakout,736f7432-3342-4726-9561-6b6f75742e6b,rev?*
G04 #@! TF.SameCoordinates,Original*
G04 #@! TF.FileFunction,Legend,Bot*
G04 #@! TF.FilePolarity,Positive*
%FSLAX46Y46*%
G04 Gerber Fmt 4.6, Leading zero omitted, Abs format (unit mm)*
G04 Created by KiCad (PCBNEW (5.1.4)-1) date 2020-04-16 14:11:22*
%MOMM*%
%LPD*%
G04 APERTURE LIST*
%ADD10C,0.300000*%
G04 APERTURE END LIST*
D10*
X28547142Y-82217142D02*
X28618571Y-82431428D01*
X28618571Y-82788571D01*
X28547142Y-82931428D01*
X28475714Y-83002857D01*
X28332857Y-83074285D01*
X28190000Y-83074285D01*
X28047142Y-83002857D01*
X27975714Y-82931428D01*
X27904285Y-82788571D01*
X27832857Y-82502857D01*
X27761428Y-82360000D01*
X27690000Y-82288571D01*
X27547142Y-82217142D01*
X27404285Y-82217142D01*
X27261428Y-82288571D01*
X27190000Y-82360000D01*
X27118571Y-82502857D01*
X27118571Y-82860000D01*
X27190000Y-83074285D01*
X27118571Y-84002857D02*
X27118571Y-84288571D01*
X27190000Y-84431428D01*
X27332857Y-84574285D01*
X27618571Y-84645714D01*
X28118571Y-84645714D01*
X28404285Y-84574285D01*
X28547142Y-84431428D01*
X28618571Y-84288571D01*
X28618571Y-84002857D01*
X28547142Y-83860000D01*
X28404285Y-83717142D01*
X28118571Y-83645714D01*
X27618571Y-83645714D01*
X27332857Y-83717142D01*
X27190000Y-83860000D01*
X27118571Y-84002857D01*
X27118571Y-85074285D02*
X27118571Y-85931428D01*
X28618571Y-85502857D02*
X27118571Y-85502857D01*
X28047142Y-86431428D02*
X28047142Y-87574285D01*
X27261428Y-88217142D02*
X27190000Y-88288571D01*
X27118571Y-88431428D01*
X27118571Y-88788571D01*
X27190000Y-88931428D01*
X27261428Y-89002857D01*
X27404285Y-89074285D01*
X27547142Y-89074285D01*
X27761428Y-89002857D01*
X28618571Y-88145714D01*
X28618571Y-89074285D01*
X27118571Y-89574285D02*
X27118571Y-90502857D01*
X27690000Y-90002857D01*
X27690000Y-90217142D01*
X27761428Y-90360000D01*
X27832857Y-90431428D01*
X27975714Y-90502857D01*
X28332857Y-90502857D01*
X28475714Y-90431428D01*
X28547142Y-90360000D01*
X28618571Y-90217142D01*
X28618571Y-89788571D01*
X28547142Y-89645714D01*
X28475714Y-89574285D01*
X31920571Y-82610000D02*
X30420571Y-82610000D01*
X31134857Y-82610000D02*
X31134857Y-83467142D01*
X31920571Y-83467142D02*
X30420571Y-83467142D01*
X31920571Y-84824285D02*
X31134857Y-84824285D01*
X30992000Y-84752857D01*
X30920571Y-84610000D01*
X30920571Y-84324285D01*
X30992000Y-84181428D01*
X31849142Y-84824285D02*
X31920571Y-84681428D01*
X31920571Y-84324285D01*
X31849142Y-84181428D01*
X31706285Y-84110000D01*
X31563428Y-84110000D01*
X31420571Y-84181428D01*
X31349142Y-84324285D01*
X31349142Y-84681428D01*
X31277714Y-84824285D01*
X31920571Y-85538571D02*
X30920571Y-85538571D01*
X31063428Y-85538571D02*
X30992000Y-85610000D01*
X30920571Y-85752857D01*
X30920571Y-85967142D01*
X30992000Y-86110000D01*
X31134857Y-86181428D01*
X31920571Y-86181428D01*
X31134857Y-86181428D02*
X30992000Y-86252857D01*
X30920571Y-86395714D01*
X30920571Y-86610000D01*
X30992000Y-86752857D01*
X31134857Y-86824285D01*
X31920571Y-86824285D01*
X31920571Y-87538571D02*
X30920571Y-87538571D01*
X30420571Y-87538571D02*
X30492000Y-87467142D01*
X30563428Y-87538571D01*
X30492000Y-87610000D01*
X30420571Y-87538571D01*
X30563428Y-87538571D01*
X31849142Y-88181428D02*
X31920571Y-88324285D01*
X31920571Y-88610000D01*
X31849142Y-88752857D01*
X31706285Y-88824285D01*
X31634857Y-88824285D01*
X31492000Y-88752857D01*
X31420571Y-88610000D01*
X31420571Y-88395714D01*
X31349142Y-88252857D01*
X31206285Y-88181428D01*
X31134857Y-88181428D01*
X30992000Y-88252857D01*
X30920571Y-88395714D01*
X30920571Y-88610000D01*
X30992000Y-88752857D01*
X31920571Y-89467142D02*
X30420571Y-89467142D01*
X31920571Y-90110000D02*
X31134857Y-90110000D01*
X30992000Y-90038571D01*
X30920571Y-89895714D01*
X30920571Y-89681428D01*
X30992000Y-89538571D01*
X31063428Y-89467142D01*
X110335142Y-82217142D02*
X110406571Y-82431428D01*
X110406571Y-82788571D01*
X110335142Y-82931428D01*
X110263714Y-83002857D01*
X110120857Y-83074285D01*
X109978000Y-83074285D01*
X109835142Y-83002857D01*
X109763714Y-82931428D01*
X109692285Y-82788571D01*
X109620857Y-82502857D01*
X109549428Y-82360000D01*
X109478000Y-82288571D01*
X109335142Y-82217142D01*
X109192285Y-82217142D01*
X109049428Y-82288571D01*
X108978000Y-82360000D01*
X108906571Y-82502857D01*
X108906571Y-82860000D01*
X108978000Y-83074285D01*
X108906571Y-84002857D02*
X108906571Y-84288571D01*
X108978000Y-84431428D01*
X109120857Y-84574285D01*
X109406571Y-84645714D01*
X109906571Y-84645714D01*
X110192285Y-84574285D01*
X110335142Y-84431428D01*
X110406571Y-84288571D01*
X110406571Y-84002857D01*
X110335142Y-83860000D01*
X110192285Y-83717142D01*
X109906571Y-83645714D01*
X109406571Y-83645714D01*
X109120857Y-83717142D01*
X108978000Y-83860000D01*
X108906571Y-84002857D01*
X108906571Y-85074285D02*
X108906571Y-85931428D01*
X110406571Y-85502857D02*
X108906571Y-85502857D01*
X109835142Y-86431428D02*
X109835142Y-87574285D01*
X109049428Y-88217142D02*
X108978000Y-88288571D01*
X108906571Y-88431428D01*
X108906571Y-88788571D01*
X108978000Y-88931428D01*
X109049428Y-89002857D01*
X109192285Y-89074285D01*
X109335142Y-89074285D01*
X109549428Y-89002857D01*
X110406571Y-88145714D01*
X110406571Y-89074285D01*
X108906571Y-89574285D02*
X108906571Y-90502857D01*
X109478000Y-90002857D01*
X109478000Y-90217142D01*
X109549428Y-90360000D01*
X109620857Y-90431428D01*
X109763714Y-90502857D01*
X110120857Y-90502857D01*
X110263714Y-90431428D01*
X110335142Y-90360000D01*
X110406571Y-90217142D01*
X110406571Y-89788571D01*
X110335142Y-89645714D01*
X110263714Y-89574285D01*
X102024571Y-82610000D02*
X100524571Y-82610000D01*
X101238857Y-82610000D02*
X101238857Y-83467142D01*
X102024571Y-83467142D02*
X100524571Y-83467142D01*
X102024571Y-84824285D02*
X101238857Y-84824285D01*
X101096000Y-84752857D01*
X101024571Y-84610000D01*
X101024571Y-84324285D01*
X101096000Y-84181428D01*
X101953142Y-84824285D02*
X102024571Y-84681428D01*
X102024571Y-84324285D01*
X101953142Y-84181428D01*
X101810285Y-84110000D01*
X101667428Y-84110000D01*
X101524571Y-84181428D01*
X101453142Y-84324285D01*
X101453142Y-84681428D01*
X101381714Y-84824285D01*
X102024571Y-85538571D02*
X101024571Y-85538571D01*
X101167428Y-85538571D02*
X101096000Y-85610000D01*
X101024571Y-85752857D01*
X101024571Y-85967142D01*
X101096000Y-86110000D01*
X101238857Y-86181428D01*
X102024571Y-86181428D01*
X101238857Y-86181428D02*
X101096000Y-86252857D01*
X101024571Y-86395714D01*
X101024571Y-86610000D01*
X101096000Y-86752857D01*
X101238857Y-86824285D01*
X102024571Y-86824285D01*
X102024571Y-87538571D02*
X101024571Y-87538571D01*
X100524571Y-87538571D02*
X100596000Y-87467142D01*
X100667428Y-87538571D01*
X100596000Y-87610000D01*
X100524571Y-87538571D01*
X100667428Y-87538571D01*
X101953142Y-88181428D02*
X102024571Y-88324285D01*
X102024571Y-88610000D01*
X101953142Y-88752857D01*
X101810285Y-88824285D01*
X101738857Y-88824285D01*
X101596000Y-88752857D01*
X101524571Y-88610000D01*
X101524571Y-88395714D01*
X101453142Y-88252857D01*
X101310285Y-88181428D01*
X101238857Y-88181428D01*
X101096000Y-88252857D01*
X101024571Y-88395714D01*
X101024571Y-88610000D01*
X101096000Y-88752857D01*
X102024571Y-89467142D02*
X100524571Y-89467142D01*
X102024571Y-90110000D02*
X101238857Y-90110000D01*
X101096000Y-90038571D01*
X101024571Y-89895714D01*
X101024571Y-89681428D01*
X101096000Y-89538571D01*
X101167428Y-89467142D01*
X113708571Y-82610000D02*
X112208571Y-82610000D01*
X112922857Y-82610000D02*
X112922857Y-83467142D01*
X113708571Y-83467142D02*
X112208571Y-83467142D01*
X113708571Y-84824285D02*
X112922857Y-84824285D01*
X112780000Y-84752857D01*
X112708571Y-84610000D01*
X112708571Y-84324285D01*
X112780000Y-84181428D01*
X113637142Y-84824285D02*
X113708571Y-84681428D01*
X113708571Y-84324285D01*
X113637142Y-84181428D01*
X113494285Y-84110000D01*
X113351428Y-84110000D01*
X113208571Y-84181428D01*
X113137142Y-84324285D01*
X113137142Y-84681428D01*
X113065714Y-84824285D01*
X113708571Y-85538571D02*
X112708571Y-85538571D01*
X112851428Y-85538571D02*
X112780000Y-85610000D01*
X112708571Y-85752857D01*
X112708571Y-85967142D01*
X112780000Y-86110000D01*
X112922857Y-86181428D01*
X113708571Y-86181428D01*
X112922857Y-86181428D02*
X112780000Y-86252857D01*
X112708571Y-86395714D01*
X112708571Y-86610000D01*
X112780000Y-86752857D01*
X112922857Y-86824285D01*
X113708571Y-86824285D01*
X113708571Y-87538571D02*
X112708571Y-87538571D01*
X112208571Y-87538571D02*
X112280000Y-87467142D01*
X112351428Y-87538571D01*
X112280000Y-87610000D01*
X112208571Y-87538571D01*
X112351428Y-87538571D01*
X113637142Y-88181428D02*
X113708571Y-88324285D01*
X113708571Y-88610000D01*
X113637142Y-88752857D01*
X113494285Y-88824285D01*
X113422857Y-88824285D01*
X113280000Y-88752857D01*
X113208571Y-88610000D01*
X113208571Y-88395714D01*
X113137142Y-88252857D01*
X112994285Y-88181428D01*
X112922857Y-88181428D01*
X112780000Y-88252857D01*
X112708571Y-88395714D01*
X112708571Y-88610000D01*
X112780000Y-88752857D01*
X113708571Y-89467142D02*
X112208571Y-89467142D01*
X113708571Y-90110000D02*
X112922857Y-90110000D01*
X112780000Y-90038571D01*
X112708571Y-89895714D01*
X112708571Y-89681428D01*
X112780000Y-89538571D01*
X112851428Y-89467142D01*
X98651142Y-82217142D02*
X98722571Y-82431428D01*
X98722571Y-82788571D01*
X98651142Y-82931428D01*
X98579714Y-83002857D01*
X98436857Y-83074285D01*
X98294000Y-83074285D01*
X98151142Y-83002857D01*
X98079714Y-82931428D01*
X98008285Y-82788571D01*
X97936857Y-82502857D01*
X97865428Y-82360000D01*
X97794000Y-82288571D01*
X97651142Y-82217142D01*
X97508285Y-82217142D01*
X97365428Y-82288571D01*
X97294000Y-82360000D01*
X97222571Y-82502857D01*
X97222571Y-82860000D01*
X97294000Y-83074285D01*
X97222571Y-84002857D02*
X97222571Y-84288571D01*
X97294000Y-84431428D01*
X97436857Y-84574285D01*
X97722571Y-84645714D01*
X98222571Y-84645714D01*
X98508285Y-84574285D01*
X98651142Y-84431428D01*
X98722571Y-84288571D01*
X98722571Y-84002857D01*
X98651142Y-83860000D01*
X98508285Y-83717142D01*
X98222571Y-83645714D01*
X97722571Y-83645714D01*
X97436857Y-83717142D01*
X97294000Y-83860000D01*
X97222571Y-84002857D01*
X97222571Y-85074285D02*
X97222571Y-85931428D01*
X98722571Y-85502857D02*
X97222571Y-85502857D01*
X98151142Y-86431428D02*
X98151142Y-87574285D01*
X97365428Y-88217142D02*
X97294000Y-88288571D01*
X97222571Y-88431428D01*
X97222571Y-88788571D01*
X97294000Y-88931428D01*
X97365428Y-89002857D01*
X97508285Y-89074285D01*
X97651142Y-89074285D01*
X97865428Y-89002857D01*
X98722571Y-88145714D01*
X98722571Y-89074285D01*
X97222571Y-89574285D02*
X97222571Y-90502857D01*
X97794000Y-90002857D01*
X97794000Y-90217142D01*
X97865428Y-90360000D01*
X97936857Y-90431428D01*
X98079714Y-90502857D01*
X98436857Y-90502857D01*
X98579714Y-90431428D01*
X98651142Y-90360000D01*
X98722571Y-90217142D01*
X98722571Y-89788571D01*
X98651142Y-89645714D01*
X98579714Y-89574285D01*
X86967142Y-82217142D02*
X87038571Y-82431428D01*
X87038571Y-82788571D01*
X86967142Y-82931428D01*
X86895714Y-83002857D01*
X86752857Y-83074285D01*
X86610000Y-83074285D01*
X86467142Y-83002857D01*
X86395714Y-82931428D01*
X86324285Y-82788571D01*
X86252857Y-82502857D01*
X86181428Y-82360000D01*
X86110000Y-82288571D01*
X85967142Y-82217142D01*
X85824285Y-82217142D01*
X85681428Y-82288571D01*
X85610000Y-82360000D01*
X85538571Y-82502857D01*
X85538571Y-82860000D01*
X85610000Y-83074285D01*
X85538571Y-84002857D02*
X85538571Y-84288571D01*
X85610000Y-84431428D01*
X85752857Y-84574285D01*
X86038571Y-84645714D01*
X86538571Y-84645714D01*
X86824285Y-84574285D01*
X86967142Y-84431428D01*
X87038571Y-84288571D01*
X87038571Y-84002857D01*
X86967142Y-83860000D01*
X86824285Y-83717142D01*
X86538571Y-83645714D01*
X86038571Y-83645714D01*
X85752857Y-83717142D01*
X85610000Y-83860000D01*
X85538571Y-84002857D01*
X85538571Y-85074285D02*
X85538571Y-85931428D01*
X87038571Y-85502857D02*
X85538571Y-85502857D01*
X86467142Y-86431428D02*
X86467142Y-87574285D01*
X85681428Y-88217142D02*
X85610000Y-88288571D01*
X85538571Y-88431428D01*
X85538571Y-88788571D01*
X85610000Y-88931428D01*
X85681428Y-89002857D01*
X85824285Y-89074285D01*
X85967142Y-89074285D01*
X86181428Y-89002857D01*
X87038571Y-88145714D01*
X87038571Y-89074285D01*
X85538571Y-89574285D02*
X85538571Y-90502857D01*
X86110000Y-90002857D01*
X86110000Y-90217142D01*
X86181428Y-90360000D01*
X86252857Y-90431428D01*
X86395714Y-90502857D01*
X86752857Y-90502857D01*
X86895714Y-90431428D01*
X86967142Y-90360000D01*
X87038571Y-90217142D01*
X87038571Y-89788571D01*
X86967142Y-89645714D01*
X86895714Y-89574285D01*
X78656571Y-82610000D02*
X77156571Y-82610000D01*
X77870857Y-82610000D02*
X77870857Y-83467142D01*
X78656571Y-83467142D02*
X77156571Y-83467142D01*
X78656571Y-84824285D02*
X77870857Y-84824285D01*
X77728000Y-84752857D01*
X77656571Y-84610000D01*
X77656571Y-84324285D01*
X77728000Y-84181428D01*
X78585142Y-84824285D02*
X78656571Y-84681428D01*
X78656571Y-84324285D01*
X78585142Y-84181428D01*
X78442285Y-84110000D01*
X78299428Y-84110000D01*
X78156571Y-84181428D01*
X78085142Y-84324285D01*
X78085142Y-84681428D01*
X78013714Y-84824285D01*
X78656571Y-85538571D02*
X77656571Y-85538571D01*
X77799428Y-85538571D02*
X77728000Y-85610000D01*
X77656571Y-85752857D01*
X77656571Y-85967142D01*
X77728000Y-86110000D01*
X77870857Y-86181428D01*
X78656571Y-86181428D01*
X77870857Y-86181428D02*
X77728000Y-86252857D01*
X77656571Y-86395714D01*
X77656571Y-86610000D01*
X77728000Y-86752857D01*
X77870857Y-86824285D01*
X78656571Y-86824285D01*
X78656571Y-87538571D02*
X77656571Y-87538571D01*
X77156571Y-87538571D02*
X77228000Y-87467142D01*
X77299428Y-87538571D01*
X77228000Y-87610000D01*
X77156571Y-87538571D01*
X77299428Y-87538571D01*
X78585142Y-88181428D02*
X78656571Y-88324285D01*
X78656571Y-88610000D01*
X78585142Y-88752857D01*
X78442285Y-88824285D01*
X78370857Y-88824285D01*
X78228000Y-88752857D01*
X78156571Y-88610000D01*
X78156571Y-88395714D01*
X78085142Y-88252857D01*
X77942285Y-88181428D01*
X77870857Y-88181428D01*
X77728000Y-88252857D01*
X77656571Y-88395714D01*
X77656571Y-88610000D01*
X77728000Y-88752857D01*
X78656571Y-89467142D02*
X77156571Y-89467142D01*
X78656571Y-90110000D02*
X77870857Y-90110000D01*
X77728000Y-90038571D01*
X77656571Y-89895714D01*
X77656571Y-89681428D01*
X77728000Y-89538571D01*
X77799428Y-89467142D01*
X90340571Y-82610000D02*
X88840571Y-82610000D01*
X89554857Y-82610000D02*
X89554857Y-83467142D01*
X90340571Y-83467142D02*
X88840571Y-83467142D01*
X90340571Y-84824285D02*
X89554857Y-84824285D01*
X89412000Y-84752857D01*
X89340571Y-84610000D01*
X89340571Y-84324285D01*
X89412000Y-84181428D01*
X90269142Y-84824285D02*
X90340571Y-84681428D01*
X90340571Y-84324285D01*
X90269142Y-84181428D01*
X90126285Y-84110000D01*
X89983428Y-84110000D01*
X89840571Y-84181428D01*
X89769142Y-84324285D01*
X89769142Y-84681428D01*
X89697714Y-84824285D01*
X90340571Y-85538571D02*
X89340571Y-85538571D01*
X89483428Y-85538571D02*
X89412000Y-85610000D01*
X89340571Y-85752857D01*
X89340571Y-85967142D01*
X89412000Y-86110000D01*
X89554857Y-86181428D01*
X90340571Y-86181428D01*
X89554857Y-86181428D02*
X89412000Y-86252857D01*
X89340571Y-86395714D01*
X89340571Y-86610000D01*
X89412000Y-86752857D01*
X89554857Y-86824285D01*
X90340571Y-86824285D01*
X90340571Y-87538571D02*
X89340571Y-87538571D01*
X88840571Y-87538571D02*
X88912000Y-87467142D01*
X88983428Y-87538571D01*
X88912000Y-87610000D01*
X88840571Y-87538571D01*
X88983428Y-87538571D01*
X90269142Y-88181428D02*
X90340571Y-88324285D01*
X90340571Y-88610000D01*
X90269142Y-88752857D01*
X90126285Y-88824285D01*
X90054857Y-88824285D01*
X89912000Y-88752857D01*
X89840571Y-88610000D01*
X89840571Y-88395714D01*
X89769142Y-88252857D01*
X89626285Y-88181428D01*
X89554857Y-88181428D01*
X89412000Y-88252857D01*
X89340571Y-88395714D01*
X89340571Y-88610000D01*
X89412000Y-88752857D01*
X90340571Y-89467142D02*
X88840571Y-89467142D01*
X90340571Y-90110000D02*
X89554857Y-90110000D01*
X89412000Y-90038571D01*
X89340571Y-89895714D01*
X89340571Y-89681428D01*
X89412000Y-89538571D01*
X89483428Y-89467142D01*
X75283142Y-82217142D02*
X75354571Y-82431428D01*
X75354571Y-82788571D01*
X75283142Y-82931428D01*
X75211714Y-83002857D01*
X75068857Y-83074285D01*
X74926000Y-83074285D01*
X74783142Y-83002857D01*
X74711714Y-82931428D01*
X74640285Y-82788571D01*
X74568857Y-82502857D01*
X74497428Y-82360000D01*
X74426000Y-82288571D01*
X74283142Y-82217142D01*
X74140285Y-82217142D01*
X73997428Y-82288571D01*
X73926000Y-82360000D01*
X73854571Y-82502857D01*
X73854571Y-82860000D01*
X73926000Y-83074285D01*
X73854571Y-84002857D02*
X73854571Y-84288571D01*
X73926000Y-84431428D01*
X74068857Y-84574285D01*
X74354571Y-84645714D01*
X74854571Y-84645714D01*
X75140285Y-84574285D01*
X75283142Y-84431428D01*
X75354571Y-84288571D01*
X75354571Y-84002857D01*
X75283142Y-83860000D01*
X75140285Y-83717142D01*
X74854571Y-83645714D01*
X74354571Y-83645714D01*
X74068857Y-83717142D01*
X73926000Y-83860000D01*
X73854571Y-84002857D01*
X73854571Y-85074285D02*
X73854571Y-85931428D01*
X75354571Y-85502857D02*
X73854571Y-85502857D01*
X74783142Y-86431428D02*
X74783142Y-87574285D01*
X73997428Y-88217142D02*
X73926000Y-88288571D01*
X73854571Y-88431428D01*
X73854571Y-88788571D01*
X73926000Y-88931428D01*
X73997428Y-89002857D01*
X74140285Y-89074285D01*
X74283142Y-89074285D01*
X74497428Y-89002857D01*
X75354571Y-88145714D01*
X75354571Y-89074285D01*
X73854571Y-89574285D02*
X73854571Y-90502857D01*
X74426000Y-90002857D01*
X74426000Y-90217142D01*
X74497428Y-90360000D01*
X74568857Y-90431428D01*
X74711714Y-90502857D01*
X75068857Y-90502857D01*
X75211714Y-90431428D01*
X75283142Y-90360000D01*
X75354571Y-90217142D01*
X75354571Y-89788571D01*
X75283142Y-89645714D01*
X75211714Y-89574285D01*
X66972571Y-82610000D02*
X65472571Y-82610000D01*
X66186857Y-82610000D02*
X66186857Y-83467142D01*
X66972571Y-83467142D02*
X65472571Y-83467142D01*
X66972571Y-84824285D02*
X66186857Y-84824285D01*
X66044000Y-84752857D01*
X65972571Y-84610000D01*
X65972571Y-84324285D01*
X66044000Y-84181428D01*
X66901142Y-84824285D02*
X66972571Y-84681428D01*
X66972571Y-84324285D01*
X66901142Y-84181428D01*
X66758285Y-84110000D01*
X66615428Y-84110000D01*
X66472571Y-84181428D01*
X66401142Y-84324285D01*
X66401142Y-84681428D01*
X66329714Y-84824285D01*
X66972571Y-85538571D02*
X65972571Y-85538571D01*
X66115428Y-85538571D02*
X66044000Y-85610000D01*
X65972571Y-85752857D01*
X65972571Y-85967142D01*
X66044000Y-86110000D01*
X66186857Y-86181428D01*
X66972571Y-86181428D01*
X66186857Y-86181428D02*
X66044000Y-86252857D01*
X65972571Y-86395714D01*
X65972571Y-86610000D01*
X66044000Y-86752857D01*
X66186857Y-86824285D01*
X66972571Y-86824285D01*
X66972571Y-87538571D02*
X65972571Y-87538571D01*
X65472571Y-87538571D02*
X65544000Y-87467142D01*
X65615428Y-87538571D01*
X65544000Y-87610000D01*
X65472571Y-87538571D01*
X65615428Y-87538571D01*
X66901142Y-88181428D02*
X66972571Y-88324285D01*
X66972571Y-88610000D01*
X66901142Y-88752857D01*
X66758285Y-88824285D01*
X66686857Y-88824285D01*
X66544000Y-88752857D01*
X66472571Y-88610000D01*
X66472571Y-88395714D01*
X66401142Y-88252857D01*
X66258285Y-88181428D01*
X66186857Y-88181428D01*
X66044000Y-88252857D01*
X65972571Y-88395714D01*
X65972571Y-88610000D01*
X66044000Y-88752857D01*
X66972571Y-89467142D02*
X65472571Y-89467142D01*
X66972571Y-90110000D02*
X66186857Y-90110000D01*
X66044000Y-90038571D01*
X65972571Y-89895714D01*
X65972571Y-89681428D01*
X66044000Y-89538571D01*
X66115428Y-89467142D01*
X51915142Y-82217142D02*
X51986571Y-82431428D01*
X51986571Y-82788571D01*
X51915142Y-82931428D01*
X51843714Y-83002857D01*
X51700857Y-83074285D01*
X51558000Y-83074285D01*
X51415142Y-83002857D01*
X51343714Y-82931428D01*
X51272285Y-82788571D01*
X51200857Y-82502857D01*
X51129428Y-82360000D01*
X51058000Y-82288571D01*
X50915142Y-82217142D01*
X50772285Y-82217142D01*
X50629428Y-82288571D01*
X50558000Y-82360000D01*
X50486571Y-82502857D01*
X50486571Y-82860000D01*
X50558000Y-83074285D01*
X50486571Y-84002857D02*
X50486571Y-84288571D01*
X50558000Y-84431428D01*
X50700857Y-84574285D01*
X50986571Y-84645714D01*
X51486571Y-84645714D01*
X51772285Y-84574285D01*
X51915142Y-84431428D01*
X51986571Y-84288571D01*
X51986571Y-84002857D01*
X51915142Y-83860000D01*
X51772285Y-83717142D01*
X51486571Y-83645714D01*
X50986571Y-83645714D01*
X50700857Y-83717142D01*
X50558000Y-83860000D01*
X50486571Y-84002857D01*
X50486571Y-85074285D02*
X50486571Y-85931428D01*
X51986571Y-85502857D02*
X50486571Y-85502857D01*
X51415142Y-86431428D02*
X51415142Y-87574285D01*
X50629428Y-88217142D02*
X50558000Y-88288571D01*
X50486571Y-88431428D01*
X50486571Y-88788571D01*
X50558000Y-88931428D01*
X50629428Y-89002857D01*
X50772285Y-89074285D01*
X50915142Y-89074285D01*
X51129428Y-89002857D01*
X51986571Y-88145714D01*
X51986571Y-89074285D01*
X50486571Y-89574285D02*
X50486571Y-90502857D01*
X51058000Y-90002857D01*
X51058000Y-90217142D01*
X51129428Y-90360000D01*
X51200857Y-90431428D01*
X51343714Y-90502857D01*
X51700857Y-90502857D01*
X51843714Y-90431428D01*
X51915142Y-90360000D01*
X51986571Y-90217142D01*
X51986571Y-89788571D01*
X51915142Y-89645714D01*
X51843714Y-89574285D01*
X55288571Y-82610000D02*
X53788571Y-82610000D01*
X54502857Y-82610000D02*
X54502857Y-83467142D01*
X55288571Y-83467142D02*
X53788571Y-83467142D01*
X55288571Y-84824285D02*
X54502857Y-84824285D01*
X54360000Y-84752857D01*
X54288571Y-84610000D01*
X54288571Y-84324285D01*
X54360000Y-84181428D01*
X55217142Y-84824285D02*
X55288571Y-84681428D01*
X55288571Y-84324285D01*
X55217142Y-84181428D01*
X55074285Y-84110000D01*
X54931428Y-84110000D01*
X54788571Y-84181428D01*
X54717142Y-84324285D01*
X54717142Y-84681428D01*
X54645714Y-84824285D01*
X55288571Y-85538571D02*
X54288571Y-85538571D01*
X54431428Y-85538571D02*
X54360000Y-85610000D01*
X54288571Y-85752857D01*
X54288571Y-85967142D01*
X54360000Y-86110000D01*
X54502857Y-86181428D01*
X55288571Y-86181428D01*
X54502857Y-86181428D02*
X54360000Y-86252857D01*
X54288571Y-86395714D01*
X54288571Y-86610000D01*
X54360000Y-86752857D01*
X54502857Y-86824285D01*
X55288571Y-86824285D01*
X55288571Y-87538571D02*
X54288571Y-87538571D01*
X53788571Y-87538571D02*
X53860000Y-87467142D01*
X53931428Y-87538571D01*
X53860000Y-87610000D01*
X53788571Y-87538571D01*
X53931428Y-87538571D01*
X55217142Y-88181428D02*
X55288571Y-88324285D01*
X55288571Y-88610000D01*
X55217142Y-88752857D01*
X55074285Y-88824285D01*
X55002857Y-88824285D01*
X54860000Y-88752857D01*
X54788571Y-88610000D01*
X54788571Y-88395714D01*
X54717142Y-88252857D01*
X54574285Y-88181428D01*
X54502857Y-88181428D01*
X54360000Y-88252857D01*
X54288571Y-88395714D01*
X54288571Y-88610000D01*
X54360000Y-88752857D01*
X55288571Y-89467142D02*
X53788571Y-89467142D01*
X55288571Y-90110000D02*
X54502857Y-90110000D01*
X54360000Y-90038571D01*
X54288571Y-89895714D01*
X54288571Y-89681428D01*
X54360000Y-89538571D01*
X54431428Y-89467142D01*
X63599142Y-82217142D02*
X63670571Y-82431428D01*
X63670571Y-82788571D01*
X63599142Y-82931428D01*
X63527714Y-83002857D01*
X63384857Y-83074285D01*
X63242000Y-83074285D01*
X63099142Y-83002857D01*
X63027714Y-82931428D01*
X62956285Y-82788571D01*
X62884857Y-82502857D01*
X62813428Y-82360000D01*
X62742000Y-82288571D01*
X62599142Y-82217142D01*
X62456285Y-82217142D01*
X62313428Y-82288571D01*
X62242000Y-82360000D01*
X62170571Y-82502857D01*
X62170571Y-82860000D01*
X62242000Y-83074285D01*
X62170571Y-84002857D02*
X62170571Y-84288571D01*
X62242000Y-84431428D01*
X62384857Y-84574285D01*
X62670571Y-84645714D01*
X63170571Y-84645714D01*
X63456285Y-84574285D01*
X63599142Y-84431428D01*
X63670571Y-84288571D01*
X63670571Y-84002857D01*
X63599142Y-83860000D01*
X63456285Y-83717142D01*
X63170571Y-83645714D01*
X62670571Y-83645714D01*
X62384857Y-83717142D01*
X62242000Y-83860000D01*
X62170571Y-84002857D01*
X62170571Y-85074285D02*
X62170571Y-85931428D01*
X63670571Y-85502857D02*
X62170571Y-85502857D01*
X63099142Y-86431428D02*
X63099142Y-87574285D01*
X62313428Y-88217142D02*
X62242000Y-88288571D01*
X62170571Y-88431428D01*
X62170571Y-88788571D01*
X62242000Y-88931428D01*
X62313428Y-89002857D01*
X62456285Y-89074285D01*
X62599142Y-89074285D01*
X62813428Y-89002857D01*
X63670571Y-88145714D01*
X63670571Y-89074285D01*
X62170571Y-89574285D02*
X62170571Y-90502857D01*
X62742000Y-90002857D01*
X62742000Y-90217142D01*
X62813428Y-90360000D01*
X62884857Y-90431428D01*
X63027714Y-90502857D01*
X63384857Y-90502857D01*
X63527714Y-90431428D01*
X63599142Y-90360000D01*
X63670571Y-90217142D01*
X63670571Y-89788571D01*
X63599142Y-89645714D01*
X63527714Y-89574285D01*
X40231142Y-82217142D02*
X40302571Y-82431428D01*
X40302571Y-82788571D01*
X40231142Y-82931428D01*
X40159714Y-83002857D01*
X40016857Y-83074285D01*
X39874000Y-83074285D01*
X39731142Y-83002857D01*
X39659714Y-82931428D01*
X39588285Y-82788571D01*
X39516857Y-82502857D01*
X39445428Y-82360000D01*
X39374000Y-82288571D01*
X39231142Y-82217142D01*
X39088285Y-82217142D01*
X38945428Y-82288571D01*
X38874000Y-82360000D01*
X38802571Y-82502857D01*
X38802571Y-82860000D01*
X38874000Y-83074285D01*
X38802571Y-84002857D02*
X38802571Y-84288571D01*
X38874000Y-84431428D01*
X39016857Y-84574285D01*
X39302571Y-84645714D01*
X39802571Y-84645714D01*
X40088285Y-84574285D01*
X40231142Y-84431428D01*
X40302571Y-84288571D01*
X40302571Y-84002857D01*
X40231142Y-83860000D01*
X40088285Y-83717142D01*
X39802571Y-83645714D01*
X39302571Y-83645714D01*
X39016857Y-83717142D01*
X38874000Y-83860000D01*
X38802571Y-84002857D01*
X38802571Y-85074285D02*
X38802571Y-85931428D01*
X40302571Y-85502857D02*
X38802571Y-85502857D01*
X39731142Y-86431428D02*
X39731142Y-87574285D01*
X38945428Y-88217142D02*
X38874000Y-88288571D01*
X38802571Y-88431428D01*
X38802571Y-88788571D01*
X38874000Y-88931428D01*
X38945428Y-89002857D01*
X39088285Y-89074285D01*
X39231142Y-89074285D01*
X39445428Y-89002857D01*
X40302571Y-88145714D01*
X40302571Y-89074285D01*
X38802571Y-89574285D02*
X38802571Y-90502857D01*
X39374000Y-90002857D01*
X39374000Y-90217142D01*
X39445428Y-90360000D01*
X39516857Y-90431428D01*
X39659714Y-90502857D01*
X40016857Y-90502857D01*
X40159714Y-90431428D01*
X40231142Y-90360000D01*
X40302571Y-90217142D01*
X40302571Y-89788571D01*
X40231142Y-89645714D01*
X40159714Y-89574285D01*
X43604571Y-82610000D02*
X42104571Y-82610000D01*
X42818857Y-82610000D02*
X42818857Y-83467142D01*
X43604571Y-83467142D02*
X42104571Y-83467142D01*
X43604571Y-84824285D02*
X42818857Y-84824285D01*
X42676000Y-84752857D01*
X42604571Y-84610000D01*
X42604571Y-84324285D01*
X42676000Y-84181428D01*
X43533142Y-84824285D02*
X43604571Y-84681428D01*
X43604571Y-84324285D01*
X43533142Y-84181428D01*
X43390285Y-84110000D01*
X43247428Y-84110000D01*
X43104571Y-84181428D01*
X43033142Y-84324285D01*
X43033142Y-84681428D01*
X42961714Y-84824285D01*
X43604571Y-85538571D02*
X42604571Y-85538571D01*
X42747428Y-85538571D02*
X42676000Y-85610000D01*
X42604571Y-85752857D01*
X42604571Y-85967142D01*
X42676000Y-86110000D01*
X42818857Y-86181428D01*
X43604571Y-86181428D01*
X42818857Y-86181428D02*
X42676000Y-86252857D01*
X42604571Y-86395714D01*
X42604571Y-86610000D01*
X42676000Y-86752857D01*
X42818857Y-86824285D01*
X43604571Y-86824285D01*
X43604571Y-87538571D02*
X42604571Y-87538571D01*
X42104571Y-87538571D02*
X42176000Y-87467142D01*
X42247428Y-87538571D01*
X42176000Y-87610000D01*
X42104571Y-87538571D01*
X42247428Y-87538571D01*
X43533142Y-88181428D02*
X43604571Y-88324285D01*
X43604571Y-88610000D01*
X43533142Y-88752857D01*
X43390285Y-88824285D01*
X43318857Y-88824285D01*
X43176000Y-88752857D01*
X43104571Y-88610000D01*
X43104571Y-88395714D01*
X43033142Y-88252857D01*
X42890285Y-88181428D01*
X42818857Y-88181428D01*
X42676000Y-88252857D01*
X42604571Y-88395714D01*
X42604571Y-88610000D01*
X42676000Y-88752857D01*
X43604571Y-89467142D02*
X42104571Y-89467142D01*
X43604571Y-90110000D02*
X42818857Y-90110000D01*
X42676000Y-90038571D01*
X42604571Y-89895714D01*
X42604571Y-89681428D01*
X42676000Y-89538571D01*
X42747428Y-89467142D01*
X110335142Y-96441142D02*
X110406571Y-96655428D01*
X110406571Y-97012571D01*
X110335142Y-97155428D01*
X110263714Y-97226857D01*
X110120857Y-97298285D01*
X109978000Y-97298285D01*
X109835142Y-97226857D01*
X109763714Y-97155428D01*
X109692285Y-97012571D01*
X109620857Y-96726857D01*
X109549428Y-96584000D01*
X109478000Y-96512571D01*
X109335142Y-96441142D01*
X109192285Y-96441142D01*
X109049428Y-96512571D01*
X108978000Y-96584000D01*
X108906571Y-96726857D01*
X108906571Y-97084000D01*
X108978000Y-97298285D01*
X108906571Y-98226857D02*
X108906571Y-98512571D01*
X108978000Y-98655428D01*
X109120857Y-98798285D01*
X109406571Y-98869714D01*
X109906571Y-98869714D01*
X110192285Y-98798285D01*
X110335142Y-98655428D01*
X110406571Y-98512571D01*
X110406571Y-98226857D01*
X110335142Y-98084000D01*
X110192285Y-97941142D01*
X109906571Y-97869714D01*
X109406571Y-97869714D01*
X109120857Y-97941142D01*
X108978000Y-98084000D01*
X108906571Y-98226857D01*
X108906571Y-99298285D02*
X108906571Y-100155428D01*
X110406571Y-99726857D02*
X108906571Y-99726857D01*
X109835142Y-100655428D02*
X109835142Y-101798285D01*
X109049428Y-102441142D02*
X108978000Y-102512571D01*
X108906571Y-102655428D01*
X108906571Y-103012571D01*
X108978000Y-103155428D01*
X109049428Y-103226857D01*
X109192285Y-103298285D01*
X109335142Y-103298285D01*
X109549428Y-103226857D01*
X110406571Y-102369714D01*
X110406571Y-103298285D01*
X108906571Y-103798285D02*
X108906571Y-104726857D01*
X109478000Y-104226857D01*
X109478000Y-104441142D01*
X109549428Y-104584000D01*
X109620857Y-104655428D01*
X109763714Y-104726857D01*
X110120857Y-104726857D01*
X110263714Y-104655428D01*
X110335142Y-104584000D01*
X110406571Y-104441142D01*
X110406571Y-104012571D01*
X110335142Y-103869714D01*
X110263714Y-103798285D01*
X90340571Y-96834000D02*
X88840571Y-96834000D01*
X89554857Y-96834000D02*
X89554857Y-97691142D01*
X90340571Y-97691142D02*
X88840571Y-97691142D01*
X90340571Y-99048285D02*
X89554857Y-99048285D01*
X89412000Y-98976857D01*
X89340571Y-98834000D01*
X89340571Y-98548285D01*
X89412000Y-98405428D01*
X90269142Y-99048285D02*
X90340571Y-98905428D01*
X90340571Y-98548285D01*
X90269142Y-98405428D01*
X90126285Y-98334000D01*
X89983428Y-98334000D01*
X89840571Y-98405428D01*
X89769142Y-98548285D01*
X89769142Y-98905428D01*
X89697714Y-99048285D01*
X90340571Y-99762571D02*
X89340571Y-99762571D01*
X89483428Y-99762571D02*
X89412000Y-99834000D01*
X89340571Y-99976857D01*
X89340571Y-100191142D01*
X89412000Y-100334000D01*
X89554857Y-100405428D01*
X90340571Y-100405428D01*
X89554857Y-100405428D02*
X89412000Y-100476857D01*
X89340571Y-100619714D01*
X89340571Y-100834000D01*
X89412000Y-100976857D01*
X89554857Y-101048285D01*
X90340571Y-101048285D01*
X90340571Y-101762571D02*
X89340571Y-101762571D01*
X88840571Y-101762571D02*
X88912000Y-101691142D01*
X88983428Y-101762571D01*
X88912000Y-101834000D01*
X88840571Y-101762571D01*
X88983428Y-101762571D01*
X90269142Y-102405428D02*
X90340571Y-102548285D01*
X90340571Y-102834000D01*
X90269142Y-102976857D01*
X90126285Y-103048285D01*
X90054857Y-103048285D01*
X89912000Y-102976857D01*
X89840571Y-102834000D01*
X89840571Y-102619714D01*
X89769142Y-102476857D01*
X89626285Y-102405428D01*
X89554857Y-102405428D01*
X89412000Y-102476857D01*
X89340571Y-102619714D01*
X89340571Y-102834000D01*
X89412000Y-102976857D01*
X90340571Y-103691142D02*
X88840571Y-103691142D01*
X90340571Y-104334000D02*
X89554857Y-104334000D01*
X89412000Y-104262571D01*
X89340571Y-104119714D01*
X89340571Y-103905428D01*
X89412000Y-103762571D01*
X89483428Y-103691142D01*
X98651142Y-96441142D02*
X98722571Y-96655428D01*
X98722571Y-97012571D01*
X98651142Y-97155428D01*
X98579714Y-97226857D01*
X98436857Y-97298285D01*
X98294000Y-97298285D01*
X98151142Y-97226857D01*
X98079714Y-97155428D01*
X98008285Y-97012571D01*
X97936857Y-96726857D01*
X97865428Y-96584000D01*
X97794000Y-96512571D01*
X97651142Y-96441142D01*
X97508285Y-96441142D01*
X97365428Y-96512571D01*
X97294000Y-96584000D01*
X97222571Y-96726857D01*
X97222571Y-97084000D01*
X97294000Y-97298285D01*
X97222571Y-98226857D02*
X97222571Y-98512571D01*
X97294000Y-98655428D01*
X97436857Y-98798285D01*
X97722571Y-98869714D01*
X98222571Y-98869714D01*
X98508285Y-98798285D01*
X98651142Y-98655428D01*
X98722571Y-98512571D01*
X98722571Y-98226857D01*
X98651142Y-98084000D01*
X98508285Y-97941142D01*
X98222571Y-97869714D01*
X97722571Y-97869714D01*
X97436857Y-97941142D01*
X97294000Y-98084000D01*
X97222571Y-98226857D01*
X97222571Y-99298285D02*
X97222571Y-100155428D01*
X98722571Y-99726857D02*
X97222571Y-99726857D01*
X98151142Y-100655428D02*
X98151142Y-101798285D01*
X97365428Y-102441142D02*
X97294000Y-102512571D01*
X97222571Y-102655428D01*
X97222571Y-103012571D01*
X97294000Y-103155428D01*
X97365428Y-103226857D01*
X97508285Y-103298285D01*
X97651142Y-103298285D01*
X97865428Y-103226857D01*
X98722571Y-102369714D01*
X98722571Y-103298285D01*
X97222571Y-103798285D02*
X97222571Y-104726857D01*
X97794000Y-104226857D01*
X97794000Y-104441142D01*
X97865428Y-104584000D01*
X97936857Y-104655428D01*
X98079714Y-104726857D01*
X98436857Y-104726857D01*
X98579714Y-104655428D01*
X98651142Y-104584000D01*
X98722571Y-104441142D01*
X98722571Y-104012571D01*
X98651142Y-103869714D01*
X98579714Y-103798285D01*
X78656571Y-96834000D02*
X77156571Y-96834000D01*
X77870857Y-96834000D02*
X77870857Y-97691142D01*
X78656571Y-97691142D02*
X77156571Y-97691142D01*
X78656571Y-99048285D02*
X77870857Y-99048285D01*
X77728000Y-98976857D01*
X77656571Y-98834000D01*
X77656571Y-98548285D01*
X77728000Y-98405428D01*
X78585142Y-99048285D02*
X78656571Y-98905428D01*
X78656571Y-98548285D01*
X78585142Y-98405428D01*
X78442285Y-98334000D01*
X78299428Y-98334000D01*
X78156571Y-98405428D01*
X78085142Y-98548285D01*
X78085142Y-98905428D01*
X78013714Y-99048285D01*
X78656571Y-99762571D02*
X77656571Y-99762571D01*
X77799428Y-99762571D02*
X77728000Y-99834000D01*
X77656571Y-99976857D01*
X77656571Y-100191142D01*
X77728000Y-100334000D01*
X77870857Y-100405428D01*
X78656571Y-100405428D01*
X77870857Y-100405428D02*
X77728000Y-100476857D01*
X77656571Y-100619714D01*
X77656571Y-100834000D01*
X77728000Y-100976857D01*
X77870857Y-101048285D01*
X78656571Y-101048285D01*
X78656571Y-101762571D02*
X77656571Y-101762571D01*
X77156571Y-101762571D02*
X77228000Y-101691142D01*
X77299428Y-101762571D01*
X77228000Y-101834000D01*
X77156571Y-101762571D01*
X77299428Y-101762571D01*
X78585142Y-102405428D02*
X78656571Y-102548285D01*
X78656571Y-102834000D01*
X78585142Y-102976857D01*
X78442285Y-103048285D01*
X78370857Y-103048285D01*
X78228000Y-102976857D01*
X78156571Y-102834000D01*
X78156571Y-102619714D01*
X78085142Y-102476857D01*
X77942285Y-102405428D01*
X77870857Y-102405428D01*
X77728000Y-102476857D01*
X77656571Y-102619714D01*
X77656571Y-102834000D01*
X77728000Y-102976857D01*
X78656571Y-103691142D02*
X77156571Y-103691142D01*
X78656571Y-104334000D02*
X77870857Y-104334000D01*
X77728000Y-104262571D01*
X77656571Y-104119714D01*
X77656571Y-103905428D01*
X77728000Y-103762571D01*
X77799428Y-103691142D01*
X102024571Y-96834000D02*
X100524571Y-96834000D01*
X101238857Y-96834000D02*
X101238857Y-97691142D01*
X102024571Y-97691142D02*
X100524571Y-97691142D01*
X102024571Y-99048285D02*
X101238857Y-99048285D01*
X101096000Y-98976857D01*
X101024571Y-98834000D01*
X101024571Y-98548285D01*
X101096000Y-98405428D01*
X101953142Y-99048285D02*
X102024571Y-98905428D01*
X102024571Y-98548285D01*
X101953142Y-98405428D01*
X101810285Y-98334000D01*
X101667428Y-98334000D01*
X101524571Y-98405428D01*
X101453142Y-98548285D01*
X101453142Y-98905428D01*
X101381714Y-99048285D01*
X102024571Y-99762571D02*
X101024571Y-99762571D01*
X101167428Y-99762571D02*
X101096000Y-99834000D01*
X101024571Y-99976857D01*
X101024571Y-100191142D01*
X101096000Y-100334000D01*
X101238857Y-100405428D01*
X102024571Y-100405428D01*
X101238857Y-100405428D02*
X101096000Y-100476857D01*
X101024571Y-100619714D01*
X101024571Y-100834000D01*
X101096000Y-100976857D01*
X101238857Y-101048285D01*
X102024571Y-101048285D01*
X102024571Y-101762571D02*
X101024571Y-101762571D01*
X100524571Y-101762571D02*
X100596000Y-101691142D01*
X100667428Y-101762571D01*
X100596000Y-101834000D01*
X100524571Y-101762571D01*
X100667428Y-101762571D01*
X101953142Y-102405428D02*
X102024571Y-102548285D01*
X102024571Y-102834000D01*
X101953142Y-102976857D01*
X101810285Y-103048285D01*
X101738857Y-103048285D01*
X101596000Y-102976857D01*
X101524571Y-102834000D01*
X101524571Y-102619714D01*
X101453142Y-102476857D01*
X101310285Y-102405428D01*
X101238857Y-102405428D01*
X101096000Y-102476857D01*
X101024571Y-102619714D01*
X101024571Y-102834000D01*
X101096000Y-102976857D01*
X102024571Y-103691142D02*
X100524571Y-103691142D01*
X102024571Y-104334000D02*
X101238857Y-104334000D01*
X101096000Y-104262571D01*
X101024571Y-104119714D01*
X101024571Y-103905428D01*
X101096000Y-103762571D01*
X101167428Y-103691142D01*
X113708571Y-96834000D02*
X112208571Y-96834000D01*
X112922857Y-96834000D02*
X112922857Y-97691142D01*
X113708571Y-97691142D02*
X112208571Y-97691142D01*
X113708571Y-99048285D02*
X112922857Y-99048285D01*
X112780000Y-98976857D01*
X112708571Y-98834000D01*
X112708571Y-98548285D01*
X112780000Y-98405428D01*
X113637142Y-99048285D02*
X113708571Y-98905428D01*
X113708571Y-98548285D01*
X113637142Y-98405428D01*
X113494285Y-98334000D01*
X113351428Y-98334000D01*
X113208571Y-98405428D01*
X113137142Y-98548285D01*
X113137142Y-98905428D01*
X113065714Y-99048285D01*
X113708571Y-99762571D02*
X112708571Y-99762571D01*
X112851428Y-99762571D02*
X112780000Y-99834000D01*
X112708571Y-99976857D01*
X112708571Y-100191142D01*
X112780000Y-100334000D01*
X112922857Y-100405428D01*
X113708571Y-100405428D01*
X112922857Y-100405428D02*
X112780000Y-100476857D01*
X112708571Y-100619714D01*
X112708571Y-100834000D01*
X112780000Y-100976857D01*
X112922857Y-101048285D01*
X113708571Y-101048285D01*
X113708571Y-101762571D02*
X112708571Y-101762571D01*
X112208571Y-101762571D02*
X112280000Y-101691142D01*
X112351428Y-101762571D01*
X112280000Y-101834000D01*
X112208571Y-101762571D01*
X112351428Y-101762571D01*
X113637142Y-102405428D02*
X113708571Y-102548285D01*
X113708571Y-102834000D01*
X113637142Y-102976857D01*
X113494285Y-103048285D01*
X113422857Y-103048285D01*
X113280000Y-102976857D01*
X113208571Y-102834000D01*
X113208571Y-102619714D01*
X113137142Y-102476857D01*
X112994285Y-102405428D01*
X112922857Y-102405428D01*
X112780000Y-102476857D01*
X112708571Y-102619714D01*
X112708571Y-102834000D01*
X112780000Y-102976857D01*
X113708571Y-103691142D02*
X112208571Y-103691142D01*
X113708571Y-104334000D02*
X112922857Y-104334000D01*
X112780000Y-104262571D01*
X112708571Y-104119714D01*
X112708571Y-103905428D01*
X112780000Y-103762571D01*
X112851428Y-103691142D01*
X75283142Y-96441142D02*
X75354571Y-96655428D01*
X75354571Y-97012571D01*
X75283142Y-97155428D01*
X75211714Y-97226857D01*
X75068857Y-97298285D01*
X74926000Y-97298285D01*
X74783142Y-97226857D01*
X74711714Y-97155428D01*
X74640285Y-97012571D01*
X74568857Y-96726857D01*
X74497428Y-96584000D01*
X74426000Y-96512571D01*
X74283142Y-96441142D01*
X74140285Y-96441142D01*
X73997428Y-96512571D01*
X73926000Y-96584000D01*
X73854571Y-96726857D01*
X73854571Y-97084000D01*
X73926000Y-97298285D01*
X73854571Y-98226857D02*
X73854571Y-98512571D01*
X73926000Y-98655428D01*
X74068857Y-98798285D01*
X74354571Y-98869714D01*
X74854571Y-98869714D01*
X75140285Y-98798285D01*
X75283142Y-98655428D01*
X75354571Y-98512571D01*
X75354571Y-98226857D01*
X75283142Y-98084000D01*
X75140285Y-97941142D01*
X74854571Y-97869714D01*
X74354571Y-97869714D01*
X74068857Y-97941142D01*
X73926000Y-98084000D01*
X73854571Y-98226857D01*
X73854571Y-99298285D02*
X73854571Y-100155428D01*
X75354571Y-99726857D02*
X73854571Y-99726857D01*
X74783142Y-100655428D02*
X74783142Y-101798285D01*
X73997428Y-102441142D02*
X73926000Y-102512571D01*
X73854571Y-102655428D01*
X73854571Y-103012571D01*
X73926000Y-103155428D01*
X73997428Y-103226857D01*
X74140285Y-103298285D01*
X74283142Y-103298285D01*
X74497428Y-103226857D01*
X75354571Y-102369714D01*
X75354571Y-103298285D01*
X73854571Y-103798285D02*
X73854571Y-104726857D01*
X74426000Y-104226857D01*
X74426000Y-104441142D01*
X74497428Y-104584000D01*
X74568857Y-104655428D01*
X74711714Y-104726857D01*
X75068857Y-104726857D01*
X75211714Y-104655428D01*
X75283142Y-104584000D01*
X75354571Y-104441142D01*
X75354571Y-104012571D01*
X75283142Y-103869714D01*
X75211714Y-103798285D01*
X86967142Y-96441142D02*
X87038571Y-96655428D01*
X87038571Y-97012571D01*
X86967142Y-97155428D01*
X86895714Y-97226857D01*
X86752857Y-97298285D01*
X86610000Y-97298285D01*
X86467142Y-97226857D01*
X86395714Y-97155428D01*
X86324285Y-97012571D01*
X86252857Y-96726857D01*
X86181428Y-96584000D01*
X86110000Y-96512571D01*
X85967142Y-96441142D01*
X85824285Y-96441142D01*
X85681428Y-96512571D01*
X85610000Y-96584000D01*
X85538571Y-96726857D01*
X85538571Y-97084000D01*
X85610000Y-97298285D01*
X85538571Y-98226857D02*
X85538571Y-98512571D01*
X85610000Y-98655428D01*
X85752857Y-98798285D01*
X86038571Y-98869714D01*
X86538571Y-98869714D01*
X86824285Y-98798285D01*
X86967142Y-98655428D01*
X87038571Y-98512571D01*
X87038571Y-98226857D01*
X86967142Y-98084000D01*
X86824285Y-97941142D01*
X86538571Y-97869714D01*
X86038571Y-97869714D01*
X85752857Y-97941142D01*
X85610000Y-98084000D01*
X85538571Y-98226857D01*
X85538571Y-99298285D02*
X85538571Y-100155428D01*
X87038571Y-99726857D02*
X85538571Y-99726857D01*
X86467142Y-100655428D02*
X86467142Y-101798285D01*
X85681428Y-102441142D02*
X85610000Y-102512571D01*
X85538571Y-102655428D01*
X85538571Y-103012571D01*
X85610000Y-103155428D01*
X85681428Y-103226857D01*
X85824285Y-103298285D01*
X85967142Y-103298285D01*
X86181428Y-103226857D01*
X87038571Y-102369714D01*
X87038571Y-103298285D01*
X85538571Y-103798285D02*
X85538571Y-104726857D01*
X86110000Y-104226857D01*
X86110000Y-104441142D01*
X86181428Y-104584000D01*
X86252857Y-104655428D01*
X86395714Y-104726857D01*
X86752857Y-104726857D01*
X86895714Y-104655428D01*
X86967142Y-104584000D01*
X87038571Y-104441142D01*
X87038571Y-104012571D01*
X86967142Y-103869714D01*
X86895714Y-103798285D01*
X66972571Y-96834000D02*
X65472571Y-96834000D01*
X66186857Y-96834000D02*
X66186857Y-97691142D01*
X66972571Y-97691142D02*
X65472571Y-97691142D01*
X66972571Y-99048285D02*
X66186857Y-99048285D01*
X66044000Y-98976857D01*
X65972571Y-98834000D01*
X65972571Y-98548285D01*
X66044000Y-98405428D01*
X66901142Y-99048285D02*
X66972571Y-98905428D01*
X66972571Y-98548285D01*
X66901142Y-98405428D01*
X66758285Y-98334000D01*
X66615428Y-98334000D01*
X66472571Y-98405428D01*
X66401142Y-98548285D01*
X66401142Y-98905428D01*
X66329714Y-99048285D01*
X66972571Y-99762571D02*
X65972571Y-99762571D01*
X66115428Y-99762571D02*
X66044000Y-99834000D01*
X65972571Y-99976857D01*
X65972571Y-100191142D01*
X66044000Y-100334000D01*
X66186857Y-100405428D01*
X66972571Y-100405428D01*
X66186857Y-100405428D02*
X66044000Y-100476857D01*
X65972571Y-100619714D01*
X65972571Y-100834000D01*
X66044000Y-100976857D01*
X66186857Y-101048285D01*
X66972571Y-101048285D01*
X66972571Y-101762571D02*
X65972571Y-101762571D01*
X65472571Y-101762571D02*
X65544000Y-101691142D01*
X65615428Y-101762571D01*
X65544000Y-101834000D01*
X65472571Y-101762571D01*
X65615428Y-101762571D01*
X66901142Y-102405428D02*
X66972571Y-102548285D01*
X66972571Y-102834000D01*
X66901142Y-102976857D01*
X66758285Y-103048285D01*
X66686857Y-103048285D01*
X66544000Y-102976857D01*
X66472571Y-102834000D01*
X66472571Y-102619714D01*
X66401142Y-102476857D01*
X66258285Y-102405428D01*
X66186857Y-102405428D01*
X66044000Y-102476857D01*
X65972571Y-102619714D01*
X65972571Y-102834000D01*
X66044000Y-102976857D01*
X66972571Y-103691142D02*
X65472571Y-103691142D01*
X66972571Y-104334000D02*
X66186857Y-104334000D01*
X66044000Y-104262571D01*
X65972571Y-104119714D01*
X65972571Y-103905428D01*
X66044000Y-103762571D01*
X66115428Y-103691142D01*
X63599142Y-96441142D02*
X63670571Y-96655428D01*
X63670571Y-97012571D01*
X63599142Y-97155428D01*
X63527714Y-97226857D01*
X63384857Y-97298285D01*
X63242000Y-97298285D01*
X63099142Y-97226857D01*
X63027714Y-97155428D01*
X62956285Y-97012571D01*
X62884857Y-96726857D01*
X62813428Y-96584000D01*
X62742000Y-96512571D01*
X62599142Y-96441142D01*
X62456285Y-96441142D01*
X62313428Y-96512571D01*
X62242000Y-96584000D01*
X62170571Y-96726857D01*
X62170571Y-97084000D01*
X62242000Y-97298285D01*
X62170571Y-98226857D02*
X62170571Y-98512571D01*
X62242000Y-98655428D01*
X62384857Y-98798285D01*
X62670571Y-98869714D01*
X63170571Y-98869714D01*
X63456285Y-98798285D01*
X63599142Y-98655428D01*
X63670571Y-98512571D01*
X63670571Y-98226857D01*
X63599142Y-98084000D01*
X63456285Y-97941142D01*
X63170571Y-97869714D01*
X62670571Y-97869714D01*
X62384857Y-97941142D01*
X62242000Y-98084000D01*
X62170571Y-98226857D01*
X62170571Y-99298285D02*
X62170571Y-100155428D01*
X63670571Y-99726857D02*
X62170571Y-99726857D01*
X63099142Y-100655428D02*
X63099142Y-101798285D01*
X62313428Y-102441142D02*
X62242000Y-102512571D01*
X62170571Y-102655428D01*
X62170571Y-103012571D01*
X62242000Y-103155428D01*
X62313428Y-103226857D01*
X62456285Y-103298285D01*
X62599142Y-103298285D01*
X62813428Y-103226857D01*
X63670571Y-102369714D01*
X63670571Y-103298285D01*
X62170571Y-103798285D02*
X62170571Y-104726857D01*
X62742000Y-104226857D01*
X62742000Y-104441142D01*
X62813428Y-104584000D01*
X62884857Y-104655428D01*
X63027714Y-104726857D01*
X63384857Y-104726857D01*
X63527714Y-104655428D01*
X63599142Y-104584000D01*
X63670571Y-104441142D01*
X63670571Y-104012571D01*
X63599142Y-103869714D01*
X63527714Y-103798285D01*
X55288571Y-96834000D02*
X53788571Y-96834000D01*
X54502857Y-96834000D02*
X54502857Y-97691142D01*
X55288571Y-97691142D02*
X53788571Y-97691142D01*
X55288571Y-99048285D02*
X54502857Y-99048285D01*
X54360000Y-98976857D01*
X54288571Y-98834000D01*
X54288571Y-98548285D01*
X54360000Y-98405428D01*
X55217142Y-99048285D02*
X55288571Y-98905428D01*
X55288571Y-98548285D01*
X55217142Y-98405428D01*
X55074285Y-98334000D01*
X54931428Y-98334000D01*
X54788571Y-98405428D01*
X54717142Y-98548285D01*
X54717142Y-98905428D01*
X54645714Y-99048285D01*
X55288571Y-99762571D02*
X54288571Y-99762571D01*
X54431428Y-99762571D02*
X54360000Y-99834000D01*
X54288571Y-99976857D01*
X54288571Y-100191142D01*
X54360000Y-100334000D01*
X54502857Y-100405428D01*
X55288571Y-100405428D01*
X54502857Y-100405428D02*
X54360000Y-100476857D01*
X54288571Y-100619714D01*
X54288571Y-100834000D01*
X54360000Y-100976857D01*
X54502857Y-101048285D01*
X55288571Y-101048285D01*
X55288571Y-101762571D02*
X54288571Y-101762571D01*
X53788571Y-101762571D02*
X53860000Y-101691142D01*
X53931428Y-101762571D01*
X53860000Y-101834000D01*
X53788571Y-101762571D01*
X53931428Y-101762571D01*
X55217142Y-102405428D02*
X55288571Y-102548285D01*
X55288571Y-102834000D01*
X55217142Y-102976857D01*
X55074285Y-103048285D01*
X55002857Y-103048285D01*
X54860000Y-102976857D01*
X54788571Y-102834000D01*
X54788571Y-102619714D01*
X54717142Y-102476857D01*
X54574285Y-102405428D01*
X54502857Y-102405428D01*
X54360000Y-102476857D01*
X54288571Y-102619714D01*
X54288571Y-102834000D01*
X54360000Y-102976857D01*
X55288571Y-103691142D02*
X53788571Y-103691142D01*
X55288571Y-104334000D02*
X54502857Y-104334000D01*
X54360000Y-104262571D01*
X54288571Y-104119714D01*
X54288571Y-103905428D01*
X54360000Y-103762571D01*
X54431428Y-103691142D01*
X51915142Y-96441142D02*
X51986571Y-96655428D01*
X51986571Y-97012571D01*
X51915142Y-97155428D01*
X51843714Y-97226857D01*
X51700857Y-97298285D01*
X51558000Y-97298285D01*
X51415142Y-97226857D01*
X51343714Y-97155428D01*
X51272285Y-97012571D01*
X51200857Y-96726857D01*
X51129428Y-96584000D01*
X51058000Y-96512571D01*
X50915142Y-96441142D01*
X50772285Y-96441142D01*
X50629428Y-96512571D01*
X50558000Y-96584000D01*
X50486571Y-96726857D01*
X50486571Y-97084000D01*
X50558000Y-97298285D01*
X50486571Y-98226857D02*
X50486571Y-98512571D01*
X50558000Y-98655428D01*
X50700857Y-98798285D01*
X50986571Y-98869714D01*
X51486571Y-98869714D01*
X51772285Y-98798285D01*
X51915142Y-98655428D01*
X51986571Y-98512571D01*
X51986571Y-98226857D01*
X51915142Y-98084000D01*
X51772285Y-97941142D01*
X51486571Y-97869714D01*
X50986571Y-97869714D01*
X50700857Y-97941142D01*
X50558000Y-98084000D01*
X50486571Y-98226857D01*
X50486571Y-99298285D02*
X50486571Y-100155428D01*
X51986571Y-99726857D02*
X50486571Y-99726857D01*
X51415142Y-100655428D02*
X51415142Y-101798285D01*
X50629428Y-102441142D02*
X50558000Y-102512571D01*
X50486571Y-102655428D01*
X50486571Y-103012571D01*
X50558000Y-103155428D01*
X50629428Y-103226857D01*
X50772285Y-103298285D01*
X50915142Y-103298285D01*
X51129428Y-103226857D01*
X51986571Y-102369714D01*
X51986571Y-103298285D01*
X50486571Y-103798285D02*
X50486571Y-104726857D01*
X51058000Y-104226857D01*
X51058000Y-104441142D01*
X51129428Y-104584000D01*
X51200857Y-104655428D01*
X51343714Y-104726857D01*
X51700857Y-104726857D01*
X51843714Y-104655428D01*
X51915142Y-104584000D01*
X51986571Y-104441142D01*
X51986571Y-104012571D01*
X51915142Y-103869714D01*
X51843714Y-103798285D01*
X31920571Y-96834000D02*
X30420571Y-96834000D01*
X31134857Y-96834000D02*
X31134857Y-97691142D01*
X31920571Y-97691142D02*
X30420571Y-97691142D01*
X31920571Y-99048285D02*
X31134857Y-99048285D01*
X30992000Y-98976857D01*
X30920571Y-98834000D01*
X30920571Y-98548285D01*
X30992000Y-98405428D01*
X31849142Y-99048285D02*
X31920571Y-98905428D01*
X31920571Y-98548285D01*
X31849142Y-98405428D01*
X31706285Y-98334000D01*
X31563428Y-98334000D01*
X31420571Y-98405428D01*
X31349142Y-98548285D01*
X31349142Y-98905428D01*
X31277714Y-99048285D01*
X31920571Y-99762571D02*
X30920571Y-99762571D01*
X31063428Y-99762571D02*
X30992000Y-99834000D01*
X30920571Y-99976857D01*
X30920571Y-100191142D01*
X30992000Y-100334000D01*
X31134857Y-100405428D01*
X31920571Y-100405428D01*
X31134857Y-100405428D02*
X30992000Y-100476857D01*
X30920571Y-100619714D01*
X30920571Y-100834000D01*
X30992000Y-100976857D01*
X31134857Y-101048285D01*
X31920571Y-101048285D01*
X31920571Y-101762571D02*
X30920571Y-101762571D01*
X30420571Y-101762571D02*
X30492000Y-101691142D01*
X30563428Y-101762571D01*
X30492000Y-101834000D01*
X30420571Y-101762571D01*
X30563428Y-101762571D01*
X31849142Y-102405428D02*
X31920571Y-102548285D01*
X31920571Y-102834000D01*
X31849142Y-102976857D01*
X31706285Y-103048285D01*
X31634857Y-103048285D01*
X31492000Y-102976857D01*
X31420571Y-102834000D01*
X31420571Y-102619714D01*
X31349142Y-102476857D01*
X31206285Y-102405428D01*
X31134857Y-102405428D01*
X30992000Y-102476857D01*
X30920571Y-102619714D01*
X30920571Y-102834000D01*
X30992000Y-102976857D01*
X31920571Y-103691142D02*
X30420571Y-103691142D01*
X31920571Y-104334000D02*
X31134857Y-104334000D01*
X30992000Y-104262571D01*
X30920571Y-104119714D01*
X30920571Y-103905428D01*
X30992000Y-103762571D01*
X31063428Y-103691142D01*
X28547142Y-96441142D02*
X28618571Y-96655428D01*
X28618571Y-97012571D01*
X28547142Y-97155428D01*
X28475714Y-97226857D01*
X28332857Y-97298285D01*
X28190000Y-97298285D01*
X28047142Y-97226857D01*
X27975714Y-97155428D01*
X27904285Y-97012571D01*
X27832857Y-96726857D01*
X27761428Y-96584000D01*
X27690000Y-96512571D01*
X27547142Y-96441142D01*
X27404285Y-96441142D01*
X27261428Y-96512571D01*
X27190000Y-96584000D01*
X27118571Y-96726857D01*
X27118571Y-97084000D01*
X27190000Y-97298285D01*
X27118571Y-98226857D02*
X27118571Y-98512571D01*
X27190000Y-98655428D01*
X27332857Y-98798285D01*
X27618571Y-98869714D01*
X28118571Y-98869714D01*
X28404285Y-98798285D01*
X28547142Y-98655428D01*
X28618571Y-98512571D01*
X28618571Y-98226857D01*
X28547142Y-98084000D01*
X28404285Y-97941142D01*
X28118571Y-97869714D01*
X27618571Y-97869714D01*
X27332857Y-97941142D01*
X27190000Y-98084000D01*
X27118571Y-98226857D01*
X27118571Y-99298285D02*
X27118571Y-100155428D01*
X28618571Y-99726857D02*
X27118571Y-99726857D01*
X28047142Y-100655428D02*
X28047142Y-101798285D01*
X27261428Y-102441142D02*
X27190000Y-102512571D01*
X27118571Y-102655428D01*
X27118571Y-103012571D01*
X27190000Y-103155428D01*
X27261428Y-103226857D01*
X27404285Y-103298285D01*
X27547142Y-103298285D01*
X27761428Y-103226857D01*
X28618571Y-102369714D01*
X28618571Y-103298285D01*
X27118571Y-103798285D02*
X27118571Y-104726857D01*
X27690000Y-104226857D01*
X27690000Y-104441142D01*
X27761428Y-104584000D01*
X27832857Y-104655428D01*
X27975714Y-104726857D01*
X28332857Y-104726857D01*
X28475714Y-104655428D01*
X28547142Y-104584000D01*
X28618571Y-104441142D01*
X28618571Y-104012571D01*
X28547142Y-103869714D01*
X28475714Y-103798285D01*
X40231142Y-96441142D02*
X40302571Y-96655428D01*
X40302571Y-97012571D01*
X40231142Y-97155428D01*
X40159714Y-97226857D01*
X40016857Y-97298285D01*
X39874000Y-97298285D01*
X39731142Y-97226857D01*
X39659714Y-97155428D01*
X39588285Y-97012571D01*
X39516857Y-96726857D01*
X39445428Y-96584000D01*
X39374000Y-96512571D01*
X39231142Y-96441142D01*
X39088285Y-96441142D01*
X38945428Y-96512571D01*
X38874000Y-96584000D01*
X38802571Y-96726857D01*
X38802571Y-97084000D01*
X38874000Y-97298285D01*
X38802571Y-98226857D02*
X38802571Y-98512571D01*
X38874000Y-98655428D01*
X39016857Y-98798285D01*
X39302571Y-98869714D01*
X39802571Y-98869714D01*
X40088285Y-98798285D01*
X40231142Y-98655428D01*
X40302571Y-98512571D01*
X40302571Y-98226857D01*
X40231142Y-98084000D01*
X40088285Y-97941142D01*
X39802571Y-97869714D01*
X39302571Y-97869714D01*
X39016857Y-97941142D01*
X38874000Y-98084000D01*
X38802571Y-98226857D01*
X38802571Y-99298285D02*
X38802571Y-100155428D01*
X40302571Y-99726857D02*
X38802571Y-99726857D01*
X39731142Y-100655428D02*
X39731142Y-101798285D01*
X38945428Y-102441142D02*
X38874000Y-102512571D01*
X38802571Y-102655428D01*
X38802571Y-103012571D01*
X38874000Y-103155428D01*
X38945428Y-103226857D01*
X39088285Y-103298285D01*
X39231142Y-103298285D01*
X39445428Y-103226857D01*
X40302571Y-102369714D01*
X40302571Y-103298285D01*
X38802571Y-103798285D02*
X38802571Y-104726857D01*
X39374000Y-104226857D01*
X39374000Y-104441142D01*
X39445428Y-104584000D01*
X39516857Y-104655428D01*
X39659714Y-104726857D01*
X40016857Y-104726857D01*
X40159714Y-104655428D01*
X40231142Y-104584000D01*
X40302571Y-104441142D01*
X40302571Y-104012571D01*
X40231142Y-103869714D01*
X40159714Y-103798285D01*
X43604571Y-96834000D02*
X42104571Y-96834000D01*
X42818857Y-96834000D02*
X42818857Y-97691142D01*
X43604571Y-97691142D02*
X42104571Y-97691142D01*
X43604571Y-99048285D02*
X42818857Y-99048285D01*
X42676000Y-98976857D01*
X42604571Y-98834000D01*
X42604571Y-98548285D01*
X42676000Y-98405428D01*
X43533142Y-99048285D02*
X43604571Y-98905428D01*
X43604571Y-98548285D01*
X43533142Y-98405428D01*
X43390285Y-98334000D01*
X43247428Y-98334000D01*
X43104571Y-98405428D01*
X43033142Y-98548285D01*
X43033142Y-98905428D01*
X42961714Y-99048285D01*
X43604571Y-99762571D02*
X42604571Y-99762571D01*
X42747428Y-99762571D02*
X42676000Y-99834000D01*
X42604571Y-99976857D01*
X42604571Y-100191142D01*
X42676000Y-100334000D01*
X42818857Y-100405428D01*
X43604571Y-100405428D01*
X42818857Y-100405428D02*
X42676000Y-100476857D01*
X42604571Y-100619714D01*
X42604571Y-100834000D01*
X42676000Y-100976857D01*
X42818857Y-101048285D01*
X43604571Y-101048285D01*
X43604571Y-101762571D02*
X42604571Y-101762571D01*
X42104571Y-101762571D02*
X42176000Y-101691142D01*
X42247428Y-101762571D01*
X42176000Y-101834000D01*
X42104571Y-101762571D01*
X42247428Y-101762571D01*
X43533142Y-102405428D02*
X43604571Y-102548285D01*
X43604571Y-102834000D01*
X43533142Y-102976857D01*
X43390285Y-103048285D01*
X43318857Y-103048285D01*
X43176000Y-102976857D01*
X43104571Y-102834000D01*
X43104571Y-102619714D01*
X43033142Y-102476857D01*
X42890285Y-102405428D01*
X42818857Y-102405428D01*
X42676000Y-102476857D01*
X42604571Y-102619714D01*
X42604571Y-102834000D01*
X42676000Y-102976857D01*
X43604571Y-103691142D02*
X42104571Y-103691142D01*
X43604571Y-104334000D02*
X42818857Y-104334000D01*
X42676000Y-104262571D01*
X42604571Y-104119714D01*
X42604571Y-103905428D01*
X42676000Y-103762571D01*
X42747428Y-103691142D01*
X28547142Y-110665142D02*
X28618571Y-110879428D01*
X28618571Y-111236571D01*
X28547142Y-111379428D01*
X28475714Y-111450857D01*
X28332857Y-111522285D01*
X28190000Y-111522285D01*
X28047142Y-111450857D01*
X27975714Y-111379428D01*
X27904285Y-111236571D01*
X27832857Y-110950857D01*
X27761428Y-110808000D01*
X27690000Y-110736571D01*
X27547142Y-110665142D01*
X27404285Y-110665142D01*
X27261428Y-110736571D01*
X27190000Y-110808000D01*
X27118571Y-110950857D01*
X27118571Y-111308000D01*
X27190000Y-111522285D01*
X27118571Y-112450857D02*
X27118571Y-112736571D01*
X27190000Y-112879428D01*
X27332857Y-113022285D01*
X27618571Y-113093714D01*
X28118571Y-113093714D01*
X28404285Y-113022285D01*
X28547142Y-112879428D01*
X28618571Y-112736571D01*
X28618571Y-112450857D01*
X28547142Y-112308000D01*
X28404285Y-112165142D01*
X28118571Y-112093714D01*
X27618571Y-112093714D01*
X27332857Y-112165142D01*
X27190000Y-112308000D01*
X27118571Y-112450857D01*
X27118571Y-113522285D02*
X27118571Y-114379428D01*
X28618571Y-113950857D02*
X27118571Y-113950857D01*
X28047142Y-114879428D02*
X28047142Y-116022285D01*
X27261428Y-116665142D02*
X27190000Y-116736571D01*
X27118571Y-116879428D01*
X27118571Y-117236571D01*
X27190000Y-117379428D01*
X27261428Y-117450857D01*
X27404285Y-117522285D01*
X27547142Y-117522285D01*
X27761428Y-117450857D01*
X28618571Y-116593714D01*
X28618571Y-117522285D01*
X27118571Y-118022285D02*
X27118571Y-118950857D01*
X27690000Y-118450857D01*
X27690000Y-118665142D01*
X27761428Y-118808000D01*
X27832857Y-118879428D01*
X27975714Y-118950857D01*
X28332857Y-118950857D01*
X28475714Y-118879428D01*
X28547142Y-118808000D01*
X28618571Y-118665142D01*
X28618571Y-118236571D01*
X28547142Y-118093714D01*
X28475714Y-118022285D01*
X31920571Y-111058000D02*
X30420571Y-111058000D01*
X31134857Y-111058000D02*
X31134857Y-111915142D01*
X31920571Y-111915142D02*
X30420571Y-111915142D01*
X31920571Y-113272285D02*
X31134857Y-113272285D01*
X30992000Y-113200857D01*
X30920571Y-113058000D01*
X30920571Y-112772285D01*
X30992000Y-112629428D01*
X31849142Y-113272285D02*
X31920571Y-113129428D01*
X31920571Y-112772285D01*
X31849142Y-112629428D01*
X31706285Y-112558000D01*
X31563428Y-112558000D01*
X31420571Y-112629428D01*
X31349142Y-112772285D01*
X31349142Y-113129428D01*
X31277714Y-113272285D01*
X31920571Y-113986571D02*
X30920571Y-113986571D01*
X31063428Y-113986571D02*
X30992000Y-114058000D01*
X30920571Y-114200857D01*
X30920571Y-114415142D01*
X30992000Y-114558000D01*
X31134857Y-114629428D01*
X31920571Y-114629428D01*
X31134857Y-114629428D02*
X30992000Y-114700857D01*
X30920571Y-114843714D01*
X30920571Y-115058000D01*
X30992000Y-115200857D01*
X31134857Y-115272285D01*
X31920571Y-115272285D01*
X31920571Y-115986571D02*
X30920571Y-115986571D01*
X30420571Y-115986571D02*
X30492000Y-115915142D01*
X30563428Y-115986571D01*
X30492000Y-116058000D01*
X30420571Y-115986571D01*
X30563428Y-115986571D01*
X31849142Y-116629428D02*
X31920571Y-116772285D01*
X31920571Y-117058000D01*
X31849142Y-117200857D01*
X31706285Y-117272285D01*
X31634857Y-117272285D01*
X31492000Y-117200857D01*
X31420571Y-117058000D01*
X31420571Y-116843714D01*
X31349142Y-116700857D01*
X31206285Y-116629428D01*
X31134857Y-116629428D01*
X30992000Y-116700857D01*
X30920571Y-116843714D01*
X30920571Y-117058000D01*
X30992000Y-117200857D01*
X31920571Y-117915142D02*
X30420571Y-117915142D01*
X31920571Y-118558000D02*
X31134857Y-118558000D01*
X30992000Y-118486571D01*
X30920571Y-118343714D01*
X30920571Y-118129428D01*
X30992000Y-117986571D01*
X31063428Y-117915142D01*
X110335142Y-110665142D02*
X110406571Y-110879428D01*
X110406571Y-111236571D01*
X110335142Y-111379428D01*
X110263714Y-111450857D01*
X110120857Y-111522285D01*
X109978000Y-111522285D01*
X109835142Y-111450857D01*
X109763714Y-111379428D01*
X109692285Y-111236571D01*
X109620857Y-110950857D01*
X109549428Y-110808000D01*
X109478000Y-110736571D01*
X109335142Y-110665142D01*
X109192285Y-110665142D01*
X109049428Y-110736571D01*
X108978000Y-110808000D01*
X108906571Y-110950857D01*
X108906571Y-111308000D01*
X108978000Y-111522285D01*
X108906571Y-112450857D02*
X108906571Y-112736571D01*
X108978000Y-112879428D01*
X109120857Y-113022285D01*
X109406571Y-113093714D01*
X109906571Y-113093714D01*
X110192285Y-113022285D01*
X110335142Y-112879428D01*
X110406571Y-112736571D01*
X110406571Y-112450857D01*
X110335142Y-112308000D01*
X110192285Y-112165142D01*
X109906571Y-112093714D01*
X109406571Y-112093714D01*
X109120857Y-112165142D01*
X108978000Y-112308000D01*
X108906571Y-112450857D01*
X108906571Y-113522285D02*
X108906571Y-114379428D01*
X110406571Y-113950857D02*
X108906571Y-113950857D01*
X109835142Y-114879428D02*
X109835142Y-116022285D01*
X109049428Y-116665142D02*
X108978000Y-116736571D01*
X108906571Y-116879428D01*
X108906571Y-117236571D01*
X108978000Y-117379428D01*
X109049428Y-117450857D01*
X109192285Y-117522285D01*
X109335142Y-117522285D01*
X109549428Y-117450857D01*
X110406571Y-116593714D01*
X110406571Y-117522285D01*
X108906571Y-118022285D02*
X108906571Y-118950857D01*
X109478000Y-118450857D01*
X109478000Y-118665142D01*
X109549428Y-118808000D01*
X109620857Y-118879428D01*
X109763714Y-118950857D01*
X110120857Y-118950857D01*
X110263714Y-118879428D01*
X110335142Y-118808000D01*
X110406571Y-118665142D01*
X110406571Y-118236571D01*
X110335142Y-118093714D01*
X110263714Y-118022285D01*
X102024571Y-111058000D02*
X100524571Y-111058000D01*
X101238857Y-111058000D02*
X101238857Y-111915142D01*
X102024571Y-111915142D02*
X100524571Y-111915142D01*
X102024571Y-113272285D02*
X101238857Y-113272285D01*
X101096000Y-113200857D01*
X101024571Y-113058000D01*
X101024571Y-112772285D01*
X101096000Y-112629428D01*
X101953142Y-113272285D02*
X102024571Y-113129428D01*
X102024571Y-112772285D01*
X101953142Y-112629428D01*
X101810285Y-112558000D01*
X101667428Y-112558000D01*
X101524571Y-112629428D01*
X101453142Y-112772285D01*
X101453142Y-113129428D01*
X101381714Y-113272285D01*
X102024571Y-113986571D02*
X101024571Y-113986571D01*
X101167428Y-113986571D02*
X101096000Y-114058000D01*
X101024571Y-114200857D01*
X101024571Y-114415142D01*
X101096000Y-114558000D01*
X101238857Y-114629428D01*
X102024571Y-114629428D01*
X101238857Y-114629428D02*
X101096000Y-114700857D01*
X101024571Y-114843714D01*
X101024571Y-115058000D01*
X101096000Y-115200857D01*
X101238857Y-115272285D01*
X102024571Y-115272285D01*
X102024571Y-115986571D02*
X101024571Y-115986571D01*
X100524571Y-115986571D02*
X100596000Y-115915142D01*
X100667428Y-115986571D01*
X100596000Y-116058000D01*
X100524571Y-115986571D01*
X100667428Y-115986571D01*
X101953142Y-116629428D02*
X102024571Y-116772285D01*
X102024571Y-117058000D01*
X101953142Y-117200857D01*
X101810285Y-117272285D01*
X101738857Y-117272285D01*
X101596000Y-117200857D01*
X101524571Y-117058000D01*
X101524571Y-116843714D01*
X101453142Y-116700857D01*
X101310285Y-116629428D01*
X101238857Y-116629428D01*
X101096000Y-116700857D01*
X101024571Y-116843714D01*
X101024571Y-117058000D01*
X101096000Y-117200857D01*
X102024571Y-117915142D02*
X100524571Y-117915142D01*
X102024571Y-118558000D02*
X101238857Y-118558000D01*
X101096000Y-118486571D01*
X101024571Y-118343714D01*
X101024571Y-118129428D01*
X101096000Y-117986571D01*
X101167428Y-117915142D01*
X113708571Y-111058000D02*
X112208571Y-111058000D01*
X112922857Y-111058000D02*
X112922857Y-111915142D01*
X113708571Y-111915142D02*
X112208571Y-111915142D01*
X113708571Y-113272285D02*
X112922857Y-113272285D01*
X112780000Y-113200857D01*
X112708571Y-113058000D01*
X112708571Y-112772285D01*
X112780000Y-112629428D01*
X113637142Y-113272285D02*
X113708571Y-113129428D01*
X113708571Y-112772285D01*
X113637142Y-112629428D01*
X113494285Y-112558000D01*
X113351428Y-112558000D01*
X113208571Y-112629428D01*
X113137142Y-112772285D01*
X113137142Y-113129428D01*
X113065714Y-113272285D01*
X113708571Y-113986571D02*
X112708571Y-113986571D01*
X112851428Y-113986571D02*
X112780000Y-114058000D01*
X112708571Y-114200857D01*
X112708571Y-114415142D01*
X112780000Y-114558000D01*
X112922857Y-114629428D01*
X113708571Y-114629428D01*
X112922857Y-114629428D02*
X112780000Y-114700857D01*
X112708571Y-114843714D01*
X112708571Y-115058000D01*
X112780000Y-115200857D01*
X112922857Y-115272285D01*
X113708571Y-115272285D01*
X113708571Y-115986571D02*
X112708571Y-115986571D01*
X112208571Y-115986571D02*
X112280000Y-115915142D01*
X112351428Y-115986571D01*
X112280000Y-116058000D01*
X112208571Y-115986571D01*
X112351428Y-115986571D01*
X113637142Y-116629428D02*
X113708571Y-116772285D01*
X113708571Y-117058000D01*
X113637142Y-117200857D01*
X113494285Y-117272285D01*
X113422857Y-117272285D01*
X113280000Y-117200857D01*
X113208571Y-117058000D01*
X113208571Y-116843714D01*
X113137142Y-116700857D01*
X112994285Y-116629428D01*
X112922857Y-116629428D01*
X112780000Y-116700857D01*
X112708571Y-116843714D01*
X112708571Y-117058000D01*
X112780000Y-117200857D01*
X113708571Y-117915142D02*
X112208571Y-117915142D01*
X113708571Y-118558000D02*
X112922857Y-118558000D01*
X112780000Y-118486571D01*
X112708571Y-118343714D01*
X112708571Y-118129428D01*
X112780000Y-117986571D01*
X112851428Y-117915142D01*
X98651142Y-110665142D02*
X98722571Y-110879428D01*
X98722571Y-111236571D01*
X98651142Y-111379428D01*
X98579714Y-111450857D01*
X98436857Y-111522285D01*
X98294000Y-111522285D01*
X98151142Y-111450857D01*
X98079714Y-111379428D01*
X98008285Y-111236571D01*
X97936857Y-110950857D01*
X97865428Y-110808000D01*
X97794000Y-110736571D01*
X97651142Y-110665142D01*
X97508285Y-110665142D01*
X97365428Y-110736571D01*
X97294000Y-110808000D01*
X97222571Y-110950857D01*
X97222571Y-111308000D01*
X97294000Y-111522285D01*
X97222571Y-112450857D02*
X97222571Y-112736571D01*
X97294000Y-112879428D01*
X97436857Y-113022285D01*
X97722571Y-113093714D01*
X98222571Y-113093714D01*
X98508285Y-113022285D01*
X98651142Y-112879428D01*
X98722571Y-112736571D01*
X98722571Y-112450857D01*
X98651142Y-112308000D01*
X98508285Y-112165142D01*
X98222571Y-112093714D01*
X97722571Y-112093714D01*
X97436857Y-112165142D01*
X97294000Y-112308000D01*
X97222571Y-112450857D01*
X97222571Y-113522285D02*
X97222571Y-114379428D01*
X98722571Y-113950857D02*
X97222571Y-113950857D01*
X98151142Y-114879428D02*
X98151142Y-116022285D01*
X97365428Y-116665142D02*
X97294000Y-116736571D01*
X97222571Y-116879428D01*
X97222571Y-117236571D01*
X97294000Y-117379428D01*
X97365428Y-117450857D01*
X97508285Y-117522285D01*
X97651142Y-117522285D01*
X97865428Y-117450857D01*
X98722571Y-116593714D01*
X98722571Y-117522285D01*
X97222571Y-118022285D02*
X97222571Y-118950857D01*
X97794000Y-118450857D01*
X97794000Y-118665142D01*
X97865428Y-118808000D01*
X97936857Y-118879428D01*
X98079714Y-118950857D01*
X98436857Y-118950857D01*
X98579714Y-118879428D01*
X98651142Y-118808000D01*
X98722571Y-118665142D01*
X98722571Y-118236571D01*
X98651142Y-118093714D01*
X98579714Y-118022285D01*
X86967142Y-110665142D02*
X87038571Y-110879428D01*
X87038571Y-111236571D01*
X86967142Y-111379428D01*
X86895714Y-111450857D01*
X86752857Y-111522285D01*
X86610000Y-111522285D01*
X86467142Y-111450857D01*
X86395714Y-111379428D01*
X86324285Y-111236571D01*
X86252857Y-110950857D01*
X86181428Y-110808000D01*
X86110000Y-110736571D01*
X85967142Y-110665142D01*
X85824285Y-110665142D01*
X85681428Y-110736571D01*
X85610000Y-110808000D01*
X85538571Y-110950857D01*
X85538571Y-111308000D01*
X85610000Y-111522285D01*
X85538571Y-112450857D02*
X85538571Y-112736571D01*
X85610000Y-112879428D01*
X85752857Y-113022285D01*
X86038571Y-113093714D01*
X86538571Y-113093714D01*
X86824285Y-113022285D01*
X86967142Y-112879428D01*
X87038571Y-112736571D01*
X87038571Y-112450857D01*
X86967142Y-112308000D01*
X86824285Y-112165142D01*
X86538571Y-112093714D01*
X86038571Y-112093714D01*
X85752857Y-112165142D01*
X85610000Y-112308000D01*
X85538571Y-112450857D01*
X85538571Y-113522285D02*
X85538571Y-114379428D01*
X87038571Y-113950857D02*
X85538571Y-113950857D01*
X86467142Y-114879428D02*
X86467142Y-116022285D01*
X85681428Y-116665142D02*
X85610000Y-116736571D01*
X85538571Y-116879428D01*
X85538571Y-117236571D01*
X85610000Y-117379428D01*
X85681428Y-117450857D01*
X85824285Y-117522285D01*
X85967142Y-117522285D01*
X86181428Y-117450857D01*
X87038571Y-116593714D01*
X87038571Y-117522285D01*
X85538571Y-118022285D02*
X85538571Y-118950857D01*
X86110000Y-118450857D01*
X86110000Y-118665142D01*
X86181428Y-118808000D01*
X86252857Y-118879428D01*
X86395714Y-118950857D01*
X86752857Y-118950857D01*
X86895714Y-118879428D01*
X86967142Y-118808000D01*
X87038571Y-118665142D01*
X87038571Y-118236571D01*
X86967142Y-118093714D01*
X86895714Y-118022285D01*
X78656571Y-111058000D02*
X77156571Y-111058000D01*
X77870857Y-111058000D02*
X77870857Y-111915142D01*
X78656571Y-111915142D02*
X77156571Y-111915142D01*
X78656571Y-113272285D02*
X77870857Y-113272285D01*
X77728000Y-113200857D01*
X77656571Y-113058000D01*
X77656571Y-112772285D01*
X77728000Y-112629428D01*
X78585142Y-113272285D02*
X78656571Y-113129428D01*
X78656571Y-112772285D01*
X78585142Y-112629428D01*
X78442285Y-112558000D01*
X78299428Y-112558000D01*
X78156571Y-112629428D01*
X78085142Y-112772285D01*
X78085142Y-113129428D01*
X78013714Y-113272285D01*
X78656571Y-113986571D02*
X77656571Y-113986571D01*
X77799428Y-113986571D02*
X77728000Y-114058000D01*
X77656571Y-114200857D01*
X77656571Y-114415142D01*
X77728000Y-114558000D01*
X77870857Y-114629428D01*
X78656571Y-114629428D01*
X77870857Y-114629428D02*
X77728000Y-114700857D01*
X77656571Y-114843714D01*
X77656571Y-115058000D01*
X77728000Y-115200857D01*
X77870857Y-115272285D01*
X78656571Y-115272285D01*
X78656571Y-115986571D02*
X77656571Y-115986571D01*
X77156571Y-115986571D02*
X77228000Y-115915142D01*
X77299428Y-115986571D01*
X77228000Y-116058000D01*
X77156571Y-115986571D01*
X77299428Y-115986571D01*
X78585142Y-116629428D02*
X78656571Y-116772285D01*
X78656571Y-117058000D01*
X78585142Y-117200857D01*
X78442285Y-117272285D01*
X78370857Y-117272285D01*
X78228000Y-117200857D01*
X78156571Y-117058000D01*
X78156571Y-116843714D01*
X78085142Y-116700857D01*
X77942285Y-116629428D01*
X77870857Y-116629428D01*
X77728000Y-116700857D01*
X77656571Y-116843714D01*
X77656571Y-117058000D01*
X77728000Y-117200857D01*
X78656571Y-117915142D02*
X77156571Y-117915142D01*
X78656571Y-118558000D02*
X77870857Y-118558000D01*
X77728000Y-118486571D01*
X77656571Y-118343714D01*
X77656571Y-118129428D01*
X77728000Y-117986571D01*
X77799428Y-117915142D01*
X90340571Y-111058000D02*
X88840571Y-111058000D01*
X89554857Y-111058000D02*
X89554857Y-111915142D01*
X90340571Y-111915142D02*
X88840571Y-111915142D01*
X90340571Y-113272285D02*
X89554857Y-113272285D01*
X89412000Y-113200857D01*
X89340571Y-113058000D01*
X89340571Y-112772285D01*
X89412000Y-112629428D01*
X90269142Y-113272285D02*
X90340571Y-113129428D01*
X90340571Y-112772285D01*
X90269142Y-112629428D01*
X90126285Y-112558000D01*
X89983428Y-112558000D01*
X89840571Y-112629428D01*
X89769142Y-112772285D01*
X89769142Y-113129428D01*
X89697714Y-113272285D01*
X90340571Y-113986571D02*
X89340571Y-113986571D01*
X89483428Y-113986571D02*
X89412000Y-114058000D01*
X89340571Y-114200857D01*
X89340571Y-114415142D01*
X89412000Y-114558000D01*
X89554857Y-114629428D01*
X90340571Y-114629428D01*
X89554857Y-114629428D02*
X89412000Y-114700857D01*
X89340571Y-114843714D01*
X89340571Y-115058000D01*
X89412000Y-115200857D01*
X89554857Y-115272285D01*
X90340571Y-115272285D01*
X90340571Y-115986571D02*
X89340571Y-115986571D01*
X88840571Y-115986571D02*
X88912000Y-115915142D01*
X88983428Y-115986571D01*
X88912000Y-116058000D01*
X88840571Y-115986571D01*
X88983428Y-115986571D01*
X90269142Y-116629428D02*
X90340571Y-116772285D01*
X90340571Y-117058000D01*
X90269142Y-117200857D01*
X90126285Y-117272285D01*
X90054857Y-117272285D01*
X89912000Y-117200857D01*
X89840571Y-117058000D01*
X89840571Y-116843714D01*
X89769142Y-116700857D01*
X89626285Y-116629428D01*
X89554857Y-116629428D01*
X89412000Y-116700857D01*
X89340571Y-116843714D01*
X89340571Y-117058000D01*
X89412000Y-117200857D01*
X90340571Y-117915142D02*
X88840571Y-117915142D01*
X90340571Y-118558000D02*
X89554857Y-118558000D01*
X89412000Y-118486571D01*
X89340571Y-118343714D01*
X89340571Y-118129428D01*
X89412000Y-117986571D01*
X89483428Y-117915142D01*
X75283142Y-110665142D02*
X75354571Y-110879428D01*
X75354571Y-111236571D01*
X75283142Y-111379428D01*
X75211714Y-111450857D01*
X75068857Y-111522285D01*
X74926000Y-111522285D01*
X74783142Y-111450857D01*
X74711714Y-111379428D01*
X74640285Y-111236571D01*
X74568857Y-110950857D01*
X74497428Y-110808000D01*
X74426000Y-110736571D01*
X74283142Y-110665142D01*
X74140285Y-110665142D01*
X73997428Y-110736571D01*
X73926000Y-110808000D01*
X73854571Y-110950857D01*
X73854571Y-111308000D01*
X73926000Y-111522285D01*
X73854571Y-112450857D02*
X73854571Y-112736571D01*
X73926000Y-112879428D01*
X74068857Y-113022285D01*
X74354571Y-113093714D01*
X74854571Y-113093714D01*
X75140285Y-113022285D01*
X75283142Y-112879428D01*
X75354571Y-112736571D01*
X75354571Y-112450857D01*
X75283142Y-112308000D01*
X75140285Y-112165142D01*
X74854571Y-112093714D01*
X74354571Y-112093714D01*
X74068857Y-112165142D01*
X73926000Y-112308000D01*
X73854571Y-112450857D01*
X73854571Y-113522285D02*
X73854571Y-114379428D01*
X75354571Y-113950857D02*
X73854571Y-113950857D01*
X74783142Y-114879428D02*
X74783142Y-116022285D01*
X73997428Y-116665142D02*
X73926000Y-116736571D01*
X73854571Y-116879428D01*
X73854571Y-117236571D01*
X73926000Y-117379428D01*
X73997428Y-117450857D01*
X74140285Y-117522285D01*
X74283142Y-117522285D01*
X74497428Y-117450857D01*
X75354571Y-116593714D01*
X75354571Y-117522285D01*
X73854571Y-118022285D02*
X73854571Y-118950857D01*
X74426000Y-118450857D01*
X74426000Y-118665142D01*
X74497428Y-118808000D01*
X74568857Y-118879428D01*
X74711714Y-118950857D01*
X75068857Y-118950857D01*
X75211714Y-118879428D01*
X75283142Y-118808000D01*
X75354571Y-118665142D01*
X75354571Y-118236571D01*
X75283142Y-118093714D01*
X75211714Y-118022285D01*
X66972571Y-111058000D02*
X65472571Y-111058000D01*
X66186857Y-111058000D02*
X66186857Y-111915142D01*
X66972571Y-111915142D02*
X65472571Y-111915142D01*
X66972571Y-113272285D02*
X66186857Y-113272285D01*
X66044000Y-113200857D01*
X65972571Y-113058000D01*
X65972571Y-112772285D01*
X66044000Y-112629428D01*
X66901142Y-113272285D02*
X66972571Y-113129428D01*
X66972571Y-112772285D01*
X66901142Y-112629428D01*
X66758285Y-112558000D01*
X66615428Y-112558000D01*
X66472571Y-112629428D01*
X66401142Y-112772285D01*
X66401142Y-113129428D01*
X66329714Y-113272285D01*
X66972571Y-113986571D02*
X65972571Y-113986571D01*
X66115428Y-113986571D02*
X66044000Y-114058000D01*
X65972571Y-114200857D01*
X65972571Y-114415142D01*
X66044000Y-114558000D01*
X66186857Y-114629428D01*
X66972571Y-114629428D01*
X66186857Y-114629428D02*
X66044000Y-114700857D01*
X65972571Y-114843714D01*
X65972571Y-115058000D01*
X66044000Y-115200857D01*
X66186857Y-115272285D01*
X66972571Y-115272285D01*
X66972571Y-115986571D02*
X65972571Y-115986571D01*
X65472571Y-115986571D02*
X65544000Y-115915142D01*
X65615428Y-115986571D01*
X65544000Y-116058000D01*
X65472571Y-115986571D01*
X65615428Y-115986571D01*
X66901142Y-116629428D02*
X66972571Y-116772285D01*
X66972571Y-117058000D01*
X66901142Y-117200857D01*
X66758285Y-117272285D01*
X66686857Y-117272285D01*
X66544000Y-117200857D01*
X66472571Y-117058000D01*
X66472571Y-116843714D01*
X66401142Y-116700857D01*
X66258285Y-116629428D01*
X66186857Y-116629428D01*
X66044000Y-116700857D01*
X65972571Y-116843714D01*
X65972571Y-117058000D01*
X66044000Y-117200857D01*
X66972571Y-117915142D02*
X65472571Y-117915142D01*
X66972571Y-118558000D02*
X66186857Y-118558000D01*
X66044000Y-118486571D01*
X65972571Y-118343714D01*
X65972571Y-118129428D01*
X66044000Y-117986571D01*
X66115428Y-117915142D01*
X51915142Y-110665142D02*
X51986571Y-110879428D01*
X51986571Y-111236571D01*
X51915142Y-111379428D01*
X51843714Y-111450857D01*
X51700857Y-111522285D01*
X51558000Y-111522285D01*
X51415142Y-111450857D01*
X51343714Y-111379428D01*
X51272285Y-111236571D01*
X51200857Y-110950857D01*
X51129428Y-110808000D01*
X51058000Y-110736571D01*
X50915142Y-110665142D01*
X50772285Y-110665142D01*
X50629428Y-110736571D01*
X50558000Y-110808000D01*
X50486571Y-110950857D01*
X50486571Y-111308000D01*
X50558000Y-111522285D01*
X50486571Y-112450857D02*
X50486571Y-112736571D01*
X50558000Y-112879428D01*
X50700857Y-113022285D01*
X50986571Y-113093714D01*
X51486571Y-113093714D01*
X51772285Y-113022285D01*
X51915142Y-112879428D01*
X51986571Y-112736571D01*
X51986571Y-112450857D01*
X51915142Y-112308000D01*
X51772285Y-112165142D01*
X51486571Y-112093714D01*
X50986571Y-112093714D01*
X50700857Y-112165142D01*
X50558000Y-112308000D01*
X50486571Y-112450857D01*
X50486571Y-113522285D02*
X50486571Y-114379428D01*
X51986571Y-113950857D02*
X50486571Y-113950857D01*
X51415142Y-114879428D02*
X51415142Y-116022285D01*
X50629428Y-116665142D02*
X50558000Y-116736571D01*
X50486571Y-116879428D01*
X50486571Y-117236571D01*
X50558000Y-117379428D01*
X50629428Y-117450857D01*
X50772285Y-117522285D01*
X50915142Y-117522285D01*
X51129428Y-117450857D01*
X51986571Y-116593714D01*
X51986571Y-117522285D01*
X50486571Y-118022285D02*
X50486571Y-118950857D01*
X51058000Y-118450857D01*
X51058000Y-118665142D01*
X51129428Y-118808000D01*
X51200857Y-118879428D01*
X51343714Y-118950857D01*
X51700857Y-118950857D01*
X51843714Y-118879428D01*
X51915142Y-118808000D01*
X51986571Y-118665142D01*
X51986571Y-118236571D01*
X51915142Y-118093714D01*
X51843714Y-118022285D01*
X55288571Y-111058000D02*
X53788571Y-111058000D01*
X54502857Y-111058000D02*
X54502857Y-111915142D01*
X55288571Y-111915142D02*
X53788571Y-111915142D01*
X55288571Y-113272285D02*
X54502857Y-113272285D01*
X54360000Y-113200857D01*
X54288571Y-113058000D01*
X54288571Y-112772285D01*
X54360000Y-112629428D01*
X55217142Y-113272285D02*
X55288571Y-113129428D01*
X55288571Y-112772285D01*
X55217142Y-112629428D01*
X55074285Y-112558000D01*
X54931428Y-112558000D01*
X54788571Y-112629428D01*
X54717142Y-112772285D01*
X54717142Y-113129428D01*
X54645714Y-113272285D01*
X55288571Y-113986571D02*
X54288571Y-113986571D01*
X54431428Y-113986571D02*
X54360000Y-114058000D01*
X54288571Y-114200857D01*
X54288571Y-114415142D01*
X54360000Y-114558000D01*
X54502857Y-114629428D01*
X55288571Y-114629428D01*
X54502857Y-114629428D02*
X54360000Y-114700857D01*
X54288571Y-114843714D01*
X54288571Y-115058000D01*
X54360000Y-115200857D01*
X54502857Y-115272285D01*
X55288571Y-115272285D01*
X55288571Y-115986571D02*
X54288571Y-115986571D01*
X53788571Y-115986571D02*
X53860000Y-115915142D01*
X53931428Y-115986571D01*
X53860000Y-116058000D01*
X53788571Y-115986571D01*
X53931428Y-115986571D01*
X55217142Y-116629428D02*
X55288571Y-116772285D01*
X55288571Y-117058000D01*
X55217142Y-117200857D01*
X55074285Y-117272285D01*
X55002857Y-117272285D01*
X54860000Y-117200857D01*
X54788571Y-117058000D01*
X54788571Y-116843714D01*
X54717142Y-116700857D01*
X54574285Y-116629428D01*
X54502857Y-116629428D01*
X54360000Y-116700857D01*
X54288571Y-116843714D01*
X54288571Y-117058000D01*
X54360000Y-117200857D01*
X55288571Y-117915142D02*
X53788571Y-117915142D01*
X55288571Y-118558000D02*
X54502857Y-118558000D01*
X54360000Y-118486571D01*
X54288571Y-118343714D01*
X54288571Y-118129428D01*
X54360000Y-117986571D01*
X54431428Y-117915142D01*
X63599142Y-110665142D02*
X63670571Y-110879428D01*
X63670571Y-111236571D01*
X63599142Y-111379428D01*
X63527714Y-111450857D01*
X63384857Y-111522285D01*
X63242000Y-111522285D01*
X63099142Y-111450857D01*
X63027714Y-111379428D01*
X62956285Y-111236571D01*
X62884857Y-110950857D01*
X62813428Y-110808000D01*
X62742000Y-110736571D01*
X62599142Y-110665142D01*
X62456285Y-110665142D01*
X62313428Y-110736571D01*
X62242000Y-110808000D01*
X62170571Y-110950857D01*
X62170571Y-111308000D01*
X62242000Y-111522285D01*
X62170571Y-112450857D02*
X62170571Y-112736571D01*
X62242000Y-112879428D01*
X62384857Y-113022285D01*
X62670571Y-113093714D01*
X63170571Y-113093714D01*
X63456285Y-113022285D01*
X63599142Y-112879428D01*
X63670571Y-112736571D01*
X63670571Y-112450857D01*
X63599142Y-112308000D01*
X63456285Y-112165142D01*
X63170571Y-112093714D01*
X62670571Y-112093714D01*
X62384857Y-112165142D01*
X62242000Y-112308000D01*
X62170571Y-112450857D01*
X62170571Y-113522285D02*
X62170571Y-114379428D01*
X63670571Y-113950857D02*
X62170571Y-113950857D01*
X63099142Y-114879428D02*
X63099142Y-116022285D01*
X62313428Y-116665142D02*
X62242000Y-116736571D01*
X62170571Y-116879428D01*
X62170571Y-117236571D01*
X62242000Y-117379428D01*
X62313428Y-117450857D01*
X62456285Y-117522285D01*
X62599142Y-117522285D01*
X62813428Y-117450857D01*
X63670571Y-116593714D01*
X63670571Y-117522285D01*
X62170571Y-118022285D02*
X62170571Y-118950857D01*
X62742000Y-118450857D01*
X62742000Y-118665142D01*
X62813428Y-118808000D01*
X62884857Y-118879428D01*
X63027714Y-118950857D01*
X63384857Y-118950857D01*
X63527714Y-118879428D01*
X63599142Y-118808000D01*
X63670571Y-118665142D01*
X63670571Y-118236571D01*
X63599142Y-118093714D01*
X63527714Y-118022285D01*
X40231142Y-110665142D02*
X40302571Y-110879428D01*
X40302571Y-111236571D01*
X40231142Y-111379428D01*
X40159714Y-111450857D01*
X40016857Y-111522285D01*
X39874000Y-111522285D01*
X39731142Y-111450857D01*
X39659714Y-111379428D01*
X39588285Y-111236571D01*
X39516857Y-110950857D01*
X39445428Y-110808000D01*
X39374000Y-110736571D01*
X39231142Y-110665142D01*
X39088285Y-110665142D01*
X38945428Y-110736571D01*
X38874000Y-110808000D01*
X38802571Y-110950857D01*
X38802571Y-111308000D01*
X38874000Y-111522285D01*
X38802571Y-112450857D02*
X38802571Y-112736571D01*
X38874000Y-112879428D01*
X39016857Y-113022285D01*
X39302571Y-113093714D01*
X39802571Y-113093714D01*
X40088285Y-113022285D01*
X40231142Y-112879428D01*
X40302571Y-112736571D01*
X40302571Y-112450857D01*
X40231142Y-112308000D01*
X40088285Y-112165142D01*
X39802571Y-112093714D01*
X39302571Y-112093714D01*
X39016857Y-112165142D01*
X38874000Y-112308000D01*
X38802571Y-112450857D01*
X38802571Y-113522285D02*
X38802571Y-114379428D01*
X40302571Y-113950857D02*
X38802571Y-113950857D01*
X39731142Y-114879428D02*
X39731142Y-116022285D01*
X38945428Y-116665142D02*
X38874000Y-116736571D01*
X38802571Y-116879428D01*
X38802571Y-117236571D01*
X38874000Y-117379428D01*
X38945428Y-117450857D01*
X39088285Y-117522285D01*
X39231142Y-117522285D01*
X39445428Y-117450857D01*
X40302571Y-116593714D01*
X40302571Y-117522285D01*
X38802571Y-118022285D02*
X38802571Y-118950857D01*
X39374000Y-118450857D01*
X39374000Y-118665142D01*
X39445428Y-118808000D01*
X39516857Y-118879428D01*
X39659714Y-118950857D01*
X40016857Y-118950857D01*
X40159714Y-118879428D01*
X40231142Y-118808000D01*
X40302571Y-118665142D01*
X40302571Y-118236571D01*
X40231142Y-118093714D01*
X40159714Y-118022285D01*
X43604571Y-111058000D02*
X42104571Y-111058000D01*
X42818857Y-111058000D02*
X42818857Y-111915142D01*
X43604571Y-111915142D02*
X42104571Y-111915142D01*
X43604571Y-113272285D02*
X42818857Y-113272285D01*
X42676000Y-113200857D01*
X42604571Y-113058000D01*
X42604571Y-112772285D01*
X42676000Y-112629428D01*
X43533142Y-113272285D02*
X43604571Y-113129428D01*
X43604571Y-112772285D01*
X43533142Y-112629428D01*
X43390285Y-112558000D01*
X43247428Y-112558000D01*
X43104571Y-112629428D01*
X43033142Y-112772285D01*
X43033142Y-113129428D01*
X42961714Y-113272285D01*
X43604571Y-113986571D02*
X42604571Y-113986571D01*
X42747428Y-113986571D02*
X42676000Y-114058000D01*
X42604571Y-114200857D01*
X42604571Y-114415142D01*
X42676000Y-114558000D01*
X42818857Y-114629428D01*
X43604571Y-114629428D01*
X42818857Y-114629428D02*
X42676000Y-114700857D01*
X42604571Y-114843714D01*
X42604571Y-115058000D01*
X42676000Y-115200857D01*
X42818857Y-115272285D01*
X43604571Y-115272285D01*
X43604571Y-115986571D02*
X42604571Y-115986571D01*
X42104571Y-115986571D02*
X42176000Y-115915142D01*
X42247428Y-115986571D01*
X42176000Y-116058000D01*
X42104571Y-115986571D01*
X42247428Y-115986571D01*
X43533142Y-116629428D02*
X43604571Y-116772285D01*
X43604571Y-117058000D01*
X43533142Y-117200857D01*
X43390285Y-117272285D01*
X43318857Y-117272285D01*
X43176000Y-117200857D01*
X43104571Y-117058000D01*
X43104571Y-116843714D01*
X43033142Y-116700857D01*
X42890285Y-116629428D01*
X42818857Y-116629428D01*
X42676000Y-116700857D01*
X42604571Y-116843714D01*
X42604571Y-117058000D01*
X42676000Y-117200857D01*
X43604571Y-117915142D02*
X42104571Y-117915142D01*
X43604571Y-118558000D02*
X42818857Y-118558000D01*
X42676000Y-118486571D01*
X42604571Y-118343714D01*
X42604571Y-118129428D01*
X42676000Y-117986571D01*
X42747428Y-117915142D01*
X110335142Y-124889142D02*
X110406571Y-125103428D01*
X110406571Y-125460571D01*
X110335142Y-125603428D01*
X110263714Y-125674857D01*
X110120857Y-125746285D01*
X109978000Y-125746285D01*
X109835142Y-125674857D01*
X109763714Y-125603428D01*
X109692285Y-125460571D01*
X109620857Y-125174857D01*
X109549428Y-125032000D01*
X109478000Y-124960571D01*
X109335142Y-124889142D01*
X109192285Y-124889142D01*
X109049428Y-124960571D01*
X108978000Y-125032000D01*
X108906571Y-125174857D01*
X108906571Y-125532000D01*
X108978000Y-125746285D01*
X108906571Y-126674857D02*
X108906571Y-126960571D01*
X108978000Y-127103428D01*
X109120857Y-127246285D01*
X109406571Y-127317714D01*
X109906571Y-127317714D01*
X110192285Y-127246285D01*
X110335142Y-127103428D01*
X110406571Y-126960571D01*
X110406571Y-126674857D01*
X110335142Y-126532000D01*
X110192285Y-126389142D01*
X109906571Y-126317714D01*
X109406571Y-126317714D01*
X109120857Y-126389142D01*
X108978000Y-126532000D01*
X108906571Y-126674857D01*
X108906571Y-127746285D02*
X108906571Y-128603428D01*
X110406571Y-128174857D02*
X108906571Y-128174857D01*
X109835142Y-129103428D02*
X109835142Y-130246285D01*
X109049428Y-130889142D02*
X108978000Y-130960571D01*
X108906571Y-131103428D01*
X108906571Y-131460571D01*
X108978000Y-131603428D01*
X109049428Y-131674857D01*
X109192285Y-131746285D01*
X109335142Y-131746285D01*
X109549428Y-131674857D01*
X110406571Y-130817714D01*
X110406571Y-131746285D01*
X108906571Y-132246285D02*
X108906571Y-133174857D01*
X109478000Y-132674857D01*
X109478000Y-132889142D01*
X109549428Y-133032000D01*
X109620857Y-133103428D01*
X109763714Y-133174857D01*
X110120857Y-133174857D01*
X110263714Y-133103428D01*
X110335142Y-133032000D01*
X110406571Y-132889142D01*
X110406571Y-132460571D01*
X110335142Y-132317714D01*
X110263714Y-132246285D01*
X90340571Y-125282000D02*
X88840571Y-125282000D01*
X89554857Y-125282000D02*
X89554857Y-126139142D01*
X90340571Y-126139142D02*
X88840571Y-126139142D01*
X90340571Y-127496285D02*
X89554857Y-127496285D01*
X89412000Y-127424857D01*
X89340571Y-127282000D01*
X89340571Y-126996285D01*
X89412000Y-126853428D01*
X90269142Y-127496285D02*
X90340571Y-127353428D01*
X90340571Y-126996285D01*
X90269142Y-126853428D01*
X90126285Y-126782000D01*
X89983428Y-126782000D01*
X89840571Y-126853428D01*
X89769142Y-126996285D01*
X89769142Y-127353428D01*
X89697714Y-127496285D01*
X90340571Y-128210571D02*
X89340571Y-128210571D01*
X89483428Y-128210571D02*
X89412000Y-128282000D01*
X89340571Y-128424857D01*
X89340571Y-128639142D01*
X89412000Y-128782000D01*
X89554857Y-128853428D01*
X90340571Y-128853428D01*
X89554857Y-128853428D02*
X89412000Y-128924857D01*
X89340571Y-129067714D01*
X89340571Y-129282000D01*
X89412000Y-129424857D01*
X89554857Y-129496285D01*
X90340571Y-129496285D01*
X90340571Y-130210571D02*
X89340571Y-130210571D01*
X88840571Y-130210571D02*
X88912000Y-130139142D01*
X88983428Y-130210571D01*
X88912000Y-130282000D01*
X88840571Y-130210571D01*
X88983428Y-130210571D01*
X90269142Y-130853428D02*
X90340571Y-130996285D01*
X90340571Y-131282000D01*
X90269142Y-131424857D01*
X90126285Y-131496285D01*
X90054857Y-131496285D01*
X89912000Y-131424857D01*
X89840571Y-131282000D01*
X89840571Y-131067714D01*
X89769142Y-130924857D01*
X89626285Y-130853428D01*
X89554857Y-130853428D01*
X89412000Y-130924857D01*
X89340571Y-131067714D01*
X89340571Y-131282000D01*
X89412000Y-131424857D01*
X90340571Y-132139142D02*
X88840571Y-132139142D01*
X90340571Y-132782000D02*
X89554857Y-132782000D01*
X89412000Y-132710571D01*
X89340571Y-132567714D01*
X89340571Y-132353428D01*
X89412000Y-132210571D01*
X89483428Y-132139142D01*
X98651142Y-124889142D02*
X98722571Y-125103428D01*
X98722571Y-125460571D01*
X98651142Y-125603428D01*
X98579714Y-125674857D01*
X98436857Y-125746285D01*
X98294000Y-125746285D01*
X98151142Y-125674857D01*
X98079714Y-125603428D01*
X98008285Y-125460571D01*
X97936857Y-125174857D01*
X97865428Y-125032000D01*
X97794000Y-124960571D01*
X97651142Y-124889142D01*
X97508285Y-124889142D01*
X97365428Y-124960571D01*
X97294000Y-125032000D01*
X97222571Y-125174857D01*
X97222571Y-125532000D01*
X97294000Y-125746285D01*
X97222571Y-126674857D02*
X97222571Y-126960571D01*
X97294000Y-127103428D01*
X97436857Y-127246285D01*
X97722571Y-127317714D01*
X98222571Y-127317714D01*
X98508285Y-127246285D01*
X98651142Y-127103428D01*
X98722571Y-126960571D01*
X98722571Y-126674857D01*
X98651142Y-126532000D01*
X98508285Y-126389142D01*
X98222571Y-126317714D01*
X97722571Y-126317714D01*
X97436857Y-126389142D01*
X97294000Y-126532000D01*
X97222571Y-126674857D01*
X97222571Y-127746285D02*
X97222571Y-128603428D01*
X98722571Y-128174857D02*
X97222571Y-128174857D01*
X98151142Y-129103428D02*
X98151142Y-130246285D01*
X97365428Y-130889142D02*
X97294000Y-130960571D01*
X97222571Y-131103428D01*
X97222571Y-131460571D01*
X97294000Y-131603428D01*
X97365428Y-131674857D01*
X97508285Y-131746285D01*
X97651142Y-131746285D01*
X97865428Y-131674857D01*
X98722571Y-130817714D01*
X98722571Y-131746285D01*
X97222571Y-132246285D02*
X97222571Y-133174857D01*
X97794000Y-132674857D01*
X97794000Y-132889142D01*
X97865428Y-133032000D01*
X97936857Y-133103428D01*
X98079714Y-133174857D01*
X98436857Y-133174857D01*
X98579714Y-133103428D01*
X98651142Y-133032000D01*
X98722571Y-132889142D01*
X98722571Y-132460571D01*
X98651142Y-132317714D01*
X98579714Y-132246285D01*
X78656571Y-125282000D02*
X77156571Y-125282000D01*
X77870857Y-125282000D02*
X77870857Y-126139142D01*
X78656571Y-126139142D02*
X77156571Y-126139142D01*
X78656571Y-127496285D02*
X77870857Y-127496285D01*
X77728000Y-127424857D01*
X77656571Y-127282000D01*
X77656571Y-126996285D01*
X77728000Y-126853428D01*
X78585142Y-127496285D02*
X78656571Y-127353428D01*
X78656571Y-126996285D01*
X78585142Y-126853428D01*
X78442285Y-126782000D01*
X78299428Y-126782000D01*
X78156571Y-126853428D01*
X78085142Y-126996285D01*
X78085142Y-127353428D01*
X78013714Y-127496285D01*
X78656571Y-128210571D02*
X77656571Y-128210571D01*
X77799428Y-128210571D02*
X77728000Y-128282000D01*
X77656571Y-128424857D01*
X77656571Y-128639142D01*
X77728000Y-128782000D01*
X77870857Y-128853428D01*
X78656571Y-128853428D01*
X77870857Y-128853428D02*
X77728000Y-128924857D01*
X77656571Y-129067714D01*
X77656571Y-129282000D01*
X77728000Y-129424857D01*
X77870857Y-129496285D01*
X78656571Y-129496285D01*
X78656571Y-130210571D02*
X77656571Y-130210571D01*
X77156571Y-130210571D02*
X77228000Y-130139142D01*
X77299428Y-130210571D01*
X77228000Y-130282000D01*
X77156571Y-130210571D01*
X77299428Y-130210571D01*
X78585142Y-130853428D02*
X78656571Y-130996285D01*
X78656571Y-131282000D01*
X78585142Y-131424857D01*
X78442285Y-131496285D01*
X78370857Y-131496285D01*
X78228000Y-131424857D01*
X78156571Y-131282000D01*
X78156571Y-131067714D01*
X78085142Y-130924857D01*
X77942285Y-130853428D01*
X77870857Y-130853428D01*
X77728000Y-130924857D01*
X77656571Y-131067714D01*
X77656571Y-131282000D01*
X77728000Y-131424857D01*
X78656571Y-132139142D02*
X77156571Y-132139142D01*
X78656571Y-132782000D02*
X77870857Y-132782000D01*
X77728000Y-132710571D01*
X77656571Y-132567714D01*
X77656571Y-132353428D01*
X77728000Y-132210571D01*
X77799428Y-132139142D01*
X102024571Y-125282000D02*
X100524571Y-125282000D01*
X101238857Y-125282000D02*
X101238857Y-126139142D01*
X102024571Y-126139142D02*
X100524571Y-126139142D01*
X102024571Y-127496285D02*
X101238857Y-127496285D01*
X101096000Y-127424857D01*
X101024571Y-127282000D01*
X101024571Y-126996285D01*
X101096000Y-126853428D01*
X101953142Y-127496285D02*
X102024571Y-127353428D01*
X102024571Y-126996285D01*
X101953142Y-126853428D01*
X101810285Y-126782000D01*
X101667428Y-126782000D01*
X101524571Y-126853428D01*
X101453142Y-126996285D01*
X101453142Y-127353428D01*
X101381714Y-127496285D01*
X102024571Y-128210571D02*
X101024571Y-128210571D01*
X101167428Y-128210571D02*
X101096000Y-128282000D01*
X101024571Y-128424857D01*
X101024571Y-128639142D01*
X101096000Y-128782000D01*
X101238857Y-128853428D01*
X102024571Y-128853428D01*
X101238857Y-128853428D02*
X101096000Y-128924857D01*
X101024571Y-129067714D01*
X101024571Y-129282000D01*
X101096000Y-129424857D01*
X101238857Y-129496285D01*
X102024571Y-129496285D01*
X102024571Y-130210571D02*
X101024571Y-130210571D01*
X100524571Y-130210571D02*
X100596000Y-130139142D01*
X100667428Y-130210571D01*
X100596000Y-130282000D01*
X100524571Y-130210571D01*
X100667428Y-130210571D01*
X101953142Y-130853428D02*
X102024571Y-130996285D01*
X102024571Y-131282000D01*
X101953142Y-131424857D01*
X101810285Y-131496285D01*
X101738857Y-131496285D01*
X101596000Y-131424857D01*
X101524571Y-131282000D01*
X101524571Y-131067714D01*
X101453142Y-130924857D01*
X101310285Y-130853428D01*
X101238857Y-130853428D01*
X101096000Y-130924857D01*
X101024571Y-131067714D01*
X101024571Y-131282000D01*
X101096000Y-131424857D01*
X102024571Y-132139142D02*
X100524571Y-132139142D01*
X102024571Y-132782000D02*
X101238857Y-132782000D01*
X101096000Y-132710571D01*
X101024571Y-132567714D01*
X101024571Y-132353428D01*
X101096000Y-132210571D01*
X101167428Y-132139142D01*
X113708571Y-125282000D02*
X112208571Y-125282000D01*
X112922857Y-125282000D02*
X112922857Y-126139142D01*
X113708571Y-126139142D02*
X112208571Y-126139142D01*
X113708571Y-127496285D02*
X112922857Y-127496285D01*
X112780000Y-127424857D01*
X112708571Y-127282000D01*
X112708571Y-126996285D01*
X112780000Y-126853428D01*
X113637142Y-127496285D02*
X113708571Y-127353428D01*
X113708571Y-126996285D01*
X113637142Y-126853428D01*
X113494285Y-126782000D01*
X113351428Y-126782000D01*
X113208571Y-126853428D01*
X113137142Y-126996285D01*
X113137142Y-127353428D01*
X113065714Y-127496285D01*
X113708571Y-128210571D02*
X112708571Y-128210571D01*
X112851428Y-128210571D02*
X112780000Y-128282000D01*
X112708571Y-128424857D01*
X112708571Y-128639142D01*
X112780000Y-128782000D01*
X112922857Y-128853428D01*
X113708571Y-128853428D01*
X112922857Y-128853428D02*
X112780000Y-128924857D01*
X112708571Y-129067714D01*
X112708571Y-129282000D01*
X112780000Y-129424857D01*
X112922857Y-129496285D01*
X113708571Y-129496285D01*
X113708571Y-130210571D02*
X112708571Y-130210571D01*
X112208571Y-130210571D02*
X112280000Y-130139142D01*
X112351428Y-130210571D01*
X112280000Y-130282000D01*
X112208571Y-130210571D01*
X112351428Y-130210571D01*
X113637142Y-130853428D02*
X113708571Y-130996285D01*
X113708571Y-131282000D01*
X113637142Y-131424857D01*
X113494285Y-131496285D01*
X113422857Y-131496285D01*
X113280000Y-131424857D01*
X113208571Y-131282000D01*
X113208571Y-131067714D01*
X113137142Y-130924857D01*
X112994285Y-130853428D01*
X112922857Y-130853428D01*
X112780000Y-130924857D01*
X112708571Y-131067714D01*
X112708571Y-131282000D01*
X112780000Y-131424857D01*
X113708571Y-132139142D02*
X112208571Y-132139142D01*
X113708571Y-132782000D02*
X112922857Y-132782000D01*
X112780000Y-132710571D01*
X112708571Y-132567714D01*
X112708571Y-132353428D01*
X112780000Y-132210571D01*
X112851428Y-132139142D01*
X75283142Y-124889142D02*
X75354571Y-125103428D01*
X75354571Y-125460571D01*
X75283142Y-125603428D01*
X75211714Y-125674857D01*
X75068857Y-125746285D01*
X74926000Y-125746285D01*
X74783142Y-125674857D01*
X74711714Y-125603428D01*
X74640285Y-125460571D01*
X74568857Y-125174857D01*
X74497428Y-125032000D01*
X74426000Y-124960571D01*
X74283142Y-124889142D01*
X74140285Y-124889142D01*
X73997428Y-124960571D01*
X73926000Y-125032000D01*
X73854571Y-125174857D01*
X73854571Y-125532000D01*
X73926000Y-125746285D01*
X73854571Y-126674857D02*
X73854571Y-126960571D01*
X73926000Y-127103428D01*
X74068857Y-127246285D01*
X74354571Y-127317714D01*
X74854571Y-127317714D01*
X75140285Y-127246285D01*
X75283142Y-127103428D01*
X75354571Y-126960571D01*
X75354571Y-126674857D01*
X75283142Y-126532000D01*
X75140285Y-126389142D01*
X74854571Y-126317714D01*
X74354571Y-126317714D01*
X74068857Y-126389142D01*
X73926000Y-126532000D01*
X73854571Y-126674857D01*
X73854571Y-127746285D02*
X73854571Y-128603428D01*
X75354571Y-128174857D02*
X73854571Y-128174857D01*
X74783142Y-129103428D02*
X74783142Y-130246285D01*
X73997428Y-130889142D02*
X73926000Y-130960571D01*
X73854571Y-131103428D01*
X73854571Y-131460571D01*
X73926000Y-131603428D01*
X73997428Y-131674857D01*
X74140285Y-131746285D01*
X74283142Y-131746285D01*
X74497428Y-131674857D01*
X75354571Y-130817714D01*
X75354571Y-131746285D01*
X73854571Y-132246285D02*
X73854571Y-133174857D01*
X74426000Y-132674857D01*
X74426000Y-132889142D01*
X74497428Y-133032000D01*
X74568857Y-133103428D01*
X74711714Y-133174857D01*
X75068857Y-133174857D01*
X75211714Y-133103428D01*
X75283142Y-133032000D01*
X75354571Y-132889142D01*
X75354571Y-132460571D01*
X75283142Y-132317714D01*
X75211714Y-132246285D01*
X86967142Y-124889142D02*
X87038571Y-125103428D01*
X87038571Y-125460571D01*
X86967142Y-125603428D01*
X86895714Y-125674857D01*
X86752857Y-125746285D01*
X86610000Y-125746285D01*
X86467142Y-125674857D01*
X86395714Y-125603428D01*
X86324285Y-125460571D01*
X86252857Y-125174857D01*
X86181428Y-125032000D01*
X86110000Y-124960571D01*
X85967142Y-124889142D01*
X85824285Y-124889142D01*
X85681428Y-124960571D01*
X85610000Y-125032000D01*
X85538571Y-125174857D01*
X85538571Y-125532000D01*
X85610000Y-125746285D01*
X85538571Y-126674857D02*
X85538571Y-126960571D01*
X85610000Y-127103428D01*
X85752857Y-127246285D01*
X86038571Y-127317714D01*
X86538571Y-127317714D01*
X86824285Y-127246285D01*
X86967142Y-127103428D01*
X87038571Y-126960571D01*
X87038571Y-126674857D01*
X86967142Y-126532000D01*
X86824285Y-126389142D01*
X86538571Y-126317714D01*
X86038571Y-126317714D01*
X85752857Y-126389142D01*
X85610000Y-126532000D01*
X85538571Y-126674857D01*
X85538571Y-127746285D02*
X85538571Y-128603428D01*
X87038571Y-128174857D02*
X85538571Y-128174857D01*
X86467142Y-129103428D02*
X86467142Y-130246285D01*
X85681428Y-130889142D02*
X85610000Y-130960571D01*
X85538571Y-131103428D01*
X85538571Y-131460571D01*
X85610000Y-131603428D01*
X85681428Y-131674857D01*
X85824285Y-131746285D01*
X85967142Y-131746285D01*
X86181428Y-131674857D01*
X87038571Y-130817714D01*
X87038571Y-131746285D01*
X85538571Y-132246285D02*
X85538571Y-133174857D01*
X86110000Y-132674857D01*
X86110000Y-132889142D01*
X86181428Y-133032000D01*
X86252857Y-133103428D01*
X86395714Y-133174857D01*
X86752857Y-133174857D01*
X86895714Y-133103428D01*
X86967142Y-133032000D01*
X87038571Y-132889142D01*
X87038571Y-132460571D01*
X86967142Y-132317714D01*
X86895714Y-132246285D01*
X66972571Y-125282000D02*
X65472571Y-125282000D01*
X66186857Y-125282000D02*
X66186857Y-126139142D01*
X66972571Y-126139142D02*
X65472571Y-126139142D01*
X66972571Y-127496285D02*
X66186857Y-127496285D01*
X66044000Y-127424857D01*
X65972571Y-127282000D01*
X65972571Y-126996285D01*
X66044000Y-126853428D01*
X66901142Y-127496285D02*
X66972571Y-127353428D01*
X66972571Y-126996285D01*
X66901142Y-126853428D01*
X66758285Y-126782000D01*
X66615428Y-126782000D01*
X66472571Y-126853428D01*
X66401142Y-126996285D01*
X66401142Y-127353428D01*
X66329714Y-127496285D01*
X66972571Y-128210571D02*
X65972571Y-128210571D01*
X66115428Y-128210571D02*
X66044000Y-128282000D01*
X65972571Y-128424857D01*
X65972571Y-128639142D01*
X66044000Y-128782000D01*
X66186857Y-128853428D01*
X66972571Y-128853428D01*
X66186857Y-128853428D02*
X66044000Y-128924857D01*
X65972571Y-129067714D01*
X65972571Y-129282000D01*
X66044000Y-129424857D01*
X66186857Y-129496285D01*
X66972571Y-129496285D01*
X66972571Y-130210571D02*
X65972571Y-130210571D01*
X65472571Y-130210571D02*
X65544000Y-130139142D01*
X65615428Y-130210571D01*
X65544000Y-130282000D01*
X65472571Y-130210571D01*
X65615428Y-130210571D01*
X66901142Y-130853428D02*
X66972571Y-130996285D01*
X66972571Y-131282000D01*
X66901142Y-131424857D01*
X66758285Y-131496285D01*
X66686857Y-131496285D01*
X66544000Y-131424857D01*
X66472571Y-131282000D01*
X66472571Y-131067714D01*
X66401142Y-130924857D01*
X66258285Y-130853428D01*
X66186857Y-130853428D01*
X66044000Y-130924857D01*
X65972571Y-131067714D01*
X65972571Y-131282000D01*
X66044000Y-131424857D01*
X66972571Y-132139142D02*
X65472571Y-132139142D01*
X66972571Y-132782000D02*
X66186857Y-132782000D01*
X66044000Y-132710571D01*
X65972571Y-132567714D01*
X65972571Y-132353428D01*
X66044000Y-132210571D01*
X66115428Y-132139142D01*
X63599142Y-124889142D02*
X63670571Y-125103428D01*
X63670571Y-125460571D01*
X63599142Y-125603428D01*
X63527714Y-125674857D01*
X63384857Y-125746285D01*
X63242000Y-125746285D01*
X63099142Y-125674857D01*
X63027714Y-125603428D01*
X62956285Y-125460571D01*
X62884857Y-125174857D01*
X62813428Y-125032000D01*
X62742000Y-124960571D01*
X62599142Y-124889142D01*
X62456285Y-124889142D01*
X62313428Y-124960571D01*
X62242000Y-125032000D01*
X62170571Y-125174857D01*
X62170571Y-125532000D01*
X62242000Y-125746285D01*
X62170571Y-126674857D02*
X62170571Y-126960571D01*
X62242000Y-127103428D01*
X62384857Y-127246285D01*
X62670571Y-127317714D01*
X63170571Y-127317714D01*
X63456285Y-127246285D01*
X63599142Y-127103428D01*
X63670571Y-126960571D01*
X63670571Y-126674857D01*
X63599142Y-126532000D01*
X63456285Y-126389142D01*
X63170571Y-126317714D01*
X62670571Y-126317714D01*
X62384857Y-126389142D01*
X62242000Y-126532000D01*
X62170571Y-126674857D01*
X62170571Y-127746285D02*
X62170571Y-128603428D01*
X63670571Y-128174857D02*
X62170571Y-128174857D01*
X63099142Y-129103428D02*
X63099142Y-130246285D01*
X62313428Y-130889142D02*
X62242000Y-130960571D01*
X62170571Y-131103428D01*
X62170571Y-131460571D01*
X62242000Y-131603428D01*
X62313428Y-131674857D01*
X62456285Y-131746285D01*
X62599142Y-131746285D01*
X62813428Y-131674857D01*
X63670571Y-130817714D01*
X63670571Y-131746285D01*
X62170571Y-132246285D02*
X62170571Y-133174857D01*
X62742000Y-132674857D01*
X62742000Y-132889142D01*
X62813428Y-133032000D01*
X62884857Y-133103428D01*
X63027714Y-133174857D01*
X63384857Y-133174857D01*
X63527714Y-133103428D01*
X63599142Y-133032000D01*
X63670571Y-132889142D01*
X63670571Y-132460571D01*
X63599142Y-132317714D01*
X63527714Y-132246285D01*
X55288571Y-125282000D02*
X53788571Y-125282000D01*
X54502857Y-125282000D02*
X54502857Y-126139142D01*
X55288571Y-126139142D02*
X53788571Y-126139142D01*
X55288571Y-127496285D02*
X54502857Y-127496285D01*
X54360000Y-127424857D01*
X54288571Y-127282000D01*
X54288571Y-126996285D01*
X54360000Y-126853428D01*
X55217142Y-127496285D02*
X55288571Y-127353428D01*
X55288571Y-126996285D01*
X55217142Y-126853428D01*
X55074285Y-126782000D01*
X54931428Y-126782000D01*
X54788571Y-126853428D01*
X54717142Y-126996285D01*
X54717142Y-127353428D01*
X54645714Y-127496285D01*
X55288571Y-128210571D02*
X54288571Y-128210571D01*
X54431428Y-128210571D02*
X54360000Y-128282000D01*
X54288571Y-128424857D01*
X54288571Y-128639142D01*
X54360000Y-128782000D01*
X54502857Y-128853428D01*
X55288571Y-128853428D01*
X54502857Y-128853428D02*
X54360000Y-128924857D01*
X54288571Y-129067714D01*
X54288571Y-129282000D01*
X54360000Y-129424857D01*
X54502857Y-129496285D01*
X55288571Y-129496285D01*
X55288571Y-130210571D02*
X54288571Y-130210571D01*
X53788571Y-130210571D02*
X53860000Y-130139142D01*
X53931428Y-130210571D01*
X53860000Y-130282000D01*
X53788571Y-130210571D01*
X53931428Y-130210571D01*
X55217142Y-130853428D02*
X55288571Y-130996285D01*
X55288571Y-131282000D01*
X55217142Y-131424857D01*
X55074285Y-131496285D01*
X55002857Y-131496285D01*
X54860000Y-131424857D01*
X54788571Y-131282000D01*
X54788571Y-131067714D01*
X54717142Y-130924857D01*
X54574285Y-130853428D01*
X54502857Y-130853428D01*
X54360000Y-130924857D01*
X54288571Y-131067714D01*
X54288571Y-131282000D01*
X54360000Y-131424857D01*
X55288571Y-132139142D02*
X53788571Y-132139142D01*
X55288571Y-132782000D02*
X54502857Y-132782000D01*
X54360000Y-132710571D01*
X54288571Y-132567714D01*
X54288571Y-132353428D01*
X54360000Y-132210571D01*
X54431428Y-132139142D01*
X51915142Y-124889142D02*
X51986571Y-125103428D01*
X51986571Y-125460571D01*
X51915142Y-125603428D01*
X51843714Y-125674857D01*
X51700857Y-125746285D01*
X51558000Y-125746285D01*
X51415142Y-125674857D01*
X51343714Y-125603428D01*
X51272285Y-125460571D01*
X51200857Y-125174857D01*
X51129428Y-125032000D01*
X51058000Y-124960571D01*
X50915142Y-124889142D01*
X50772285Y-124889142D01*
X50629428Y-124960571D01*
X50558000Y-125032000D01*
X50486571Y-125174857D01*
X50486571Y-125532000D01*
X50558000Y-125746285D01*
X50486571Y-126674857D02*
X50486571Y-126960571D01*
X50558000Y-127103428D01*
X50700857Y-127246285D01*
X50986571Y-127317714D01*
X51486571Y-127317714D01*
X51772285Y-127246285D01*
X51915142Y-127103428D01*
X51986571Y-126960571D01*
X51986571Y-126674857D01*
X51915142Y-126532000D01*
X51772285Y-126389142D01*
X51486571Y-126317714D01*
X50986571Y-126317714D01*
X50700857Y-126389142D01*
X50558000Y-126532000D01*
X50486571Y-126674857D01*
X50486571Y-127746285D02*
X50486571Y-128603428D01*
X51986571Y-128174857D02*
X50486571Y-128174857D01*
X51415142Y-129103428D02*
X51415142Y-130246285D01*
X50629428Y-130889142D02*
X50558000Y-130960571D01*
X50486571Y-131103428D01*
X50486571Y-131460571D01*
X50558000Y-131603428D01*
X50629428Y-131674857D01*
X50772285Y-131746285D01*
X50915142Y-131746285D01*
X51129428Y-131674857D01*
X51986571Y-130817714D01*
X51986571Y-131746285D01*
X50486571Y-132246285D02*
X50486571Y-133174857D01*
X51058000Y-132674857D01*
X51058000Y-132889142D01*
X51129428Y-133032000D01*
X51200857Y-133103428D01*
X51343714Y-133174857D01*
X51700857Y-133174857D01*
X51843714Y-133103428D01*
X51915142Y-133032000D01*
X51986571Y-132889142D01*
X51986571Y-132460571D01*
X51915142Y-132317714D01*
X51843714Y-132246285D01*
X31920571Y-125282000D02*
X30420571Y-125282000D01*
X31134857Y-125282000D02*
X31134857Y-126139142D01*
X31920571Y-126139142D02*
X30420571Y-126139142D01*
X31920571Y-127496285D02*
X31134857Y-127496285D01*
X30992000Y-127424857D01*
X30920571Y-127282000D01*
X30920571Y-126996285D01*
X30992000Y-126853428D01*
X31849142Y-127496285D02*
X31920571Y-127353428D01*
X31920571Y-126996285D01*
X31849142Y-126853428D01*
X31706285Y-126782000D01*
X31563428Y-126782000D01*
X31420571Y-126853428D01*
X31349142Y-126996285D01*
X31349142Y-127353428D01*
X31277714Y-127496285D01*
X31920571Y-128210571D02*
X30920571Y-128210571D01*
X31063428Y-128210571D02*
X30992000Y-128282000D01*
X30920571Y-128424857D01*
X30920571Y-128639142D01*
X30992000Y-128782000D01*
X31134857Y-128853428D01*
X31920571Y-128853428D01*
X31134857Y-128853428D02*
X30992000Y-128924857D01*
X30920571Y-129067714D01*
X30920571Y-129282000D01*
X30992000Y-129424857D01*
X31134857Y-129496285D01*
X31920571Y-129496285D01*
X31920571Y-130210571D02*
X30920571Y-130210571D01*
X30420571Y-130210571D02*
X30492000Y-130139142D01*
X30563428Y-130210571D01*
X30492000Y-130282000D01*
X30420571Y-130210571D01*
X30563428Y-130210571D01*
X31849142Y-130853428D02*
X31920571Y-130996285D01*
X31920571Y-131282000D01*
X31849142Y-131424857D01*
X31706285Y-131496285D01*
X31634857Y-131496285D01*
X31492000Y-131424857D01*
X31420571Y-131282000D01*
X31420571Y-131067714D01*
X31349142Y-130924857D01*
X31206285Y-130853428D01*
X31134857Y-130853428D01*
X30992000Y-130924857D01*
X30920571Y-131067714D01*
X30920571Y-131282000D01*
X30992000Y-131424857D01*
X31920571Y-132139142D02*
X30420571Y-132139142D01*
X31920571Y-132782000D02*
X31134857Y-132782000D01*
X30992000Y-132710571D01*
X30920571Y-132567714D01*
X30920571Y-132353428D01*
X30992000Y-132210571D01*
X31063428Y-132139142D01*
X28547142Y-124889142D02*
X28618571Y-125103428D01*
X28618571Y-125460571D01*
X28547142Y-125603428D01*
X28475714Y-125674857D01*
X28332857Y-125746285D01*
X28190000Y-125746285D01*
X28047142Y-125674857D01*
X27975714Y-125603428D01*
X27904285Y-125460571D01*
X27832857Y-125174857D01*
X27761428Y-125032000D01*
X27690000Y-124960571D01*
X27547142Y-124889142D01*
X27404285Y-124889142D01*
X27261428Y-124960571D01*
X27190000Y-125032000D01*
X27118571Y-125174857D01*
X27118571Y-125532000D01*
X27190000Y-125746285D01*
X27118571Y-126674857D02*
X27118571Y-126960571D01*
X27190000Y-127103428D01*
X27332857Y-127246285D01*
X27618571Y-127317714D01*
X28118571Y-127317714D01*
X28404285Y-127246285D01*
X28547142Y-127103428D01*
X28618571Y-126960571D01*
X28618571Y-126674857D01*
X28547142Y-126532000D01*
X28404285Y-126389142D01*
X28118571Y-126317714D01*
X27618571Y-126317714D01*
X27332857Y-126389142D01*
X27190000Y-126532000D01*
X27118571Y-126674857D01*
X27118571Y-127746285D02*
X27118571Y-128603428D01*
X28618571Y-128174857D02*
X27118571Y-128174857D01*
X28047142Y-129103428D02*
X28047142Y-130246285D01*
X27261428Y-130889142D02*
X27190000Y-130960571D01*
X27118571Y-131103428D01*
X27118571Y-131460571D01*
X27190000Y-131603428D01*
X27261428Y-131674857D01*
X27404285Y-131746285D01*
X27547142Y-131746285D01*
X27761428Y-131674857D01*
X28618571Y-130817714D01*
X28618571Y-131746285D01*
X27118571Y-132246285D02*
X27118571Y-133174857D01*
X27690000Y-132674857D01*
X27690000Y-132889142D01*
X27761428Y-133032000D01*
X27832857Y-133103428D01*
X27975714Y-133174857D01*
X28332857Y-133174857D01*
X28475714Y-133103428D01*
X28547142Y-133032000D01*
X28618571Y-132889142D01*
X28618571Y-132460571D01*
X28547142Y-132317714D01*
X28475714Y-132246285D01*
X40231142Y-124889142D02*
X40302571Y-125103428D01*
X40302571Y-125460571D01*
X40231142Y-125603428D01*
X40159714Y-125674857D01*
X40016857Y-125746285D01*
X39874000Y-125746285D01*
X39731142Y-125674857D01*
X39659714Y-125603428D01*
X39588285Y-125460571D01*
X39516857Y-125174857D01*
X39445428Y-125032000D01*
X39374000Y-124960571D01*
X39231142Y-124889142D01*
X39088285Y-124889142D01*
X38945428Y-124960571D01*
X38874000Y-125032000D01*
X38802571Y-125174857D01*
X38802571Y-125532000D01*
X38874000Y-125746285D01*
X38802571Y-126674857D02*
X38802571Y-126960571D01*
X38874000Y-127103428D01*
X39016857Y-127246285D01*
X39302571Y-127317714D01*
X39802571Y-127317714D01*
X40088285Y-127246285D01*
X40231142Y-127103428D01*
X40302571Y-126960571D01*
X40302571Y-126674857D01*
X40231142Y-126532000D01*
X40088285Y-126389142D01*
X39802571Y-126317714D01*
X39302571Y-126317714D01*
X39016857Y-126389142D01*
X38874000Y-126532000D01*
X38802571Y-126674857D01*
X38802571Y-127746285D02*
X38802571Y-128603428D01*
X40302571Y-128174857D02*
X38802571Y-128174857D01*
X39731142Y-129103428D02*
X39731142Y-130246285D01*
X38945428Y-130889142D02*
X38874000Y-130960571D01*
X38802571Y-131103428D01*
X38802571Y-131460571D01*
X38874000Y-131603428D01*
X38945428Y-131674857D01*
X39088285Y-131746285D01*
X39231142Y-131746285D01*
X39445428Y-131674857D01*
X40302571Y-130817714D01*
X40302571Y-131746285D01*
X38802571Y-132246285D02*
X38802571Y-133174857D01*
X39374000Y-132674857D01*
X39374000Y-132889142D01*
X39445428Y-133032000D01*
X39516857Y-133103428D01*
X39659714Y-133174857D01*
X40016857Y-133174857D01*
X40159714Y-133103428D01*
X40231142Y-133032000D01*
X40302571Y-132889142D01*
X40302571Y-132460571D01*
X40231142Y-132317714D01*
X40159714Y-132246285D01*
X43604571Y-125282000D02*
X42104571Y-125282000D01*
X42818857Y-125282000D02*
X42818857Y-126139142D01*
X43604571Y-126139142D02*
X42104571Y-126139142D01*
X43604571Y-127496285D02*
X42818857Y-127496285D01*
X42676000Y-127424857D01*
X42604571Y-127282000D01*
X42604571Y-126996285D01*
X42676000Y-126853428D01*
X43533142Y-127496285D02*
X43604571Y-127353428D01*
X43604571Y-126996285D01*
X43533142Y-126853428D01*
X43390285Y-126782000D01*
X43247428Y-126782000D01*
X43104571Y-126853428D01*
X43033142Y-126996285D01*
X43033142Y-127353428D01*
X42961714Y-127496285D01*
X43604571Y-128210571D02*
X42604571Y-128210571D01*
X42747428Y-128210571D02*
X42676000Y-128282000D01*
X42604571Y-128424857D01*
X42604571Y-128639142D01*
X42676000Y-128782000D01*
X42818857Y-128853428D01*
X43604571Y-128853428D01*
X42818857Y-128853428D02*
X42676000Y-128924857D01*
X42604571Y-129067714D01*
X42604571Y-129282000D01*
X42676000Y-129424857D01*
X42818857Y-129496285D01*
X43604571Y-129496285D01*
X43604571Y-130210571D02*
X42604571Y-130210571D01*
X42104571Y-130210571D02*
X42176000Y-130139142D01*
X42247428Y-130210571D01*
X42176000Y-130282000D01*
X42104571Y-130210571D01*
X42247428Y-130210571D01*
X43533142Y-130853428D02*
X43604571Y-130996285D01*
X43604571Y-131282000D01*
X43533142Y-131424857D01*
X43390285Y-131496285D01*
X43318857Y-131496285D01*
X43176000Y-131424857D01*
X43104571Y-131282000D01*
X43104571Y-131067714D01*
X43033142Y-130924857D01*
X42890285Y-130853428D01*
X42818857Y-130853428D01*
X42676000Y-130924857D01*
X42604571Y-131067714D01*
X42604571Y-131282000D01*
X42676000Y-131424857D01*
X43604571Y-132139142D02*
X42104571Y-132139142D01*
X43604571Y-132782000D02*
X42818857Y-132782000D01*
X42676000Y-132710571D01*
X42604571Y-132567714D01*
X42604571Y-132353428D01*
X42676000Y-132210571D01*
X42747428Y-132139142D01*
X28547142Y-139113142D02*
X28618571Y-139327428D01*
X28618571Y-139684571D01*
X28547142Y-139827428D01*
X28475714Y-139898857D01*
X28332857Y-139970285D01*
X28190000Y-139970285D01*
X28047142Y-139898857D01*
X27975714Y-139827428D01*
X27904285Y-139684571D01*
X27832857Y-139398857D01*
X27761428Y-139256000D01*
X27690000Y-139184571D01*
X27547142Y-139113142D01*
X27404285Y-139113142D01*
X27261428Y-139184571D01*
X27190000Y-139256000D01*
X27118571Y-139398857D01*
X27118571Y-139756000D01*
X27190000Y-139970285D01*
X27118571Y-140898857D02*
X27118571Y-141184571D01*
X27190000Y-141327428D01*
X27332857Y-141470285D01*
X27618571Y-141541714D01*
X28118571Y-141541714D01*
X28404285Y-141470285D01*
X28547142Y-141327428D01*
X28618571Y-141184571D01*
X28618571Y-140898857D01*
X28547142Y-140756000D01*
X28404285Y-140613142D01*
X28118571Y-140541714D01*
X27618571Y-140541714D01*
X27332857Y-140613142D01*
X27190000Y-140756000D01*
X27118571Y-140898857D01*
X27118571Y-141970285D02*
X27118571Y-142827428D01*
X28618571Y-142398857D02*
X27118571Y-142398857D01*
X28047142Y-143327428D02*
X28047142Y-144470285D01*
X27261428Y-145113142D02*
X27190000Y-145184571D01*
X27118571Y-145327428D01*
X27118571Y-145684571D01*
X27190000Y-145827428D01*
X27261428Y-145898857D01*
X27404285Y-145970285D01*
X27547142Y-145970285D01*
X27761428Y-145898857D01*
X28618571Y-145041714D01*
X28618571Y-145970285D01*
X27118571Y-146470285D02*
X27118571Y-147398857D01*
X27690000Y-146898857D01*
X27690000Y-147113142D01*
X27761428Y-147256000D01*
X27832857Y-147327428D01*
X27975714Y-147398857D01*
X28332857Y-147398857D01*
X28475714Y-147327428D01*
X28547142Y-147256000D01*
X28618571Y-147113142D01*
X28618571Y-146684571D01*
X28547142Y-146541714D01*
X28475714Y-146470285D01*
X31920571Y-139506000D02*
X30420571Y-139506000D01*
X31134857Y-139506000D02*
X31134857Y-140363142D01*
X31920571Y-140363142D02*
X30420571Y-140363142D01*
X31920571Y-141720285D02*
X31134857Y-141720285D01*
X30992000Y-141648857D01*
X30920571Y-141506000D01*
X30920571Y-141220285D01*
X30992000Y-141077428D01*
X31849142Y-141720285D02*
X31920571Y-141577428D01*
X31920571Y-141220285D01*
X31849142Y-141077428D01*
X31706285Y-141006000D01*
X31563428Y-141006000D01*
X31420571Y-141077428D01*
X31349142Y-141220285D01*
X31349142Y-141577428D01*
X31277714Y-141720285D01*
X31920571Y-142434571D02*
X30920571Y-142434571D01*
X31063428Y-142434571D02*
X30992000Y-142506000D01*
X30920571Y-142648857D01*
X30920571Y-142863142D01*
X30992000Y-143006000D01*
X31134857Y-143077428D01*
X31920571Y-143077428D01*
X31134857Y-143077428D02*
X30992000Y-143148857D01*
X30920571Y-143291714D01*
X30920571Y-143506000D01*
X30992000Y-143648857D01*
X31134857Y-143720285D01*
X31920571Y-143720285D01*
X31920571Y-144434571D02*
X30920571Y-144434571D01*
X30420571Y-144434571D02*
X30492000Y-144363142D01*
X30563428Y-144434571D01*
X30492000Y-144506000D01*
X30420571Y-144434571D01*
X30563428Y-144434571D01*
X31849142Y-145077428D02*
X31920571Y-145220285D01*
X31920571Y-145506000D01*
X31849142Y-145648857D01*
X31706285Y-145720285D01*
X31634857Y-145720285D01*
X31492000Y-145648857D01*
X31420571Y-145506000D01*
X31420571Y-145291714D01*
X31349142Y-145148857D01*
X31206285Y-145077428D01*
X31134857Y-145077428D01*
X30992000Y-145148857D01*
X30920571Y-145291714D01*
X30920571Y-145506000D01*
X30992000Y-145648857D01*
X31920571Y-146363142D02*
X30420571Y-146363142D01*
X31920571Y-147006000D02*
X31134857Y-147006000D01*
X30992000Y-146934571D01*
X30920571Y-146791714D01*
X30920571Y-146577428D01*
X30992000Y-146434571D01*
X31063428Y-146363142D01*
X110335142Y-139113142D02*
X110406571Y-139327428D01*
X110406571Y-139684571D01*
X110335142Y-139827428D01*
X110263714Y-139898857D01*
X110120857Y-139970285D01*
X109978000Y-139970285D01*
X109835142Y-139898857D01*
X109763714Y-139827428D01*
X109692285Y-139684571D01*
X109620857Y-139398857D01*
X109549428Y-139256000D01*
X109478000Y-139184571D01*
X109335142Y-139113142D01*
X109192285Y-139113142D01*
X109049428Y-139184571D01*
X108978000Y-139256000D01*
X108906571Y-139398857D01*
X108906571Y-139756000D01*
X108978000Y-139970285D01*
X108906571Y-140898857D02*
X108906571Y-141184571D01*
X108978000Y-141327428D01*
X109120857Y-141470285D01*
X109406571Y-141541714D01*
X109906571Y-141541714D01*
X110192285Y-141470285D01*
X110335142Y-141327428D01*
X110406571Y-141184571D01*
X110406571Y-140898857D01*
X110335142Y-140756000D01*
X110192285Y-140613142D01*
X109906571Y-140541714D01*
X109406571Y-140541714D01*
X109120857Y-140613142D01*
X108978000Y-140756000D01*
X108906571Y-140898857D01*
X108906571Y-141970285D02*
X108906571Y-142827428D01*
X110406571Y-142398857D02*
X108906571Y-142398857D01*
X109835142Y-143327428D02*
X109835142Y-144470285D01*
X109049428Y-145113142D02*
X108978000Y-145184571D01*
X108906571Y-145327428D01*
X108906571Y-145684571D01*
X108978000Y-145827428D01*
X109049428Y-145898857D01*
X109192285Y-145970285D01*
X109335142Y-145970285D01*
X109549428Y-145898857D01*
X110406571Y-145041714D01*
X110406571Y-145970285D01*
X108906571Y-146470285D02*
X108906571Y-147398857D01*
X109478000Y-146898857D01*
X109478000Y-147113142D01*
X109549428Y-147256000D01*
X109620857Y-147327428D01*
X109763714Y-147398857D01*
X110120857Y-147398857D01*
X110263714Y-147327428D01*
X110335142Y-147256000D01*
X110406571Y-147113142D01*
X110406571Y-146684571D01*
X110335142Y-146541714D01*
X110263714Y-146470285D01*
X102024571Y-139506000D02*
X100524571Y-139506000D01*
X101238857Y-139506000D02*
X101238857Y-140363142D01*
X102024571Y-140363142D02*
X100524571Y-140363142D01*
X102024571Y-141720285D02*
X101238857Y-141720285D01*
X101096000Y-141648857D01*
X101024571Y-141506000D01*
X101024571Y-141220285D01*
X101096000Y-141077428D01*
X101953142Y-141720285D02*
X102024571Y-141577428D01*
X102024571Y-141220285D01*
X101953142Y-141077428D01*
X101810285Y-141006000D01*
X101667428Y-141006000D01*
X101524571Y-141077428D01*
X101453142Y-141220285D01*
X101453142Y-141577428D01*
X101381714Y-141720285D01*
X102024571Y-142434571D02*
X101024571Y-142434571D01*
X101167428Y-142434571D02*
X101096000Y-142506000D01*
X101024571Y-142648857D01*
X101024571Y-142863142D01*
X101096000Y-143006000D01*
X101238857Y-143077428D01*
X102024571Y-143077428D01*
X101238857Y-143077428D02*
X101096000Y-143148857D01*
X101024571Y-143291714D01*
X101024571Y-143506000D01*
X101096000Y-143648857D01*
X101238857Y-143720285D01*
X102024571Y-143720285D01*
X102024571Y-144434571D02*
X101024571Y-144434571D01*
X100524571Y-144434571D02*
X100596000Y-144363142D01*
X100667428Y-144434571D01*
X100596000Y-144506000D01*
X100524571Y-144434571D01*
X100667428Y-144434571D01*
X101953142Y-145077428D02*
X102024571Y-145220285D01*
X102024571Y-145506000D01*
X101953142Y-145648857D01*
X101810285Y-145720285D01*
X101738857Y-145720285D01*
X101596000Y-145648857D01*
X101524571Y-145506000D01*
X101524571Y-145291714D01*
X101453142Y-145148857D01*
X101310285Y-145077428D01*
X101238857Y-145077428D01*
X101096000Y-145148857D01*
X101024571Y-145291714D01*
X101024571Y-145506000D01*
X101096000Y-145648857D01*
X102024571Y-146363142D02*
X100524571Y-146363142D01*
X102024571Y-147006000D02*
X101238857Y-147006000D01*
X101096000Y-146934571D01*
X101024571Y-146791714D01*
X101024571Y-146577428D01*
X101096000Y-146434571D01*
X101167428Y-146363142D01*
X113708571Y-139506000D02*
X112208571Y-139506000D01*
X112922857Y-139506000D02*
X112922857Y-140363142D01*
X113708571Y-140363142D02*
X112208571Y-140363142D01*
X113708571Y-141720285D02*
X112922857Y-141720285D01*
X112780000Y-141648857D01*
X112708571Y-141506000D01*
X112708571Y-141220285D01*
X112780000Y-141077428D01*
X113637142Y-141720285D02*
X113708571Y-141577428D01*
X113708571Y-141220285D01*
X113637142Y-141077428D01*
X113494285Y-141006000D01*
X113351428Y-141006000D01*
X113208571Y-141077428D01*
X113137142Y-141220285D01*
X113137142Y-141577428D01*
X113065714Y-141720285D01*
X113708571Y-142434571D02*
X112708571Y-142434571D01*
X112851428Y-142434571D02*
X112780000Y-142506000D01*
X112708571Y-142648857D01*
X112708571Y-142863142D01*
X112780000Y-143006000D01*
X112922857Y-143077428D01*
X113708571Y-143077428D01*
X112922857Y-143077428D02*
X112780000Y-143148857D01*
X112708571Y-143291714D01*
X112708571Y-143506000D01*
X112780000Y-143648857D01*
X112922857Y-143720285D01*
X113708571Y-143720285D01*
X113708571Y-144434571D02*
X112708571Y-144434571D01*
X112208571Y-144434571D02*
X112280000Y-144363142D01*
X112351428Y-144434571D01*
X112280000Y-144506000D01*
X112208571Y-144434571D01*
X112351428Y-144434571D01*
X113637142Y-145077428D02*
X113708571Y-145220285D01*
X113708571Y-145506000D01*
X113637142Y-145648857D01*
X113494285Y-145720285D01*
X113422857Y-145720285D01*
X113280000Y-145648857D01*
X113208571Y-145506000D01*
X113208571Y-145291714D01*
X113137142Y-145148857D01*
X112994285Y-145077428D01*
X112922857Y-145077428D01*
X112780000Y-145148857D01*
X112708571Y-145291714D01*
X112708571Y-145506000D01*
X112780000Y-145648857D01*
X113708571Y-146363142D02*
X112208571Y-146363142D01*
X113708571Y-147006000D02*
X112922857Y-147006000D01*
X112780000Y-146934571D01*
X112708571Y-146791714D01*
X112708571Y-146577428D01*
X112780000Y-146434571D01*
X112851428Y-146363142D01*
X98651142Y-139113142D02*
X98722571Y-139327428D01*
X98722571Y-139684571D01*
X98651142Y-139827428D01*
X98579714Y-139898857D01*
X98436857Y-139970285D01*
X98294000Y-139970285D01*
X98151142Y-139898857D01*
X98079714Y-139827428D01*
X98008285Y-139684571D01*
X97936857Y-139398857D01*
X97865428Y-139256000D01*
X97794000Y-139184571D01*
X97651142Y-139113142D01*
X97508285Y-139113142D01*
X97365428Y-139184571D01*
X97294000Y-139256000D01*
X97222571Y-139398857D01*
X97222571Y-139756000D01*
X97294000Y-139970285D01*
X97222571Y-140898857D02*
X97222571Y-141184571D01*
X97294000Y-141327428D01*
X97436857Y-141470285D01*
X97722571Y-141541714D01*
X98222571Y-141541714D01*
X98508285Y-141470285D01*
X98651142Y-141327428D01*
X98722571Y-141184571D01*
X98722571Y-140898857D01*
X98651142Y-140756000D01*
X98508285Y-140613142D01*
X98222571Y-140541714D01*
X97722571Y-140541714D01*
X97436857Y-140613142D01*
X97294000Y-140756000D01*
X97222571Y-140898857D01*
X97222571Y-141970285D02*
X97222571Y-142827428D01*
X98722571Y-142398857D02*
X97222571Y-142398857D01*
X98151142Y-143327428D02*
X98151142Y-144470285D01*
X97365428Y-145113142D02*
X97294000Y-145184571D01*
X97222571Y-145327428D01*
X97222571Y-145684571D01*
X97294000Y-145827428D01*
X97365428Y-145898857D01*
X97508285Y-145970285D01*
X97651142Y-145970285D01*
X97865428Y-145898857D01*
X98722571Y-145041714D01*
X98722571Y-145970285D01*
X97222571Y-146470285D02*
X97222571Y-147398857D01*
X97794000Y-146898857D01*
X97794000Y-147113142D01*
X97865428Y-147256000D01*
X97936857Y-147327428D01*
X98079714Y-147398857D01*
X98436857Y-147398857D01*
X98579714Y-147327428D01*
X98651142Y-147256000D01*
X98722571Y-147113142D01*
X98722571Y-146684571D01*
X98651142Y-146541714D01*
X98579714Y-146470285D01*
X86967142Y-139113142D02*
X87038571Y-139327428D01*
X87038571Y-139684571D01*
X86967142Y-139827428D01*
X86895714Y-139898857D01*
X86752857Y-139970285D01*
X86610000Y-139970285D01*
X86467142Y-139898857D01*
X86395714Y-139827428D01*
X86324285Y-139684571D01*
X86252857Y-139398857D01*
X86181428Y-139256000D01*
X86110000Y-139184571D01*
X85967142Y-139113142D01*
X85824285Y-139113142D01*
X85681428Y-139184571D01*
X85610000Y-139256000D01*
X85538571Y-139398857D01*
X85538571Y-139756000D01*
X85610000Y-139970285D01*
X85538571Y-140898857D02*
X85538571Y-141184571D01*
X85610000Y-141327428D01*
X85752857Y-141470285D01*
X86038571Y-141541714D01*
X86538571Y-141541714D01*
X86824285Y-141470285D01*
X86967142Y-141327428D01*
X87038571Y-141184571D01*
X87038571Y-140898857D01*
X86967142Y-140756000D01*
X86824285Y-140613142D01*
X86538571Y-140541714D01*
X86038571Y-140541714D01*
X85752857Y-140613142D01*
X85610000Y-140756000D01*
X85538571Y-140898857D01*
X85538571Y-141970285D02*
X85538571Y-142827428D01*
X87038571Y-142398857D02*
X85538571Y-142398857D01*
X86467142Y-143327428D02*
X86467142Y-144470285D01*
X85681428Y-145113142D02*
X85610000Y-145184571D01*
X85538571Y-145327428D01*
X85538571Y-145684571D01*
X85610000Y-145827428D01*
X85681428Y-145898857D01*
X85824285Y-145970285D01*
X85967142Y-145970285D01*
X86181428Y-145898857D01*
X87038571Y-145041714D01*
X87038571Y-145970285D01*
X85538571Y-146470285D02*
X85538571Y-147398857D01*
X86110000Y-146898857D01*
X86110000Y-147113142D01*
X86181428Y-147256000D01*
X86252857Y-147327428D01*
X86395714Y-147398857D01*
X86752857Y-147398857D01*
X86895714Y-147327428D01*
X86967142Y-147256000D01*
X87038571Y-147113142D01*
X87038571Y-146684571D01*
X86967142Y-146541714D01*
X86895714Y-146470285D01*
X78656571Y-139506000D02*
X77156571Y-139506000D01*
X77870857Y-139506000D02*
X77870857Y-140363142D01*
X78656571Y-140363142D02*
X77156571Y-140363142D01*
X78656571Y-141720285D02*
X77870857Y-141720285D01*
X77728000Y-141648857D01*
X77656571Y-141506000D01*
X77656571Y-141220285D01*
X77728000Y-141077428D01*
X78585142Y-141720285D02*
X78656571Y-141577428D01*
X78656571Y-141220285D01*
X78585142Y-141077428D01*
X78442285Y-141006000D01*
X78299428Y-141006000D01*
X78156571Y-141077428D01*
X78085142Y-141220285D01*
X78085142Y-141577428D01*
X78013714Y-141720285D01*
X78656571Y-142434571D02*
X77656571Y-142434571D01*
X77799428Y-142434571D02*
X77728000Y-142506000D01*
X77656571Y-142648857D01*
X77656571Y-142863142D01*
X77728000Y-143006000D01*
X77870857Y-143077428D01*
X78656571Y-143077428D01*
X77870857Y-143077428D02*
X77728000Y-143148857D01*
X77656571Y-143291714D01*
X77656571Y-143506000D01*
X77728000Y-143648857D01*
X77870857Y-143720285D01*
X78656571Y-143720285D01*
X78656571Y-144434571D02*
X77656571Y-144434571D01*
X77156571Y-144434571D02*
X77228000Y-144363142D01*
X77299428Y-144434571D01*
X77228000Y-144506000D01*
X77156571Y-144434571D01*
X77299428Y-144434571D01*
X78585142Y-145077428D02*
X78656571Y-145220285D01*
X78656571Y-145506000D01*
X78585142Y-145648857D01*
X78442285Y-145720285D01*
X78370857Y-145720285D01*
X78228000Y-145648857D01*
X78156571Y-145506000D01*
X78156571Y-145291714D01*
X78085142Y-145148857D01*
X77942285Y-145077428D01*
X77870857Y-145077428D01*
X77728000Y-145148857D01*
X77656571Y-145291714D01*
X77656571Y-145506000D01*
X77728000Y-145648857D01*
X78656571Y-146363142D02*
X77156571Y-146363142D01*
X78656571Y-147006000D02*
X77870857Y-147006000D01*
X77728000Y-146934571D01*
X77656571Y-146791714D01*
X77656571Y-146577428D01*
X77728000Y-146434571D01*
X77799428Y-146363142D01*
X90340571Y-139506000D02*
X88840571Y-139506000D01*
X89554857Y-139506000D02*
X89554857Y-140363142D01*
X90340571Y-140363142D02*
X88840571Y-140363142D01*
X90340571Y-141720285D02*
X89554857Y-141720285D01*
X89412000Y-141648857D01*
X89340571Y-141506000D01*
X89340571Y-141220285D01*
X89412000Y-141077428D01*
X90269142Y-141720285D02*
X90340571Y-141577428D01*
X90340571Y-141220285D01*
X90269142Y-141077428D01*
X90126285Y-141006000D01*
X89983428Y-141006000D01*
X89840571Y-141077428D01*
X89769142Y-141220285D01*
X89769142Y-141577428D01*
X89697714Y-141720285D01*
X90340571Y-142434571D02*
X89340571Y-142434571D01*
X89483428Y-142434571D02*
X89412000Y-142506000D01*
X89340571Y-142648857D01*
X89340571Y-142863142D01*
X89412000Y-143006000D01*
X89554857Y-143077428D01*
X90340571Y-143077428D01*
X89554857Y-143077428D02*
X89412000Y-143148857D01*
X89340571Y-143291714D01*
X89340571Y-143506000D01*
X89412000Y-143648857D01*
X89554857Y-143720285D01*
X90340571Y-143720285D01*
X90340571Y-144434571D02*
X89340571Y-144434571D01*
X88840571Y-144434571D02*
X88912000Y-144363142D01*
X88983428Y-144434571D01*
X88912000Y-144506000D01*
X88840571Y-144434571D01*
X88983428Y-144434571D01*
X90269142Y-145077428D02*
X90340571Y-145220285D01*
X90340571Y-145506000D01*
X90269142Y-145648857D01*
X90126285Y-145720285D01*
X90054857Y-145720285D01*
X89912000Y-145648857D01*
X89840571Y-145506000D01*
X89840571Y-145291714D01*
X89769142Y-145148857D01*
X89626285Y-145077428D01*
X89554857Y-145077428D01*
X89412000Y-145148857D01*
X89340571Y-145291714D01*
X89340571Y-145506000D01*
X89412000Y-145648857D01*
X90340571Y-146363142D02*
X88840571Y-146363142D01*
X90340571Y-147006000D02*
X89554857Y-147006000D01*
X89412000Y-146934571D01*
X89340571Y-146791714D01*
X89340571Y-146577428D01*
X89412000Y-146434571D01*
X89483428Y-146363142D01*
X75283142Y-139113142D02*
X75354571Y-139327428D01*
X75354571Y-139684571D01*
X75283142Y-139827428D01*
X75211714Y-139898857D01*
X75068857Y-139970285D01*
X74926000Y-139970285D01*
X74783142Y-139898857D01*
X74711714Y-139827428D01*
X74640285Y-139684571D01*
X74568857Y-139398857D01*
X74497428Y-139256000D01*
X74426000Y-139184571D01*
X74283142Y-139113142D01*
X74140285Y-139113142D01*
X73997428Y-139184571D01*
X73926000Y-139256000D01*
X73854571Y-139398857D01*
X73854571Y-139756000D01*
X73926000Y-139970285D01*
X73854571Y-140898857D02*
X73854571Y-141184571D01*
X73926000Y-141327428D01*
X74068857Y-141470285D01*
X74354571Y-141541714D01*
X74854571Y-141541714D01*
X75140285Y-141470285D01*
X75283142Y-141327428D01*
X75354571Y-141184571D01*
X75354571Y-140898857D01*
X75283142Y-140756000D01*
X75140285Y-140613142D01*
X74854571Y-140541714D01*
X74354571Y-140541714D01*
X74068857Y-140613142D01*
X73926000Y-140756000D01*
X73854571Y-140898857D01*
X73854571Y-141970285D02*
X73854571Y-142827428D01*
X75354571Y-142398857D02*
X73854571Y-142398857D01*
X74783142Y-143327428D02*
X74783142Y-144470285D01*
X73997428Y-145113142D02*
X73926000Y-145184571D01*
X73854571Y-145327428D01*
X73854571Y-145684571D01*
X73926000Y-145827428D01*
X73997428Y-145898857D01*
X74140285Y-145970285D01*
X74283142Y-145970285D01*
X74497428Y-145898857D01*
X75354571Y-145041714D01*
X75354571Y-145970285D01*
X73854571Y-146470285D02*
X73854571Y-147398857D01*
X74426000Y-146898857D01*
X74426000Y-147113142D01*
X74497428Y-147256000D01*
X74568857Y-147327428D01*
X74711714Y-147398857D01*
X75068857Y-147398857D01*
X75211714Y-147327428D01*
X75283142Y-147256000D01*
X75354571Y-147113142D01*
X75354571Y-146684571D01*
X75283142Y-146541714D01*
X75211714Y-146470285D01*
X66972571Y-139506000D02*
X65472571Y-139506000D01*
X66186857Y-139506000D02*
X66186857Y-140363142D01*
X66972571Y-140363142D02*
X65472571Y-140363142D01*
X66972571Y-141720285D02*
X66186857Y-141720285D01*
X66044000Y-141648857D01*
X65972571Y-141506000D01*
X65972571Y-141220285D01*
X66044000Y-141077428D01*
X66901142Y-141720285D02*
X66972571Y-141577428D01*
X66972571Y-141220285D01*
X66901142Y-141077428D01*
X66758285Y-141006000D01*
X66615428Y-141006000D01*
X66472571Y-141077428D01*
X66401142Y-141220285D01*
X66401142Y-141577428D01*
X66329714Y-141720285D01*
X66972571Y-142434571D02*
X65972571Y-142434571D01*
X66115428Y-142434571D02*
X66044000Y-142506000D01*
X65972571Y-142648857D01*
X65972571Y-142863142D01*
X66044000Y-143006000D01*
X66186857Y-143077428D01*
X66972571Y-143077428D01*
X66186857Y-143077428D02*
X66044000Y-143148857D01*
X65972571Y-143291714D01*
X65972571Y-143506000D01*
X66044000Y-143648857D01*
X66186857Y-143720285D01*
X66972571Y-143720285D01*
X66972571Y-144434571D02*
X65972571Y-144434571D01*
X65472571Y-144434571D02*
X65544000Y-144363142D01*
X65615428Y-144434571D01*
X65544000Y-144506000D01*
X65472571Y-144434571D01*
X65615428Y-144434571D01*
X66901142Y-145077428D02*
X66972571Y-145220285D01*
X66972571Y-145506000D01*
X66901142Y-145648857D01*
X66758285Y-145720285D01*
X66686857Y-145720285D01*
X66544000Y-145648857D01*
X66472571Y-145506000D01*
X66472571Y-145291714D01*
X66401142Y-145148857D01*
X66258285Y-145077428D01*
X66186857Y-145077428D01*
X66044000Y-145148857D01*
X65972571Y-145291714D01*
X65972571Y-145506000D01*
X66044000Y-145648857D01*
X66972571Y-146363142D02*
X65472571Y-146363142D01*
X66972571Y-147006000D02*
X66186857Y-147006000D01*
X66044000Y-146934571D01*
X65972571Y-146791714D01*
X65972571Y-146577428D01*
X66044000Y-146434571D01*
X66115428Y-146363142D01*
X51915142Y-139113142D02*
X51986571Y-139327428D01*
X51986571Y-139684571D01*
X51915142Y-139827428D01*
X51843714Y-139898857D01*
X51700857Y-139970285D01*
X51558000Y-139970285D01*
X51415142Y-139898857D01*
X51343714Y-139827428D01*
X51272285Y-139684571D01*
X51200857Y-139398857D01*
X51129428Y-139256000D01*
X51058000Y-139184571D01*
X50915142Y-139113142D01*
X50772285Y-139113142D01*
X50629428Y-139184571D01*
X50558000Y-139256000D01*
X50486571Y-139398857D01*
X50486571Y-139756000D01*
X50558000Y-139970285D01*
X50486571Y-140898857D02*
X50486571Y-141184571D01*
X50558000Y-141327428D01*
X50700857Y-141470285D01*
X50986571Y-141541714D01*
X51486571Y-141541714D01*
X51772285Y-141470285D01*
X51915142Y-141327428D01*
X51986571Y-141184571D01*
X51986571Y-140898857D01*
X51915142Y-140756000D01*
X51772285Y-140613142D01*
X51486571Y-140541714D01*
X50986571Y-140541714D01*
X50700857Y-140613142D01*
X50558000Y-140756000D01*
X50486571Y-140898857D01*
X50486571Y-141970285D02*
X50486571Y-142827428D01*
X51986571Y-142398857D02*
X50486571Y-142398857D01*
X51415142Y-143327428D02*
X51415142Y-144470285D01*
X50629428Y-145113142D02*
X50558000Y-145184571D01*
X50486571Y-145327428D01*
X50486571Y-145684571D01*
X50558000Y-145827428D01*
X50629428Y-145898857D01*
X50772285Y-145970285D01*
X50915142Y-145970285D01*
X51129428Y-145898857D01*
X51986571Y-145041714D01*
X51986571Y-145970285D01*
X50486571Y-146470285D02*
X50486571Y-147398857D01*
X51058000Y-146898857D01*
X51058000Y-147113142D01*
X51129428Y-147256000D01*
X51200857Y-147327428D01*
X51343714Y-147398857D01*
X51700857Y-147398857D01*
X51843714Y-147327428D01*
X51915142Y-147256000D01*
X51986571Y-147113142D01*
X51986571Y-146684571D01*
X51915142Y-146541714D01*
X51843714Y-146470285D01*
X55288571Y-139506000D02*
X53788571Y-139506000D01*
X54502857Y-139506000D02*
X54502857Y-140363142D01*
X55288571Y-140363142D02*
X53788571Y-140363142D01*
X55288571Y-141720285D02*
X54502857Y-141720285D01*
X54360000Y-141648857D01*
X54288571Y-141506000D01*
X54288571Y-141220285D01*
X54360000Y-141077428D01*
X55217142Y-141720285D02*
X55288571Y-141577428D01*
X55288571Y-141220285D01*
X55217142Y-141077428D01*
X55074285Y-141006000D01*
X54931428Y-141006000D01*
X54788571Y-141077428D01*
X54717142Y-141220285D01*
X54717142Y-141577428D01*
X54645714Y-141720285D01*
X55288571Y-142434571D02*
X54288571Y-142434571D01*
X54431428Y-142434571D02*
X54360000Y-142506000D01*
X54288571Y-142648857D01*
X54288571Y-142863142D01*
X54360000Y-143006000D01*
X54502857Y-143077428D01*
X55288571Y-143077428D01*
X54502857Y-143077428D02*
X54360000Y-143148857D01*
X54288571Y-143291714D01*
X54288571Y-143506000D01*
X54360000Y-143648857D01*
X54502857Y-143720285D01*
X55288571Y-143720285D01*
X55288571Y-144434571D02*
X54288571Y-144434571D01*
X53788571Y-144434571D02*
X53860000Y-144363142D01*
X53931428Y-144434571D01*
X53860000Y-144506000D01*
X53788571Y-144434571D01*
X53931428Y-144434571D01*
X55217142Y-145077428D02*
X55288571Y-145220285D01*
X55288571Y-145506000D01*
X55217142Y-145648857D01*
X55074285Y-145720285D01*
X55002857Y-145720285D01*
X54860000Y-145648857D01*
X54788571Y-145506000D01*
X54788571Y-145291714D01*
X54717142Y-145148857D01*
X54574285Y-145077428D01*
X54502857Y-145077428D01*
X54360000Y-145148857D01*
X54288571Y-145291714D01*
X54288571Y-145506000D01*
X54360000Y-145648857D01*
X55288571Y-146363142D02*
X53788571Y-146363142D01*
X55288571Y-147006000D02*
X54502857Y-147006000D01*
X54360000Y-146934571D01*
X54288571Y-146791714D01*
X54288571Y-146577428D01*
X54360000Y-146434571D01*
X54431428Y-146363142D01*
X63599142Y-139113142D02*
X63670571Y-139327428D01*
X63670571Y-139684571D01*
X63599142Y-139827428D01*
X63527714Y-139898857D01*
X63384857Y-139970285D01*
X63242000Y-139970285D01*
X63099142Y-139898857D01*
X63027714Y-139827428D01*
X62956285Y-139684571D01*
X62884857Y-139398857D01*
X62813428Y-139256000D01*
X62742000Y-139184571D01*
X62599142Y-139113142D01*
X62456285Y-139113142D01*
X62313428Y-139184571D01*
X62242000Y-139256000D01*
X62170571Y-139398857D01*
X62170571Y-139756000D01*
X62242000Y-139970285D01*
X62170571Y-140898857D02*
X62170571Y-141184571D01*
X62242000Y-141327428D01*
X62384857Y-141470285D01*
X62670571Y-141541714D01*
X63170571Y-141541714D01*
X63456285Y-141470285D01*
X63599142Y-141327428D01*
X63670571Y-141184571D01*
X63670571Y-140898857D01*
X63599142Y-140756000D01*
X63456285Y-140613142D01*
X63170571Y-140541714D01*
X62670571Y-140541714D01*
X62384857Y-140613142D01*
X62242000Y-140756000D01*
X62170571Y-140898857D01*
X62170571Y-141970285D02*
X62170571Y-142827428D01*
X63670571Y-142398857D02*
X62170571Y-142398857D01*
X63099142Y-143327428D02*
X63099142Y-144470285D01*
X62313428Y-145113142D02*
X62242000Y-145184571D01*
X62170571Y-145327428D01*
X62170571Y-145684571D01*
X62242000Y-145827428D01*
X62313428Y-145898857D01*
X62456285Y-145970285D01*
X62599142Y-145970285D01*
X62813428Y-145898857D01*
X63670571Y-145041714D01*
X63670571Y-145970285D01*
X62170571Y-146470285D02*
X62170571Y-147398857D01*
X62742000Y-146898857D01*
X62742000Y-147113142D01*
X62813428Y-147256000D01*
X62884857Y-147327428D01*
X63027714Y-147398857D01*
X63384857Y-147398857D01*
X63527714Y-147327428D01*
X63599142Y-147256000D01*
X63670571Y-147113142D01*
X63670571Y-146684571D01*
X63599142Y-146541714D01*
X63527714Y-146470285D01*
X40231142Y-139113142D02*
X40302571Y-139327428D01*
X40302571Y-139684571D01*
X40231142Y-139827428D01*
X40159714Y-139898857D01*
X40016857Y-139970285D01*
X39874000Y-139970285D01*
X39731142Y-139898857D01*
X39659714Y-139827428D01*
X39588285Y-139684571D01*
X39516857Y-139398857D01*
X39445428Y-139256000D01*
X39374000Y-139184571D01*
X39231142Y-139113142D01*
X39088285Y-139113142D01*
X38945428Y-139184571D01*
X38874000Y-139256000D01*
X38802571Y-139398857D01*
X38802571Y-139756000D01*
X38874000Y-139970285D01*
X38802571Y-140898857D02*
X38802571Y-141184571D01*
X38874000Y-141327428D01*
X39016857Y-141470285D01*
X39302571Y-141541714D01*
X39802571Y-141541714D01*
X40088285Y-141470285D01*
X40231142Y-141327428D01*
X40302571Y-141184571D01*
X40302571Y-140898857D01*
X40231142Y-140756000D01*
X40088285Y-140613142D01*
X39802571Y-140541714D01*
X39302571Y-140541714D01*
X39016857Y-140613142D01*
X38874000Y-140756000D01*
X38802571Y-140898857D01*
X38802571Y-141970285D02*
X38802571Y-142827428D01*
X40302571Y-142398857D02*
X38802571Y-142398857D01*
X39731142Y-143327428D02*
X39731142Y-144470285D01*
X38945428Y-145113142D02*
X38874000Y-145184571D01*
X38802571Y-145327428D01*
X38802571Y-145684571D01*
X38874000Y-145827428D01*
X38945428Y-145898857D01*
X39088285Y-145970285D01*
X39231142Y-145970285D01*
X39445428Y-145898857D01*
X40302571Y-145041714D01*
X40302571Y-145970285D01*
X38802571Y-146470285D02*
X38802571Y-147398857D01*
X39374000Y-146898857D01*
X39374000Y-147113142D01*
X39445428Y-147256000D01*
X39516857Y-147327428D01*
X39659714Y-147398857D01*
X40016857Y-147398857D01*
X40159714Y-147327428D01*
X40231142Y-147256000D01*
X40302571Y-147113142D01*
X40302571Y-146684571D01*
X40231142Y-146541714D01*
X40159714Y-146470285D01*
X43604571Y-139506000D02*
X42104571Y-139506000D01*
X42818857Y-139506000D02*
X42818857Y-140363142D01*
X43604571Y-140363142D02*
X42104571Y-140363142D01*
X43604571Y-141720285D02*
X42818857Y-141720285D01*
X42676000Y-141648857D01*
X42604571Y-141506000D01*
X42604571Y-141220285D01*
X42676000Y-141077428D01*
X43533142Y-141720285D02*
X43604571Y-141577428D01*
X43604571Y-141220285D01*
X43533142Y-141077428D01*
X43390285Y-141006000D01*
X43247428Y-141006000D01*
X43104571Y-141077428D01*
X43033142Y-141220285D01*
X43033142Y-141577428D01*
X42961714Y-141720285D01*
X43604571Y-142434571D02*
X42604571Y-142434571D01*
X42747428Y-142434571D02*
X42676000Y-142506000D01*
X42604571Y-142648857D01*
X42604571Y-142863142D01*
X42676000Y-143006000D01*
X42818857Y-143077428D01*
X43604571Y-143077428D01*
X42818857Y-143077428D02*
X42676000Y-143148857D01*
X42604571Y-143291714D01*
X42604571Y-143506000D01*
X42676000Y-143648857D01*
X42818857Y-143720285D01*
X43604571Y-143720285D01*
X43604571Y-144434571D02*
X42604571Y-144434571D01*
X42104571Y-144434571D02*
X42176000Y-144363142D01*
X42247428Y-144434571D01*
X42176000Y-144506000D01*
X42104571Y-144434571D01*
X42247428Y-144434571D01*
X43533142Y-145077428D02*
X43604571Y-145220285D01*
X43604571Y-145506000D01*
X43533142Y-145648857D01*
X43390285Y-145720285D01*
X43318857Y-145720285D01*
X43176000Y-145648857D01*
X43104571Y-145506000D01*
X43104571Y-145291714D01*
X43033142Y-145148857D01*
X42890285Y-145077428D01*
X42818857Y-145077428D01*
X42676000Y-145148857D01*
X42604571Y-145291714D01*
X42604571Y-145506000D01*
X42676000Y-145648857D01*
X43604571Y-146363142D02*
X42104571Y-146363142D01*
X43604571Y-147006000D02*
X42818857Y-147006000D01*
X42676000Y-146934571D01*
X42604571Y-146791714D01*
X42604571Y-146577428D01*
X42676000Y-146434571D01*
X42747428Y-146363142D01*
X28547142Y-153337142D02*
X28618571Y-153551428D01*
X28618571Y-153908571D01*
X28547142Y-154051428D01*
X28475714Y-154122857D01*
X28332857Y-154194285D01*
X28190000Y-154194285D01*
X28047142Y-154122857D01*
X27975714Y-154051428D01*
X27904285Y-153908571D01*
X27832857Y-153622857D01*
X27761428Y-153480000D01*
X27690000Y-153408571D01*
X27547142Y-153337142D01*
X27404285Y-153337142D01*
X27261428Y-153408571D01*
X27190000Y-153480000D01*
X27118571Y-153622857D01*
X27118571Y-153980000D01*
X27190000Y-154194285D01*
X27118571Y-155122857D02*
X27118571Y-155408571D01*
X27190000Y-155551428D01*
X27332857Y-155694285D01*
X27618571Y-155765714D01*
X28118571Y-155765714D01*
X28404285Y-155694285D01*
X28547142Y-155551428D01*
X28618571Y-155408571D01*
X28618571Y-155122857D01*
X28547142Y-154980000D01*
X28404285Y-154837142D01*
X28118571Y-154765714D01*
X27618571Y-154765714D01*
X27332857Y-154837142D01*
X27190000Y-154980000D01*
X27118571Y-155122857D01*
X27118571Y-156194285D02*
X27118571Y-157051428D01*
X28618571Y-156622857D02*
X27118571Y-156622857D01*
X28047142Y-157551428D02*
X28047142Y-158694285D01*
X27261428Y-159337142D02*
X27190000Y-159408571D01*
X27118571Y-159551428D01*
X27118571Y-159908571D01*
X27190000Y-160051428D01*
X27261428Y-160122857D01*
X27404285Y-160194285D01*
X27547142Y-160194285D01*
X27761428Y-160122857D01*
X28618571Y-159265714D01*
X28618571Y-160194285D01*
X27118571Y-160694285D02*
X27118571Y-161622857D01*
X27690000Y-161122857D01*
X27690000Y-161337142D01*
X27761428Y-161480000D01*
X27832857Y-161551428D01*
X27975714Y-161622857D01*
X28332857Y-161622857D01*
X28475714Y-161551428D01*
X28547142Y-161480000D01*
X28618571Y-161337142D01*
X28618571Y-160908571D01*
X28547142Y-160765714D01*
X28475714Y-160694285D01*
X31920571Y-153730000D02*
X30420571Y-153730000D01*
X31134857Y-153730000D02*
X31134857Y-154587142D01*
X31920571Y-154587142D02*
X30420571Y-154587142D01*
X31920571Y-155944285D02*
X31134857Y-155944285D01*
X30992000Y-155872857D01*
X30920571Y-155730000D01*
X30920571Y-155444285D01*
X30992000Y-155301428D01*
X31849142Y-155944285D02*
X31920571Y-155801428D01*
X31920571Y-155444285D01*
X31849142Y-155301428D01*
X31706285Y-155230000D01*
X31563428Y-155230000D01*
X31420571Y-155301428D01*
X31349142Y-155444285D01*
X31349142Y-155801428D01*
X31277714Y-155944285D01*
X31920571Y-156658571D02*
X30920571Y-156658571D01*
X31063428Y-156658571D02*
X30992000Y-156730000D01*
X30920571Y-156872857D01*
X30920571Y-157087142D01*
X30992000Y-157230000D01*
X31134857Y-157301428D01*
X31920571Y-157301428D01*
X31134857Y-157301428D02*
X30992000Y-157372857D01*
X30920571Y-157515714D01*
X30920571Y-157730000D01*
X30992000Y-157872857D01*
X31134857Y-157944285D01*
X31920571Y-157944285D01*
X31920571Y-158658571D02*
X30920571Y-158658571D01*
X30420571Y-158658571D02*
X30492000Y-158587142D01*
X30563428Y-158658571D01*
X30492000Y-158730000D01*
X30420571Y-158658571D01*
X30563428Y-158658571D01*
X31849142Y-159301428D02*
X31920571Y-159444285D01*
X31920571Y-159730000D01*
X31849142Y-159872857D01*
X31706285Y-159944285D01*
X31634857Y-159944285D01*
X31492000Y-159872857D01*
X31420571Y-159730000D01*
X31420571Y-159515714D01*
X31349142Y-159372857D01*
X31206285Y-159301428D01*
X31134857Y-159301428D01*
X30992000Y-159372857D01*
X30920571Y-159515714D01*
X30920571Y-159730000D01*
X30992000Y-159872857D01*
X31920571Y-160587142D02*
X30420571Y-160587142D01*
X31920571Y-161230000D02*
X31134857Y-161230000D01*
X30992000Y-161158571D01*
X30920571Y-161015714D01*
X30920571Y-160801428D01*
X30992000Y-160658571D01*
X31063428Y-160587142D01*
X110335142Y-153337142D02*
X110406571Y-153551428D01*
X110406571Y-153908571D01*
X110335142Y-154051428D01*
X110263714Y-154122857D01*
X110120857Y-154194285D01*
X109978000Y-154194285D01*
X109835142Y-154122857D01*
X109763714Y-154051428D01*
X109692285Y-153908571D01*
X109620857Y-153622857D01*
X109549428Y-153480000D01*
X109478000Y-153408571D01*
X109335142Y-153337142D01*
X109192285Y-153337142D01*
X109049428Y-153408571D01*
X108978000Y-153480000D01*
X108906571Y-153622857D01*
X108906571Y-153980000D01*
X108978000Y-154194285D01*
X108906571Y-155122857D02*
X108906571Y-155408571D01*
X108978000Y-155551428D01*
X109120857Y-155694285D01*
X109406571Y-155765714D01*
X109906571Y-155765714D01*
X110192285Y-155694285D01*
X110335142Y-155551428D01*
X110406571Y-155408571D01*
X110406571Y-155122857D01*
X110335142Y-154980000D01*
X110192285Y-154837142D01*
X109906571Y-154765714D01*
X109406571Y-154765714D01*
X109120857Y-154837142D01*
X108978000Y-154980000D01*
X108906571Y-155122857D01*
X108906571Y-156194285D02*
X108906571Y-157051428D01*
X110406571Y-156622857D02*
X108906571Y-156622857D01*
X109835142Y-157551428D02*
X109835142Y-158694285D01*
X109049428Y-159337142D02*
X108978000Y-159408571D01*
X108906571Y-159551428D01*
X108906571Y-159908571D01*
X108978000Y-160051428D01*
X109049428Y-160122857D01*
X109192285Y-160194285D01*
X109335142Y-160194285D01*
X109549428Y-160122857D01*
X110406571Y-159265714D01*
X110406571Y-160194285D01*
X108906571Y-160694285D02*
X108906571Y-161622857D01*
X109478000Y-161122857D01*
X109478000Y-161337142D01*
X109549428Y-161480000D01*
X109620857Y-161551428D01*
X109763714Y-161622857D01*
X110120857Y-161622857D01*
X110263714Y-161551428D01*
X110335142Y-161480000D01*
X110406571Y-161337142D01*
X110406571Y-160908571D01*
X110335142Y-160765714D01*
X110263714Y-160694285D01*
X102024571Y-153730000D02*
X100524571Y-153730000D01*
X101238857Y-153730000D02*
X101238857Y-154587142D01*
X102024571Y-154587142D02*
X100524571Y-154587142D01*
X102024571Y-155944285D02*
X101238857Y-155944285D01*
X101096000Y-155872857D01*
X101024571Y-155730000D01*
X101024571Y-155444285D01*
X101096000Y-155301428D01*
X101953142Y-155944285D02*
X102024571Y-155801428D01*
X102024571Y-155444285D01*
X101953142Y-155301428D01*
X101810285Y-155230000D01*
X101667428Y-155230000D01*
X101524571Y-155301428D01*
X101453142Y-155444285D01*
X101453142Y-155801428D01*
X101381714Y-155944285D01*
X102024571Y-156658571D02*
X101024571Y-156658571D01*
X101167428Y-156658571D02*
X101096000Y-156730000D01*
X101024571Y-156872857D01*
X101024571Y-157087142D01*
X101096000Y-157230000D01*
X101238857Y-157301428D01*
X102024571Y-157301428D01*
X101238857Y-157301428D02*
X101096000Y-157372857D01*
X101024571Y-157515714D01*
X101024571Y-157730000D01*
X101096000Y-157872857D01*
X101238857Y-157944285D01*
X102024571Y-157944285D01*
X102024571Y-158658571D02*
X101024571Y-158658571D01*
X100524571Y-158658571D02*
X100596000Y-158587142D01*
X100667428Y-158658571D01*
X100596000Y-158730000D01*
X100524571Y-158658571D01*
X100667428Y-158658571D01*
X101953142Y-159301428D02*
X102024571Y-159444285D01*
X102024571Y-159730000D01*
X101953142Y-159872857D01*
X101810285Y-159944285D01*
X101738857Y-159944285D01*
X101596000Y-159872857D01*
X101524571Y-159730000D01*
X101524571Y-159515714D01*
X101453142Y-159372857D01*
X101310285Y-159301428D01*
X101238857Y-159301428D01*
X101096000Y-159372857D01*
X101024571Y-159515714D01*
X101024571Y-159730000D01*
X101096000Y-159872857D01*
X102024571Y-160587142D02*
X100524571Y-160587142D01*
X102024571Y-161230000D02*
X101238857Y-161230000D01*
X101096000Y-161158571D01*
X101024571Y-161015714D01*
X101024571Y-160801428D01*
X101096000Y-160658571D01*
X101167428Y-160587142D01*
X113708571Y-153730000D02*
X112208571Y-153730000D01*
X112922857Y-153730000D02*
X112922857Y-154587142D01*
X113708571Y-154587142D02*
X112208571Y-154587142D01*
X113708571Y-155944285D02*
X112922857Y-155944285D01*
X112780000Y-155872857D01*
X112708571Y-155730000D01*
X112708571Y-155444285D01*
X112780000Y-155301428D01*
X113637142Y-155944285D02*
X113708571Y-155801428D01*
X113708571Y-155444285D01*
X113637142Y-155301428D01*
X113494285Y-155230000D01*
X113351428Y-155230000D01*
X113208571Y-155301428D01*
X113137142Y-155444285D01*
X113137142Y-155801428D01*
X113065714Y-155944285D01*
X113708571Y-156658571D02*
X112708571Y-156658571D01*
X112851428Y-156658571D02*
X112780000Y-156730000D01*
X112708571Y-156872857D01*
X112708571Y-157087142D01*
X112780000Y-157230000D01*
X112922857Y-157301428D01*
X113708571Y-157301428D01*
X112922857Y-157301428D02*
X112780000Y-157372857D01*
X112708571Y-157515714D01*
X112708571Y-157730000D01*
X112780000Y-157872857D01*
X112922857Y-157944285D01*
X113708571Y-157944285D01*
X113708571Y-158658571D02*
X112708571Y-158658571D01*
X112208571Y-158658571D02*
X112280000Y-158587142D01*
X112351428Y-158658571D01*
X112280000Y-158730000D01*
X112208571Y-158658571D01*
X112351428Y-158658571D01*
X113637142Y-159301428D02*
X113708571Y-159444285D01*
X113708571Y-159730000D01*
X113637142Y-159872857D01*
X113494285Y-159944285D01*
X113422857Y-159944285D01*
X113280000Y-159872857D01*
X113208571Y-159730000D01*
X113208571Y-159515714D01*
X113137142Y-159372857D01*
X112994285Y-159301428D01*
X112922857Y-159301428D01*
X112780000Y-159372857D01*
X112708571Y-159515714D01*
X112708571Y-159730000D01*
X112780000Y-159872857D01*
X113708571Y-160587142D02*
X112208571Y-160587142D01*
X113708571Y-161230000D02*
X112922857Y-161230000D01*
X112780000Y-161158571D01*
X112708571Y-161015714D01*
X112708571Y-160801428D01*
X112780000Y-160658571D01*
X112851428Y-160587142D01*
X98651142Y-153337142D02*
X98722571Y-153551428D01*
X98722571Y-153908571D01*
X98651142Y-154051428D01*
X98579714Y-154122857D01*
X98436857Y-154194285D01*
X98294000Y-154194285D01*
X98151142Y-154122857D01*
X98079714Y-154051428D01*
X98008285Y-153908571D01*
X97936857Y-153622857D01*
X97865428Y-153480000D01*
X97794000Y-153408571D01*
X97651142Y-153337142D01*
X97508285Y-153337142D01*
X97365428Y-153408571D01*
X97294000Y-153480000D01*
X97222571Y-153622857D01*
X97222571Y-153980000D01*
X97294000Y-154194285D01*
X97222571Y-155122857D02*
X97222571Y-155408571D01*
X97294000Y-155551428D01*
X97436857Y-155694285D01*
X97722571Y-155765714D01*
X98222571Y-155765714D01*
X98508285Y-155694285D01*
X98651142Y-155551428D01*
X98722571Y-155408571D01*
X98722571Y-155122857D01*
X98651142Y-154980000D01*
X98508285Y-154837142D01*
X98222571Y-154765714D01*
X97722571Y-154765714D01*
X97436857Y-154837142D01*
X97294000Y-154980000D01*
X97222571Y-155122857D01*
X97222571Y-156194285D02*
X97222571Y-157051428D01*
X98722571Y-156622857D02*
X97222571Y-156622857D01*
X98151142Y-157551428D02*
X98151142Y-158694285D01*
X97365428Y-159337142D02*
X97294000Y-159408571D01*
X97222571Y-159551428D01*
X97222571Y-159908571D01*
X97294000Y-160051428D01*
X97365428Y-160122857D01*
X97508285Y-160194285D01*
X97651142Y-160194285D01*
X97865428Y-160122857D01*
X98722571Y-159265714D01*
X98722571Y-160194285D01*
X97222571Y-160694285D02*
X97222571Y-161622857D01*
X97794000Y-161122857D01*
X97794000Y-161337142D01*
X97865428Y-161480000D01*
X97936857Y-161551428D01*
X98079714Y-161622857D01*
X98436857Y-161622857D01*
X98579714Y-161551428D01*
X98651142Y-161480000D01*
X98722571Y-161337142D01*
X98722571Y-160908571D01*
X98651142Y-160765714D01*
X98579714Y-160694285D01*
X86967142Y-153337142D02*
X87038571Y-153551428D01*
X87038571Y-153908571D01*
X86967142Y-154051428D01*
X86895714Y-154122857D01*
X86752857Y-154194285D01*
X86610000Y-154194285D01*
X86467142Y-154122857D01*
X86395714Y-154051428D01*
X86324285Y-153908571D01*
X86252857Y-153622857D01*
X86181428Y-153480000D01*
X86110000Y-153408571D01*
X85967142Y-153337142D01*
X85824285Y-153337142D01*
X85681428Y-153408571D01*
X85610000Y-153480000D01*
X85538571Y-153622857D01*
X85538571Y-153980000D01*
X85610000Y-154194285D01*
X85538571Y-155122857D02*
X85538571Y-155408571D01*
X85610000Y-155551428D01*
X85752857Y-155694285D01*
X86038571Y-155765714D01*
X86538571Y-155765714D01*
X86824285Y-155694285D01*
X86967142Y-155551428D01*
X87038571Y-155408571D01*
X87038571Y-155122857D01*
X86967142Y-154980000D01*
X86824285Y-154837142D01*
X86538571Y-154765714D01*
X86038571Y-154765714D01*
X85752857Y-154837142D01*
X85610000Y-154980000D01*
X85538571Y-155122857D01*
X85538571Y-156194285D02*
X85538571Y-157051428D01*
X87038571Y-156622857D02*
X85538571Y-156622857D01*
X86467142Y-157551428D02*
X86467142Y-158694285D01*
X85681428Y-159337142D02*
X85610000Y-159408571D01*
X85538571Y-159551428D01*
X85538571Y-159908571D01*
X85610000Y-160051428D01*
X85681428Y-160122857D01*
X85824285Y-160194285D01*
X85967142Y-160194285D01*
X86181428Y-160122857D01*
X87038571Y-159265714D01*
X87038571Y-160194285D01*
X85538571Y-160694285D02*
X85538571Y-161622857D01*
X86110000Y-161122857D01*
X86110000Y-161337142D01*
X86181428Y-161480000D01*
X86252857Y-161551428D01*
X86395714Y-161622857D01*
X86752857Y-161622857D01*
X86895714Y-161551428D01*
X86967142Y-161480000D01*
X87038571Y-161337142D01*
X87038571Y-160908571D01*
X86967142Y-160765714D01*
X86895714Y-160694285D01*
X78656571Y-153730000D02*
X77156571Y-153730000D01*
X77870857Y-153730000D02*
X77870857Y-154587142D01*
X78656571Y-154587142D02*
X77156571Y-154587142D01*
X78656571Y-155944285D02*
X77870857Y-155944285D01*
X77728000Y-155872857D01*
X77656571Y-155730000D01*
X77656571Y-155444285D01*
X77728000Y-155301428D01*
X78585142Y-155944285D02*
X78656571Y-155801428D01*
X78656571Y-155444285D01*
X78585142Y-155301428D01*
X78442285Y-155230000D01*
X78299428Y-155230000D01*
X78156571Y-155301428D01*
X78085142Y-155444285D01*
X78085142Y-155801428D01*
X78013714Y-155944285D01*
X78656571Y-156658571D02*
X77656571Y-156658571D01*
X77799428Y-156658571D02*
X77728000Y-156730000D01*
X77656571Y-156872857D01*
X77656571Y-157087142D01*
X77728000Y-157230000D01*
X77870857Y-157301428D01*
X78656571Y-157301428D01*
X77870857Y-157301428D02*
X77728000Y-157372857D01*
X77656571Y-157515714D01*
X77656571Y-157730000D01*
X77728000Y-157872857D01*
X77870857Y-157944285D01*
X78656571Y-157944285D01*
X78656571Y-158658571D02*
X77656571Y-158658571D01*
X77156571Y-158658571D02*
X77228000Y-158587142D01*
X77299428Y-158658571D01*
X77228000Y-158730000D01*
X77156571Y-158658571D01*
X77299428Y-158658571D01*
X78585142Y-159301428D02*
X78656571Y-159444285D01*
X78656571Y-159730000D01*
X78585142Y-159872857D01*
X78442285Y-159944285D01*
X78370857Y-159944285D01*
X78228000Y-159872857D01*
X78156571Y-159730000D01*
X78156571Y-159515714D01*
X78085142Y-159372857D01*
X77942285Y-159301428D01*
X77870857Y-159301428D01*
X77728000Y-159372857D01*
X77656571Y-159515714D01*
X77656571Y-159730000D01*
X77728000Y-159872857D01*
X78656571Y-160587142D02*
X77156571Y-160587142D01*
X78656571Y-161230000D02*
X77870857Y-161230000D01*
X77728000Y-161158571D01*
X77656571Y-161015714D01*
X77656571Y-160801428D01*
X77728000Y-160658571D01*
X77799428Y-160587142D01*
X90340571Y-153730000D02*
X88840571Y-153730000D01*
X89554857Y-153730000D02*
X89554857Y-154587142D01*
X90340571Y-154587142D02*
X88840571Y-154587142D01*
X90340571Y-155944285D02*
X89554857Y-155944285D01*
X89412000Y-155872857D01*
X89340571Y-155730000D01*
X89340571Y-155444285D01*
X89412000Y-155301428D01*
X90269142Y-155944285D02*
X90340571Y-155801428D01*
X90340571Y-155444285D01*
X90269142Y-155301428D01*
X90126285Y-155230000D01*
X89983428Y-155230000D01*
X89840571Y-155301428D01*
X89769142Y-155444285D01*
X89769142Y-155801428D01*
X89697714Y-155944285D01*
X90340571Y-156658571D02*
X89340571Y-156658571D01*
X89483428Y-156658571D02*
X89412000Y-156730000D01*
X89340571Y-156872857D01*
X89340571Y-157087142D01*
X89412000Y-157230000D01*
X89554857Y-157301428D01*
X90340571Y-157301428D01*
X89554857Y-157301428D02*
X89412000Y-157372857D01*
X89340571Y-157515714D01*
X89340571Y-157730000D01*
X89412000Y-157872857D01*
X89554857Y-157944285D01*
X90340571Y-157944285D01*
X90340571Y-158658571D02*
X89340571Y-158658571D01*
X88840571Y-158658571D02*
X88912000Y-158587142D01*
X88983428Y-158658571D01*
X88912000Y-158730000D01*
X88840571Y-158658571D01*
X88983428Y-158658571D01*
X90269142Y-159301428D02*
X90340571Y-159444285D01*
X90340571Y-159730000D01*
X90269142Y-159872857D01*
X90126285Y-159944285D01*
X90054857Y-159944285D01*
X89912000Y-159872857D01*
X89840571Y-159730000D01*
X89840571Y-159515714D01*
X89769142Y-159372857D01*
X89626285Y-159301428D01*
X89554857Y-159301428D01*
X89412000Y-159372857D01*
X89340571Y-159515714D01*
X89340571Y-159730000D01*
X89412000Y-159872857D01*
X90340571Y-160587142D02*
X88840571Y-160587142D01*
X90340571Y-161230000D02*
X89554857Y-161230000D01*
X89412000Y-161158571D01*
X89340571Y-161015714D01*
X89340571Y-160801428D01*
X89412000Y-160658571D01*
X89483428Y-160587142D01*
X75283142Y-153337142D02*
X75354571Y-153551428D01*
X75354571Y-153908571D01*
X75283142Y-154051428D01*
X75211714Y-154122857D01*
X75068857Y-154194285D01*
X74926000Y-154194285D01*
X74783142Y-154122857D01*
X74711714Y-154051428D01*
X74640285Y-153908571D01*
X74568857Y-153622857D01*
X74497428Y-153480000D01*
X74426000Y-153408571D01*
X74283142Y-153337142D01*
X74140285Y-153337142D01*
X73997428Y-153408571D01*
X73926000Y-153480000D01*
X73854571Y-153622857D01*
X73854571Y-153980000D01*
X73926000Y-154194285D01*
X73854571Y-155122857D02*
X73854571Y-155408571D01*
X73926000Y-155551428D01*
X74068857Y-155694285D01*
X74354571Y-155765714D01*
X74854571Y-155765714D01*
X75140285Y-155694285D01*
X75283142Y-155551428D01*
X75354571Y-155408571D01*
X75354571Y-155122857D01*
X75283142Y-154980000D01*
X75140285Y-154837142D01*
X74854571Y-154765714D01*
X74354571Y-154765714D01*
X74068857Y-154837142D01*
X73926000Y-154980000D01*
X73854571Y-155122857D01*
X73854571Y-156194285D02*
X73854571Y-157051428D01*
X75354571Y-156622857D02*
X73854571Y-156622857D01*
X74783142Y-157551428D02*
X74783142Y-158694285D01*
X73997428Y-159337142D02*
X73926000Y-159408571D01*
X73854571Y-159551428D01*
X73854571Y-159908571D01*
X73926000Y-160051428D01*
X73997428Y-160122857D01*
X74140285Y-160194285D01*
X74283142Y-160194285D01*
X74497428Y-160122857D01*
X75354571Y-159265714D01*
X75354571Y-160194285D01*
X73854571Y-160694285D02*
X73854571Y-161622857D01*
X74426000Y-161122857D01*
X74426000Y-161337142D01*
X74497428Y-161480000D01*
X74568857Y-161551428D01*
X74711714Y-161622857D01*
X75068857Y-161622857D01*
X75211714Y-161551428D01*
X75283142Y-161480000D01*
X75354571Y-161337142D01*
X75354571Y-160908571D01*
X75283142Y-160765714D01*
X75211714Y-160694285D01*
X66972571Y-153730000D02*
X65472571Y-153730000D01*
X66186857Y-153730000D02*
X66186857Y-154587142D01*
X66972571Y-154587142D02*
X65472571Y-154587142D01*
X66972571Y-155944285D02*
X66186857Y-155944285D01*
X66044000Y-155872857D01*
X65972571Y-155730000D01*
X65972571Y-155444285D01*
X66044000Y-155301428D01*
X66901142Y-155944285D02*
X66972571Y-155801428D01*
X66972571Y-155444285D01*
X66901142Y-155301428D01*
X66758285Y-155230000D01*
X66615428Y-155230000D01*
X66472571Y-155301428D01*
X66401142Y-155444285D01*
X66401142Y-155801428D01*
X66329714Y-155944285D01*
X66972571Y-156658571D02*
X65972571Y-156658571D01*
X66115428Y-156658571D02*
X66044000Y-156730000D01*
X65972571Y-156872857D01*
X65972571Y-157087142D01*
X66044000Y-157230000D01*
X66186857Y-157301428D01*
X66972571Y-157301428D01*
X66186857Y-157301428D02*
X66044000Y-157372857D01*
X65972571Y-157515714D01*
X65972571Y-157730000D01*
X66044000Y-157872857D01*
X66186857Y-157944285D01*
X66972571Y-157944285D01*
X66972571Y-158658571D02*
X65972571Y-158658571D01*
X65472571Y-158658571D02*
X65544000Y-158587142D01*
X65615428Y-158658571D01*
X65544000Y-158730000D01*
X65472571Y-158658571D01*
X65615428Y-158658571D01*
X66901142Y-159301428D02*
X66972571Y-159444285D01*
X66972571Y-159730000D01*
X66901142Y-159872857D01*
X66758285Y-159944285D01*
X66686857Y-159944285D01*
X66544000Y-159872857D01*
X66472571Y-159730000D01*
X66472571Y-159515714D01*
X66401142Y-159372857D01*
X66258285Y-159301428D01*
X66186857Y-159301428D01*
X66044000Y-159372857D01*
X65972571Y-159515714D01*
X65972571Y-159730000D01*
X66044000Y-159872857D01*
X66972571Y-160587142D02*
X65472571Y-160587142D01*
X66972571Y-161230000D02*
X66186857Y-161230000D01*
X66044000Y-161158571D01*
X65972571Y-161015714D01*
X65972571Y-160801428D01*
X66044000Y-160658571D01*
X66115428Y-160587142D01*
X51915142Y-153337142D02*
X51986571Y-153551428D01*
X51986571Y-153908571D01*
X51915142Y-154051428D01*
X51843714Y-154122857D01*
X51700857Y-154194285D01*
X51558000Y-154194285D01*
X51415142Y-154122857D01*
X51343714Y-154051428D01*
X51272285Y-153908571D01*
X51200857Y-153622857D01*
X51129428Y-153480000D01*
X51058000Y-153408571D01*
X50915142Y-153337142D01*
X50772285Y-153337142D01*
X50629428Y-153408571D01*
X50558000Y-153480000D01*
X50486571Y-153622857D01*
X50486571Y-153980000D01*
X50558000Y-154194285D01*
X50486571Y-155122857D02*
X50486571Y-155408571D01*
X50558000Y-155551428D01*
X50700857Y-155694285D01*
X50986571Y-155765714D01*
X51486571Y-155765714D01*
X51772285Y-155694285D01*
X51915142Y-155551428D01*
X51986571Y-155408571D01*
X51986571Y-155122857D01*
X51915142Y-154980000D01*
X51772285Y-154837142D01*
X51486571Y-154765714D01*
X50986571Y-154765714D01*
X50700857Y-154837142D01*
X50558000Y-154980000D01*
X50486571Y-155122857D01*
X50486571Y-156194285D02*
X50486571Y-157051428D01*
X51986571Y-156622857D02*
X50486571Y-156622857D01*
X51415142Y-157551428D02*
X51415142Y-158694285D01*
X50629428Y-159337142D02*
X50558000Y-159408571D01*
X50486571Y-159551428D01*
X50486571Y-159908571D01*
X50558000Y-160051428D01*
X50629428Y-160122857D01*
X50772285Y-160194285D01*
X50915142Y-160194285D01*
X51129428Y-160122857D01*
X51986571Y-159265714D01*
X51986571Y-160194285D01*
X50486571Y-160694285D02*
X50486571Y-161622857D01*
X51058000Y-161122857D01*
X51058000Y-161337142D01*
X51129428Y-161480000D01*
X51200857Y-161551428D01*
X51343714Y-161622857D01*
X51700857Y-161622857D01*
X51843714Y-161551428D01*
X51915142Y-161480000D01*
X51986571Y-161337142D01*
X51986571Y-160908571D01*
X51915142Y-160765714D01*
X51843714Y-160694285D01*
X55288571Y-153730000D02*
X53788571Y-153730000D01*
X54502857Y-153730000D02*
X54502857Y-154587142D01*
X55288571Y-154587142D02*
X53788571Y-154587142D01*
X55288571Y-155944285D02*
X54502857Y-155944285D01*
X54360000Y-155872857D01*
X54288571Y-155730000D01*
X54288571Y-155444285D01*
X54360000Y-155301428D01*
X55217142Y-155944285D02*
X55288571Y-155801428D01*
X55288571Y-155444285D01*
X55217142Y-155301428D01*
X55074285Y-155230000D01*
X54931428Y-155230000D01*
X54788571Y-155301428D01*
X54717142Y-155444285D01*
X54717142Y-155801428D01*
X54645714Y-155944285D01*
X55288571Y-156658571D02*
X54288571Y-156658571D01*
X54431428Y-156658571D02*
X54360000Y-156730000D01*
X54288571Y-156872857D01*
X54288571Y-157087142D01*
X54360000Y-157230000D01*
X54502857Y-157301428D01*
X55288571Y-157301428D01*
X54502857Y-157301428D02*
X54360000Y-157372857D01*
X54288571Y-157515714D01*
X54288571Y-157730000D01*
X54360000Y-157872857D01*
X54502857Y-157944285D01*
X55288571Y-157944285D01*
X55288571Y-158658571D02*
X54288571Y-158658571D01*
X53788571Y-158658571D02*
X53860000Y-158587142D01*
X53931428Y-158658571D01*
X53860000Y-158730000D01*
X53788571Y-158658571D01*
X53931428Y-158658571D01*
X55217142Y-159301428D02*
X55288571Y-159444285D01*
X55288571Y-159730000D01*
X55217142Y-159872857D01*
X55074285Y-159944285D01*
X55002857Y-159944285D01*
X54860000Y-159872857D01*
X54788571Y-159730000D01*
X54788571Y-159515714D01*
X54717142Y-159372857D01*
X54574285Y-159301428D01*
X54502857Y-159301428D01*
X54360000Y-159372857D01*
X54288571Y-159515714D01*
X54288571Y-159730000D01*
X54360000Y-159872857D01*
X55288571Y-160587142D02*
X53788571Y-160587142D01*
X55288571Y-161230000D02*
X54502857Y-161230000D01*
X54360000Y-161158571D01*
X54288571Y-161015714D01*
X54288571Y-160801428D01*
X54360000Y-160658571D01*
X54431428Y-160587142D01*
X63599142Y-153337142D02*
X63670571Y-153551428D01*
X63670571Y-153908571D01*
X63599142Y-154051428D01*
X63527714Y-154122857D01*
X63384857Y-154194285D01*
X63242000Y-154194285D01*
X63099142Y-154122857D01*
X63027714Y-154051428D01*
X62956285Y-153908571D01*
X62884857Y-153622857D01*
X62813428Y-153480000D01*
X62742000Y-153408571D01*
X62599142Y-153337142D01*
X62456285Y-153337142D01*
X62313428Y-153408571D01*
X62242000Y-153480000D01*
X62170571Y-153622857D01*
X62170571Y-153980000D01*
X62242000Y-154194285D01*
X62170571Y-155122857D02*
X62170571Y-155408571D01*
X62242000Y-155551428D01*
X62384857Y-155694285D01*
X62670571Y-155765714D01*
X63170571Y-155765714D01*
X63456285Y-155694285D01*
X63599142Y-155551428D01*
X63670571Y-155408571D01*
X63670571Y-155122857D01*
X63599142Y-154980000D01*
X63456285Y-154837142D01*
X63170571Y-154765714D01*
X62670571Y-154765714D01*
X62384857Y-154837142D01*
X62242000Y-154980000D01*
X62170571Y-155122857D01*
X62170571Y-156194285D02*
X62170571Y-157051428D01*
X63670571Y-156622857D02*
X62170571Y-156622857D01*
X63099142Y-157551428D02*
X63099142Y-158694285D01*
X62313428Y-159337142D02*
X62242000Y-159408571D01*
X62170571Y-159551428D01*
X62170571Y-159908571D01*
X62242000Y-160051428D01*
X62313428Y-160122857D01*
X62456285Y-160194285D01*
X62599142Y-160194285D01*
X62813428Y-160122857D01*
X63670571Y-159265714D01*
X63670571Y-160194285D01*
X62170571Y-160694285D02*
X62170571Y-161622857D01*
X62742000Y-161122857D01*
X62742000Y-161337142D01*
X62813428Y-161480000D01*
X62884857Y-161551428D01*
X63027714Y-161622857D01*
X63384857Y-161622857D01*
X63527714Y-161551428D01*
X63599142Y-161480000D01*
X63670571Y-161337142D01*
X63670571Y-160908571D01*
X63599142Y-160765714D01*
X63527714Y-160694285D01*
X40231142Y-153337142D02*
X40302571Y-153551428D01*
X40302571Y-153908571D01*
X40231142Y-154051428D01*
X40159714Y-154122857D01*
X40016857Y-154194285D01*
X39874000Y-154194285D01*
X39731142Y-154122857D01*
X39659714Y-154051428D01*
X39588285Y-153908571D01*
X39516857Y-153622857D01*
X39445428Y-153480000D01*
X39374000Y-153408571D01*
X39231142Y-153337142D01*
X39088285Y-153337142D01*
X38945428Y-153408571D01*
X38874000Y-153480000D01*
X38802571Y-153622857D01*
X38802571Y-153980000D01*
X38874000Y-154194285D01*
X38802571Y-155122857D02*
X38802571Y-155408571D01*
X38874000Y-155551428D01*
X39016857Y-155694285D01*
X39302571Y-155765714D01*
X39802571Y-155765714D01*
X40088285Y-155694285D01*
X40231142Y-155551428D01*
X40302571Y-155408571D01*
X40302571Y-155122857D01*
X40231142Y-154980000D01*
X40088285Y-154837142D01*
X39802571Y-154765714D01*
X39302571Y-154765714D01*
X39016857Y-154837142D01*
X38874000Y-154980000D01*
X38802571Y-155122857D01*
X38802571Y-156194285D02*
X38802571Y-157051428D01*
X40302571Y-156622857D02*
X38802571Y-156622857D01*
X39731142Y-157551428D02*
X39731142Y-158694285D01*
X38945428Y-159337142D02*
X38874000Y-159408571D01*
X38802571Y-159551428D01*
X38802571Y-159908571D01*
X38874000Y-160051428D01*
X38945428Y-160122857D01*
X39088285Y-160194285D01*
X39231142Y-160194285D01*
X39445428Y-160122857D01*
X40302571Y-159265714D01*
X40302571Y-160194285D01*
X38802571Y-160694285D02*
X38802571Y-161622857D01*
X39374000Y-161122857D01*
X39374000Y-161337142D01*
X39445428Y-161480000D01*
X39516857Y-161551428D01*
X39659714Y-161622857D01*
X40016857Y-161622857D01*
X40159714Y-161551428D01*
X40231142Y-161480000D01*
X40302571Y-161337142D01*
X40302571Y-160908571D01*
X40231142Y-160765714D01*
X40159714Y-160694285D01*
X43604571Y-153730000D02*
X42104571Y-153730000D01*
X42818857Y-153730000D02*
X42818857Y-154587142D01*
X43604571Y-154587142D02*
X42104571Y-154587142D01*
X43604571Y-155944285D02*
X42818857Y-155944285D01*
X42676000Y-155872857D01*
X42604571Y-155730000D01*
X42604571Y-155444285D01*
X42676000Y-155301428D01*
X43533142Y-155944285D02*
X43604571Y-155801428D01*
X43604571Y-155444285D01*
X43533142Y-155301428D01*
X43390285Y-155230000D01*
X43247428Y-155230000D01*
X43104571Y-155301428D01*
X43033142Y-155444285D01*
X43033142Y-155801428D01*
X42961714Y-155944285D01*
X43604571Y-156658571D02*
X42604571Y-156658571D01*
X42747428Y-156658571D02*
X42676000Y-156730000D01*
X42604571Y-156872857D01*
X42604571Y-157087142D01*
X42676000Y-157230000D01*
X42818857Y-157301428D01*
X43604571Y-157301428D01*
X42818857Y-157301428D02*
X42676000Y-157372857D01*
X42604571Y-157515714D01*
X42604571Y-157730000D01*
X42676000Y-157872857D01*
X42818857Y-157944285D01*
X43604571Y-157944285D01*
X43604571Y-158658571D02*
X42604571Y-158658571D01*
X42104571Y-158658571D02*
X42176000Y-158587142D01*
X42247428Y-158658571D01*
X42176000Y-158730000D01*
X42104571Y-158658571D01*
X42247428Y-158658571D01*
X43533142Y-159301428D02*
X43604571Y-159444285D01*
X43604571Y-159730000D01*
X43533142Y-159872857D01*
X43390285Y-159944285D01*
X43318857Y-159944285D01*
X43176000Y-159872857D01*
X43104571Y-159730000D01*
X43104571Y-159515714D01*
X43033142Y-159372857D01*
X42890285Y-159301428D01*
X42818857Y-159301428D01*
X42676000Y-159372857D01*
X42604571Y-159515714D01*
X42604571Y-159730000D01*
X42676000Y-159872857D01*
X43604571Y-160587142D02*
X42104571Y-160587142D01*
X43604571Y-161230000D02*
X42818857Y-161230000D01*
X42676000Y-161158571D01*
X42604571Y-161015714D01*
X42604571Y-160801428D01*
X42676000Y-160658571D01*
X42747428Y-160587142D01*
X110335142Y-167561142D02*
X110406571Y-167775428D01*
X110406571Y-168132571D01*
X110335142Y-168275428D01*
X110263714Y-168346857D01*
X110120857Y-168418285D01*
X109978000Y-168418285D01*
X109835142Y-168346857D01*
X109763714Y-168275428D01*
X109692285Y-168132571D01*
X109620857Y-167846857D01*
X109549428Y-167704000D01*
X109478000Y-167632571D01*
X109335142Y-167561142D01*
X109192285Y-167561142D01*
X109049428Y-167632571D01*
X108978000Y-167704000D01*
X108906571Y-167846857D01*
X108906571Y-168204000D01*
X108978000Y-168418285D01*
X108906571Y-169346857D02*
X108906571Y-169632571D01*
X108978000Y-169775428D01*
X109120857Y-169918285D01*
X109406571Y-169989714D01*
X109906571Y-169989714D01*
X110192285Y-169918285D01*
X110335142Y-169775428D01*
X110406571Y-169632571D01*
X110406571Y-169346857D01*
X110335142Y-169204000D01*
X110192285Y-169061142D01*
X109906571Y-168989714D01*
X109406571Y-168989714D01*
X109120857Y-169061142D01*
X108978000Y-169204000D01*
X108906571Y-169346857D01*
X108906571Y-170418285D02*
X108906571Y-171275428D01*
X110406571Y-170846857D02*
X108906571Y-170846857D01*
X109835142Y-171775428D02*
X109835142Y-172918285D01*
X109049428Y-173561142D02*
X108978000Y-173632571D01*
X108906571Y-173775428D01*
X108906571Y-174132571D01*
X108978000Y-174275428D01*
X109049428Y-174346857D01*
X109192285Y-174418285D01*
X109335142Y-174418285D01*
X109549428Y-174346857D01*
X110406571Y-173489714D01*
X110406571Y-174418285D01*
X108906571Y-174918285D02*
X108906571Y-175846857D01*
X109478000Y-175346857D01*
X109478000Y-175561142D01*
X109549428Y-175704000D01*
X109620857Y-175775428D01*
X109763714Y-175846857D01*
X110120857Y-175846857D01*
X110263714Y-175775428D01*
X110335142Y-175704000D01*
X110406571Y-175561142D01*
X110406571Y-175132571D01*
X110335142Y-174989714D01*
X110263714Y-174918285D01*
X102024571Y-167954000D02*
X100524571Y-167954000D01*
X101238857Y-167954000D02*
X101238857Y-168811142D01*
X102024571Y-168811142D02*
X100524571Y-168811142D01*
X102024571Y-170168285D02*
X101238857Y-170168285D01*
X101096000Y-170096857D01*
X101024571Y-169954000D01*
X101024571Y-169668285D01*
X101096000Y-169525428D01*
X101953142Y-170168285D02*
X102024571Y-170025428D01*
X102024571Y-169668285D01*
X101953142Y-169525428D01*
X101810285Y-169454000D01*
X101667428Y-169454000D01*
X101524571Y-169525428D01*
X101453142Y-169668285D01*
X101453142Y-170025428D01*
X101381714Y-170168285D01*
X102024571Y-170882571D02*
X101024571Y-170882571D01*
X101167428Y-170882571D02*
X101096000Y-170954000D01*
X101024571Y-171096857D01*
X101024571Y-171311142D01*
X101096000Y-171454000D01*
X101238857Y-171525428D01*
X102024571Y-171525428D01*
X101238857Y-171525428D02*
X101096000Y-171596857D01*
X101024571Y-171739714D01*
X101024571Y-171954000D01*
X101096000Y-172096857D01*
X101238857Y-172168285D01*
X102024571Y-172168285D01*
X102024571Y-172882571D02*
X101024571Y-172882571D01*
X100524571Y-172882571D02*
X100596000Y-172811142D01*
X100667428Y-172882571D01*
X100596000Y-172954000D01*
X100524571Y-172882571D01*
X100667428Y-172882571D01*
X101953142Y-173525428D02*
X102024571Y-173668285D01*
X102024571Y-173954000D01*
X101953142Y-174096857D01*
X101810285Y-174168285D01*
X101738857Y-174168285D01*
X101596000Y-174096857D01*
X101524571Y-173954000D01*
X101524571Y-173739714D01*
X101453142Y-173596857D01*
X101310285Y-173525428D01*
X101238857Y-173525428D01*
X101096000Y-173596857D01*
X101024571Y-173739714D01*
X101024571Y-173954000D01*
X101096000Y-174096857D01*
X102024571Y-174811142D02*
X100524571Y-174811142D01*
X102024571Y-175454000D02*
X101238857Y-175454000D01*
X101096000Y-175382571D01*
X101024571Y-175239714D01*
X101024571Y-175025428D01*
X101096000Y-174882571D01*
X101167428Y-174811142D01*
X113708571Y-167954000D02*
X112208571Y-167954000D01*
X112922857Y-167954000D02*
X112922857Y-168811142D01*
X113708571Y-168811142D02*
X112208571Y-168811142D01*
X113708571Y-170168285D02*
X112922857Y-170168285D01*
X112780000Y-170096857D01*
X112708571Y-169954000D01*
X112708571Y-169668285D01*
X112780000Y-169525428D01*
X113637142Y-170168285D02*
X113708571Y-170025428D01*
X113708571Y-169668285D01*
X113637142Y-169525428D01*
X113494285Y-169454000D01*
X113351428Y-169454000D01*
X113208571Y-169525428D01*
X113137142Y-169668285D01*
X113137142Y-170025428D01*
X113065714Y-170168285D01*
X113708571Y-170882571D02*
X112708571Y-170882571D01*
X112851428Y-170882571D02*
X112780000Y-170954000D01*
X112708571Y-171096857D01*
X112708571Y-171311142D01*
X112780000Y-171454000D01*
X112922857Y-171525428D01*
X113708571Y-171525428D01*
X112922857Y-171525428D02*
X112780000Y-171596857D01*
X112708571Y-171739714D01*
X112708571Y-171954000D01*
X112780000Y-172096857D01*
X112922857Y-172168285D01*
X113708571Y-172168285D01*
X113708571Y-172882571D02*
X112708571Y-172882571D01*
X112208571Y-172882571D02*
X112280000Y-172811142D01*
X112351428Y-172882571D01*
X112280000Y-172954000D01*
X112208571Y-172882571D01*
X112351428Y-172882571D01*
X113637142Y-173525428D02*
X113708571Y-173668285D01*
X113708571Y-173954000D01*
X113637142Y-174096857D01*
X113494285Y-174168285D01*
X113422857Y-174168285D01*
X113280000Y-174096857D01*
X113208571Y-173954000D01*
X113208571Y-173739714D01*
X113137142Y-173596857D01*
X112994285Y-173525428D01*
X112922857Y-173525428D01*
X112780000Y-173596857D01*
X112708571Y-173739714D01*
X112708571Y-173954000D01*
X112780000Y-174096857D01*
X113708571Y-174811142D02*
X112208571Y-174811142D01*
X113708571Y-175454000D02*
X112922857Y-175454000D01*
X112780000Y-175382571D01*
X112708571Y-175239714D01*
X112708571Y-175025428D01*
X112780000Y-174882571D01*
X112851428Y-174811142D01*
X98651142Y-167561142D02*
X98722571Y-167775428D01*
X98722571Y-168132571D01*
X98651142Y-168275428D01*
X98579714Y-168346857D01*
X98436857Y-168418285D01*
X98294000Y-168418285D01*
X98151142Y-168346857D01*
X98079714Y-168275428D01*
X98008285Y-168132571D01*
X97936857Y-167846857D01*
X97865428Y-167704000D01*
X97794000Y-167632571D01*
X97651142Y-167561142D01*
X97508285Y-167561142D01*
X97365428Y-167632571D01*
X97294000Y-167704000D01*
X97222571Y-167846857D01*
X97222571Y-168204000D01*
X97294000Y-168418285D01*
X97222571Y-169346857D02*
X97222571Y-169632571D01*
X97294000Y-169775428D01*
X97436857Y-169918285D01*
X97722571Y-169989714D01*
X98222571Y-169989714D01*
X98508285Y-169918285D01*
X98651142Y-169775428D01*
X98722571Y-169632571D01*
X98722571Y-169346857D01*
X98651142Y-169204000D01*
X98508285Y-169061142D01*
X98222571Y-168989714D01*
X97722571Y-168989714D01*
X97436857Y-169061142D01*
X97294000Y-169204000D01*
X97222571Y-169346857D01*
X97222571Y-170418285D02*
X97222571Y-171275428D01*
X98722571Y-170846857D02*
X97222571Y-170846857D01*
X98151142Y-171775428D02*
X98151142Y-172918285D01*
X97365428Y-173561142D02*
X97294000Y-173632571D01*
X97222571Y-173775428D01*
X97222571Y-174132571D01*
X97294000Y-174275428D01*
X97365428Y-174346857D01*
X97508285Y-174418285D01*
X97651142Y-174418285D01*
X97865428Y-174346857D01*
X98722571Y-173489714D01*
X98722571Y-174418285D01*
X97222571Y-174918285D02*
X97222571Y-175846857D01*
X97794000Y-175346857D01*
X97794000Y-175561142D01*
X97865428Y-175704000D01*
X97936857Y-175775428D01*
X98079714Y-175846857D01*
X98436857Y-175846857D01*
X98579714Y-175775428D01*
X98651142Y-175704000D01*
X98722571Y-175561142D01*
X98722571Y-175132571D01*
X98651142Y-174989714D01*
X98579714Y-174918285D01*
X63599142Y-167561142D02*
X63670571Y-167775428D01*
X63670571Y-168132571D01*
X63599142Y-168275428D01*
X63527714Y-168346857D01*
X63384857Y-168418285D01*
X63242000Y-168418285D01*
X63099142Y-168346857D01*
X63027714Y-168275428D01*
X62956285Y-168132571D01*
X62884857Y-167846857D01*
X62813428Y-167704000D01*
X62742000Y-167632571D01*
X62599142Y-167561142D01*
X62456285Y-167561142D01*
X62313428Y-167632571D01*
X62242000Y-167704000D01*
X62170571Y-167846857D01*
X62170571Y-168204000D01*
X62242000Y-168418285D01*
X62170571Y-169346857D02*
X62170571Y-169632571D01*
X62242000Y-169775428D01*
X62384857Y-169918285D01*
X62670571Y-169989714D01*
X63170571Y-169989714D01*
X63456285Y-169918285D01*
X63599142Y-169775428D01*
X63670571Y-169632571D01*
X63670571Y-169346857D01*
X63599142Y-169204000D01*
X63456285Y-169061142D01*
X63170571Y-168989714D01*
X62670571Y-168989714D01*
X62384857Y-169061142D01*
X62242000Y-169204000D01*
X62170571Y-169346857D01*
X62170571Y-170418285D02*
X62170571Y-171275428D01*
X63670571Y-170846857D02*
X62170571Y-170846857D01*
X63099142Y-171775428D02*
X63099142Y-172918285D01*
X62313428Y-173561142D02*
X62242000Y-173632571D01*
X62170571Y-173775428D01*
X62170571Y-174132571D01*
X62242000Y-174275428D01*
X62313428Y-174346857D01*
X62456285Y-174418285D01*
X62599142Y-174418285D01*
X62813428Y-174346857D01*
X63670571Y-173489714D01*
X63670571Y-174418285D01*
X62170571Y-174918285D02*
X62170571Y-175846857D01*
X62742000Y-175346857D01*
X62742000Y-175561142D01*
X62813428Y-175704000D01*
X62884857Y-175775428D01*
X63027714Y-175846857D01*
X63384857Y-175846857D01*
X63527714Y-175775428D01*
X63599142Y-175704000D01*
X63670571Y-175561142D01*
X63670571Y-175132571D01*
X63599142Y-174989714D01*
X63527714Y-174918285D01*
X66972571Y-167954000D02*
X65472571Y-167954000D01*
X66186857Y-167954000D02*
X66186857Y-168811142D01*
X66972571Y-168811142D02*
X65472571Y-168811142D01*
X66972571Y-170168285D02*
X66186857Y-170168285D01*
X66044000Y-170096857D01*
X65972571Y-169954000D01*
X65972571Y-169668285D01*
X66044000Y-169525428D01*
X66901142Y-170168285D02*
X66972571Y-170025428D01*
X66972571Y-169668285D01*
X66901142Y-169525428D01*
X66758285Y-169454000D01*
X66615428Y-169454000D01*
X66472571Y-169525428D01*
X66401142Y-169668285D01*
X66401142Y-170025428D01*
X66329714Y-170168285D01*
X66972571Y-170882571D02*
X65972571Y-170882571D01*
X66115428Y-170882571D02*
X66044000Y-170954000D01*
X65972571Y-171096857D01*
X65972571Y-171311142D01*
X66044000Y-171454000D01*
X66186857Y-171525428D01*
X66972571Y-171525428D01*
X66186857Y-171525428D02*
X66044000Y-171596857D01*
X65972571Y-171739714D01*
X65972571Y-171954000D01*
X66044000Y-172096857D01*
X66186857Y-172168285D01*
X66972571Y-172168285D01*
X66972571Y-172882571D02*
X65972571Y-172882571D01*
X65472571Y-172882571D02*
X65544000Y-172811142D01*
X65615428Y-172882571D01*
X65544000Y-172954000D01*
X65472571Y-172882571D01*
X65615428Y-172882571D01*
X66901142Y-173525428D02*
X66972571Y-173668285D01*
X66972571Y-173954000D01*
X66901142Y-174096857D01*
X66758285Y-174168285D01*
X66686857Y-174168285D01*
X66544000Y-174096857D01*
X66472571Y-173954000D01*
X66472571Y-173739714D01*
X66401142Y-173596857D01*
X66258285Y-173525428D01*
X66186857Y-173525428D01*
X66044000Y-173596857D01*
X65972571Y-173739714D01*
X65972571Y-173954000D01*
X66044000Y-174096857D01*
X66972571Y-174811142D02*
X65472571Y-174811142D01*
X66972571Y-175454000D02*
X66186857Y-175454000D01*
X66044000Y-175382571D01*
X65972571Y-175239714D01*
X65972571Y-175025428D01*
X66044000Y-174882571D01*
X66115428Y-174811142D01*
X86967142Y-167561142D02*
X87038571Y-167775428D01*
X87038571Y-168132571D01*
X86967142Y-168275428D01*
X86895714Y-168346857D01*
X86752857Y-168418285D01*
X86610000Y-168418285D01*
X86467142Y-168346857D01*
X86395714Y-168275428D01*
X86324285Y-168132571D01*
X86252857Y-167846857D01*
X86181428Y-167704000D01*
X86110000Y-167632571D01*
X85967142Y-167561142D01*
X85824285Y-167561142D01*
X85681428Y-167632571D01*
X85610000Y-167704000D01*
X85538571Y-167846857D01*
X85538571Y-168204000D01*
X85610000Y-168418285D01*
X85538571Y-169346857D02*
X85538571Y-169632571D01*
X85610000Y-169775428D01*
X85752857Y-169918285D01*
X86038571Y-169989714D01*
X86538571Y-169989714D01*
X86824285Y-169918285D01*
X86967142Y-169775428D01*
X87038571Y-169632571D01*
X87038571Y-169346857D01*
X86967142Y-169204000D01*
X86824285Y-169061142D01*
X86538571Y-168989714D01*
X86038571Y-168989714D01*
X85752857Y-169061142D01*
X85610000Y-169204000D01*
X85538571Y-169346857D01*
X85538571Y-170418285D02*
X85538571Y-171275428D01*
X87038571Y-170846857D02*
X85538571Y-170846857D01*
X86467142Y-171775428D02*
X86467142Y-172918285D01*
X85681428Y-173561142D02*
X85610000Y-173632571D01*
X85538571Y-173775428D01*
X85538571Y-174132571D01*
X85610000Y-174275428D01*
X85681428Y-174346857D01*
X85824285Y-174418285D01*
X85967142Y-174418285D01*
X86181428Y-174346857D01*
X87038571Y-173489714D01*
X87038571Y-174418285D01*
X85538571Y-174918285D02*
X85538571Y-175846857D01*
X86110000Y-175346857D01*
X86110000Y-175561142D01*
X86181428Y-175704000D01*
X86252857Y-175775428D01*
X86395714Y-175846857D01*
X86752857Y-175846857D01*
X86895714Y-175775428D01*
X86967142Y-175704000D01*
X87038571Y-175561142D01*
X87038571Y-175132571D01*
X86967142Y-174989714D01*
X86895714Y-174918285D01*
X90340571Y-167954000D02*
X88840571Y-167954000D01*
X89554857Y-167954000D02*
X89554857Y-168811142D01*
X90340571Y-168811142D02*
X88840571Y-168811142D01*
X90340571Y-170168285D02*
X89554857Y-170168285D01*
X89412000Y-170096857D01*
X89340571Y-169954000D01*
X89340571Y-169668285D01*
X89412000Y-169525428D01*
X90269142Y-170168285D02*
X90340571Y-170025428D01*
X90340571Y-169668285D01*
X90269142Y-169525428D01*
X90126285Y-169454000D01*
X89983428Y-169454000D01*
X89840571Y-169525428D01*
X89769142Y-169668285D01*
X89769142Y-170025428D01*
X89697714Y-170168285D01*
X90340571Y-170882571D02*
X89340571Y-170882571D01*
X89483428Y-170882571D02*
X89412000Y-170954000D01*
X89340571Y-171096857D01*
X89340571Y-171311142D01*
X89412000Y-171454000D01*
X89554857Y-171525428D01*
X90340571Y-171525428D01*
X89554857Y-171525428D02*
X89412000Y-171596857D01*
X89340571Y-171739714D01*
X89340571Y-171954000D01*
X89412000Y-172096857D01*
X89554857Y-172168285D01*
X90340571Y-172168285D01*
X90340571Y-172882571D02*
X89340571Y-172882571D01*
X88840571Y-172882571D02*
X88912000Y-172811142D01*
X88983428Y-172882571D01*
X88912000Y-172954000D01*
X88840571Y-172882571D01*
X88983428Y-172882571D01*
X90269142Y-173525428D02*
X90340571Y-173668285D01*
X90340571Y-173954000D01*
X90269142Y-174096857D01*
X90126285Y-174168285D01*
X90054857Y-174168285D01*
X89912000Y-174096857D01*
X89840571Y-173954000D01*
X89840571Y-173739714D01*
X89769142Y-173596857D01*
X89626285Y-173525428D01*
X89554857Y-173525428D01*
X89412000Y-173596857D01*
X89340571Y-173739714D01*
X89340571Y-173954000D01*
X89412000Y-174096857D01*
X90340571Y-174811142D02*
X88840571Y-174811142D01*
X90340571Y-175454000D02*
X89554857Y-175454000D01*
X89412000Y-175382571D01*
X89340571Y-175239714D01*
X89340571Y-175025428D01*
X89412000Y-174882571D01*
X89483428Y-174811142D01*
X75283142Y-167561142D02*
X75354571Y-167775428D01*
X75354571Y-168132571D01*
X75283142Y-168275428D01*
X75211714Y-168346857D01*
X75068857Y-168418285D01*
X74926000Y-168418285D01*
X74783142Y-168346857D01*
X74711714Y-168275428D01*
X74640285Y-168132571D01*
X74568857Y-167846857D01*
X74497428Y-167704000D01*
X74426000Y-167632571D01*
X74283142Y-167561142D01*
X74140285Y-167561142D01*
X73997428Y-167632571D01*
X73926000Y-167704000D01*
X73854571Y-167846857D01*
X73854571Y-168204000D01*
X73926000Y-168418285D01*
X73854571Y-169346857D02*
X73854571Y-169632571D01*
X73926000Y-169775428D01*
X74068857Y-169918285D01*
X74354571Y-169989714D01*
X74854571Y-169989714D01*
X75140285Y-169918285D01*
X75283142Y-169775428D01*
X75354571Y-169632571D01*
X75354571Y-169346857D01*
X75283142Y-169204000D01*
X75140285Y-169061142D01*
X74854571Y-168989714D01*
X74354571Y-168989714D01*
X74068857Y-169061142D01*
X73926000Y-169204000D01*
X73854571Y-169346857D01*
X73854571Y-170418285D02*
X73854571Y-171275428D01*
X75354571Y-170846857D02*
X73854571Y-170846857D01*
X74783142Y-171775428D02*
X74783142Y-172918285D01*
X73997428Y-173561142D02*
X73926000Y-173632571D01*
X73854571Y-173775428D01*
X73854571Y-174132571D01*
X73926000Y-174275428D01*
X73997428Y-174346857D01*
X74140285Y-174418285D01*
X74283142Y-174418285D01*
X74497428Y-174346857D01*
X75354571Y-173489714D01*
X75354571Y-174418285D01*
X73854571Y-174918285D02*
X73854571Y-175846857D01*
X74426000Y-175346857D01*
X74426000Y-175561142D01*
X74497428Y-175704000D01*
X74568857Y-175775428D01*
X74711714Y-175846857D01*
X75068857Y-175846857D01*
X75211714Y-175775428D01*
X75283142Y-175704000D01*
X75354571Y-175561142D01*
X75354571Y-175132571D01*
X75283142Y-174989714D01*
X75211714Y-174918285D01*
X78656571Y-167954000D02*
X77156571Y-167954000D01*
X77870857Y-167954000D02*
X77870857Y-168811142D01*
X78656571Y-168811142D02*
X77156571Y-168811142D01*
X78656571Y-170168285D02*
X77870857Y-170168285D01*
X77728000Y-170096857D01*
X77656571Y-169954000D01*
X77656571Y-169668285D01*
X77728000Y-169525428D01*
X78585142Y-170168285D02*
X78656571Y-170025428D01*
X78656571Y-169668285D01*
X78585142Y-169525428D01*
X78442285Y-169454000D01*
X78299428Y-169454000D01*
X78156571Y-169525428D01*
X78085142Y-169668285D01*
X78085142Y-170025428D01*
X78013714Y-170168285D01*
X78656571Y-170882571D02*
X77656571Y-170882571D01*
X77799428Y-170882571D02*
X77728000Y-170954000D01*
X77656571Y-171096857D01*
X77656571Y-171311142D01*
X77728000Y-171454000D01*
X77870857Y-171525428D01*
X78656571Y-171525428D01*
X77870857Y-171525428D02*
X77728000Y-171596857D01*
X77656571Y-171739714D01*
X77656571Y-171954000D01*
X77728000Y-172096857D01*
X77870857Y-172168285D01*
X78656571Y-172168285D01*
X78656571Y-172882571D02*
X77656571Y-172882571D01*
X77156571Y-172882571D02*
X77228000Y-172811142D01*
X77299428Y-172882571D01*
X77228000Y-172954000D01*
X77156571Y-172882571D01*
X77299428Y-172882571D01*
X78585142Y-173525428D02*
X78656571Y-173668285D01*
X78656571Y-173954000D01*
X78585142Y-174096857D01*
X78442285Y-174168285D01*
X78370857Y-174168285D01*
X78228000Y-174096857D01*
X78156571Y-173954000D01*
X78156571Y-173739714D01*
X78085142Y-173596857D01*
X77942285Y-173525428D01*
X77870857Y-173525428D01*
X77728000Y-173596857D01*
X77656571Y-173739714D01*
X77656571Y-173954000D01*
X77728000Y-174096857D01*
X78656571Y-174811142D02*
X77156571Y-174811142D01*
X78656571Y-175454000D02*
X77870857Y-175454000D01*
X77728000Y-175382571D01*
X77656571Y-175239714D01*
X77656571Y-175025428D01*
X77728000Y-174882571D01*
X77799428Y-174811142D01*
X51915142Y-167561142D02*
X51986571Y-167775428D01*
X51986571Y-168132571D01*
X51915142Y-168275428D01*
X51843714Y-168346857D01*
X51700857Y-168418285D01*
X51558000Y-168418285D01*
X51415142Y-168346857D01*
X51343714Y-168275428D01*
X51272285Y-168132571D01*
X51200857Y-167846857D01*
X51129428Y-167704000D01*
X51058000Y-167632571D01*
X50915142Y-167561142D01*
X50772285Y-167561142D01*
X50629428Y-167632571D01*
X50558000Y-167704000D01*
X50486571Y-167846857D01*
X50486571Y-168204000D01*
X50558000Y-168418285D01*
X50486571Y-169346857D02*
X50486571Y-169632571D01*
X50558000Y-169775428D01*
X50700857Y-169918285D01*
X50986571Y-169989714D01*
X51486571Y-169989714D01*
X51772285Y-169918285D01*
X51915142Y-169775428D01*
X51986571Y-169632571D01*
X51986571Y-169346857D01*
X51915142Y-169204000D01*
X51772285Y-169061142D01*
X51486571Y-168989714D01*
X50986571Y-168989714D01*
X50700857Y-169061142D01*
X50558000Y-169204000D01*
X50486571Y-169346857D01*
X50486571Y-170418285D02*
X50486571Y-171275428D01*
X51986571Y-170846857D02*
X50486571Y-170846857D01*
X51415142Y-171775428D02*
X51415142Y-172918285D01*
X50629428Y-173561142D02*
X50558000Y-173632571D01*
X50486571Y-173775428D01*
X50486571Y-174132571D01*
X50558000Y-174275428D01*
X50629428Y-174346857D01*
X50772285Y-174418285D01*
X50915142Y-174418285D01*
X51129428Y-174346857D01*
X51986571Y-173489714D01*
X51986571Y-174418285D01*
X50486571Y-174918285D02*
X50486571Y-175846857D01*
X51058000Y-175346857D01*
X51058000Y-175561142D01*
X51129428Y-175704000D01*
X51200857Y-175775428D01*
X51343714Y-175846857D01*
X51700857Y-175846857D01*
X51843714Y-175775428D01*
X51915142Y-175704000D01*
X51986571Y-175561142D01*
X51986571Y-175132571D01*
X51915142Y-174989714D01*
X51843714Y-174918285D01*
X55288571Y-167954000D02*
X53788571Y-167954000D01*
X54502857Y-167954000D02*
X54502857Y-168811142D01*
X55288571Y-168811142D02*
X53788571Y-168811142D01*
X55288571Y-170168285D02*
X54502857Y-170168285D01*
X54360000Y-170096857D01*
X54288571Y-169954000D01*
X54288571Y-169668285D01*
X54360000Y-169525428D01*
X55217142Y-170168285D02*
X55288571Y-170025428D01*
X55288571Y-169668285D01*
X55217142Y-169525428D01*
X55074285Y-169454000D01*
X54931428Y-169454000D01*
X54788571Y-169525428D01*
X54717142Y-169668285D01*
X54717142Y-170025428D01*
X54645714Y-170168285D01*
X55288571Y-170882571D02*
X54288571Y-170882571D01*
X54431428Y-170882571D02*
X54360000Y-170954000D01*
X54288571Y-171096857D01*
X54288571Y-171311142D01*
X54360000Y-171454000D01*
X54502857Y-171525428D01*
X55288571Y-171525428D01*
X54502857Y-171525428D02*
X54360000Y-171596857D01*
X54288571Y-171739714D01*
X54288571Y-171954000D01*
X54360000Y-172096857D01*
X54502857Y-172168285D01*
X55288571Y-172168285D01*
X55288571Y-172882571D02*
X54288571Y-172882571D01*
X53788571Y-172882571D02*
X53860000Y-172811142D01*
X53931428Y-172882571D01*
X53860000Y-172954000D01*
X53788571Y-172882571D01*
X53931428Y-172882571D01*
X55217142Y-173525428D02*
X55288571Y-173668285D01*
X55288571Y-173954000D01*
X55217142Y-174096857D01*
X55074285Y-174168285D01*
X55002857Y-174168285D01*
X54860000Y-174096857D01*
X54788571Y-173954000D01*
X54788571Y-173739714D01*
X54717142Y-173596857D01*
X54574285Y-173525428D01*
X54502857Y-173525428D01*
X54360000Y-173596857D01*
X54288571Y-173739714D01*
X54288571Y-173954000D01*
X54360000Y-174096857D01*
X55288571Y-174811142D02*
X53788571Y-174811142D01*
X55288571Y-175454000D02*
X54502857Y-175454000D01*
X54360000Y-175382571D01*
X54288571Y-175239714D01*
X54288571Y-175025428D01*
X54360000Y-174882571D01*
X54431428Y-174811142D01*
X40231142Y-167561142D02*
X40302571Y-167775428D01*
X40302571Y-168132571D01*
X40231142Y-168275428D01*
X40159714Y-168346857D01*
X40016857Y-168418285D01*
X39874000Y-168418285D01*
X39731142Y-168346857D01*
X39659714Y-168275428D01*
X39588285Y-168132571D01*
X39516857Y-167846857D01*
X39445428Y-167704000D01*
X39374000Y-167632571D01*
X39231142Y-167561142D01*
X39088285Y-167561142D01*
X38945428Y-167632571D01*
X38874000Y-167704000D01*
X38802571Y-167846857D01*
X38802571Y-168204000D01*
X38874000Y-168418285D01*
X38802571Y-169346857D02*
X38802571Y-169632571D01*
X38874000Y-169775428D01*
X39016857Y-169918285D01*
X39302571Y-169989714D01*
X39802571Y-169989714D01*
X40088285Y-169918285D01*
X40231142Y-169775428D01*
X40302571Y-169632571D01*
X40302571Y-169346857D01*
X40231142Y-169204000D01*
X40088285Y-169061142D01*
X39802571Y-168989714D01*
X39302571Y-168989714D01*
X39016857Y-169061142D01*
X38874000Y-169204000D01*
X38802571Y-169346857D01*
X38802571Y-170418285D02*
X38802571Y-171275428D01*
X40302571Y-170846857D02*
X38802571Y-170846857D01*
X39731142Y-171775428D02*
X39731142Y-172918285D01*
X38945428Y-173561142D02*
X38874000Y-173632571D01*
X38802571Y-173775428D01*
X38802571Y-174132571D01*
X38874000Y-174275428D01*
X38945428Y-174346857D01*
X39088285Y-174418285D01*
X39231142Y-174418285D01*
X39445428Y-174346857D01*
X40302571Y-173489714D01*
X40302571Y-174418285D01*
X38802571Y-174918285D02*
X38802571Y-175846857D01*
X39374000Y-175346857D01*
X39374000Y-175561142D01*
X39445428Y-175704000D01*
X39516857Y-175775428D01*
X39659714Y-175846857D01*
X40016857Y-175846857D01*
X40159714Y-175775428D01*
X40231142Y-175704000D01*
X40302571Y-175561142D01*
X40302571Y-175132571D01*
X40231142Y-174989714D01*
X40159714Y-174918285D01*
X43604571Y-167954000D02*
X42104571Y-167954000D01*
X42818857Y-167954000D02*
X42818857Y-168811142D01*
X43604571Y-168811142D02*
X42104571Y-168811142D01*
X43604571Y-170168285D02*
X42818857Y-170168285D01*
X42676000Y-170096857D01*
X42604571Y-169954000D01*
X42604571Y-169668285D01*
X42676000Y-169525428D01*
X43533142Y-170168285D02*
X43604571Y-170025428D01*
X43604571Y-169668285D01*
X43533142Y-169525428D01*
X43390285Y-169454000D01*
X43247428Y-169454000D01*
X43104571Y-169525428D01*
X43033142Y-169668285D01*
X43033142Y-170025428D01*
X42961714Y-170168285D01*
X43604571Y-170882571D02*
X42604571Y-170882571D01*
X42747428Y-170882571D02*
X42676000Y-170954000D01*
X42604571Y-171096857D01*
X42604571Y-171311142D01*
X42676000Y-171454000D01*
X42818857Y-171525428D01*
X43604571Y-171525428D01*
X42818857Y-171525428D02*
X42676000Y-171596857D01*
X42604571Y-171739714D01*
X42604571Y-171954000D01*
X42676000Y-172096857D01*
X42818857Y-172168285D01*
X43604571Y-172168285D01*
X43604571Y-172882571D02*
X42604571Y-172882571D01*
X42104571Y-172882571D02*
X42176000Y-172811142D01*
X42247428Y-172882571D01*
X42176000Y-172954000D01*
X42104571Y-172882571D01*
X42247428Y-172882571D01*
X43533142Y-173525428D02*
X43604571Y-173668285D01*
X43604571Y-173954000D01*
X43533142Y-174096857D01*
X43390285Y-174168285D01*
X43318857Y-174168285D01*
X43176000Y-174096857D01*
X43104571Y-173954000D01*
X43104571Y-173739714D01*
X43033142Y-173596857D01*
X42890285Y-173525428D01*
X42818857Y-173525428D01*
X42676000Y-173596857D01*
X42604571Y-173739714D01*
X42604571Y-173954000D01*
X42676000Y-174096857D01*
X43604571Y-174811142D02*
X42104571Y-174811142D01*
X43604571Y-175454000D02*
X42818857Y-175454000D01*
X42676000Y-175382571D01*
X42604571Y-175239714D01*
X42604571Y-175025428D01*
X42676000Y-174882571D01*
X42747428Y-174811142D01*
X28547142Y-167561142D02*
X28618571Y-167775428D01*
X28618571Y-168132571D01*
X28547142Y-168275428D01*
X28475714Y-168346857D01*
X28332857Y-168418285D01*
X28190000Y-168418285D01*
X28047142Y-168346857D01*
X27975714Y-168275428D01*
X27904285Y-168132571D01*
X27832857Y-167846857D01*
X27761428Y-167704000D01*
X27690000Y-167632571D01*
X27547142Y-167561142D01*
X27404285Y-167561142D01*
X27261428Y-167632571D01*
X27190000Y-167704000D01*
X27118571Y-167846857D01*
X27118571Y-168204000D01*
X27190000Y-168418285D01*
X27118571Y-169346857D02*
X27118571Y-169632571D01*
X27190000Y-169775428D01*
X27332857Y-169918285D01*
X27618571Y-169989714D01*
X28118571Y-169989714D01*
X28404285Y-169918285D01*
X28547142Y-169775428D01*
X28618571Y-169632571D01*
X28618571Y-169346857D01*
X28547142Y-169204000D01*
X28404285Y-169061142D01*
X28118571Y-168989714D01*
X27618571Y-168989714D01*
X27332857Y-169061142D01*
X27190000Y-169204000D01*
X27118571Y-169346857D01*
X27118571Y-170418285D02*
X27118571Y-171275428D01*
X28618571Y-170846857D02*
X27118571Y-170846857D01*
X28047142Y-171775428D02*
X28047142Y-172918285D01*
X27261428Y-173561142D02*
X27190000Y-173632571D01*
X27118571Y-173775428D01*
X27118571Y-174132571D01*
X27190000Y-174275428D01*
X27261428Y-174346857D01*
X27404285Y-174418285D01*
X27547142Y-174418285D01*
X27761428Y-174346857D01*
X28618571Y-173489714D01*
X28618571Y-174418285D01*
X27118571Y-174918285D02*
X27118571Y-175846857D01*
X27690000Y-175346857D01*
X27690000Y-175561142D01*
X27761428Y-175704000D01*
X27832857Y-175775428D01*
X27975714Y-175846857D01*
X28332857Y-175846857D01*
X28475714Y-175775428D01*
X28547142Y-175704000D01*
X28618571Y-175561142D01*
X28618571Y-175132571D01*
X28547142Y-174989714D01*
X28475714Y-174918285D01*
X31920571Y-167954000D02*
X30420571Y-167954000D01*
X31134857Y-167954000D02*
X31134857Y-168811142D01*
X31920571Y-168811142D02*
X30420571Y-168811142D01*
X31920571Y-170168285D02*
X31134857Y-170168285D01*
X30992000Y-170096857D01*
X30920571Y-169954000D01*
X30920571Y-169668285D01*
X30992000Y-169525428D01*
X31849142Y-170168285D02*
X31920571Y-170025428D01*
X31920571Y-169668285D01*
X31849142Y-169525428D01*
X31706285Y-169454000D01*
X31563428Y-169454000D01*
X31420571Y-169525428D01*
X31349142Y-169668285D01*
X31349142Y-170025428D01*
X31277714Y-170168285D01*
X31920571Y-170882571D02*
X30920571Y-170882571D01*
X31063428Y-170882571D02*
X30992000Y-170954000D01*
X30920571Y-171096857D01*
X30920571Y-171311142D01*
X30992000Y-171454000D01*
X31134857Y-171525428D01*
X31920571Y-171525428D01*
X31134857Y-171525428D02*
X30992000Y-171596857D01*
X30920571Y-171739714D01*
X30920571Y-171954000D01*
X30992000Y-172096857D01*
X31134857Y-172168285D01*
X31920571Y-172168285D01*
X31920571Y-172882571D02*
X30920571Y-172882571D01*
X30420571Y-172882571D02*
X30492000Y-172811142D01*
X30563428Y-172882571D01*
X30492000Y-172954000D01*
X30420571Y-172882571D01*
X30563428Y-172882571D01*
X31849142Y-173525428D02*
X31920571Y-173668285D01*
X31920571Y-173954000D01*
X31849142Y-174096857D01*
X31706285Y-174168285D01*
X31634857Y-174168285D01*
X31492000Y-174096857D01*
X31420571Y-173954000D01*
X31420571Y-173739714D01*
X31349142Y-173596857D01*
X31206285Y-173525428D01*
X31134857Y-173525428D01*
X30992000Y-173596857D01*
X30920571Y-173739714D01*
X30920571Y-173954000D01*
X30992000Y-174096857D01*
X31920571Y-174811142D02*
X30420571Y-174811142D01*
X31920571Y-175454000D02*
X31134857Y-175454000D01*
X30992000Y-175382571D01*
X30920571Y-175239714D01*
X30920571Y-175025428D01*
X30992000Y-174882571D01*
X31063428Y-174811142D01*
M02*
