M48
; DRILL file {KiCad (5.1.4)-1} date 16/04/2020 14:11:27
; FORMAT={-:-/ absolute / inch / decimal}
; #@! TF.CreationDate,2020-04-16T14:11:27+01:00
; #@! TF.GenerationSoftware,Kicad,Pcbnew,(5.1.4)-1
; #@! TF.FileFunction,Plated,1,2,PTH
FMAT,2
INCH
T1C0.0157
T2C0.0394
%
G90
G05
T1
X1.16Y-3.53
X1.16Y-4.09
X1.16Y-4.65
X1.16Y-5.21
X1.16Y-5.77
X1.16Y-6.33
X1.16Y-6.89
X1.35Y-3.15
X1.35Y-3.71
X1.35Y-4.27
X1.35Y-4.83
X1.35Y-5.39
X1.35Y-5.95
X1.35Y-6.51
X1.62Y-3.53
X1.62Y-4.09
X1.62Y-4.65
X1.62Y-5.21
X1.62Y-5.77
X1.62Y-6.33
X1.62Y-6.89
X1.81Y-3.15
X1.81Y-3.71
X1.81Y-4.27
X1.81Y-4.83
X1.81Y-5.39
X1.81Y-5.95
X1.81Y-6.51
X2.08Y-3.53
X2.08Y-4.09
X2.08Y-4.65
X2.08Y-5.21
X2.08Y-5.77
X2.08Y-6.33
X2.08Y-6.89
X2.27Y-3.15
X2.27Y-3.71
X2.27Y-4.27
X2.27Y-4.83
X2.27Y-5.39
X2.27Y-5.95
X2.27Y-6.51
X2.54Y-3.53
X2.54Y-4.09
X2.54Y-4.65
X2.54Y-5.21
X2.54Y-5.77
X2.54Y-6.33
X2.54Y-6.89
X2.73Y-3.15
X2.73Y-3.71
X2.73Y-4.27
X2.73Y-4.83
X2.73Y-5.39
X2.73Y-5.95
X2.73Y-6.51
X3.0Y-3.53
X3.0Y-4.09
X3.0Y-4.65
X3.0Y-5.21
X3.0Y-5.77
X3.0Y-6.33
X3.0Y-6.89
X3.19Y-3.15
X3.19Y-3.71
X3.19Y-4.27
X3.19Y-4.83
X3.19Y-5.39
X3.19Y-5.95
X3.19Y-6.51
X3.46Y-3.53
X3.46Y-4.09
X3.46Y-4.65
X3.46Y-5.21
X3.46Y-5.77
X3.46Y-6.33
X3.46Y-6.89
X3.65Y-3.15
X3.65Y-3.71
X3.65Y-4.27
X3.65Y-4.83
X3.65Y-5.39
X3.65Y-5.95
X3.65Y-6.51
X3.92Y-3.53
X3.92Y-4.09
X3.92Y-4.65
X3.92Y-5.21
X3.92Y-5.77
X3.92Y-6.33
X3.92Y-6.89
X4.11Y-3.15
X4.11Y-3.71
X4.11Y-4.27
X4.11Y-4.83
X4.11Y-5.39
X4.11Y-5.95
X4.11Y-6.51
X4.38Y-3.53
X4.38Y-4.09
X4.38Y-4.65
X4.38Y-5.21
X4.38Y-5.77
X4.38Y-6.33
X4.38Y-6.89
X4.57Y-3.15
X4.57Y-3.71
X4.57Y-4.27
X4.57Y-4.83
X4.57Y-5.39
X4.57Y-5.95
X4.57Y-6.51
T2
X1.47Y-3.86
X1.47Y-3.96
X1.47Y-4.06
X2.23Y-3.86
X2.23Y-3.96
X2.23Y-4.06
X1.93Y-5.54
X1.93Y-5.64
X1.93Y-5.74
X1.06Y-4.22
X1.06Y-4.32
X1.16Y-4.22
X1.16Y-4.32
X1.26Y-4.22
X1.26Y-4.32
X4.53Y-3.3
X4.53Y-3.4
X4.53Y-3.5
X1.93Y-4.42
X1.93Y-4.52
X1.93Y-4.62
X1.01Y-3.3
X1.01Y-3.4
X1.01Y-3.5
X1.93Y-4.98
X1.93Y-5.08
X1.93Y-5.18
X3.77Y-4.98
X3.77Y-5.08
X3.77Y-5.18
X4.53Y-4.42
X4.53Y-4.52
X4.53Y-4.62
X1.77Y-6.66
X1.77Y-6.76
X1.77Y-6.86
X1.47Y-6.1
X1.47Y-6.2
X1.47Y-6.3
X3.77Y-3.3
X3.77Y-3.4
X3.77Y-3.5
X4.07Y-4.42
X4.07Y-4.52
X4.07Y-4.62
X4.28Y-6.46
X4.28Y-6.56
X4.38Y-6.46
X4.38Y-6.56
X4.48Y-6.46
X4.48Y-6.56
X1.77Y-4.98
X1.77Y-5.08
X1.77Y-5.18
X1.77Y-6.1
X1.77Y-6.2
X1.77Y-6.3
X1.31Y-5.54
X1.31Y-5.64
X1.31Y-5.74
X3.36Y-4.22
X3.36Y-4.32
X3.46Y-4.22
X3.46Y-4.32
X3.56Y-4.22
X3.56Y-4.32
X1.52Y-5.9
X1.52Y-6.0
X1.62Y-5.9
X1.62Y-6.0
X1.72Y-5.9
X1.72Y-6.0
X4.23Y-4.42
X4.23Y-4.52
X4.23Y-4.62
X2.23Y-3.3
X2.23Y-3.4
X2.23Y-3.5
X4.28Y-5.9
X4.28Y-6.0
X4.38Y-5.9
X4.38Y-6.0
X4.48Y-5.9
X4.48Y-6.0
X2.69Y-3.86
X2.69Y-3.96
X2.69Y-4.06
X1.98Y-5.9
X1.98Y-6.0
X2.08Y-5.9
X2.08Y-6.0
X2.18Y-5.9
X2.18Y-6.0
X3.77Y-3.86
X3.77Y-3.96
X3.77Y-4.06
X1.93Y-3.3
X1.93Y-3.4
X1.93Y-3.5
X1.31Y-6.66
X1.31Y-6.76
X1.31Y-6.86
X3.82Y-5.34
X3.82Y-5.44
X3.92Y-5.34
X3.92Y-5.44
X4.02Y-5.34
X4.02Y-5.44
X4.53Y-6.66
X4.53Y-6.76
X4.53Y-6.86
X2.85Y-4.98
X2.85Y-5.08
X2.85Y-5.18
X3.36Y-3.66
X3.36Y-3.76
X3.46Y-3.66
X3.46Y-3.76
X3.56Y-3.66
X3.56Y-3.76
X1.31Y-3.3
X1.31Y-3.4
X1.31Y-3.5
X3.77Y-5.54
X3.77Y-5.64
X3.77Y-5.74
X1.98Y-3.66
X1.98Y-3.76
X2.08Y-3.66
X2.08Y-3.76
X2.18Y-3.66
X2.18Y-3.76
X1.98Y-4.78
X1.98Y-4.88
X2.08Y-4.78
X2.08Y-4.88
X2.18Y-4.78
X2.18Y-4.88
X2.9Y-6.46
X2.9Y-6.56
X3.0Y-6.46
X3.0Y-6.56
X3.1Y-6.46
X3.1Y-6.56
X1.93Y-6.1
X1.93Y-6.2
X1.93Y-6.3
X3.61Y-5.54
X3.61Y-5.64
X3.61Y-5.74
X2.39Y-3.86
X2.39Y-3.96
X2.39Y-4.06
X4.28Y-3.66
X4.28Y-3.76
X4.38Y-3.66
X4.38Y-3.76
X4.48Y-3.66
X4.48Y-3.76
X1.47Y-4.98
X1.47Y-5.08
X1.47Y-5.18
X4.23Y-6.1
X4.23Y-6.2
X4.23Y-6.3
X1.77Y-4.42
X1.77Y-4.52
X1.77Y-4.62
X1.31Y-3.86
X1.31Y-3.96
X1.31Y-4.06
X2.44Y-5.9
X2.44Y-6.0
X2.54Y-5.9
X2.54Y-6.0
X2.64Y-5.9
X2.64Y-6.0
X2.44Y-6.46
X2.44Y-6.56
X2.54Y-6.46
X2.54Y-6.56
X2.64Y-6.46
X2.64Y-6.56
X2.85Y-4.42
X2.85Y-4.52
X2.85Y-4.62
X2.39Y-4.42
X2.39Y-4.52
X2.39Y-4.62
X1.01Y-3.86
X1.01Y-3.96
X1.01Y-4.06
X3.31Y-6.1
X3.31Y-6.2
X3.31Y-6.3
X4.53Y-4.98
X4.53Y-5.08
X4.53Y-5.18
X3.36Y-6.46
X3.36Y-6.56
X3.46Y-6.46
X3.46Y-6.56
X3.56Y-6.46
X3.56Y-6.56
X4.28Y-5.34
X4.28Y-5.44
X4.38Y-5.34
X4.38Y-5.44
X4.48Y-5.34
X4.48Y-5.44
X2.23Y-4.42
X2.23Y-4.52
X2.23Y-4.62
X1.47Y-6.66
X1.47Y-6.76
X1.47Y-6.86
X1.01Y-5.54
X1.01Y-5.64
X1.01Y-5.74
X4.07Y-3.3
X4.07Y-3.4
X4.07Y-3.5
X1.52Y-3.66
X1.52Y-3.76
X1.62Y-3.66
X1.62Y-3.76
X1.72Y-3.66
X1.72Y-3.76
X1.01Y-4.98
X1.01Y-5.08
X1.01Y-5.18
X1.98Y-5.34
X1.98Y-5.44
X2.08Y-5.34
X2.08Y-5.44
X2.18Y-5.34
X2.18Y-5.44
X3.15Y-3.3
X3.15Y-3.4
X3.15Y-3.5
X3.77Y-4.42
X3.77Y-4.52
X3.77Y-4.62
X1.01Y-6.66
X1.01Y-6.76
X1.01Y-6.86
X1.52Y-5.34
X1.52Y-5.44
X1.62Y-5.34
X1.62Y-5.44
X1.72Y-5.34
X1.72Y-5.44
X2.85Y-3.3
X2.85Y-3.4
X2.85Y-3.5
X2.9Y-3.66
X2.9Y-3.76
X3.0Y-3.66
X3.0Y-3.76
X3.1Y-3.66
X3.1Y-3.76
X1.93Y-3.86
X1.93Y-3.96
X1.93Y-4.06
X4.23Y-6.66
X4.23Y-6.76
X4.23Y-6.86
X3.15Y-4.98
X3.15Y-5.08
X3.15Y-5.18
X4.07Y-5.54
X4.07Y-5.64
X4.07Y-5.74
X3.82Y-4.22
X3.82Y-4.32
X3.92Y-4.22
X3.92Y-4.32
X4.02Y-4.22
X4.02Y-4.32
X3.31Y-4.98
X3.31Y-5.08
X3.31Y-5.18
X3.31Y-3.3
X3.31Y-3.4
X3.31Y-3.5
X3.61Y-4.42
X3.61Y-4.52
X3.61Y-4.62
X4.28Y-4.78
X4.28Y-4.88
X4.38Y-4.78
X4.38Y-4.88
X4.48Y-4.78
X4.48Y-4.88
X1.06Y-5.9
X1.06Y-6.0
X1.16Y-5.9
X1.16Y-6.0
X1.26Y-5.9
X1.26Y-6.0
X3.77Y-6.1
X3.77Y-6.2
X3.77Y-6.3
X3.61Y-6.66
X3.61Y-6.76
X3.61Y-6.86
X1.31Y-6.1
X1.31Y-6.2
X1.31Y-6.3
X1.77Y-5.54
X1.77Y-5.64
X1.77Y-5.74
X4.23Y-3.3
X4.23Y-3.4
X4.23Y-3.5
X1.93Y-6.66
X1.93Y-6.76
X1.93Y-6.86
X3.61Y-6.1
X3.61Y-6.2
X3.61Y-6.3
X4.23Y-3.86
X4.23Y-3.96
X4.23Y-4.06
X1.06Y-6.46
X1.06Y-6.56
X1.16Y-6.46
X1.16Y-6.56
X1.26Y-6.46
X1.26Y-6.56
X3.15Y-6.66
X3.15Y-6.76
X3.15Y-6.86
X3.82Y-4.78
X3.82Y-4.88
X3.92Y-4.78
X3.92Y-4.88
X4.02Y-4.78
X4.02Y-4.88
X2.44Y-3.66
X2.44Y-3.76
X2.54Y-3.66
X2.54Y-3.76
X2.64Y-3.66
X2.64Y-3.76
X1.98Y-3.1
X1.98Y-3.2
X2.08Y-3.1
X2.08Y-3.2
X2.18Y-3.1
X2.18Y-3.2
X1.47Y-4.42
X1.47Y-4.52
X1.47Y-4.62
X1.77Y-3.86
X1.77Y-3.96
X1.77Y-4.06
X1.06Y-4.78
X1.06Y-4.88
X1.16Y-4.78
X1.16Y-4.88
X1.26Y-4.78
X1.26Y-4.88
X2.23Y-6.1
X2.23Y-6.2
X2.23Y-6.3
X3.31Y-3.86
X3.31Y-3.96
X3.31Y-4.06
X4.53Y-3.86
X4.53Y-3.96
X4.53Y-4.06
X3.31Y-6.66
X3.31Y-6.76
X3.31Y-6.86
X3.15Y-4.42
X3.15Y-4.52
X3.15Y-4.62
X1.52Y-4.78
X1.52Y-4.88
X1.62Y-4.78
X1.62Y-4.88
X1.72Y-4.78
X1.72Y-4.88
X3.82Y-3.1
X3.82Y-3.2
X3.92Y-3.1
X3.92Y-3.2
X4.02Y-3.1
X4.02Y-3.2
X1.31Y-4.98
X1.31Y-5.08
X1.31Y-5.18
X3.77Y-6.66
X3.77Y-6.76
X3.77Y-6.86
X4.53Y-6.1
X4.53Y-6.2
X4.53Y-6.3
X2.9Y-4.78
X2.9Y-4.88
X3.0Y-4.78
X3.0Y-4.88
X3.1Y-4.78
X3.1Y-4.88
X2.9Y-5.9
X2.9Y-6.0
X3.0Y-5.9
X3.0Y-6.0
X3.1Y-5.9
X3.1Y-6.0
X4.07Y-3.86
X4.07Y-3.96
X4.07Y-4.06
X3.36Y-5.9
X3.36Y-6.0
X3.46Y-5.9
X3.46Y-6.0
X3.56Y-5.9
X3.56Y-6.0
X2.69Y-4.98
X2.69Y-5.08
X2.69Y-5.18
X2.39Y-6.66
X2.39Y-6.76
X2.39Y-6.86
X4.23Y-5.54
X4.23Y-5.64
X4.23Y-5.74
X2.85Y-3.86
X2.85Y-3.96
X2.85Y-4.06
X2.44Y-5.34
X2.44Y-5.44
X2.54Y-5.34
X2.54Y-5.44
X2.64Y-5.34
X2.64Y-5.44
X1.06Y-5.34
X1.06Y-5.44
X1.16Y-5.34
X1.16Y-5.44
X1.26Y-5.34
X1.26Y-5.44
X2.9Y-4.22
X2.9Y-4.32
X3.0Y-4.22
X3.0Y-4.32
X3.1Y-4.22
X3.1Y-4.32
X2.69Y-5.54
X2.69Y-5.64
X2.69Y-5.74
X3.61Y-3.3
X3.61Y-3.4
X3.61Y-3.5
X3.82Y-3.66
X3.82Y-3.76
X3.92Y-3.66
X3.92Y-3.76
X4.02Y-3.66
X4.02Y-3.76
X1.47Y-3.3
X1.47Y-3.4
X1.47Y-3.5
X2.23Y-6.66
X2.23Y-6.76
X2.23Y-6.86
X4.07Y-4.98
X4.07Y-5.08
X4.07Y-5.18
X2.23Y-5.54
X2.23Y-5.64
X2.23Y-5.74
X3.31Y-4.42
X3.31Y-4.52
X3.31Y-4.62
X1.52Y-6.46
X1.52Y-6.56
X1.62Y-6.46
X1.62Y-6.56
X1.72Y-6.46
X1.72Y-6.56
X2.39Y-6.1
X2.39Y-6.2
X2.39Y-6.3
X3.15Y-5.54
X3.15Y-5.64
X3.15Y-5.74
X2.9Y-3.1
X2.9Y-3.2
X3.0Y-3.1
X3.0Y-3.2
X3.1Y-3.1
X3.1Y-3.2
X4.28Y-4.22
X4.28Y-4.32
X4.38Y-4.22
X4.38Y-4.32
X4.48Y-4.22
X4.48Y-4.32
X1.52Y-3.1
X1.52Y-3.2
X1.62Y-3.1
X1.62Y-3.2
X1.72Y-3.1
X1.72Y-3.2
X2.23Y-4.98
X2.23Y-5.08
X2.23Y-5.18
X1.01Y-6.1
X1.01Y-6.2
X1.01Y-6.3
X2.85Y-5.54
X2.85Y-5.64
X2.85Y-5.74
X2.44Y-3.1
X2.44Y-3.2
X2.54Y-3.1
X2.54Y-3.2
X2.64Y-3.1
X2.64Y-3.2
X2.85Y-6.1
X2.85Y-6.2
X2.85Y-6.3
X3.36Y-4.78
X3.36Y-4.88
X3.46Y-4.78
X3.46Y-4.88
X3.56Y-4.78
X3.56Y-4.88
X2.39Y-3.3
X2.39Y-3.4
X2.39Y-3.5
X1.06Y-3.1
X1.06Y-3.2
X1.16Y-3.1
X1.16Y-3.2
X1.26Y-3.1
X1.26Y-3.2
X3.36Y-5.34
X3.36Y-5.44
X3.46Y-5.34
X3.46Y-5.44
X3.56Y-5.34
X3.56Y-5.44
X2.69Y-3.3
X2.69Y-3.4
X2.69Y-3.5
X4.07Y-6.66
X4.07Y-6.76
X4.07Y-6.86
X2.39Y-4.98
X2.39Y-5.08
X2.39Y-5.18
X4.28Y-3.1
X4.28Y-3.2
X4.38Y-3.1
X4.38Y-3.2
X4.48Y-3.1
X4.48Y-3.2
X1.98Y-6.46
X1.98Y-6.56
X2.08Y-6.46
X2.08Y-6.56
X2.18Y-6.46
X2.18Y-6.56
X4.07Y-6.1
X4.07Y-6.2
X4.07Y-6.3
X2.69Y-6.66
X2.69Y-6.76
X2.69Y-6.86
X3.15Y-6.1
X3.15Y-6.2
X3.15Y-6.3
X1.31Y-4.42
X1.31Y-4.52
X1.31Y-4.62
X1.77Y-3.3
X1.77Y-3.4
X1.77Y-3.5
X1.52Y-4.22
X1.52Y-4.32
X1.62Y-4.22
X1.62Y-4.32
X1.72Y-4.22
X1.72Y-4.32
X1.06Y-3.66
X1.06Y-3.76
X1.16Y-3.66
X1.16Y-3.76
X1.26Y-3.66
X1.26Y-3.76
X1.01Y-4.42
X1.01Y-4.52
X1.01Y-4.62
X2.85Y-6.66
X2.85Y-6.76
X2.85Y-6.86
X2.44Y-4.78
X2.44Y-4.88
X2.54Y-4.78
X2.54Y-4.88
X2.64Y-4.78
X2.64Y-4.88
X1.98Y-4.22
X1.98Y-4.32
X2.08Y-4.22
X2.08Y-4.32
X2.18Y-4.22
X2.18Y-4.32
X2.39Y-5.54
X2.39Y-5.64
X2.39Y-5.74
X3.15Y-3.86
X3.15Y-3.96
X3.15Y-4.06
X2.69Y-6.1
X2.69Y-6.2
X2.69Y-6.3
X4.53Y-5.54
X4.53Y-5.64
X4.53Y-5.74
X2.69Y-4.42
X2.69Y-4.52
X2.69Y-4.62
X3.82Y-5.9
X3.82Y-6.0
X3.92Y-5.9
X3.92Y-6.0
X4.02Y-5.9
X4.02Y-6.0
X3.61Y-4.98
X3.61Y-5.08
X3.61Y-5.18
X3.36Y-3.1
X3.36Y-3.2
X3.46Y-3.1
X3.46Y-3.2
X3.56Y-3.1
X3.56Y-3.2
X3.61Y-3.86
X3.61Y-3.96
X3.61Y-4.06
X3.31Y-5.54
X3.31Y-5.64
X3.31Y-5.74
X3.82Y-6.46
X3.82Y-6.56
X3.92Y-6.46
X3.92Y-6.56
X4.02Y-6.46
X4.02Y-6.56
X2.9Y-5.34
X2.9Y-5.44
X3.0Y-5.34
X3.0Y-5.44
X3.1Y-5.34
X3.1Y-5.44
X4.23Y-4.98
X4.23Y-5.08
X4.23Y-5.18
X1.47Y-5.54
X1.47Y-5.64
X1.47Y-5.74
X2.44Y-4.22
X2.44Y-4.32
X2.54Y-4.22
X2.54Y-4.32
X2.64Y-4.22
X2.64Y-4.32
T0
M30
