G04 #@! TF.GenerationSoftware,KiCad,Pcbnew,(5.1.4)-1*
G04 #@! TF.CreationDate,2020-04-16T14:11:22+01:00*
G04 #@! TF.ProjectId,sot23Breakout,736f7432-3342-4726-9561-6b6f75742e6b,rev?*
G04 #@! TF.SameCoordinates,Original*
G04 #@! TF.FileFunction,Legend,Top*
G04 #@! TF.FilePolarity,Positive*
%FSLAX46Y46*%
G04 Gerber Fmt 4.6, Leading zero omitted, Abs format (unit mm)*
G04 Created by KiCad (PCBNEW (5.1.4)-1) date 2020-04-16 14:11:22*
%MOMM*%
%LPD*%
G04 APERTURE LIST*
%ADD10C,0.300000*%
%ADD11C,0.120000*%
G04 APERTURE END LIST*
D10*
X25316571Y-81220285D02*
X23816571Y-81220285D01*
X25245142Y-80577428D02*
X25316571Y-80363142D01*
X25316571Y-80006000D01*
X25245142Y-79863142D01*
X25173714Y-79791714D01*
X25030857Y-79720285D01*
X24888000Y-79720285D01*
X24745142Y-79791714D01*
X24673714Y-79863142D01*
X24602285Y-80006000D01*
X24530857Y-80291714D01*
X24459428Y-80434571D01*
X24388000Y-80506000D01*
X24245142Y-80577428D01*
X24102285Y-80577428D01*
X23959428Y-80506000D01*
X23888000Y-80434571D01*
X23816571Y-80291714D01*
X23816571Y-79934571D01*
X23888000Y-79720285D01*
X25316571Y-79077428D02*
X23816571Y-79077428D01*
X23816571Y-78506000D01*
X23888000Y-78363142D01*
X23959428Y-78291714D01*
X24102285Y-78220285D01*
X24316571Y-78220285D01*
X24459428Y-78291714D01*
X24530857Y-78363142D01*
X24602285Y-78506000D01*
X24602285Y-79077428D01*
X28114571Y-84498571D02*
X27257428Y-84498571D01*
X27686000Y-84498571D02*
X27686000Y-82998571D01*
X27543142Y-83212857D01*
X27400285Y-83355714D01*
X27257428Y-83427142D01*
X34718571Y-79418571D02*
X33861428Y-79418571D01*
X34290000Y-79418571D02*
X34290000Y-77918571D01*
X34147142Y-78132857D01*
X34004285Y-78275714D01*
X33861428Y-78347142D01*
X95420571Y-81220285D02*
X93920571Y-81220285D01*
X95349142Y-80577428D02*
X95420571Y-80363142D01*
X95420571Y-80006000D01*
X95349142Y-79863142D01*
X95277714Y-79791714D01*
X95134857Y-79720285D01*
X94992000Y-79720285D01*
X94849142Y-79791714D01*
X94777714Y-79863142D01*
X94706285Y-80006000D01*
X94634857Y-80291714D01*
X94563428Y-80434571D01*
X94492000Y-80506000D01*
X94349142Y-80577428D01*
X94206285Y-80577428D01*
X94063428Y-80506000D01*
X93992000Y-80434571D01*
X93920571Y-80291714D01*
X93920571Y-79934571D01*
X93992000Y-79720285D01*
X95420571Y-79077428D02*
X93920571Y-79077428D01*
X93920571Y-78506000D01*
X93992000Y-78363142D01*
X94063428Y-78291714D01*
X94206285Y-78220285D01*
X94420571Y-78220285D01*
X94563428Y-78291714D01*
X94634857Y-78363142D01*
X94706285Y-78506000D01*
X94706285Y-79077428D01*
X98218571Y-84498571D02*
X97361428Y-84498571D01*
X97790000Y-84498571D02*
X97790000Y-82998571D01*
X97647142Y-83212857D01*
X97504285Y-83355714D01*
X97361428Y-83427142D01*
X107104571Y-81220285D02*
X105604571Y-81220285D01*
X107033142Y-80577428D02*
X107104571Y-80363142D01*
X107104571Y-80006000D01*
X107033142Y-79863142D01*
X106961714Y-79791714D01*
X106818857Y-79720285D01*
X106676000Y-79720285D01*
X106533142Y-79791714D01*
X106461714Y-79863142D01*
X106390285Y-80006000D01*
X106318857Y-80291714D01*
X106247428Y-80434571D01*
X106176000Y-80506000D01*
X106033142Y-80577428D01*
X105890285Y-80577428D01*
X105747428Y-80506000D01*
X105676000Y-80434571D01*
X105604571Y-80291714D01*
X105604571Y-79934571D01*
X105676000Y-79720285D01*
X107104571Y-79077428D02*
X105604571Y-79077428D01*
X105604571Y-78506000D01*
X105676000Y-78363142D01*
X105747428Y-78291714D01*
X105890285Y-78220285D01*
X106104571Y-78220285D01*
X106247428Y-78291714D01*
X106318857Y-78363142D01*
X106390285Y-78506000D01*
X106390285Y-79077428D01*
X116506571Y-79418571D02*
X115649428Y-79418571D01*
X116078000Y-79418571D02*
X116078000Y-77918571D01*
X115935142Y-78132857D01*
X115792285Y-78275714D01*
X115649428Y-78347142D01*
X109902571Y-84498571D02*
X109045428Y-84498571D01*
X109474000Y-84498571D02*
X109474000Y-82998571D01*
X109331142Y-83212857D01*
X109188285Y-83355714D01*
X109045428Y-83427142D01*
X93138571Y-79418571D02*
X92281428Y-79418571D01*
X92710000Y-79418571D02*
X92710000Y-77918571D01*
X92567142Y-78132857D01*
X92424285Y-78275714D01*
X92281428Y-78347142D01*
X104822571Y-79418571D02*
X103965428Y-79418571D01*
X104394000Y-79418571D02*
X104394000Y-77918571D01*
X104251142Y-78132857D01*
X104108285Y-78275714D01*
X103965428Y-78347142D01*
X74850571Y-84498571D02*
X73993428Y-84498571D01*
X74422000Y-84498571D02*
X74422000Y-82998571D01*
X74279142Y-83212857D01*
X74136285Y-83355714D01*
X73993428Y-83427142D01*
X83736571Y-81220285D02*
X82236571Y-81220285D01*
X83665142Y-80577428D02*
X83736571Y-80363142D01*
X83736571Y-80006000D01*
X83665142Y-79863142D01*
X83593714Y-79791714D01*
X83450857Y-79720285D01*
X83308000Y-79720285D01*
X83165142Y-79791714D01*
X83093714Y-79863142D01*
X83022285Y-80006000D01*
X82950857Y-80291714D01*
X82879428Y-80434571D01*
X82808000Y-80506000D01*
X82665142Y-80577428D01*
X82522285Y-80577428D01*
X82379428Y-80506000D01*
X82308000Y-80434571D01*
X82236571Y-80291714D01*
X82236571Y-79934571D01*
X82308000Y-79720285D01*
X83736571Y-79077428D02*
X82236571Y-79077428D01*
X82236571Y-78506000D01*
X82308000Y-78363142D01*
X82379428Y-78291714D01*
X82522285Y-78220285D01*
X82736571Y-78220285D01*
X82879428Y-78291714D01*
X82950857Y-78363142D01*
X83022285Y-78506000D01*
X83022285Y-79077428D01*
X81454571Y-79418571D02*
X80597428Y-79418571D01*
X81026000Y-79418571D02*
X81026000Y-77918571D01*
X80883142Y-78132857D01*
X80740285Y-78275714D01*
X80597428Y-78347142D01*
X86534571Y-84498571D02*
X85677428Y-84498571D01*
X86106000Y-84498571D02*
X86106000Y-82998571D01*
X85963142Y-83212857D01*
X85820285Y-83355714D01*
X85677428Y-83427142D01*
X93138571Y-79418571D02*
X92281428Y-79418571D01*
X92710000Y-79418571D02*
X92710000Y-77918571D01*
X92567142Y-78132857D01*
X92424285Y-78275714D01*
X92281428Y-78347142D01*
X72052571Y-81220285D02*
X70552571Y-81220285D01*
X71981142Y-80577428D02*
X72052571Y-80363142D01*
X72052571Y-80006000D01*
X71981142Y-79863142D01*
X71909714Y-79791714D01*
X71766857Y-79720285D01*
X71624000Y-79720285D01*
X71481142Y-79791714D01*
X71409714Y-79863142D01*
X71338285Y-80006000D01*
X71266857Y-80291714D01*
X71195428Y-80434571D01*
X71124000Y-80506000D01*
X70981142Y-80577428D01*
X70838285Y-80577428D01*
X70695428Y-80506000D01*
X70624000Y-80434571D01*
X70552571Y-80291714D01*
X70552571Y-79934571D01*
X70624000Y-79720285D01*
X72052571Y-79077428D02*
X70552571Y-79077428D01*
X70552571Y-78506000D01*
X70624000Y-78363142D01*
X70695428Y-78291714D01*
X70838285Y-78220285D01*
X71052571Y-78220285D01*
X71195428Y-78291714D01*
X71266857Y-78363142D01*
X71338285Y-78506000D01*
X71338285Y-79077428D01*
X69770571Y-79418571D02*
X68913428Y-79418571D01*
X69342000Y-79418571D02*
X69342000Y-77918571D01*
X69199142Y-78132857D01*
X69056285Y-78275714D01*
X68913428Y-78347142D01*
X48684571Y-81220285D02*
X47184571Y-81220285D01*
X48613142Y-80577428D02*
X48684571Y-80363142D01*
X48684571Y-80006000D01*
X48613142Y-79863142D01*
X48541714Y-79791714D01*
X48398857Y-79720285D01*
X48256000Y-79720285D01*
X48113142Y-79791714D01*
X48041714Y-79863142D01*
X47970285Y-80006000D01*
X47898857Y-80291714D01*
X47827428Y-80434571D01*
X47756000Y-80506000D01*
X47613142Y-80577428D01*
X47470285Y-80577428D01*
X47327428Y-80506000D01*
X47256000Y-80434571D01*
X47184571Y-80291714D01*
X47184571Y-79934571D01*
X47256000Y-79720285D01*
X48684571Y-79077428D02*
X47184571Y-79077428D01*
X47184571Y-78506000D01*
X47256000Y-78363142D01*
X47327428Y-78291714D01*
X47470285Y-78220285D01*
X47684571Y-78220285D01*
X47827428Y-78291714D01*
X47898857Y-78363142D01*
X47970285Y-78506000D01*
X47970285Y-79077428D01*
X51482571Y-84498571D02*
X50625428Y-84498571D01*
X51054000Y-84498571D02*
X51054000Y-82998571D01*
X50911142Y-83212857D01*
X50768285Y-83355714D01*
X50625428Y-83427142D01*
X58086571Y-79418571D02*
X57229428Y-79418571D01*
X57658000Y-79418571D02*
X57658000Y-77918571D01*
X57515142Y-78132857D01*
X57372285Y-78275714D01*
X57229428Y-78347142D01*
X60368571Y-81220285D02*
X58868571Y-81220285D01*
X60297142Y-80577428D02*
X60368571Y-80363142D01*
X60368571Y-80006000D01*
X60297142Y-79863142D01*
X60225714Y-79791714D01*
X60082857Y-79720285D01*
X59940000Y-79720285D01*
X59797142Y-79791714D01*
X59725714Y-79863142D01*
X59654285Y-80006000D01*
X59582857Y-80291714D01*
X59511428Y-80434571D01*
X59440000Y-80506000D01*
X59297142Y-80577428D01*
X59154285Y-80577428D01*
X59011428Y-80506000D01*
X58940000Y-80434571D01*
X58868571Y-80291714D01*
X58868571Y-79934571D01*
X58940000Y-79720285D01*
X60368571Y-79077428D02*
X58868571Y-79077428D01*
X58868571Y-78506000D01*
X58940000Y-78363142D01*
X59011428Y-78291714D01*
X59154285Y-78220285D01*
X59368571Y-78220285D01*
X59511428Y-78291714D01*
X59582857Y-78363142D01*
X59654285Y-78506000D01*
X59654285Y-79077428D01*
X63166571Y-84498571D02*
X62309428Y-84498571D01*
X62738000Y-84498571D02*
X62738000Y-82998571D01*
X62595142Y-83212857D01*
X62452285Y-83355714D01*
X62309428Y-83427142D01*
X39798571Y-84498571D02*
X38941428Y-84498571D01*
X39370000Y-84498571D02*
X39370000Y-82998571D01*
X39227142Y-83212857D01*
X39084285Y-83355714D01*
X38941428Y-83427142D01*
X37000571Y-81220285D02*
X35500571Y-81220285D01*
X36929142Y-80577428D02*
X37000571Y-80363142D01*
X37000571Y-80006000D01*
X36929142Y-79863142D01*
X36857714Y-79791714D01*
X36714857Y-79720285D01*
X36572000Y-79720285D01*
X36429142Y-79791714D01*
X36357714Y-79863142D01*
X36286285Y-80006000D01*
X36214857Y-80291714D01*
X36143428Y-80434571D01*
X36072000Y-80506000D01*
X35929142Y-80577428D01*
X35786285Y-80577428D01*
X35643428Y-80506000D01*
X35572000Y-80434571D01*
X35500571Y-80291714D01*
X35500571Y-79934571D01*
X35572000Y-79720285D01*
X37000571Y-79077428D02*
X35500571Y-79077428D01*
X35500571Y-78506000D01*
X35572000Y-78363142D01*
X35643428Y-78291714D01*
X35786285Y-78220285D01*
X36000571Y-78220285D01*
X36143428Y-78291714D01*
X36214857Y-78363142D01*
X36286285Y-78506000D01*
X36286285Y-79077428D01*
X46402571Y-79418571D02*
X45545428Y-79418571D01*
X45974000Y-79418571D02*
X45974000Y-77918571D01*
X45831142Y-78132857D01*
X45688285Y-78275714D01*
X45545428Y-78347142D01*
X93138571Y-93642571D02*
X92281428Y-93642571D01*
X92710000Y-93642571D02*
X92710000Y-92142571D01*
X92567142Y-92356857D01*
X92424285Y-92499714D01*
X92281428Y-92571142D01*
X74850571Y-98722571D02*
X73993428Y-98722571D01*
X74422000Y-98722571D02*
X74422000Y-97222571D01*
X74279142Y-97436857D01*
X74136285Y-97579714D01*
X73993428Y-97651142D01*
X81454571Y-93642571D02*
X80597428Y-93642571D01*
X81026000Y-93642571D02*
X81026000Y-92142571D01*
X80883142Y-92356857D01*
X80740285Y-92499714D01*
X80597428Y-92571142D01*
X93138571Y-93642571D02*
X92281428Y-93642571D01*
X92710000Y-93642571D02*
X92710000Y-92142571D01*
X92567142Y-92356857D01*
X92424285Y-92499714D01*
X92281428Y-92571142D01*
X116506571Y-93642571D02*
X115649428Y-93642571D01*
X116078000Y-93642571D02*
X116078000Y-92142571D01*
X115935142Y-92356857D01*
X115792285Y-92499714D01*
X115649428Y-92571142D01*
X109902571Y-98722571D02*
X109045428Y-98722571D01*
X109474000Y-98722571D02*
X109474000Y-97222571D01*
X109331142Y-97436857D01*
X109188285Y-97579714D01*
X109045428Y-97651142D01*
X104822571Y-93642571D02*
X103965428Y-93642571D01*
X104394000Y-93642571D02*
X104394000Y-92142571D01*
X104251142Y-92356857D01*
X104108285Y-92499714D01*
X103965428Y-92571142D01*
X86534571Y-98722571D02*
X85677428Y-98722571D01*
X86106000Y-98722571D02*
X86106000Y-97222571D01*
X85963142Y-97436857D01*
X85820285Y-97579714D01*
X85677428Y-97651142D01*
X83736571Y-95444285D02*
X82236571Y-95444285D01*
X83665142Y-94801428D02*
X83736571Y-94587142D01*
X83736571Y-94230000D01*
X83665142Y-94087142D01*
X83593714Y-94015714D01*
X83450857Y-93944285D01*
X83308000Y-93944285D01*
X83165142Y-94015714D01*
X83093714Y-94087142D01*
X83022285Y-94230000D01*
X82950857Y-94515714D01*
X82879428Y-94658571D01*
X82808000Y-94730000D01*
X82665142Y-94801428D01*
X82522285Y-94801428D01*
X82379428Y-94730000D01*
X82308000Y-94658571D01*
X82236571Y-94515714D01*
X82236571Y-94158571D01*
X82308000Y-93944285D01*
X83736571Y-93301428D02*
X82236571Y-93301428D01*
X82236571Y-92730000D01*
X82308000Y-92587142D01*
X82379428Y-92515714D01*
X82522285Y-92444285D01*
X82736571Y-92444285D01*
X82879428Y-92515714D01*
X82950857Y-92587142D01*
X83022285Y-92730000D01*
X83022285Y-93301428D01*
X72052571Y-95444285D02*
X70552571Y-95444285D01*
X71981142Y-94801428D02*
X72052571Y-94587142D01*
X72052571Y-94230000D01*
X71981142Y-94087142D01*
X71909714Y-94015714D01*
X71766857Y-93944285D01*
X71624000Y-93944285D01*
X71481142Y-94015714D01*
X71409714Y-94087142D01*
X71338285Y-94230000D01*
X71266857Y-94515714D01*
X71195428Y-94658571D01*
X71124000Y-94730000D01*
X70981142Y-94801428D01*
X70838285Y-94801428D01*
X70695428Y-94730000D01*
X70624000Y-94658571D01*
X70552571Y-94515714D01*
X70552571Y-94158571D01*
X70624000Y-93944285D01*
X72052571Y-93301428D02*
X70552571Y-93301428D01*
X70552571Y-92730000D01*
X70624000Y-92587142D01*
X70695428Y-92515714D01*
X70838285Y-92444285D01*
X71052571Y-92444285D01*
X71195428Y-92515714D01*
X71266857Y-92587142D01*
X71338285Y-92730000D01*
X71338285Y-93301428D01*
X48684571Y-95444285D02*
X47184571Y-95444285D01*
X48613142Y-94801428D02*
X48684571Y-94587142D01*
X48684571Y-94230000D01*
X48613142Y-94087142D01*
X48541714Y-94015714D01*
X48398857Y-93944285D01*
X48256000Y-93944285D01*
X48113142Y-94015714D01*
X48041714Y-94087142D01*
X47970285Y-94230000D01*
X47898857Y-94515714D01*
X47827428Y-94658571D01*
X47756000Y-94730000D01*
X47613142Y-94801428D01*
X47470285Y-94801428D01*
X47327428Y-94730000D01*
X47256000Y-94658571D01*
X47184571Y-94515714D01*
X47184571Y-94158571D01*
X47256000Y-93944285D01*
X48684571Y-93301428D02*
X47184571Y-93301428D01*
X47184571Y-92730000D01*
X47256000Y-92587142D01*
X47327428Y-92515714D01*
X47470285Y-92444285D01*
X47684571Y-92444285D01*
X47827428Y-92515714D01*
X47898857Y-92587142D01*
X47970285Y-92730000D01*
X47970285Y-93301428D01*
X63166571Y-98722571D02*
X62309428Y-98722571D01*
X62738000Y-98722571D02*
X62738000Y-97222571D01*
X62595142Y-97436857D01*
X62452285Y-97579714D01*
X62309428Y-97651142D01*
X39798571Y-98722571D02*
X38941428Y-98722571D01*
X39370000Y-98722571D02*
X39370000Y-97222571D01*
X39227142Y-97436857D01*
X39084285Y-97579714D01*
X38941428Y-97651142D01*
X69770571Y-93642571D02*
X68913428Y-93642571D01*
X69342000Y-93642571D02*
X69342000Y-92142571D01*
X69199142Y-92356857D01*
X69056285Y-92499714D01*
X68913428Y-92571142D01*
X60368571Y-95444285D02*
X58868571Y-95444285D01*
X60297142Y-94801428D02*
X60368571Y-94587142D01*
X60368571Y-94230000D01*
X60297142Y-94087142D01*
X60225714Y-94015714D01*
X60082857Y-93944285D01*
X59940000Y-93944285D01*
X59797142Y-94015714D01*
X59725714Y-94087142D01*
X59654285Y-94230000D01*
X59582857Y-94515714D01*
X59511428Y-94658571D01*
X59440000Y-94730000D01*
X59297142Y-94801428D01*
X59154285Y-94801428D01*
X59011428Y-94730000D01*
X58940000Y-94658571D01*
X58868571Y-94515714D01*
X58868571Y-94158571D01*
X58940000Y-93944285D01*
X60368571Y-93301428D02*
X58868571Y-93301428D01*
X58868571Y-92730000D01*
X58940000Y-92587142D01*
X59011428Y-92515714D01*
X59154285Y-92444285D01*
X59368571Y-92444285D01*
X59511428Y-92515714D01*
X59582857Y-92587142D01*
X59654285Y-92730000D01*
X59654285Y-93301428D01*
X37000571Y-95444285D02*
X35500571Y-95444285D01*
X36929142Y-94801428D02*
X37000571Y-94587142D01*
X37000571Y-94230000D01*
X36929142Y-94087142D01*
X36857714Y-94015714D01*
X36714857Y-93944285D01*
X36572000Y-93944285D01*
X36429142Y-94015714D01*
X36357714Y-94087142D01*
X36286285Y-94230000D01*
X36214857Y-94515714D01*
X36143428Y-94658571D01*
X36072000Y-94730000D01*
X35929142Y-94801428D01*
X35786285Y-94801428D01*
X35643428Y-94730000D01*
X35572000Y-94658571D01*
X35500571Y-94515714D01*
X35500571Y-94158571D01*
X35572000Y-93944285D01*
X37000571Y-93301428D02*
X35500571Y-93301428D01*
X35500571Y-92730000D01*
X35572000Y-92587142D01*
X35643428Y-92515714D01*
X35786285Y-92444285D01*
X36000571Y-92444285D01*
X36143428Y-92515714D01*
X36214857Y-92587142D01*
X36286285Y-92730000D01*
X36286285Y-93301428D01*
X46402571Y-93642571D02*
X45545428Y-93642571D01*
X45974000Y-93642571D02*
X45974000Y-92142571D01*
X45831142Y-92356857D01*
X45688285Y-92499714D01*
X45545428Y-92571142D01*
X58086571Y-93642571D02*
X57229428Y-93642571D01*
X57658000Y-93642571D02*
X57658000Y-92142571D01*
X57515142Y-92356857D01*
X57372285Y-92499714D01*
X57229428Y-92571142D01*
X51482571Y-98722571D02*
X50625428Y-98722571D01*
X51054000Y-98722571D02*
X51054000Y-97222571D01*
X50911142Y-97436857D01*
X50768285Y-97579714D01*
X50625428Y-97651142D01*
X107104571Y-95444285D02*
X105604571Y-95444285D01*
X107033142Y-94801428D02*
X107104571Y-94587142D01*
X107104571Y-94230000D01*
X107033142Y-94087142D01*
X106961714Y-94015714D01*
X106818857Y-93944285D01*
X106676000Y-93944285D01*
X106533142Y-94015714D01*
X106461714Y-94087142D01*
X106390285Y-94230000D01*
X106318857Y-94515714D01*
X106247428Y-94658571D01*
X106176000Y-94730000D01*
X106033142Y-94801428D01*
X105890285Y-94801428D01*
X105747428Y-94730000D01*
X105676000Y-94658571D01*
X105604571Y-94515714D01*
X105604571Y-94158571D01*
X105676000Y-93944285D01*
X107104571Y-93301428D02*
X105604571Y-93301428D01*
X105604571Y-92730000D01*
X105676000Y-92587142D01*
X105747428Y-92515714D01*
X105890285Y-92444285D01*
X106104571Y-92444285D01*
X106247428Y-92515714D01*
X106318857Y-92587142D01*
X106390285Y-92730000D01*
X106390285Y-93301428D01*
X98218571Y-98722571D02*
X97361428Y-98722571D01*
X97790000Y-98722571D02*
X97790000Y-97222571D01*
X97647142Y-97436857D01*
X97504285Y-97579714D01*
X97361428Y-97651142D01*
X95420571Y-95444285D02*
X93920571Y-95444285D01*
X95349142Y-94801428D02*
X95420571Y-94587142D01*
X95420571Y-94230000D01*
X95349142Y-94087142D01*
X95277714Y-94015714D01*
X95134857Y-93944285D01*
X94992000Y-93944285D01*
X94849142Y-94015714D01*
X94777714Y-94087142D01*
X94706285Y-94230000D01*
X94634857Y-94515714D01*
X94563428Y-94658571D01*
X94492000Y-94730000D01*
X94349142Y-94801428D01*
X94206285Y-94801428D01*
X94063428Y-94730000D01*
X93992000Y-94658571D01*
X93920571Y-94515714D01*
X93920571Y-94158571D01*
X93992000Y-93944285D01*
X95420571Y-93301428D02*
X93920571Y-93301428D01*
X93920571Y-92730000D01*
X93992000Y-92587142D01*
X94063428Y-92515714D01*
X94206285Y-92444285D01*
X94420571Y-92444285D01*
X94563428Y-92515714D01*
X94634857Y-92587142D01*
X94706285Y-92730000D01*
X94706285Y-93301428D01*
X25316571Y-95444285D02*
X23816571Y-95444285D01*
X25245142Y-94801428D02*
X25316571Y-94587142D01*
X25316571Y-94230000D01*
X25245142Y-94087142D01*
X25173714Y-94015714D01*
X25030857Y-93944285D01*
X24888000Y-93944285D01*
X24745142Y-94015714D01*
X24673714Y-94087142D01*
X24602285Y-94230000D01*
X24530857Y-94515714D01*
X24459428Y-94658571D01*
X24388000Y-94730000D01*
X24245142Y-94801428D01*
X24102285Y-94801428D01*
X23959428Y-94730000D01*
X23888000Y-94658571D01*
X23816571Y-94515714D01*
X23816571Y-94158571D01*
X23888000Y-93944285D01*
X25316571Y-93301428D02*
X23816571Y-93301428D01*
X23816571Y-92730000D01*
X23888000Y-92587142D01*
X23959428Y-92515714D01*
X24102285Y-92444285D01*
X24316571Y-92444285D01*
X24459428Y-92515714D01*
X24530857Y-92587142D01*
X24602285Y-92730000D01*
X24602285Y-93301428D01*
X28114571Y-98722571D02*
X27257428Y-98722571D01*
X27686000Y-98722571D02*
X27686000Y-97222571D01*
X27543142Y-97436857D01*
X27400285Y-97579714D01*
X27257428Y-97651142D01*
X34718571Y-93642571D02*
X33861428Y-93642571D01*
X34290000Y-93642571D02*
X34290000Y-92142571D01*
X34147142Y-92356857D01*
X34004285Y-92499714D01*
X33861428Y-92571142D01*
X25316571Y-109668285D02*
X23816571Y-109668285D01*
X25245142Y-109025428D02*
X25316571Y-108811142D01*
X25316571Y-108454000D01*
X25245142Y-108311142D01*
X25173714Y-108239714D01*
X25030857Y-108168285D01*
X24888000Y-108168285D01*
X24745142Y-108239714D01*
X24673714Y-108311142D01*
X24602285Y-108454000D01*
X24530857Y-108739714D01*
X24459428Y-108882571D01*
X24388000Y-108954000D01*
X24245142Y-109025428D01*
X24102285Y-109025428D01*
X23959428Y-108954000D01*
X23888000Y-108882571D01*
X23816571Y-108739714D01*
X23816571Y-108382571D01*
X23888000Y-108168285D01*
X25316571Y-107525428D02*
X23816571Y-107525428D01*
X23816571Y-106954000D01*
X23888000Y-106811142D01*
X23959428Y-106739714D01*
X24102285Y-106668285D01*
X24316571Y-106668285D01*
X24459428Y-106739714D01*
X24530857Y-106811142D01*
X24602285Y-106954000D01*
X24602285Y-107525428D01*
X28114571Y-112946571D02*
X27257428Y-112946571D01*
X27686000Y-112946571D02*
X27686000Y-111446571D01*
X27543142Y-111660857D01*
X27400285Y-111803714D01*
X27257428Y-111875142D01*
X34718571Y-107866571D02*
X33861428Y-107866571D01*
X34290000Y-107866571D02*
X34290000Y-106366571D01*
X34147142Y-106580857D01*
X34004285Y-106723714D01*
X33861428Y-106795142D01*
X95420571Y-109668285D02*
X93920571Y-109668285D01*
X95349142Y-109025428D02*
X95420571Y-108811142D01*
X95420571Y-108454000D01*
X95349142Y-108311142D01*
X95277714Y-108239714D01*
X95134857Y-108168285D01*
X94992000Y-108168285D01*
X94849142Y-108239714D01*
X94777714Y-108311142D01*
X94706285Y-108454000D01*
X94634857Y-108739714D01*
X94563428Y-108882571D01*
X94492000Y-108954000D01*
X94349142Y-109025428D01*
X94206285Y-109025428D01*
X94063428Y-108954000D01*
X93992000Y-108882571D01*
X93920571Y-108739714D01*
X93920571Y-108382571D01*
X93992000Y-108168285D01*
X95420571Y-107525428D02*
X93920571Y-107525428D01*
X93920571Y-106954000D01*
X93992000Y-106811142D01*
X94063428Y-106739714D01*
X94206285Y-106668285D01*
X94420571Y-106668285D01*
X94563428Y-106739714D01*
X94634857Y-106811142D01*
X94706285Y-106954000D01*
X94706285Y-107525428D01*
X98218571Y-112946571D02*
X97361428Y-112946571D01*
X97790000Y-112946571D02*
X97790000Y-111446571D01*
X97647142Y-111660857D01*
X97504285Y-111803714D01*
X97361428Y-111875142D01*
X107104571Y-109668285D02*
X105604571Y-109668285D01*
X107033142Y-109025428D02*
X107104571Y-108811142D01*
X107104571Y-108454000D01*
X107033142Y-108311142D01*
X106961714Y-108239714D01*
X106818857Y-108168285D01*
X106676000Y-108168285D01*
X106533142Y-108239714D01*
X106461714Y-108311142D01*
X106390285Y-108454000D01*
X106318857Y-108739714D01*
X106247428Y-108882571D01*
X106176000Y-108954000D01*
X106033142Y-109025428D01*
X105890285Y-109025428D01*
X105747428Y-108954000D01*
X105676000Y-108882571D01*
X105604571Y-108739714D01*
X105604571Y-108382571D01*
X105676000Y-108168285D01*
X107104571Y-107525428D02*
X105604571Y-107525428D01*
X105604571Y-106954000D01*
X105676000Y-106811142D01*
X105747428Y-106739714D01*
X105890285Y-106668285D01*
X106104571Y-106668285D01*
X106247428Y-106739714D01*
X106318857Y-106811142D01*
X106390285Y-106954000D01*
X106390285Y-107525428D01*
X116506571Y-107866571D02*
X115649428Y-107866571D01*
X116078000Y-107866571D02*
X116078000Y-106366571D01*
X115935142Y-106580857D01*
X115792285Y-106723714D01*
X115649428Y-106795142D01*
X109902571Y-112946571D02*
X109045428Y-112946571D01*
X109474000Y-112946571D02*
X109474000Y-111446571D01*
X109331142Y-111660857D01*
X109188285Y-111803714D01*
X109045428Y-111875142D01*
X93138571Y-107866571D02*
X92281428Y-107866571D01*
X92710000Y-107866571D02*
X92710000Y-106366571D01*
X92567142Y-106580857D01*
X92424285Y-106723714D01*
X92281428Y-106795142D01*
X104822571Y-107866571D02*
X103965428Y-107866571D01*
X104394000Y-107866571D02*
X104394000Y-106366571D01*
X104251142Y-106580857D01*
X104108285Y-106723714D01*
X103965428Y-106795142D01*
X74850571Y-112946571D02*
X73993428Y-112946571D01*
X74422000Y-112946571D02*
X74422000Y-111446571D01*
X74279142Y-111660857D01*
X74136285Y-111803714D01*
X73993428Y-111875142D01*
X83736571Y-109668285D02*
X82236571Y-109668285D01*
X83665142Y-109025428D02*
X83736571Y-108811142D01*
X83736571Y-108454000D01*
X83665142Y-108311142D01*
X83593714Y-108239714D01*
X83450857Y-108168285D01*
X83308000Y-108168285D01*
X83165142Y-108239714D01*
X83093714Y-108311142D01*
X83022285Y-108454000D01*
X82950857Y-108739714D01*
X82879428Y-108882571D01*
X82808000Y-108954000D01*
X82665142Y-109025428D01*
X82522285Y-109025428D01*
X82379428Y-108954000D01*
X82308000Y-108882571D01*
X82236571Y-108739714D01*
X82236571Y-108382571D01*
X82308000Y-108168285D01*
X83736571Y-107525428D02*
X82236571Y-107525428D01*
X82236571Y-106954000D01*
X82308000Y-106811142D01*
X82379428Y-106739714D01*
X82522285Y-106668285D01*
X82736571Y-106668285D01*
X82879428Y-106739714D01*
X82950857Y-106811142D01*
X83022285Y-106954000D01*
X83022285Y-107525428D01*
X81454571Y-107866571D02*
X80597428Y-107866571D01*
X81026000Y-107866571D02*
X81026000Y-106366571D01*
X80883142Y-106580857D01*
X80740285Y-106723714D01*
X80597428Y-106795142D01*
X86534571Y-112946571D02*
X85677428Y-112946571D01*
X86106000Y-112946571D02*
X86106000Y-111446571D01*
X85963142Y-111660857D01*
X85820285Y-111803714D01*
X85677428Y-111875142D01*
X93138571Y-107866571D02*
X92281428Y-107866571D01*
X92710000Y-107866571D02*
X92710000Y-106366571D01*
X92567142Y-106580857D01*
X92424285Y-106723714D01*
X92281428Y-106795142D01*
X72052571Y-109668285D02*
X70552571Y-109668285D01*
X71981142Y-109025428D02*
X72052571Y-108811142D01*
X72052571Y-108454000D01*
X71981142Y-108311142D01*
X71909714Y-108239714D01*
X71766857Y-108168285D01*
X71624000Y-108168285D01*
X71481142Y-108239714D01*
X71409714Y-108311142D01*
X71338285Y-108454000D01*
X71266857Y-108739714D01*
X71195428Y-108882571D01*
X71124000Y-108954000D01*
X70981142Y-109025428D01*
X70838285Y-109025428D01*
X70695428Y-108954000D01*
X70624000Y-108882571D01*
X70552571Y-108739714D01*
X70552571Y-108382571D01*
X70624000Y-108168285D01*
X72052571Y-107525428D02*
X70552571Y-107525428D01*
X70552571Y-106954000D01*
X70624000Y-106811142D01*
X70695428Y-106739714D01*
X70838285Y-106668285D01*
X71052571Y-106668285D01*
X71195428Y-106739714D01*
X71266857Y-106811142D01*
X71338285Y-106954000D01*
X71338285Y-107525428D01*
X69770571Y-107866571D02*
X68913428Y-107866571D01*
X69342000Y-107866571D02*
X69342000Y-106366571D01*
X69199142Y-106580857D01*
X69056285Y-106723714D01*
X68913428Y-106795142D01*
X48684571Y-109668285D02*
X47184571Y-109668285D01*
X48613142Y-109025428D02*
X48684571Y-108811142D01*
X48684571Y-108454000D01*
X48613142Y-108311142D01*
X48541714Y-108239714D01*
X48398857Y-108168285D01*
X48256000Y-108168285D01*
X48113142Y-108239714D01*
X48041714Y-108311142D01*
X47970285Y-108454000D01*
X47898857Y-108739714D01*
X47827428Y-108882571D01*
X47756000Y-108954000D01*
X47613142Y-109025428D01*
X47470285Y-109025428D01*
X47327428Y-108954000D01*
X47256000Y-108882571D01*
X47184571Y-108739714D01*
X47184571Y-108382571D01*
X47256000Y-108168285D01*
X48684571Y-107525428D02*
X47184571Y-107525428D01*
X47184571Y-106954000D01*
X47256000Y-106811142D01*
X47327428Y-106739714D01*
X47470285Y-106668285D01*
X47684571Y-106668285D01*
X47827428Y-106739714D01*
X47898857Y-106811142D01*
X47970285Y-106954000D01*
X47970285Y-107525428D01*
X51482571Y-112946571D02*
X50625428Y-112946571D01*
X51054000Y-112946571D02*
X51054000Y-111446571D01*
X50911142Y-111660857D01*
X50768285Y-111803714D01*
X50625428Y-111875142D01*
X58086571Y-107866571D02*
X57229428Y-107866571D01*
X57658000Y-107866571D02*
X57658000Y-106366571D01*
X57515142Y-106580857D01*
X57372285Y-106723714D01*
X57229428Y-106795142D01*
X60368571Y-109668285D02*
X58868571Y-109668285D01*
X60297142Y-109025428D02*
X60368571Y-108811142D01*
X60368571Y-108454000D01*
X60297142Y-108311142D01*
X60225714Y-108239714D01*
X60082857Y-108168285D01*
X59940000Y-108168285D01*
X59797142Y-108239714D01*
X59725714Y-108311142D01*
X59654285Y-108454000D01*
X59582857Y-108739714D01*
X59511428Y-108882571D01*
X59440000Y-108954000D01*
X59297142Y-109025428D01*
X59154285Y-109025428D01*
X59011428Y-108954000D01*
X58940000Y-108882571D01*
X58868571Y-108739714D01*
X58868571Y-108382571D01*
X58940000Y-108168285D01*
X60368571Y-107525428D02*
X58868571Y-107525428D01*
X58868571Y-106954000D01*
X58940000Y-106811142D01*
X59011428Y-106739714D01*
X59154285Y-106668285D01*
X59368571Y-106668285D01*
X59511428Y-106739714D01*
X59582857Y-106811142D01*
X59654285Y-106954000D01*
X59654285Y-107525428D01*
X63166571Y-112946571D02*
X62309428Y-112946571D01*
X62738000Y-112946571D02*
X62738000Y-111446571D01*
X62595142Y-111660857D01*
X62452285Y-111803714D01*
X62309428Y-111875142D01*
X39798571Y-112946571D02*
X38941428Y-112946571D01*
X39370000Y-112946571D02*
X39370000Y-111446571D01*
X39227142Y-111660857D01*
X39084285Y-111803714D01*
X38941428Y-111875142D01*
X37000571Y-109668285D02*
X35500571Y-109668285D01*
X36929142Y-109025428D02*
X37000571Y-108811142D01*
X37000571Y-108454000D01*
X36929142Y-108311142D01*
X36857714Y-108239714D01*
X36714857Y-108168285D01*
X36572000Y-108168285D01*
X36429142Y-108239714D01*
X36357714Y-108311142D01*
X36286285Y-108454000D01*
X36214857Y-108739714D01*
X36143428Y-108882571D01*
X36072000Y-108954000D01*
X35929142Y-109025428D01*
X35786285Y-109025428D01*
X35643428Y-108954000D01*
X35572000Y-108882571D01*
X35500571Y-108739714D01*
X35500571Y-108382571D01*
X35572000Y-108168285D01*
X37000571Y-107525428D02*
X35500571Y-107525428D01*
X35500571Y-106954000D01*
X35572000Y-106811142D01*
X35643428Y-106739714D01*
X35786285Y-106668285D01*
X36000571Y-106668285D01*
X36143428Y-106739714D01*
X36214857Y-106811142D01*
X36286285Y-106954000D01*
X36286285Y-107525428D01*
X46402571Y-107866571D02*
X45545428Y-107866571D01*
X45974000Y-107866571D02*
X45974000Y-106366571D01*
X45831142Y-106580857D01*
X45688285Y-106723714D01*
X45545428Y-106795142D01*
X93138571Y-122090571D02*
X92281428Y-122090571D01*
X92710000Y-122090571D02*
X92710000Y-120590571D01*
X92567142Y-120804857D01*
X92424285Y-120947714D01*
X92281428Y-121019142D01*
X74850571Y-127170571D02*
X73993428Y-127170571D01*
X74422000Y-127170571D02*
X74422000Y-125670571D01*
X74279142Y-125884857D01*
X74136285Y-126027714D01*
X73993428Y-126099142D01*
X81454571Y-122090571D02*
X80597428Y-122090571D01*
X81026000Y-122090571D02*
X81026000Y-120590571D01*
X80883142Y-120804857D01*
X80740285Y-120947714D01*
X80597428Y-121019142D01*
X93138571Y-122090571D02*
X92281428Y-122090571D01*
X92710000Y-122090571D02*
X92710000Y-120590571D01*
X92567142Y-120804857D01*
X92424285Y-120947714D01*
X92281428Y-121019142D01*
X116506571Y-122090571D02*
X115649428Y-122090571D01*
X116078000Y-122090571D02*
X116078000Y-120590571D01*
X115935142Y-120804857D01*
X115792285Y-120947714D01*
X115649428Y-121019142D01*
X109902571Y-127170571D02*
X109045428Y-127170571D01*
X109474000Y-127170571D02*
X109474000Y-125670571D01*
X109331142Y-125884857D01*
X109188285Y-126027714D01*
X109045428Y-126099142D01*
X104822571Y-122090571D02*
X103965428Y-122090571D01*
X104394000Y-122090571D02*
X104394000Y-120590571D01*
X104251142Y-120804857D01*
X104108285Y-120947714D01*
X103965428Y-121019142D01*
X86534571Y-127170571D02*
X85677428Y-127170571D01*
X86106000Y-127170571D02*
X86106000Y-125670571D01*
X85963142Y-125884857D01*
X85820285Y-126027714D01*
X85677428Y-126099142D01*
X83736571Y-123892285D02*
X82236571Y-123892285D01*
X83665142Y-123249428D02*
X83736571Y-123035142D01*
X83736571Y-122678000D01*
X83665142Y-122535142D01*
X83593714Y-122463714D01*
X83450857Y-122392285D01*
X83308000Y-122392285D01*
X83165142Y-122463714D01*
X83093714Y-122535142D01*
X83022285Y-122678000D01*
X82950857Y-122963714D01*
X82879428Y-123106571D01*
X82808000Y-123178000D01*
X82665142Y-123249428D01*
X82522285Y-123249428D01*
X82379428Y-123178000D01*
X82308000Y-123106571D01*
X82236571Y-122963714D01*
X82236571Y-122606571D01*
X82308000Y-122392285D01*
X83736571Y-121749428D02*
X82236571Y-121749428D01*
X82236571Y-121178000D01*
X82308000Y-121035142D01*
X82379428Y-120963714D01*
X82522285Y-120892285D01*
X82736571Y-120892285D01*
X82879428Y-120963714D01*
X82950857Y-121035142D01*
X83022285Y-121178000D01*
X83022285Y-121749428D01*
X72052571Y-123892285D02*
X70552571Y-123892285D01*
X71981142Y-123249428D02*
X72052571Y-123035142D01*
X72052571Y-122678000D01*
X71981142Y-122535142D01*
X71909714Y-122463714D01*
X71766857Y-122392285D01*
X71624000Y-122392285D01*
X71481142Y-122463714D01*
X71409714Y-122535142D01*
X71338285Y-122678000D01*
X71266857Y-122963714D01*
X71195428Y-123106571D01*
X71124000Y-123178000D01*
X70981142Y-123249428D01*
X70838285Y-123249428D01*
X70695428Y-123178000D01*
X70624000Y-123106571D01*
X70552571Y-122963714D01*
X70552571Y-122606571D01*
X70624000Y-122392285D01*
X72052571Y-121749428D02*
X70552571Y-121749428D01*
X70552571Y-121178000D01*
X70624000Y-121035142D01*
X70695428Y-120963714D01*
X70838285Y-120892285D01*
X71052571Y-120892285D01*
X71195428Y-120963714D01*
X71266857Y-121035142D01*
X71338285Y-121178000D01*
X71338285Y-121749428D01*
X48684571Y-123892285D02*
X47184571Y-123892285D01*
X48613142Y-123249428D02*
X48684571Y-123035142D01*
X48684571Y-122678000D01*
X48613142Y-122535142D01*
X48541714Y-122463714D01*
X48398857Y-122392285D01*
X48256000Y-122392285D01*
X48113142Y-122463714D01*
X48041714Y-122535142D01*
X47970285Y-122678000D01*
X47898857Y-122963714D01*
X47827428Y-123106571D01*
X47756000Y-123178000D01*
X47613142Y-123249428D01*
X47470285Y-123249428D01*
X47327428Y-123178000D01*
X47256000Y-123106571D01*
X47184571Y-122963714D01*
X47184571Y-122606571D01*
X47256000Y-122392285D01*
X48684571Y-121749428D02*
X47184571Y-121749428D01*
X47184571Y-121178000D01*
X47256000Y-121035142D01*
X47327428Y-120963714D01*
X47470285Y-120892285D01*
X47684571Y-120892285D01*
X47827428Y-120963714D01*
X47898857Y-121035142D01*
X47970285Y-121178000D01*
X47970285Y-121749428D01*
X63166571Y-127170571D02*
X62309428Y-127170571D01*
X62738000Y-127170571D02*
X62738000Y-125670571D01*
X62595142Y-125884857D01*
X62452285Y-126027714D01*
X62309428Y-126099142D01*
X39798571Y-127170571D02*
X38941428Y-127170571D01*
X39370000Y-127170571D02*
X39370000Y-125670571D01*
X39227142Y-125884857D01*
X39084285Y-126027714D01*
X38941428Y-126099142D01*
X69770571Y-122090571D02*
X68913428Y-122090571D01*
X69342000Y-122090571D02*
X69342000Y-120590571D01*
X69199142Y-120804857D01*
X69056285Y-120947714D01*
X68913428Y-121019142D01*
X60368571Y-123892285D02*
X58868571Y-123892285D01*
X60297142Y-123249428D02*
X60368571Y-123035142D01*
X60368571Y-122678000D01*
X60297142Y-122535142D01*
X60225714Y-122463714D01*
X60082857Y-122392285D01*
X59940000Y-122392285D01*
X59797142Y-122463714D01*
X59725714Y-122535142D01*
X59654285Y-122678000D01*
X59582857Y-122963714D01*
X59511428Y-123106571D01*
X59440000Y-123178000D01*
X59297142Y-123249428D01*
X59154285Y-123249428D01*
X59011428Y-123178000D01*
X58940000Y-123106571D01*
X58868571Y-122963714D01*
X58868571Y-122606571D01*
X58940000Y-122392285D01*
X60368571Y-121749428D02*
X58868571Y-121749428D01*
X58868571Y-121178000D01*
X58940000Y-121035142D01*
X59011428Y-120963714D01*
X59154285Y-120892285D01*
X59368571Y-120892285D01*
X59511428Y-120963714D01*
X59582857Y-121035142D01*
X59654285Y-121178000D01*
X59654285Y-121749428D01*
X37000571Y-123892285D02*
X35500571Y-123892285D01*
X36929142Y-123249428D02*
X37000571Y-123035142D01*
X37000571Y-122678000D01*
X36929142Y-122535142D01*
X36857714Y-122463714D01*
X36714857Y-122392285D01*
X36572000Y-122392285D01*
X36429142Y-122463714D01*
X36357714Y-122535142D01*
X36286285Y-122678000D01*
X36214857Y-122963714D01*
X36143428Y-123106571D01*
X36072000Y-123178000D01*
X35929142Y-123249428D01*
X35786285Y-123249428D01*
X35643428Y-123178000D01*
X35572000Y-123106571D01*
X35500571Y-122963714D01*
X35500571Y-122606571D01*
X35572000Y-122392285D01*
X37000571Y-121749428D02*
X35500571Y-121749428D01*
X35500571Y-121178000D01*
X35572000Y-121035142D01*
X35643428Y-120963714D01*
X35786285Y-120892285D01*
X36000571Y-120892285D01*
X36143428Y-120963714D01*
X36214857Y-121035142D01*
X36286285Y-121178000D01*
X36286285Y-121749428D01*
X46402571Y-122090571D02*
X45545428Y-122090571D01*
X45974000Y-122090571D02*
X45974000Y-120590571D01*
X45831142Y-120804857D01*
X45688285Y-120947714D01*
X45545428Y-121019142D01*
X58086571Y-122090571D02*
X57229428Y-122090571D01*
X57658000Y-122090571D02*
X57658000Y-120590571D01*
X57515142Y-120804857D01*
X57372285Y-120947714D01*
X57229428Y-121019142D01*
X51482571Y-127170571D02*
X50625428Y-127170571D01*
X51054000Y-127170571D02*
X51054000Y-125670571D01*
X50911142Y-125884857D01*
X50768285Y-126027714D01*
X50625428Y-126099142D01*
X107104571Y-123892285D02*
X105604571Y-123892285D01*
X107033142Y-123249428D02*
X107104571Y-123035142D01*
X107104571Y-122678000D01*
X107033142Y-122535142D01*
X106961714Y-122463714D01*
X106818857Y-122392285D01*
X106676000Y-122392285D01*
X106533142Y-122463714D01*
X106461714Y-122535142D01*
X106390285Y-122678000D01*
X106318857Y-122963714D01*
X106247428Y-123106571D01*
X106176000Y-123178000D01*
X106033142Y-123249428D01*
X105890285Y-123249428D01*
X105747428Y-123178000D01*
X105676000Y-123106571D01*
X105604571Y-122963714D01*
X105604571Y-122606571D01*
X105676000Y-122392285D01*
X107104571Y-121749428D02*
X105604571Y-121749428D01*
X105604571Y-121178000D01*
X105676000Y-121035142D01*
X105747428Y-120963714D01*
X105890285Y-120892285D01*
X106104571Y-120892285D01*
X106247428Y-120963714D01*
X106318857Y-121035142D01*
X106390285Y-121178000D01*
X106390285Y-121749428D01*
X98218571Y-127170571D02*
X97361428Y-127170571D01*
X97790000Y-127170571D02*
X97790000Y-125670571D01*
X97647142Y-125884857D01*
X97504285Y-126027714D01*
X97361428Y-126099142D01*
X95420571Y-123892285D02*
X93920571Y-123892285D01*
X95349142Y-123249428D02*
X95420571Y-123035142D01*
X95420571Y-122678000D01*
X95349142Y-122535142D01*
X95277714Y-122463714D01*
X95134857Y-122392285D01*
X94992000Y-122392285D01*
X94849142Y-122463714D01*
X94777714Y-122535142D01*
X94706285Y-122678000D01*
X94634857Y-122963714D01*
X94563428Y-123106571D01*
X94492000Y-123178000D01*
X94349142Y-123249428D01*
X94206285Y-123249428D01*
X94063428Y-123178000D01*
X93992000Y-123106571D01*
X93920571Y-122963714D01*
X93920571Y-122606571D01*
X93992000Y-122392285D01*
X95420571Y-121749428D02*
X93920571Y-121749428D01*
X93920571Y-121178000D01*
X93992000Y-121035142D01*
X94063428Y-120963714D01*
X94206285Y-120892285D01*
X94420571Y-120892285D01*
X94563428Y-120963714D01*
X94634857Y-121035142D01*
X94706285Y-121178000D01*
X94706285Y-121749428D01*
X25316571Y-123892285D02*
X23816571Y-123892285D01*
X25245142Y-123249428D02*
X25316571Y-123035142D01*
X25316571Y-122678000D01*
X25245142Y-122535142D01*
X25173714Y-122463714D01*
X25030857Y-122392285D01*
X24888000Y-122392285D01*
X24745142Y-122463714D01*
X24673714Y-122535142D01*
X24602285Y-122678000D01*
X24530857Y-122963714D01*
X24459428Y-123106571D01*
X24388000Y-123178000D01*
X24245142Y-123249428D01*
X24102285Y-123249428D01*
X23959428Y-123178000D01*
X23888000Y-123106571D01*
X23816571Y-122963714D01*
X23816571Y-122606571D01*
X23888000Y-122392285D01*
X25316571Y-121749428D02*
X23816571Y-121749428D01*
X23816571Y-121178000D01*
X23888000Y-121035142D01*
X23959428Y-120963714D01*
X24102285Y-120892285D01*
X24316571Y-120892285D01*
X24459428Y-120963714D01*
X24530857Y-121035142D01*
X24602285Y-121178000D01*
X24602285Y-121749428D01*
X28114571Y-127170571D02*
X27257428Y-127170571D01*
X27686000Y-127170571D02*
X27686000Y-125670571D01*
X27543142Y-125884857D01*
X27400285Y-126027714D01*
X27257428Y-126099142D01*
X34718571Y-122090571D02*
X33861428Y-122090571D01*
X34290000Y-122090571D02*
X34290000Y-120590571D01*
X34147142Y-120804857D01*
X34004285Y-120947714D01*
X33861428Y-121019142D01*
X25316571Y-138116285D02*
X23816571Y-138116285D01*
X25245142Y-137473428D02*
X25316571Y-137259142D01*
X25316571Y-136902000D01*
X25245142Y-136759142D01*
X25173714Y-136687714D01*
X25030857Y-136616285D01*
X24888000Y-136616285D01*
X24745142Y-136687714D01*
X24673714Y-136759142D01*
X24602285Y-136902000D01*
X24530857Y-137187714D01*
X24459428Y-137330571D01*
X24388000Y-137402000D01*
X24245142Y-137473428D01*
X24102285Y-137473428D01*
X23959428Y-137402000D01*
X23888000Y-137330571D01*
X23816571Y-137187714D01*
X23816571Y-136830571D01*
X23888000Y-136616285D01*
X25316571Y-135973428D02*
X23816571Y-135973428D01*
X23816571Y-135402000D01*
X23888000Y-135259142D01*
X23959428Y-135187714D01*
X24102285Y-135116285D01*
X24316571Y-135116285D01*
X24459428Y-135187714D01*
X24530857Y-135259142D01*
X24602285Y-135402000D01*
X24602285Y-135973428D01*
X28114571Y-141394571D02*
X27257428Y-141394571D01*
X27686000Y-141394571D02*
X27686000Y-139894571D01*
X27543142Y-140108857D01*
X27400285Y-140251714D01*
X27257428Y-140323142D01*
X34718571Y-136314571D02*
X33861428Y-136314571D01*
X34290000Y-136314571D02*
X34290000Y-134814571D01*
X34147142Y-135028857D01*
X34004285Y-135171714D01*
X33861428Y-135243142D01*
X95420571Y-138116285D02*
X93920571Y-138116285D01*
X95349142Y-137473428D02*
X95420571Y-137259142D01*
X95420571Y-136902000D01*
X95349142Y-136759142D01*
X95277714Y-136687714D01*
X95134857Y-136616285D01*
X94992000Y-136616285D01*
X94849142Y-136687714D01*
X94777714Y-136759142D01*
X94706285Y-136902000D01*
X94634857Y-137187714D01*
X94563428Y-137330571D01*
X94492000Y-137402000D01*
X94349142Y-137473428D01*
X94206285Y-137473428D01*
X94063428Y-137402000D01*
X93992000Y-137330571D01*
X93920571Y-137187714D01*
X93920571Y-136830571D01*
X93992000Y-136616285D01*
X95420571Y-135973428D02*
X93920571Y-135973428D01*
X93920571Y-135402000D01*
X93992000Y-135259142D01*
X94063428Y-135187714D01*
X94206285Y-135116285D01*
X94420571Y-135116285D01*
X94563428Y-135187714D01*
X94634857Y-135259142D01*
X94706285Y-135402000D01*
X94706285Y-135973428D01*
X98218571Y-141394571D02*
X97361428Y-141394571D01*
X97790000Y-141394571D02*
X97790000Y-139894571D01*
X97647142Y-140108857D01*
X97504285Y-140251714D01*
X97361428Y-140323142D01*
X107104571Y-138116285D02*
X105604571Y-138116285D01*
X107033142Y-137473428D02*
X107104571Y-137259142D01*
X107104571Y-136902000D01*
X107033142Y-136759142D01*
X106961714Y-136687714D01*
X106818857Y-136616285D01*
X106676000Y-136616285D01*
X106533142Y-136687714D01*
X106461714Y-136759142D01*
X106390285Y-136902000D01*
X106318857Y-137187714D01*
X106247428Y-137330571D01*
X106176000Y-137402000D01*
X106033142Y-137473428D01*
X105890285Y-137473428D01*
X105747428Y-137402000D01*
X105676000Y-137330571D01*
X105604571Y-137187714D01*
X105604571Y-136830571D01*
X105676000Y-136616285D01*
X107104571Y-135973428D02*
X105604571Y-135973428D01*
X105604571Y-135402000D01*
X105676000Y-135259142D01*
X105747428Y-135187714D01*
X105890285Y-135116285D01*
X106104571Y-135116285D01*
X106247428Y-135187714D01*
X106318857Y-135259142D01*
X106390285Y-135402000D01*
X106390285Y-135973428D01*
X116506571Y-136314571D02*
X115649428Y-136314571D01*
X116078000Y-136314571D02*
X116078000Y-134814571D01*
X115935142Y-135028857D01*
X115792285Y-135171714D01*
X115649428Y-135243142D01*
X109902571Y-141394571D02*
X109045428Y-141394571D01*
X109474000Y-141394571D02*
X109474000Y-139894571D01*
X109331142Y-140108857D01*
X109188285Y-140251714D01*
X109045428Y-140323142D01*
X93138571Y-136314571D02*
X92281428Y-136314571D01*
X92710000Y-136314571D02*
X92710000Y-134814571D01*
X92567142Y-135028857D01*
X92424285Y-135171714D01*
X92281428Y-135243142D01*
X104822571Y-136314571D02*
X103965428Y-136314571D01*
X104394000Y-136314571D02*
X104394000Y-134814571D01*
X104251142Y-135028857D01*
X104108285Y-135171714D01*
X103965428Y-135243142D01*
X74850571Y-141394571D02*
X73993428Y-141394571D01*
X74422000Y-141394571D02*
X74422000Y-139894571D01*
X74279142Y-140108857D01*
X74136285Y-140251714D01*
X73993428Y-140323142D01*
X83736571Y-138116285D02*
X82236571Y-138116285D01*
X83665142Y-137473428D02*
X83736571Y-137259142D01*
X83736571Y-136902000D01*
X83665142Y-136759142D01*
X83593714Y-136687714D01*
X83450857Y-136616285D01*
X83308000Y-136616285D01*
X83165142Y-136687714D01*
X83093714Y-136759142D01*
X83022285Y-136902000D01*
X82950857Y-137187714D01*
X82879428Y-137330571D01*
X82808000Y-137402000D01*
X82665142Y-137473428D01*
X82522285Y-137473428D01*
X82379428Y-137402000D01*
X82308000Y-137330571D01*
X82236571Y-137187714D01*
X82236571Y-136830571D01*
X82308000Y-136616285D01*
X83736571Y-135973428D02*
X82236571Y-135973428D01*
X82236571Y-135402000D01*
X82308000Y-135259142D01*
X82379428Y-135187714D01*
X82522285Y-135116285D01*
X82736571Y-135116285D01*
X82879428Y-135187714D01*
X82950857Y-135259142D01*
X83022285Y-135402000D01*
X83022285Y-135973428D01*
X81454571Y-136314571D02*
X80597428Y-136314571D01*
X81026000Y-136314571D02*
X81026000Y-134814571D01*
X80883142Y-135028857D01*
X80740285Y-135171714D01*
X80597428Y-135243142D01*
X86534571Y-141394571D02*
X85677428Y-141394571D01*
X86106000Y-141394571D02*
X86106000Y-139894571D01*
X85963142Y-140108857D01*
X85820285Y-140251714D01*
X85677428Y-140323142D01*
X93138571Y-136314571D02*
X92281428Y-136314571D01*
X92710000Y-136314571D02*
X92710000Y-134814571D01*
X92567142Y-135028857D01*
X92424285Y-135171714D01*
X92281428Y-135243142D01*
X72052571Y-138116285D02*
X70552571Y-138116285D01*
X71981142Y-137473428D02*
X72052571Y-137259142D01*
X72052571Y-136902000D01*
X71981142Y-136759142D01*
X71909714Y-136687714D01*
X71766857Y-136616285D01*
X71624000Y-136616285D01*
X71481142Y-136687714D01*
X71409714Y-136759142D01*
X71338285Y-136902000D01*
X71266857Y-137187714D01*
X71195428Y-137330571D01*
X71124000Y-137402000D01*
X70981142Y-137473428D01*
X70838285Y-137473428D01*
X70695428Y-137402000D01*
X70624000Y-137330571D01*
X70552571Y-137187714D01*
X70552571Y-136830571D01*
X70624000Y-136616285D01*
X72052571Y-135973428D02*
X70552571Y-135973428D01*
X70552571Y-135402000D01*
X70624000Y-135259142D01*
X70695428Y-135187714D01*
X70838285Y-135116285D01*
X71052571Y-135116285D01*
X71195428Y-135187714D01*
X71266857Y-135259142D01*
X71338285Y-135402000D01*
X71338285Y-135973428D01*
X69770571Y-136314571D02*
X68913428Y-136314571D01*
X69342000Y-136314571D02*
X69342000Y-134814571D01*
X69199142Y-135028857D01*
X69056285Y-135171714D01*
X68913428Y-135243142D01*
X48684571Y-138116285D02*
X47184571Y-138116285D01*
X48613142Y-137473428D02*
X48684571Y-137259142D01*
X48684571Y-136902000D01*
X48613142Y-136759142D01*
X48541714Y-136687714D01*
X48398857Y-136616285D01*
X48256000Y-136616285D01*
X48113142Y-136687714D01*
X48041714Y-136759142D01*
X47970285Y-136902000D01*
X47898857Y-137187714D01*
X47827428Y-137330571D01*
X47756000Y-137402000D01*
X47613142Y-137473428D01*
X47470285Y-137473428D01*
X47327428Y-137402000D01*
X47256000Y-137330571D01*
X47184571Y-137187714D01*
X47184571Y-136830571D01*
X47256000Y-136616285D01*
X48684571Y-135973428D02*
X47184571Y-135973428D01*
X47184571Y-135402000D01*
X47256000Y-135259142D01*
X47327428Y-135187714D01*
X47470285Y-135116285D01*
X47684571Y-135116285D01*
X47827428Y-135187714D01*
X47898857Y-135259142D01*
X47970285Y-135402000D01*
X47970285Y-135973428D01*
X51482571Y-141394571D02*
X50625428Y-141394571D01*
X51054000Y-141394571D02*
X51054000Y-139894571D01*
X50911142Y-140108857D01*
X50768285Y-140251714D01*
X50625428Y-140323142D01*
X58086571Y-136314571D02*
X57229428Y-136314571D01*
X57658000Y-136314571D02*
X57658000Y-134814571D01*
X57515142Y-135028857D01*
X57372285Y-135171714D01*
X57229428Y-135243142D01*
X60368571Y-138116285D02*
X58868571Y-138116285D01*
X60297142Y-137473428D02*
X60368571Y-137259142D01*
X60368571Y-136902000D01*
X60297142Y-136759142D01*
X60225714Y-136687714D01*
X60082857Y-136616285D01*
X59940000Y-136616285D01*
X59797142Y-136687714D01*
X59725714Y-136759142D01*
X59654285Y-136902000D01*
X59582857Y-137187714D01*
X59511428Y-137330571D01*
X59440000Y-137402000D01*
X59297142Y-137473428D01*
X59154285Y-137473428D01*
X59011428Y-137402000D01*
X58940000Y-137330571D01*
X58868571Y-137187714D01*
X58868571Y-136830571D01*
X58940000Y-136616285D01*
X60368571Y-135973428D02*
X58868571Y-135973428D01*
X58868571Y-135402000D01*
X58940000Y-135259142D01*
X59011428Y-135187714D01*
X59154285Y-135116285D01*
X59368571Y-135116285D01*
X59511428Y-135187714D01*
X59582857Y-135259142D01*
X59654285Y-135402000D01*
X59654285Y-135973428D01*
X63166571Y-141394571D02*
X62309428Y-141394571D01*
X62738000Y-141394571D02*
X62738000Y-139894571D01*
X62595142Y-140108857D01*
X62452285Y-140251714D01*
X62309428Y-140323142D01*
X39798571Y-141394571D02*
X38941428Y-141394571D01*
X39370000Y-141394571D02*
X39370000Y-139894571D01*
X39227142Y-140108857D01*
X39084285Y-140251714D01*
X38941428Y-140323142D01*
X37000571Y-138116285D02*
X35500571Y-138116285D01*
X36929142Y-137473428D02*
X37000571Y-137259142D01*
X37000571Y-136902000D01*
X36929142Y-136759142D01*
X36857714Y-136687714D01*
X36714857Y-136616285D01*
X36572000Y-136616285D01*
X36429142Y-136687714D01*
X36357714Y-136759142D01*
X36286285Y-136902000D01*
X36214857Y-137187714D01*
X36143428Y-137330571D01*
X36072000Y-137402000D01*
X35929142Y-137473428D01*
X35786285Y-137473428D01*
X35643428Y-137402000D01*
X35572000Y-137330571D01*
X35500571Y-137187714D01*
X35500571Y-136830571D01*
X35572000Y-136616285D01*
X37000571Y-135973428D02*
X35500571Y-135973428D01*
X35500571Y-135402000D01*
X35572000Y-135259142D01*
X35643428Y-135187714D01*
X35786285Y-135116285D01*
X36000571Y-135116285D01*
X36143428Y-135187714D01*
X36214857Y-135259142D01*
X36286285Y-135402000D01*
X36286285Y-135973428D01*
X46402571Y-136314571D02*
X45545428Y-136314571D01*
X45974000Y-136314571D02*
X45974000Y-134814571D01*
X45831142Y-135028857D01*
X45688285Y-135171714D01*
X45545428Y-135243142D01*
X25316571Y-152340285D02*
X23816571Y-152340285D01*
X25245142Y-151697428D02*
X25316571Y-151483142D01*
X25316571Y-151126000D01*
X25245142Y-150983142D01*
X25173714Y-150911714D01*
X25030857Y-150840285D01*
X24888000Y-150840285D01*
X24745142Y-150911714D01*
X24673714Y-150983142D01*
X24602285Y-151126000D01*
X24530857Y-151411714D01*
X24459428Y-151554571D01*
X24388000Y-151626000D01*
X24245142Y-151697428D01*
X24102285Y-151697428D01*
X23959428Y-151626000D01*
X23888000Y-151554571D01*
X23816571Y-151411714D01*
X23816571Y-151054571D01*
X23888000Y-150840285D01*
X25316571Y-150197428D02*
X23816571Y-150197428D01*
X23816571Y-149626000D01*
X23888000Y-149483142D01*
X23959428Y-149411714D01*
X24102285Y-149340285D01*
X24316571Y-149340285D01*
X24459428Y-149411714D01*
X24530857Y-149483142D01*
X24602285Y-149626000D01*
X24602285Y-150197428D01*
X28114571Y-155618571D02*
X27257428Y-155618571D01*
X27686000Y-155618571D02*
X27686000Y-154118571D01*
X27543142Y-154332857D01*
X27400285Y-154475714D01*
X27257428Y-154547142D01*
X34718571Y-150538571D02*
X33861428Y-150538571D01*
X34290000Y-150538571D02*
X34290000Y-149038571D01*
X34147142Y-149252857D01*
X34004285Y-149395714D01*
X33861428Y-149467142D01*
X95420571Y-152340285D02*
X93920571Y-152340285D01*
X95349142Y-151697428D02*
X95420571Y-151483142D01*
X95420571Y-151126000D01*
X95349142Y-150983142D01*
X95277714Y-150911714D01*
X95134857Y-150840285D01*
X94992000Y-150840285D01*
X94849142Y-150911714D01*
X94777714Y-150983142D01*
X94706285Y-151126000D01*
X94634857Y-151411714D01*
X94563428Y-151554571D01*
X94492000Y-151626000D01*
X94349142Y-151697428D01*
X94206285Y-151697428D01*
X94063428Y-151626000D01*
X93992000Y-151554571D01*
X93920571Y-151411714D01*
X93920571Y-151054571D01*
X93992000Y-150840285D01*
X95420571Y-150197428D02*
X93920571Y-150197428D01*
X93920571Y-149626000D01*
X93992000Y-149483142D01*
X94063428Y-149411714D01*
X94206285Y-149340285D01*
X94420571Y-149340285D01*
X94563428Y-149411714D01*
X94634857Y-149483142D01*
X94706285Y-149626000D01*
X94706285Y-150197428D01*
X98218571Y-155618571D02*
X97361428Y-155618571D01*
X97790000Y-155618571D02*
X97790000Y-154118571D01*
X97647142Y-154332857D01*
X97504285Y-154475714D01*
X97361428Y-154547142D01*
X107104571Y-152340285D02*
X105604571Y-152340285D01*
X107033142Y-151697428D02*
X107104571Y-151483142D01*
X107104571Y-151126000D01*
X107033142Y-150983142D01*
X106961714Y-150911714D01*
X106818857Y-150840285D01*
X106676000Y-150840285D01*
X106533142Y-150911714D01*
X106461714Y-150983142D01*
X106390285Y-151126000D01*
X106318857Y-151411714D01*
X106247428Y-151554571D01*
X106176000Y-151626000D01*
X106033142Y-151697428D01*
X105890285Y-151697428D01*
X105747428Y-151626000D01*
X105676000Y-151554571D01*
X105604571Y-151411714D01*
X105604571Y-151054571D01*
X105676000Y-150840285D01*
X107104571Y-150197428D02*
X105604571Y-150197428D01*
X105604571Y-149626000D01*
X105676000Y-149483142D01*
X105747428Y-149411714D01*
X105890285Y-149340285D01*
X106104571Y-149340285D01*
X106247428Y-149411714D01*
X106318857Y-149483142D01*
X106390285Y-149626000D01*
X106390285Y-150197428D01*
X116506571Y-150538571D02*
X115649428Y-150538571D01*
X116078000Y-150538571D02*
X116078000Y-149038571D01*
X115935142Y-149252857D01*
X115792285Y-149395714D01*
X115649428Y-149467142D01*
X109902571Y-155618571D02*
X109045428Y-155618571D01*
X109474000Y-155618571D02*
X109474000Y-154118571D01*
X109331142Y-154332857D01*
X109188285Y-154475714D01*
X109045428Y-154547142D01*
X93138571Y-150538571D02*
X92281428Y-150538571D01*
X92710000Y-150538571D02*
X92710000Y-149038571D01*
X92567142Y-149252857D01*
X92424285Y-149395714D01*
X92281428Y-149467142D01*
X104822571Y-150538571D02*
X103965428Y-150538571D01*
X104394000Y-150538571D02*
X104394000Y-149038571D01*
X104251142Y-149252857D01*
X104108285Y-149395714D01*
X103965428Y-149467142D01*
X74850571Y-155618571D02*
X73993428Y-155618571D01*
X74422000Y-155618571D02*
X74422000Y-154118571D01*
X74279142Y-154332857D01*
X74136285Y-154475714D01*
X73993428Y-154547142D01*
X83736571Y-152340285D02*
X82236571Y-152340285D01*
X83665142Y-151697428D02*
X83736571Y-151483142D01*
X83736571Y-151126000D01*
X83665142Y-150983142D01*
X83593714Y-150911714D01*
X83450857Y-150840285D01*
X83308000Y-150840285D01*
X83165142Y-150911714D01*
X83093714Y-150983142D01*
X83022285Y-151126000D01*
X82950857Y-151411714D01*
X82879428Y-151554571D01*
X82808000Y-151626000D01*
X82665142Y-151697428D01*
X82522285Y-151697428D01*
X82379428Y-151626000D01*
X82308000Y-151554571D01*
X82236571Y-151411714D01*
X82236571Y-151054571D01*
X82308000Y-150840285D01*
X83736571Y-150197428D02*
X82236571Y-150197428D01*
X82236571Y-149626000D01*
X82308000Y-149483142D01*
X82379428Y-149411714D01*
X82522285Y-149340285D01*
X82736571Y-149340285D01*
X82879428Y-149411714D01*
X82950857Y-149483142D01*
X83022285Y-149626000D01*
X83022285Y-150197428D01*
X81454571Y-150538571D02*
X80597428Y-150538571D01*
X81026000Y-150538571D02*
X81026000Y-149038571D01*
X80883142Y-149252857D01*
X80740285Y-149395714D01*
X80597428Y-149467142D01*
X86534571Y-155618571D02*
X85677428Y-155618571D01*
X86106000Y-155618571D02*
X86106000Y-154118571D01*
X85963142Y-154332857D01*
X85820285Y-154475714D01*
X85677428Y-154547142D01*
X93138571Y-150538571D02*
X92281428Y-150538571D01*
X92710000Y-150538571D02*
X92710000Y-149038571D01*
X92567142Y-149252857D01*
X92424285Y-149395714D01*
X92281428Y-149467142D01*
X72052571Y-152340285D02*
X70552571Y-152340285D01*
X71981142Y-151697428D02*
X72052571Y-151483142D01*
X72052571Y-151126000D01*
X71981142Y-150983142D01*
X71909714Y-150911714D01*
X71766857Y-150840285D01*
X71624000Y-150840285D01*
X71481142Y-150911714D01*
X71409714Y-150983142D01*
X71338285Y-151126000D01*
X71266857Y-151411714D01*
X71195428Y-151554571D01*
X71124000Y-151626000D01*
X70981142Y-151697428D01*
X70838285Y-151697428D01*
X70695428Y-151626000D01*
X70624000Y-151554571D01*
X70552571Y-151411714D01*
X70552571Y-151054571D01*
X70624000Y-150840285D01*
X72052571Y-150197428D02*
X70552571Y-150197428D01*
X70552571Y-149626000D01*
X70624000Y-149483142D01*
X70695428Y-149411714D01*
X70838285Y-149340285D01*
X71052571Y-149340285D01*
X71195428Y-149411714D01*
X71266857Y-149483142D01*
X71338285Y-149626000D01*
X71338285Y-150197428D01*
X69770571Y-150538571D02*
X68913428Y-150538571D01*
X69342000Y-150538571D02*
X69342000Y-149038571D01*
X69199142Y-149252857D01*
X69056285Y-149395714D01*
X68913428Y-149467142D01*
X48684571Y-152340285D02*
X47184571Y-152340285D01*
X48613142Y-151697428D02*
X48684571Y-151483142D01*
X48684571Y-151126000D01*
X48613142Y-150983142D01*
X48541714Y-150911714D01*
X48398857Y-150840285D01*
X48256000Y-150840285D01*
X48113142Y-150911714D01*
X48041714Y-150983142D01*
X47970285Y-151126000D01*
X47898857Y-151411714D01*
X47827428Y-151554571D01*
X47756000Y-151626000D01*
X47613142Y-151697428D01*
X47470285Y-151697428D01*
X47327428Y-151626000D01*
X47256000Y-151554571D01*
X47184571Y-151411714D01*
X47184571Y-151054571D01*
X47256000Y-150840285D01*
X48684571Y-150197428D02*
X47184571Y-150197428D01*
X47184571Y-149626000D01*
X47256000Y-149483142D01*
X47327428Y-149411714D01*
X47470285Y-149340285D01*
X47684571Y-149340285D01*
X47827428Y-149411714D01*
X47898857Y-149483142D01*
X47970285Y-149626000D01*
X47970285Y-150197428D01*
X51482571Y-155618571D02*
X50625428Y-155618571D01*
X51054000Y-155618571D02*
X51054000Y-154118571D01*
X50911142Y-154332857D01*
X50768285Y-154475714D01*
X50625428Y-154547142D01*
X58086571Y-150538571D02*
X57229428Y-150538571D01*
X57658000Y-150538571D02*
X57658000Y-149038571D01*
X57515142Y-149252857D01*
X57372285Y-149395714D01*
X57229428Y-149467142D01*
X60368571Y-152340285D02*
X58868571Y-152340285D01*
X60297142Y-151697428D02*
X60368571Y-151483142D01*
X60368571Y-151126000D01*
X60297142Y-150983142D01*
X60225714Y-150911714D01*
X60082857Y-150840285D01*
X59940000Y-150840285D01*
X59797142Y-150911714D01*
X59725714Y-150983142D01*
X59654285Y-151126000D01*
X59582857Y-151411714D01*
X59511428Y-151554571D01*
X59440000Y-151626000D01*
X59297142Y-151697428D01*
X59154285Y-151697428D01*
X59011428Y-151626000D01*
X58940000Y-151554571D01*
X58868571Y-151411714D01*
X58868571Y-151054571D01*
X58940000Y-150840285D01*
X60368571Y-150197428D02*
X58868571Y-150197428D01*
X58868571Y-149626000D01*
X58940000Y-149483142D01*
X59011428Y-149411714D01*
X59154285Y-149340285D01*
X59368571Y-149340285D01*
X59511428Y-149411714D01*
X59582857Y-149483142D01*
X59654285Y-149626000D01*
X59654285Y-150197428D01*
X63166571Y-155618571D02*
X62309428Y-155618571D01*
X62738000Y-155618571D02*
X62738000Y-154118571D01*
X62595142Y-154332857D01*
X62452285Y-154475714D01*
X62309428Y-154547142D01*
X39798571Y-155618571D02*
X38941428Y-155618571D01*
X39370000Y-155618571D02*
X39370000Y-154118571D01*
X39227142Y-154332857D01*
X39084285Y-154475714D01*
X38941428Y-154547142D01*
X37000571Y-152340285D02*
X35500571Y-152340285D01*
X36929142Y-151697428D02*
X37000571Y-151483142D01*
X37000571Y-151126000D01*
X36929142Y-150983142D01*
X36857714Y-150911714D01*
X36714857Y-150840285D01*
X36572000Y-150840285D01*
X36429142Y-150911714D01*
X36357714Y-150983142D01*
X36286285Y-151126000D01*
X36214857Y-151411714D01*
X36143428Y-151554571D01*
X36072000Y-151626000D01*
X35929142Y-151697428D01*
X35786285Y-151697428D01*
X35643428Y-151626000D01*
X35572000Y-151554571D01*
X35500571Y-151411714D01*
X35500571Y-151054571D01*
X35572000Y-150840285D01*
X37000571Y-150197428D02*
X35500571Y-150197428D01*
X35500571Y-149626000D01*
X35572000Y-149483142D01*
X35643428Y-149411714D01*
X35786285Y-149340285D01*
X36000571Y-149340285D01*
X36143428Y-149411714D01*
X36214857Y-149483142D01*
X36286285Y-149626000D01*
X36286285Y-150197428D01*
X46402571Y-150538571D02*
X45545428Y-150538571D01*
X45974000Y-150538571D02*
X45974000Y-149038571D01*
X45831142Y-149252857D01*
X45688285Y-149395714D01*
X45545428Y-149467142D01*
X98218571Y-169842571D02*
X97361428Y-169842571D01*
X97790000Y-169842571D02*
X97790000Y-168342571D01*
X97647142Y-168556857D01*
X97504285Y-168699714D01*
X97361428Y-168771142D01*
X107104571Y-166564285D02*
X105604571Y-166564285D01*
X107033142Y-165921428D02*
X107104571Y-165707142D01*
X107104571Y-165350000D01*
X107033142Y-165207142D01*
X106961714Y-165135714D01*
X106818857Y-165064285D01*
X106676000Y-165064285D01*
X106533142Y-165135714D01*
X106461714Y-165207142D01*
X106390285Y-165350000D01*
X106318857Y-165635714D01*
X106247428Y-165778571D01*
X106176000Y-165850000D01*
X106033142Y-165921428D01*
X105890285Y-165921428D01*
X105747428Y-165850000D01*
X105676000Y-165778571D01*
X105604571Y-165635714D01*
X105604571Y-165278571D01*
X105676000Y-165064285D01*
X107104571Y-164421428D02*
X105604571Y-164421428D01*
X105604571Y-163850000D01*
X105676000Y-163707142D01*
X105747428Y-163635714D01*
X105890285Y-163564285D01*
X106104571Y-163564285D01*
X106247428Y-163635714D01*
X106318857Y-163707142D01*
X106390285Y-163850000D01*
X106390285Y-164421428D01*
X104822571Y-164762571D02*
X103965428Y-164762571D01*
X104394000Y-164762571D02*
X104394000Y-163262571D01*
X104251142Y-163476857D01*
X104108285Y-163619714D01*
X103965428Y-163691142D01*
X109902571Y-169842571D02*
X109045428Y-169842571D01*
X109474000Y-169842571D02*
X109474000Y-168342571D01*
X109331142Y-168556857D01*
X109188285Y-168699714D01*
X109045428Y-168771142D01*
X116506571Y-164762571D02*
X115649428Y-164762571D01*
X116078000Y-164762571D02*
X116078000Y-163262571D01*
X115935142Y-163476857D01*
X115792285Y-163619714D01*
X115649428Y-163691142D01*
X95420571Y-166564285D02*
X93920571Y-166564285D01*
X95349142Y-165921428D02*
X95420571Y-165707142D01*
X95420571Y-165350000D01*
X95349142Y-165207142D01*
X95277714Y-165135714D01*
X95134857Y-165064285D01*
X94992000Y-165064285D01*
X94849142Y-165135714D01*
X94777714Y-165207142D01*
X94706285Y-165350000D01*
X94634857Y-165635714D01*
X94563428Y-165778571D01*
X94492000Y-165850000D01*
X94349142Y-165921428D01*
X94206285Y-165921428D01*
X94063428Y-165850000D01*
X93992000Y-165778571D01*
X93920571Y-165635714D01*
X93920571Y-165278571D01*
X93992000Y-165064285D01*
X95420571Y-164421428D02*
X93920571Y-164421428D01*
X93920571Y-163850000D01*
X93992000Y-163707142D01*
X94063428Y-163635714D01*
X94206285Y-163564285D01*
X94420571Y-163564285D01*
X94563428Y-163635714D01*
X94634857Y-163707142D01*
X94706285Y-163850000D01*
X94706285Y-164421428D01*
X93138571Y-164762571D02*
X92281428Y-164762571D01*
X92710000Y-164762571D02*
X92710000Y-163262571D01*
X92567142Y-163476857D01*
X92424285Y-163619714D01*
X92281428Y-163691142D01*
X60368571Y-166564285D02*
X58868571Y-166564285D01*
X60297142Y-165921428D02*
X60368571Y-165707142D01*
X60368571Y-165350000D01*
X60297142Y-165207142D01*
X60225714Y-165135714D01*
X60082857Y-165064285D01*
X59940000Y-165064285D01*
X59797142Y-165135714D01*
X59725714Y-165207142D01*
X59654285Y-165350000D01*
X59582857Y-165635714D01*
X59511428Y-165778571D01*
X59440000Y-165850000D01*
X59297142Y-165921428D01*
X59154285Y-165921428D01*
X59011428Y-165850000D01*
X58940000Y-165778571D01*
X58868571Y-165635714D01*
X58868571Y-165278571D01*
X58940000Y-165064285D01*
X60368571Y-164421428D02*
X58868571Y-164421428D01*
X58868571Y-163850000D01*
X58940000Y-163707142D01*
X59011428Y-163635714D01*
X59154285Y-163564285D01*
X59368571Y-163564285D01*
X59511428Y-163635714D01*
X59582857Y-163707142D01*
X59654285Y-163850000D01*
X59654285Y-164421428D01*
X63166571Y-169842571D02*
X62309428Y-169842571D01*
X62738000Y-169842571D02*
X62738000Y-168342571D01*
X62595142Y-168556857D01*
X62452285Y-168699714D01*
X62309428Y-168771142D01*
X69770571Y-164762571D02*
X68913428Y-164762571D01*
X69342000Y-164762571D02*
X69342000Y-163262571D01*
X69199142Y-163476857D01*
X69056285Y-163619714D01*
X68913428Y-163691142D01*
X83736571Y-166564285D02*
X82236571Y-166564285D01*
X83665142Y-165921428D02*
X83736571Y-165707142D01*
X83736571Y-165350000D01*
X83665142Y-165207142D01*
X83593714Y-165135714D01*
X83450857Y-165064285D01*
X83308000Y-165064285D01*
X83165142Y-165135714D01*
X83093714Y-165207142D01*
X83022285Y-165350000D01*
X82950857Y-165635714D01*
X82879428Y-165778571D01*
X82808000Y-165850000D01*
X82665142Y-165921428D01*
X82522285Y-165921428D01*
X82379428Y-165850000D01*
X82308000Y-165778571D01*
X82236571Y-165635714D01*
X82236571Y-165278571D01*
X82308000Y-165064285D01*
X83736571Y-164421428D02*
X82236571Y-164421428D01*
X82236571Y-163850000D01*
X82308000Y-163707142D01*
X82379428Y-163635714D01*
X82522285Y-163564285D01*
X82736571Y-163564285D01*
X82879428Y-163635714D01*
X82950857Y-163707142D01*
X83022285Y-163850000D01*
X83022285Y-164421428D01*
X86534571Y-169842571D02*
X85677428Y-169842571D01*
X86106000Y-169842571D02*
X86106000Y-168342571D01*
X85963142Y-168556857D01*
X85820285Y-168699714D01*
X85677428Y-168771142D01*
X93138571Y-164762571D02*
X92281428Y-164762571D01*
X92710000Y-164762571D02*
X92710000Y-163262571D01*
X92567142Y-163476857D01*
X92424285Y-163619714D01*
X92281428Y-163691142D01*
X74850571Y-169842571D02*
X73993428Y-169842571D01*
X74422000Y-169842571D02*
X74422000Y-168342571D01*
X74279142Y-168556857D01*
X74136285Y-168699714D01*
X73993428Y-168771142D01*
X72052571Y-166564285D02*
X70552571Y-166564285D01*
X71981142Y-165921428D02*
X72052571Y-165707142D01*
X72052571Y-165350000D01*
X71981142Y-165207142D01*
X71909714Y-165135714D01*
X71766857Y-165064285D01*
X71624000Y-165064285D01*
X71481142Y-165135714D01*
X71409714Y-165207142D01*
X71338285Y-165350000D01*
X71266857Y-165635714D01*
X71195428Y-165778571D01*
X71124000Y-165850000D01*
X70981142Y-165921428D01*
X70838285Y-165921428D01*
X70695428Y-165850000D01*
X70624000Y-165778571D01*
X70552571Y-165635714D01*
X70552571Y-165278571D01*
X70624000Y-165064285D01*
X72052571Y-164421428D02*
X70552571Y-164421428D01*
X70552571Y-163850000D01*
X70624000Y-163707142D01*
X70695428Y-163635714D01*
X70838285Y-163564285D01*
X71052571Y-163564285D01*
X71195428Y-163635714D01*
X71266857Y-163707142D01*
X71338285Y-163850000D01*
X71338285Y-164421428D01*
X81454571Y-164762571D02*
X80597428Y-164762571D01*
X81026000Y-164762571D02*
X81026000Y-163262571D01*
X80883142Y-163476857D01*
X80740285Y-163619714D01*
X80597428Y-163691142D01*
X48684571Y-166564285D02*
X47184571Y-166564285D01*
X48613142Y-165921428D02*
X48684571Y-165707142D01*
X48684571Y-165350000D01*
X48613142Y-165207142D01*
X48541714Y-165135714D01*
X48398857Y-165064285D01*
X48256000Y-165064285D01*
X48113142Y-165135714D01*
X48041714Y-165207142D01*
X47970285Y-165350000D01*
X47898857Y-165635714D01*
X47827428Y-165778571D01*
X47756000Y-165850000D01*
X47613142Y-165921428D01*
X47470285Y-165921428D01*
X47327428Y-165850000D01*
X47256000Y-165778571D01*
X47184571Y-165635714D01*
X47184571Y-165278571D01*
X47256000Y-165064285D01*
X48684571Y-164421428D02*
X47184571Y-164421428D01*
X47184571Y-163850000D01*
X47256000Y-163707142D01*
X47327428Y-163635714D01*
X47470285Y-163564285D01*
X47684571Y-163564285D01*
X47827428Y-163635714D01*
X47898857Y-163707142D01*
X47970285Y-163850000D01*
X47970285Y-164421428D01*
X51482571Y-169842571D02*
X50625428Y-169842571D01*
X51054000Y-169842571D02*
X51054000Y-168342571D01*
X50911142Y-168556857D01*
X50768285Y-168699714D01*
X50625428Y-168771142D01*
X58086571Y-164762571D02*
X57229428Y-164762571D01*
X57658000Y-164762571D02*
X57658000Y-163262571D01*
X57515142Y-163476857D01*
X57372285Y-163619714D01*
X57229428Y-163691142D01*
X37000571Y-166564285D02*
X35500571Y-166564285D01*
X36929142Y-165921428D02*
X37000571Y-165707142D01*
X37000571Y-165350000D01*
X36929142Y-165207142D01*
X36857714Y-165135714D01*
X36714857Y-165064285D01*
X36572000Y-165064285D01*
X36429142Y-165135714D01*
X36357714Y-165207142D01*
X36286285Y-165350000D01*
X36214857Y-165635714D01*
X36143428Y-165778571D01*
X36072000Y-165850000D01*
X35929142Y-165921428D01*
X35786285Y-165921428D01*
X35643428Y-165850000D01*
X35572000Y-165778571D01*
X35500571Y-165635714D01*
X35500571Y-165278571D01*
X35572000Y-165064285D01*
X37000571Y-164421428D02*
X35500571Y-164421428D01*
X35500571Y-163850000D01*
X35572000Y-163707142D01*
X35643428Y-163635714D01*
X35786285Y-163564285D01*
X36000571Y-163564285D01*
X36143428Y-163635714D01*
X36214857Y-163707142D01*
X36286285Y-163850000D01*
X36286285Y-164421428D01*
X39798571Y-169842571D02*
X38941428Y-169842571D01*
X39370000Y-169842571D02*
X39370000Y-168342571D01*
X39227142Y-168556857D01*
X39084285Y-168699714D01*
X38941428Y-168771142D01*
X46402571Y-164762571D02*
X45545428Y-164762571D01*
X45974000Y-164762571D02*
X45974000Y-163262571D01*
X45831142Y-163476857D01*
X45688285Y-163619714D01*
X45545428Y-163691142D01*
X25316571Y-166564285D02*
X23816571Y-166564285D01*
X25245142Y-165921428D02*
X25316571Y-165707142D01*
X25316571Y-165350000D01*
X25245142Y-165207142D01*
X25173714Y-165135714D01*
X25030857Y-165064285D01*
X24888000Y-165064285D01*
X24745142Y-165135714D01*
X24673714Y-165207142D01*
X24602285Y-165350000D01*
X24530857Y-165635714D01*
X24459428Y-165778571D01*
X24388000Y-165850000D01*
X24245142Y-165921428D01*
X24102285Y-165921428D01*
X23959428Y-165850000D01*
X23888000Y-165778571D01*
X23816571Y-165635714D01*
X23816571Y-165278571D01*
X23888000Y-165064285D01*
X25316571Y-164421428D02*
X23816571Y-164421428D01*
X23816571Y-163850000D01*
X23888000Y-163707142D01*
X23959428Y-163635714D01*
X24102285Y-163564285D01*
X24316571Y-163564285D01*
X24459428Y-163635714D01*
X24530857Y-163707142D01*
X24602285Y-163850000D01*
X24602285Y-164421428D01*
X34718571Y-164762571D02*
X33861428Y-164762571D01*
X34290000Y-164762571D02*
X34290000Y-163262571D01*
X34147142Y-163476857D01*
X34004285Y-163619714D01*
X33861428Y-163691142D01*
X28114571Y-169842571D02*
X27257428Y-169842571D01*
X27686000Y-169842571D02*
X27686000Y-168342571D01*
X27543142Y-168556857D01*
X27400285Y-168699714D01*
X27257428Y-168771142D01*
D11*
X84014000Y-77410000D02*
X84014000Y-82610000D01*
X89154000Y-77410000D02*
X84014000Y-77410000D01*
X91754000Y-82610000D02*
X84014000Y-82610000D01*
X89154000Y-77410000D02*
X89154000Y-80010000D01*
X89154000Y-80010000D02*
X91754000Y-80010000D01*
X91754000Y-80010000D02*
X91754000Y-82610000D01*
X90424000Y-77410000D02*
X91754000Y-77410000D01*
X91754000Y-77410000D02*
X91754000Y-78740000D01*
X75300000Y-87970000D02*
X77100000Y-87970000D01*
X77100000Y-84750000D02*
X74650000Y-84750000D01*
X59376000Y-90230000D02*
X62036000Y-90230000D01*
X59376000Y-85090000D02*
X59376000Y-90230000D01*
X62036000Y-85090000D02*
X62036000Y-90230000D01*
X59376000Y-85090000D02*
X62036000Y-85090000D01*
X59376000Y-83820000D02*
X59376000Y-82490000D01*
X59376000Y-82490000D02*
X60706000Y-82490000D01*
X68386000Y-77410000D02*
X68386000Y-78740000D01*
X67056000Y-77410000D02*
X68386000Y-77410000D01*
X68386000Y-80010000D02*
X68386000Y-82610000D01*
X65786000Y-80010000D02*
X68386000Y-80010000D01*
X65786000Y-77410000D02*
X65786000Y-80010000D01*
X68386000Y-82610000D02*
X60646000Y-82610000D01*
X65786000Y-77410000D02*
X60646000Y-77410000D01*
X60646000Y-77410000D02*
X60646000Y-82610000D01*
X95698000Y-77410000D02*
X95698000Y-82610000D01*
X100838000Y-77410000D02*
X95698000Y-77410000D01*
X103438000Y-82610000D02*
X95698000Y-82610000D01*
X100838000Y-77410000D02*
X100838000Y-80010000D01*
X100838000Y-80010000D02*
X103438000Y-80010000D01*
X103438000Y-80010000D02*
X103438000Y-82610000D01*
X102108000Y-77410000D02*
X103438000Y-77410000D01*
X103438000Y-77410000D02*
X103438000Y-78740000D01*
X94428000Y-82490000D02*
X95758000Y-82490000D01*
X94428000Y-83820000D02*
X94428000Y-82490000D01*
X94428000Y-85090000D02*
X97088000Y-85090000D01*
X97088000Y-85090000D02*
X97088000Y-90230000D01*
X94428000Y-85090000D02*
X94428000Y-90230000D01*
X94428000Y-90230000D02*
X97088000Y-90230000D01*
X110352000Y-87970000D02*
X112152000Y-87970000D01*
X112152000Y-84750000D02*
X109702000Y-84750000D01*
X82744000Y-82490000D02*
X84074000Y-82490000D01*
X82744000Y-83820000D02*
X82744000Y-82490000D01*
X82744000Y-85090000D02*
X85404000Y-85090000D01*
X85404000Y-85090000D02*
X85404000Y-90230000D01*
X82744000Y-85090000D02*
X82744000Y-90230000D01*
X82744000Y-90230000D02*
X85404000Y-90230000D01*
X72330000Y-77410000D02*
X72330000Y-82610000D01*
X77470000Y-77410000D02*
X72330000Y-77410000D01*
X80070000Y-82610000D02*
X72330000Y-82610000D01*
X77470000Y-77410000D02*
X77470000Y-80010000D01*
X77470000Y-80010000D02*
X80070000Y-80010000D01*
X80070000Y-80010000D02*
X80070000Y-82610000D01*
X78740000Y-77410000D02*
X80070000Y-77410000D01*
X80070000Y-77410000D02*
X80070000Y-78740000D01*
X71060000Y-82490000D02*
X72390000Y-82490000D01*
X71060000Y-83820000D02*
X71060000Y-82490000D01*
X71060000Y-85090000D02*
X73720000Y-85090000D01*
X73720000Y-85090000D02*
X73720000Y-90230000D01*
X71060000Y-85090000D02*
X71060000Y-90230000D01*
X71060000Y-90230000D02*
X73720000Y-90230000D01*
X65416000Y-84750000D02*
X62966000Y-84750000D01*
X63616000Y-87970000D02*
X65416000Y-87970000D01*
X113732000Y-90230000D02*
X116392000Y-90230000D01*
X113732000Y-85090000D02*
X113732000Y-90230000D01*
X116392000Y-85090000D02*
X116392000Y-90230000D01*
X113732000Y-85090000D02*
X116392000Y-85090000D01*
X113732000Y-83820000D02*
X113732000Y-82490000D01*
X113732000Y-82490000D02*
X115062000Y-82490000D01*
X66996000Y-82490000D02*
X68326000Y-82490000D01*
X66996000Y-83820000D02*
X66996000Y-82490000D01*
X66996000Y-85090000D02*
X69656000Y-85090000D01*
X69656000Y-85090000D02*
X69656000Y-90230000D01*
X66996000Y-85090000D02*
X66996000Y-90230000D01*
X66996000Y-90230000D02*
X69656000Y-90230000D01*
X78680000Y-90230000D02*
X81340000Y-90230000D01*
X78680000Y-85090000D02*
X78680000Y-90230000D01*
X81340000Y-85090000D02*
X81340000Y-90230000D01*
X78680000Y-85090000D02*
X81340000Y-85090000D01*
X78680000Y-83820000D02*
X78680000Y-82490000D01*
X78680000Y-82490000D02*
X80010000Y-82490000D01*
X86984000Y-87970000D02*
X88784000Y-87970000D01*
X88784000Y-84750000D02*
X86334000Y-84750000D01*
X102048000Y-90230000D02*
X104708000Y-90230000D01*
X102048000Y-85090000D02*
X102048000Y-90230000D01*
X104708000Y-85090000D02*
X104708000Y-90230000D01*
X102048000Y-85090000D02*
X104708000Y-85090000D01*
X102048000Y-83820000D02*
X102048000Y-82490000D01*
X102048000Y-82490000D02*
X103378000Y-82490000D01*
X90364000Y-90230000D02*
X93024000Y-90230000D01*
X90364000Y-85090000D02*
X90364000Y-90230000D01*
X93024000Y-85090000D02*
X93024000Y-90230000D01*
X90364000Y-85090000D02*
X93024000Y-85090000D01*
X90364000Y-83820000D02*
X90364000Y-82490000D01*
X90364000Y-82490000D02*
X91694000Y-82490000D01*
X56702000Y-77410000D02*
X56702000Y-78740000D01*
X55372000Y-77410000D02*
X56702000Y-77410000D01*
X56702000Y-80010000D02*
X56702000Y-82610000D01*
X54102000Y-80010000D02*
X56702000Y-80010000D01*
X54102000Y-77410000D02*
X54102000Y-80010000D01*
X56702000Y-82610000D02*
X48962000Y-82610000D01*
X54102000Y-77410000D02*
X48962000Y-77410000D01*
X48962000Y-77410000D02*
X48962000Y-82610000D01*
X47692000Y-90230000D02*
X50352000Y-90230000D01*
X47692000Y-85090000D02*
X47692000Y-90230000D01*
X50352000Y-85090000D02*
X50352000Y-90230000D01*
X47692000Y-85090000D02*
X50352000Y-85090000D01*
X47692000Y-83820000D02*
X47692000Y-82490000D01*
X47692000Y-82490000D02*
X49022000Y-82490000D01*
X107382000Y-77410000D02*
X107382000Y-82610000D01*
X112522000Y-77410000D02*
X107382000Y-77410000D01*
X115122000Y-82610000D02*
X107382000Y-82610000D01*
X112522000Y-77410000D02*
X112522000Y-80010000D01*
X112522000Y-80010000D02*
X115122000Y-80010000D01*
X115122000Y-80010000D02*
X115122000Y-82610000D01*
X113792000Y-77410000D02*
X115122000Y-77410000D01*
X115122000Y-77410000D02*
X115122000Y-78740000D01*
X106112000Y-82490000D02*
X107442000Y-82490000D01*
X106112000Y-83820000D02*
X106112000Y-82490000D01*
X106112000Y-85090000D02*
X108772000Y-85090000D01*
X108772000Y-85090000D02*
X108772000Y-90230000D01*
X106112000Y-85090000D02*
X106112000Y-90230000D01*
X106112000Y-90230000D02*
X108772000Y-90230000D01*
X55312000Y-82490000D02*
X56642000Y-82490000D01*
X55312000Y-83820000D02*
X55312000Y-82490000D01*
X55312000Y-85090000D02*
X57972000Y-85090000D01*
X57972000Y-85090000D02*
X57972000Y-90230000D01*
X55312000Y-85090000D02*
X55312000Y-90230000D01*
X55312000Y-90230000D02*
X57972000Y-90230000D01*
X98668000Y-87970000D02*
X100468000Y-87970000D01*
X100468000Y-84750000D02*
X98018000Y-84750000D01*
X31944000Y-90230000D02*
X34604000Y-90230000D01*
X31944000Y-85090000D02*
X31944000Y-90230000D01*
X34604000Y-85090000D02*
X34604000Y-90230000D01*
X31944000Y-85090000D02*
X34604000Y-85090000D01*
X31944000Y-83820000D02*
X31944000Y-82490000D01*
X31944000Y-82490000D02*
X33274000Y-82490000D01*
X25594000Y-77410000D02*
X25594000Y-82610000D01*
X30734000Y-77410000D02*
X25594000Y-77410000D01*
X33334000Y-82610000D02*
X25594000Y-82610000D01*
X30734000Y-77410000D02*
X30734000Y-80010000D01*
X30734000Y-80010000D02*
X33334000Y-80010000D01*
X33334000Y-80010000D02*
X33334000Y-82610000D01*
X32004000Y-77410000D02*
X33334000Y-77410000D01*
X33334000Y-77410000D02*
X33334000Y-78740000D01*
X43628000Y-82490000D02*
X44958000Y-82490000D01*
X43628000Y-83820000D02*
X43628000Y-82490000D01*
X43628000Y-85090000D02*
X46288000Y-85090000D01*
X46288000Y-85090000D02*
X46288000Y-90230000D01*
X43628000Y-85090000D02*
X43628000Y-90230000D01*
X43628000Y-90230000D02*
X46288000Y-90230000D01*
X45018000Y-77410000D02*
X45018000Y-78740000D01*
X43688000Y-77410000D02*
X45018000Y-77410000D01*
X45018000Y-80010000D02*
X45018000Y-82610000D01*
X42418000Y-80010000D02*
X45018000Y-80010000D01*
X42418000Y-77410000D02*
X42418000Y-80010000D01*
X45018000Y-82610000D02*
X37278000Y-82610000D01*
X42418000Y-77410000D02*
X37278000Y-77410000D01*
X37278000Y-77410000D02*
X37278000Y-82610000D01*
X24324000Y-82490000D02*
X25654000Y-82490000D01*
X24324000Y-83820000D02*
X24324000Y-82490000D01*
X24324000Y-85090000D02*
X26984000Y-85090000D01*
X26984000Y-85090000D02*
X26984000Y-90230000D01*
X24324000Y-85090000D02*
X24324000Y-90230000D01*
X24324000Y-90230000D02*
X26984000Y-90230000D01*
X36008000Y-90230000D02*
X38668000Y-90230000D01*
X36008000Y-85090000D02*
X36008000Y-90230000D01*
X38668000Y-85090000D02*
X38668000Y-90230000D01*
X36008000Y-85090000D02*
X38668000Y-85090000D01*
X36008000Y-83820000D02*
X36008000Y-82490000D01*
X36008000Y-82490000D02*
X37338000Y-82490000D01*
X42048000Y-84750000D02*
X39598000Y-84750000D01*
X40248000Y-87970000D02*
X42048000Y-87970000D01*
X28564000Y-87970000D02*
X30364000Y-87970000D01*
X30364000Y-84750000D02*
X27914000Y-84750000D01*
X53732000Y-84750000D02*
X51282000Y-84750000D01*
X51932000Y-87970000D02*
X53732000Y-87970000D01*
X102048000Y-96714000D02*
X103378000Y-96714000D01*
X102048000Y-98044000D02*
X102048000Y-96714000D01*
X102048000Y-99314000D02*
X104708000Y-99314000D01*
X104708000Y-99314000D02*
X104708000Y-104454000D01*
X102048000Y-99314000D02*
X102048000Y-104454000D01*
X102048000Y-104454000D02*
X104708000Y-104454000D01*
X90364000Y-96714000D02*
X91694000Y-96714000D01*
X90364000Y-98044000D02*
X90364000Y-96714000D01*
X90364000Y-99314000D02*
X93024000Y-99314000D01*
X93024000Y-99314000D02*
X93024000Y-104454000D01*
X90364000Y-99314000D02*
X90364000Y-104454000D01*
X90364000Y-104454000D02*
X93024000Y-104454000D01*
X115122000Y-91634000D02*
X115122000Y-92964000D01*
X113792000Y-91634000D02*
X115122000Y-91634000D01*
X115122000Y-94234000D02*
X115122000Y-96834000D01*
X112522000Y-94234000D02*
X115122000Y-94234000D01*
X112522000Y-91634000D02*
X112522000Y-94234000D01*
X115122000Y-96834000D02*
X107382000Y-96834000D01*
X112522000Y-91634000D02*
X107382000Y-91634000D01*
X107382000Y-91634000D02*
X107382000Y-96834000D01*
X33334000Y-91634000D02*
X33334000Y-92964000D01*
X32004000Y-91634000D02*
X33334000Y-91634000D01*
X33334000Y-94234000D02*
X33334000Y-96834000D01*
X30734000Y-94234000D02*
X33334000Y-94234000D01*
X30734000Y-91634000D02*
X30734000Y-94234000D01*
X33334000Y-96834000D02*
X25594000Y-96834000D01*
X30734000Y-91634000D02*
X25594000Y-91634000D01*
X25594000Y-91634000D02*
X25594000Y-96834000D01*
X43628000Y-104454000D02*
X46288000Y-104454000D01*
X43628000Y-99314000D02*
X43628000Y-104454000D01*
X46288000Y-99314000D02*
X46288000Y-104454000D01*
X43628000Y-99314000D02*
X46288000Y-99314000D01*
X43628000Y-98044000D02*
X43628000Y-96714000D01*
X43628000Y-96714000D02*
X44958000Y-96714000D01*
X24324000Y-104454000D02*
X26984000Y-104454000D01*
X24324000Y-99314000D02*
X24324000Y-104454000D01*
X26984000Y-99314000D02*
X26984000Y-104454000D01*
X24324000Y-99314000D02*
X26984000Y-99314000D01*
X24324000Y-98044000D02*
X24324000Y-96714000D01*
X24324000Y-96714000D02*
X25654000Y-96714000D01*
X63616000Y-102194000D02*
X65416000Y-102194000D01*
X65416000Y-98974000D02*
X62966000Y-98974000D01*
X30364000Y-98974000D02*
X27914000Y-98974000D01*
X28564000Y-102194000D02*
X30364000Y-102194000D01*
X113732000Y-96714000D02*
X115062000Y-96714000D01*
X113732000Y-98044000D02*
X113732000Y-96714000D01*
X113732000Y-99314000D02*
X116392000Y-99314000D01*
X116392000Y-99314000D02*
X116392000Y-104454000D01*
X113732000Y-99314000D02*
X113732000Y-104454000D01*
X113732000Y-104454000D02*
X116392000Y-104454000D01*
X106112000Y-104454000D02*
X108772000Y-104454000D01*
X106112000Y-99314000D02*
X106112000Y-104454000D01*
X108772000Y-99314000D02*
X108772000Y-104454000D01*
X106112000Y-99314000D02*
X108772000Y-99314000D01*
X106112000Y-98044000D02*
X106112000Y-96714000D01*
X106112000Y-96714000D02*
X107442000Y-96714000D01*
X66996000Y-104454000D02*
X69656000Y-104454000D01*
X66996000Y-99314000D02*
X66996000Y-104454000D01*
X69656000Y-99314000D02*
X69656000Y-104454000D01*
X66996000Y-99314000D02*
X69656000Y-99314000D01*
X66996000Y-98044000D02*
X66996000Y-96714000D01*
X66996000Y-96714000D02*
X68326000Y-96714000D01*
X88784000Y-98974000D02*
X86334000Y-98974000D01*
X86984000Y-102194000D02*
X88784000Y-102194000D01*
X47692000Y-96714000D02*
X49022000Y-96714000D01*
X47692000Y-98044000D02*
X47692000Y-96714000D01*
X47692000Y-99314000D02*
X50352000Y-99314000D01*
X50352000Y-99314000D02*
X50352000Y-104454000D01*
X47692000Y-99314000D02*
X47692000Y-104454000D01*
X47692000Y-104454000D02*
X50352000Y-104454000D01*
X100468000Y-98974000D02*
X98018000Y-98974000D01*
X98668000Y-102194000D02*
X100468000Y-102194000D01*
X55312000Y-104454000D02*
X57972000Y-104454000D01*
X55312000Y-99314000D02*
X55312000Y-104454000D01*
X57972000Y-99314000D02*
X57972000Y-104454000D01*
X55312000Y-99314000D02*
X57972000Y-99314000D01*
X55312000Y-98044000D02*
X55312000Y-96714000D01*
X55312000Y-96714000D02*
X56642000Y-96714000D01*
X78680000Y-96714000D02*
X80010000Y-96714000D01*
X78680000Y-98044000D02*
X78680000Y-96714000D01*
X78680000Y-99314000D02*
X81340000Y-99314000D01*
X81340000Y-99314000D02*
X81340000Y-104454000D01*
X78680000Y-99314000D02*
X78680000Y-104454000D01*
X78680000Y-104454000D02*
X81340000Y-104454000D01*
X48962000Y-91634000D02*
X48962000Y-96834000D01*
X54102000Y-91634000D02*
X48962000Y-91634000D01*
X56702000Y-96834000D02*
X48962000Y-96834000D01*
X54102000Y-91634000D02*
X54102000Y-94234000D01*
X54102000Y-94234000D02*
X56702000Y-94234000D01*
X56702000Y-94234000D02*
X56702000Y-96834000D01*
X55372000Y-91634000D02*
X56702000Y-91634000D01*
X56702000Y-91634000D02*
X56702000Y-92964000D01*
X51932000Y-102194000D02*
X53732000Y-102194000D01*
X53732000Y-98974000D02*
X51282000Y-98974000D01*
X31944000Y-96714000D02*
X33274000Y-96714000D01*
X31944000Y-98044000D02*
X31944000Y-96714000D01*
X31944000Y-99314000D02*
X34604000Y-99314000D01*
X34604000Y-99314000D02*
X34604000Y-104454000D01*
X31944000Y-99314000D02*
X31944000Y-104454000D01*
X31944000Y-104454000D02*
X34604000Y-104454000D01*
X37278000Y-91634000D02*
X37278000Y-96834000D01*
X42418000Y-91634000D02*
X37278000Y-91634000D01*
X45018000Y-96834000D02*
X37278000Y-96834000D01*
X42418000Y-91634000D02*
X42418000Y-94234000D01*
X42418000Y-94234000D02*
X45018000Y-94234000D01*
X45018000Y-94234000D02*
X45018000Y-96834000D01*
X43688000Y-91634000D02*
X45018000Y-91634000D01*
X45018000Y-91634000D02*
X45018000Y-92964000D01*
X40248000Y-102194000D02*
X42048000Y-102194000D01*
X42048000Y-98974000D02*
X39598000Y-98974000D01*
X36008000Y-96714000D02*
X37338000Y-96714000D01*
X36008000Y-98044000D02*
X36008000Y-96714000D01*
X36008000Y-99314000D02*
X38668000Y-99314000D01*
X38668000Y-99314000D02*
X38668000Y-104454000D01*
X36008000Y-99314000D02*
X36008000Y-104454000D01*
X36008000Y-104454000D02*
X38668000Y-104454000D01*
X84014000Y-105858000D02*
X84014000Y-111058000D01*
X89154000Y-105858000D02*
X84014000Y-105858000D01*
X91754000Y-111058000D02*
X84014000Y-111058000D01*
X89154000Y-105858000D02*
X89154000Y-108458000D01*
X89154000Y-108458000D02*
X91754000Y-108458000D01*
X91754000Y-108458000D02*
X91754000Y-111058000D01*
X90424000Y-105858000D02*
X91754000Y-105858000D01*
X91754000Y-105858000D02*
X91754000Y-107188000D01*
X75300000Y-116418000D02*
X77100000Y-116418000D01*
X77100000Y-113198000D02*
X74650000Y-113198000D01*
X59376000Y-118678000D02*
X62036000Y-118678000D01*
X59376000Y-113538000D02*
X59376000Y-118678000D01*
X62036000Y-113538000D02*
X62036000Y-118678000D01*
X59376000Y-113538000D02*
X62036000Y-113538000D01*
X59376000Y-112268000D02*
X59376000Y-110938000D01*
X59376000Y-110938000D02*
X60706000Y-110938000D01*
X68386000Y-105858000D02*
X68386000Y-107188000D01*
X67056000Y-105858000D02*
X68386000Y-105858000D01*
X68386000Y-108458000D02*
X68386000Y-111058000D01*
X65786000Y-108458000D02*
X68386000Y-108458000D01*
X65786000Y-105858000D02*
X65786000Y-108458000D01*
X68386000Y-111058000D02*
X60646000Y-111058000D01*
X65786000Y-105858000D02*
X60646000Y-105858000D01*
X60646000Y-105858000D02*
X60646000Y-111058000D01*
X95698000Y-105858000D02*
X95698000Y-111058000D01*
X100838000Y-105858000D02*
X95698000Y-105858000D01*
X103438000Y-111058000D02*
X95698000Y-111058000D01*
X100838000Y-105858000D02*
X100838000Y-108458000D01*
X100838000Y-108458000D02*
X103438000Y-108458000D01*
X103438000Y-108458000D02*
X103438000Y-111058000D01*
X102108000Y-105858000D02*
X103438000Y-105858000D01*
X103438000Y-105858000D02*
X103438000Y-107188000D01*
X94428000Y-110938000D02*
X95758000Y-110938000D01*
X94428000Y-112268000D02*
X94428000Y-110938000D01*
X94428000Y-113538000D02*
X97088000Y-113538000D01*
X97088000Y-113538000D02*
X97088000Y-118678000D01*
X94428000Y-113538000D02*
X94428000Y-118678000D01*
X94428000Y-118678000D02*
X97088000Y-118678000D01*
X110352000Y-116418000D02*
X112152000Y-116418000D01*
X112152000Y-113198000D02*
X109702000Y-113198000D01*
X82744000Y-110938000D02*
X84074000Y-110938000D01*
X82744000Y-112268000D02*
X82744000Y-110938000D01*
X82744000Y-113538000D02*
X85404000Y-113538000D01*
X85404000Y-113538000D02*
X85404000Y-118678000D01*
X82744000Y-113538000D02*
X82744000Y-118678000D01*
X82744000Y-118678000D02*
X85404000Y-118678000D01*
X72330000Y-105858000D02*
X72330000Y-111058000D01*
X77470000Y-105858000D02*
X72330000Y-105858000D01*
X80070000Y-111058000D02*
X72330000Y-111058000D01*
X77470000Y-105858000D02*
X77470000Y-108458000D01*
X77470000Y-108458000D02*
X80070000Y-108458000D01*
X80070000Y-108458000D02*
X80070000Y-111058000D01*
X78740000Y-105858000D02*
X80070000Y-105858000D01*
X80070000Y-105858000D02*
X80070000Y-107188000D01*
X71060000Y-110938000D02*
X72390000Y-110938000D01*
X71060000Y-112268000D02*
X71060000Y-110938000D01*
X71060000Y-113538000D02*
X73720000Y-113538000D01*
X73720000Y-113538000D02*
X73720000Y-118678000D01*
X71060000Y-113538000D02*
X71060000Y-118678000D01*
X71060000Y-118678000D02*
X73720000Y-118678000D01*
X65416000Y-113198000D02*
X62966000Y-113198000D01*
X63616000Y-116418000D02*
X65416000Y-116418000D01*
X113732000Y-118678000D02*
X116392000Y-118678000D01*
X113732000Y-113538000D02*
X113732000Y-118678000D01*
X116392000Y-113538000D02*
X116392000Y-118678000D01*
X113732000Y-113538000D02*
X116392000Y-113538000D01*
X113732000Y-112268000D02*
X113732000Y-110938000D01*
X113732000Y-110938000D02*
X115062000Y-110938000D01*
X66996000Y-110938000D02*
X68326000Y-110938000D01*
X66996000Y-112268000D02*
X66996000Y-110938000D01*
X66996000Y-113538000D02*
X69656000Y-113538000D01*
X69656000Y-113538000D02*
X69656000Y-118678000D01*
X66996000Y-113538000D02*
X66996000Y-118678000D01*
X66996000Y-118678000D02*
X69656000Y-118678000D01*
X78680000Y-118678000D02*
X81340000Y-118678000D01*
X78680000Y-113538000D02*
X78680000Y-118678000D01*
X81340000Y-113538000D02*
X81340000Y-118678000D01*
X78680000Y-113538000D02*
X81340000Y-113538000D01*
X78680000Y-112268000D02*
X78680000Y-110938000D01*
X78680000Y-110938000D02*
X80010000Y-110938000D01*
X86984000Y-116418000D02*
X88784000Y-116418000D01*
X88784000Y-113198000D02*
X86334000Y-113198000D01*
X102048000Y-118678000D02*
X104708000Y-118678000D01*
X102048000Y-113538000D02*
X102048000Y-118678000D01*
X104708000Y-113538000D02*
X104708000Y-118678000D01*
X102048000Y-113538000D02*
X104708000Y-113538000D01*
X102048000Y-112268000D02*
X102048000Y-110938000D01*
X102048000Y-110938000D02*
X103378000Y-110938000D01*
X90364000Y-118678000D02*
X93024000Y-118678000D01*
X90364000Y-113538000D02*
X90364000Y-118678000D01*
X93024000Y-113538000D02*
X93024000Y-118678000D01*
X90364000Y-113538000D02*
X93024000Y-113538000D01*
X90364000Y-112268000D02*
X90364000Y-110938000D01*
X90364000Y-110938000D02*
X91694000Y-110938000D01*
X82744000Y-104454000D02*
X85404000Y-104454000D01*
X82744000Y-99314000D02*
X82744000Y-104454000D01*
X85404000Y-99314000D02*
X85404000Y-104454000D01*
X82744000Y-99314000D02*
X85404000Y-99314000D01*
X82744000Y-98044000D02*
X82744000Y-96714000D01*
X82744000Y-96714000D02*
X84074000Y-96714000D01*
X91754000Y-91634000D02*
X91754000Y-92964000D01*
X90424000Y-91634000D02*
X91754000Y-91634000D01*
X91754000Y-94234000D02*
X91754000Y-96834000D01*
X89154000Y-94234000D02*
X91754000Y-94234000D01*
X89154000Y-91634000D02*
X89154000Y-94234000D01*
X91754000Y-96834000D02*
X84014000Y-96834000D01*
X89154000Y-91634000D02*
X84014000Y-91634000D01*
X84014000Y-91634000D02*
X84014000Y-96834000D01*
X60646000Y-91634000D02*
X60646000Y-96834000D01*
X65786000Y-91634000D02*
X60646000Y-91634000D01*
X68386000Y-96834000D02*
X60646000Y-96834000D01*
X65786000Y-91634000D02*
X65786000Y-94234000D01*
X65786000Y-94234000D02*
X68386000Y-94234000D01*
X68386000Y-94234000D02*
X68386000Y-96834000D01*
X67056000Y-91634000D02*
X68386000Y-91634000D01*
X68386000Y-91634000D02*
X68386000Y-92964000D01*
X112152000Y-98974000D02*
X109702000Y-98974000D01*
X110352000Y-102194000D02*
X112152000Y-102194000D01*
X94428000Y-104454000D02*
X97088000Y-104454000D01*
X94428000Y-99314000D02*
X94428000Y-104454000D01*
X97088000Y-99314000D02*
X97088000Y-104454000D01*
X94428000Y-99314000D02*
X97088000Y-99314000D01*
X94428000Y-98044000D02*
X94428000Y-96714000D01*
X94428000Y-96714000D02*
X95758000Y-96714000D01*
X71060000Y-104454000D02*
X73720000Y-104454000D01*
X71060000Y-99314000D02*
X71060000Y-104454000D01*
X73720000Y-99314000D02*
X73720000Y-104454000D01*
X71060000Y-99314000D02*
X73720000Y-99314000D01*
X71060000Y-98044000D02*
X71060000Y-96714000D01*
X71060000Y-96714000D02*
X72390000Y-96714000D01*
X77100000Y-98974000D02*
X74650000Y-98974000D01*
X75300000Y-102194000D02*
X77100000Y-102194000D01*
X59376000Y-96714000D02*
X60706000Y-96714000D01*
X59376000Y-98044000D02*
X59376000Y-96714000D01*
X59376000Y-99314000D02*
X62036000Y-99314000D01*
X62036000Y-99314000D02*
X62036000Y-104454000D01*
X59376000Y-99314000D02*
X59376000Y-104454000D01*
X59376000Y-104454000D02*
X62036000Y-104454000D01*
X80070000Y-91634000D02*
X80070000Y-92964000D01*
X78740000Y-91634000D02*
X80070000Y-91634000D01*
X80070000Y-94234000D02*
X80070000Y-96834000D01*
X77470000Y-94234000D02*
X80070000Y-94234000D01*
X77470000Y-91634000D02*
X77470000Y-94234000D01*
X80070000Y-96834000D02*
X72330000Y-96834000D01*
X77470000Y-91634000D02*
X72330000Y-91634000D01*
X72330000Y-91634000D02*
X72330000Y-96834000D01*
X103438000Y-91634000D02*
X103438000Y-92964000D01*
X102108000Y-91634000D02*
X103438000Y-91634000D01*
X103438000Y-94234000D02*
X103438000Y-96834000D01*
X100838000Y-94234000D02*
X103438000Y-94234000D01*
X100838000Y-91634000D02*
X100838000Y-94234000D01*
X103438000Y-96834000D02*
X95698000Y-96834000D01*
X100838000Y-91634000D02*
X95698000Y-91634000D01*
X95698000Y-91634000D02*
X95698000Y-96834000D01*
X56702000Y-105858000D02*
X56702000Y-107188000D01*
X55372000Y-105858000D02*
X56702000Y-105858000D01*
X56702000Y-108458000D02*
X56702000Y-111058000D01*
X54102000Y-108458000D02*
X56702000Y-108458000D01*
X54102000Y-105858000D02*
X54102000Y-108458000D01*
X56702000Y-111058000D02*
X48962000Y-111058000D01*
X54102000Y-105858000D02*
X48962000Y-105858000D01*
X48962000Y-105858000D02*
X48962000Y-111058000D01*
X47692000Y-118678000D02*
X50352000Y-118678000D01*
X47692000Y-113538000D02*
X47692000Y-118678000D01*
X50352000Y-113538000D02*
X50352000Y-118678000D01*
X47692000Y-113538000D02*
X50352000Y-113538000D01*
X47692000Y-112268000D02*
X47692000Y-110938000D01*
X47692000Y-110938000D02*
X49022000Y-110938000D01*
X107382000Y-105858000D02*
X107382000Y-111058000D01*
X112522000Y-105858000D02*
X107382000Y-105858000D01*
X115122000Y-111058000D02*
X107382000Y-111058000D01*
X112522000Y-105858000D02*
X112522000Y-108458000D01*
X112522000Y-108458000D02*
X115122000Y-108458000D01*
X115122000Y-108458000D02*
X115122000Y-111058000D01*
X113792000Y-105858000D02*
X115122000Y-105858000D01*
X115122000Y-105858000D02*
X115122000Y-107188000D01*
X106112000Y-110938000D02*
X107442000Y-110938000D01*
X106112000Y-112268000D02*
X106112000Y-110938000D01*
X106112000Y-113538000D02*
X108772000Y-113538000D01*
X108772000Y-113538000D02*
X108772000Y-118678000D01*
X106112000Y-113538000D02*
X106112000Y-118678000D01*
X106112000Y-118678000D02*
X108772000Y-118678000D01*
X55312000Y-110938000D02*
X56642000Y-110938000D01*
X55312000Y-112268000D02*
X55312000Y-110938000D01*
X55312000Y-113538000D02*
X57972000Y-113538000D01*
X57972000Y-113538000D02*
X57972000Y-118678000D01*
X55312000Y-113538000D02*
X55312000Y-118678000D01*
X55312000Y-118678000D02*
X57972000Y-118678000D01*
X98668000Y-116418000D02*
X100468000Y-116418000D01*
X100468000Y-113198000D02*
X98018000Y-113198000D01*
X31944000Y-118678000D02*
X34604000Y-118678000D01*
X31944000Y-113538000D02*
X31944000Y-118678000D01*
X34604000Y-113538000D02*
X34604000Y-118678000D01*
X31944000Y-113538000D02*
X34604000Y-113538000D01*
X31944000Y-112268000D02*
X31944000Y-110938000D01*
X31944000Y-110938000D02*
X33274000Y-110938000D01*
X25594000Y-105858000D02*
X25594000Y-111058000D01*
X30734000Y-105858000D02*
X25594000Y-105858000D01*
X33334000Y-111058000D02*
X25594000Y-111058000D01*
X30734000Y-105858000D02*
X30734000Y-108458000D01*
X30734000Y-108458000D02*
X33334000Y-108458000D01*
X33334000Y-108458000D02*
X33334000Y-111058000D01*
X32004000Y-105858000D02*
X33334000Y-105858000D01*
X33334000Y-105858000D02*
X33334000Y-107188000D01*
X43628000Y-110938000D02*
X44958000Y-110938000D01*
X43628000Y-112268000D02*
X43628000Y-110938000D01*
X43628000Y-113538000D02*
X46288000Y-113538000D01*
X46288000Y-113538000D02*
X46288000Y-118678000D01*
X43628000Y-113538000D02*
X43628000Y-118678000D01*
X43628000Y-118678000D02*
X46288000Y-118678000D01*
X45018000Y-105858000D02*
X45018000Y-107188000D01*
X43688000Y-105858000D02*
X45018000Y-105858000D01*
X45018000Y-108458000D02*
X45018000Y-111058000D01*
X42418000Y-108458000D02*
X45018000Y-108458000D01*
X42418000Y-105858000D02*
X42418000Y-108458000D01*
X45018000Y-111058000D02*
X37278000Y-111058000D01*
X42418000Y-105858000D02*
X37278000Y-105858000D01*
X37278000Y-105858000D02*
X37278000Y-111058000D01*
X24324000Y-110938000D02*
X25654000Y-110938000D01*
X24324000Y-112268000D02*
X24324000Y-110938000D01*
X24324000Y-113538000D02*
X26984000Y-113538000D01*
X26984000Y-113538000D02*
X26984000Y-118678000D01*
X24324000Y-113538000D02*
X24324000Y-118678000D01*
X24324000Y-118678000D02*
X26984000Y-118678000D01*
X36008000Y-118678000D02*
X38668000Y-118678000D01*
X36008000Y-113538000D02*
X36008000Y-118678000D01*
X38668000Y-113538000D02*
X38668000Y-118678000D01*
X36008000Y-113538000D02*
X38668000Y-113538000D01*
X36008000Y-112268000D02*
X36008000Y-110938000D01*
X36008000Y-110938000D02*
X37338000Y-110938000D01*
X42048000Y-113198000D02*
X39598000Y-113198000D01*
X40248000Y-116418000D02*
X42048000Y-116418000D01*
X28564000Y-116418000D02*
X30364000Y-116418000D01*
X30364000Y-113198000D02*
X27914000Y-113198000D01*
X53732000Y-113198000D02*
X51282000Y-113198000D01*
X51932000Y-116418000D02*
X53732000Y-116418000D01*
X102048000Y-125162000D02*
X103378000Y-125162000D01*
X102048000Y-126492000D02*
X102048000Y-125162000D01*
X102048000Y-127762000D02*
X104708000Y-127762000D01*
X104708000Y-127762000D02*
X104708000Y-132902000D01*
X102048000Y-127762000D02*
X102048000Y-132902000D01*
X102048000Y-132902000D02*
X104708000Y-132902000D01*
X90364000Y-125162000D02*
X91694000Y-125162000D01*
X90364000Y-126492000D02*
X90364000Y-125162000D01*
X90364000Y-127762000D02*
X93024000Y-127762000D01*
X93024000Y-127762000D02*
X93024000Y-132902000D01*
X90364000Y-127762000D02*
X90364000Y-132902000D01*
X90364000Y-132902000D02*
X93024000Y-132902000D01*
X115122000Y-120082000D02*
X115122000Y-121412000D01*
X113792000Y-120082000D02*
X115122000Y-120082000D01*
X115122000Y-122682000D02*
X115122000Y-125282000D01*
X112522000Y-122682000D02*
X115122000Y-122682000D01*
X112522000Y-120082000D02*
X112522000Y-122682000D01*
X115122000Y-125282000D02*
X107382000Y-125282000D01*
X112522000Y-120082000D02*
X107382000Y-120082000D01*
X107382000Y-120082000D02*
X107382000Y-125282000D01*
X33334000Y-120082000D02*
X33334000Y-121412000D01*
X32004000Y-120082000D02*
X33334000Y-120082000D01*
X33334000Y-122682000D02*
X33334000Y-125282000D01*
X30734000Y-122682000D02*
X33334000Y-122682000D01*
X30734000Y-120082000D02*
X30734000Y-122682000D01*
X33334000Y-125282000D02*
X25594000Y-125282000D01*
X30734000Y-120082000D02*
X25594000Y-120082000D01*
X25594000Y-120082000D02*
X25594000Y-125282000D01*
X43628000Y-132902000D02*
X46288000Y-132902000D01*
X43628000Y-127762000D02*
X43628000Y-132902000D01*
X46288000Y-127762000D02*
X46288000Y-132902000D01*
X43628000Y-127762000D02*
X46288000Y-127762000D01*
X43628000Y-126492000D02*
X43628000Y-125162000D01*
X43628000Y-125162000D02*
X44958000Y-125162000D01*
X24324000Y-132902000D02*
X26984000Y-132902000D01*
X24324000Y-127762000D02*
X24324000Y-132902000D01*
X26984000Y-127762000D02*
X26984000Y-132902000D01*
X24324000Y-127762000D02*
X26984000Y-127762000D01*
X24324000Y-126492000D02*
X24324000Y-125162000D01*
X24324000Y-125162000D02*
X25654000Y-125162000D01*
X63616000Y-130642000D02*
X65416000Y-130642000D01*
X65416000Y-127422000D02*
X62966000Y-127422000D01*
X30364000Y-127422000D02*
X27914000Y-127422000D01*
X28564000Y-130642000D02*
X30364000Y-130642000D01*
X113732000Y-125162000D02*
X115062000Y-125162000D01*
X113732000Y-126492000D02*
X113732000Y-125162000D01*
X113732000Y-127762000D02*
X116392000Y-127762000D01*
X116392000Y-127762000D02*
X116392000Y-132902000D01*
X113732000Y-127762000D02*
X113732000Y-132902000D01*
X113732000Y-132902000D02*
X116392000Y-132902000D01*
X106112000Y-132902000D02*
X108772000Y-132902000D01*
X106112000Y-127762000D02*
X106112000Y-132902000D01*
X108772000Y-127762000D02*
X108772000Y-132902000D01*
X106112000Y-127762000D02*
X108772000Y-127762000D01*
X106112000Y-126492000D02*
X106112000Y-125162000D01*
X106112000Y-125162000D02*
X107442000Y-125162000D01*
X66996000Y-132902000D02*
X69656000Y-132902000D01*
X66996000Y-127762000D02*
X66996000Y-132902000D01*
X69656000Y-127762000D02*
X69656000Y-132902000D01*
X66996000Y-127762000D02*
X69656000Y-127762000D01*
X66996000Y-126492000D02*
X66996000Y-125162000D01*
X66996000Y-125162000D02*
X68326000Y-125162000D01*
X88784000Y-127422000D02*
X86334000Y-127422000D01*
X86984000Y-130642000D02*
X88784000Y-130642000D01*
X47692000Y-125162000D02*
X49022000Y-125162000D01*
X47692000Y-126492000D02*
X47692000Y-125162000D01*
X47692000Y-127762000D02*
X50352000Y-127762000D01*
X50352000Y-127762000D02*
X50352000Y-132902000D01*
X47692000Y-127762000D02*
X47692000Y-132902000D01*
X47692000Y-132902000D02*
X50352000Y-132902000D01*
X100468000Y-127422000D02*
X98018000Y-127422000D01*
X98668000Y-130642000D02*
X100468000Y-130642000D01*
X55312000Y-132902000D02*
X57972000Y-132902000D01*
X55312000Y-127762000D02*
X55312000Y-132902000D01*
X57972000Y-127762000D02*
X57972000Y-132902000D01*
X55312000Y-127762000D02*
X57972000Y-127762000D01*
X55312000Y-126492000D02*
X55312000Y-125162000D01*
X55312000Y-125162000D02*
X56642000Y-125162000D01*
X78680000Y-125162000D02*
X80010000Y-125162000D01*
X78680000Y-126492000D02*
X78680000Y-125162000D01*
X78680000Y-127762000D02*
X81340000Y-127762000D01*
X81340000Y-127762000D02*
X81340000Y-132902000D01*
X78680000Y-127762000D02*
X78680000Y-132902000D01*
X78680000Y-132902000D02*
X81340000Y-132902000D01*
X48962000Y-120082000D02*
X48962000Y-125282000D01*
X54102000Y-120082000D02*
X48962000Y-120082000D01*
X56702000Y-125282000D02*
X48962000Y-125282000D01*
X54102000Y-120082000D02*
X54102000Y-122682000D01*
X54102000Y-122682000D02*
X56702000Y-122682000D01*
X56702000Y-122682000D02*
X56702000Y-125282000D01*
X55372000Y-120082000D02*
X56702000Y-120082000D01*
X56702000Y-120082000D02*
X56702000Y-121412000D01*
X51932000Y-130642000D02*
X53732000Y-130642000D01*
X53732000Y-127422000D02*
X51282000Y-127422000D01*
X31944000Y-125162000D02*
X33274000Y-125162000D01*
X31944000Y-126492000D02*
X31944000Y-125162000D01*
X31944000Y-127762000D02*
X34604000Y-127762000D01*
X34604000Y-127762000D02*
X34604000Y-132902000D01*
X31944000Y-127762000D02*
X31944000Y-132902000D01*
X31944000Y-132902000D02*
X34604000Y-132902000D01*
X37278000Y-120082000D02*
X37278000Y-125282000D01*
X42418000Y-120082000D02*
X37278000Y-120082000D01*
X45018000Y-125282000D02*
X37278000Y-125282000D01*
X42418000Y-120082000D02*
X42418000Y-122682000D01*
X42418000Y-122682000D02*
X45018000Y-122682000D01*
X45018000Y-122682000D02*
X45018000Y-125282000D01*
X43688000Y-120082000D02*
X45018000Y-120082000D01*
X45018000Y-120082000D02*
X45018000Y-121412000D01*
X40248000Y-130642000D02*
X42048000Y-130642000D01*
X42048000Y-127422000D02*
X39598000Y-127422000D01*
X36008000Y-125162000D02*
X37338000Y-125162000D01*
X36008000Y-126492000D02*
X36008000Y-125162000D01*
X36008000Y-127762000D02*
X38668000Y-127762000D01*
X38668000Y-127762000D02*
X38668000Y-132902000D01*
X36008000Y-127762000D02*
X36008000Y-132902000D01*
X36008000Y-132902000D02*
X38668000Y-132902000D01*
X84014000Y-134306000D02*
X84014000Y-139506000D01*
X89154000Y-134306000D02*
X84014000Y-134306000D01*
X91754000Y-139506000D02*
X84014000Y-139506000D01*
X89154000Y-134306000D02*
X89154000Y-136906000D01*
X89154000Y-136906000D02*
X91754000Y-136906000D01*
X91754000Y-136906000D02*
X91754000Y-139506000D01*
X90424000Y-134306000D02*
X91754000Y-134306000D01*
X91754000Y-134306000D02*
X91754000Y-135636000D01*
X75300000Y-144866000D02*
X77100000Y-144866000D01*
X77100000Y-141646000D02*
X74650000Y-141646000D01*
X59376000Y-147126000D02*
X62036000Y-147126000D01*
X59376000Y-141986000D02*
X59376000Y-147126000D01*
X62036000Y-141986000D02*
X62036000Y-147126000D01*
X59376000Y-141986000D02*
X62036000Y-141986000D01*
X59376000Y-140716000D02*
X59376000Y-139386000D01*
X59376000Y-139386000D02*
X60706000Y-139386000D01*
X68386000Y-134306000D02*
X68386000Y-135636000D01*
X67056000Y-134306000D02*
X68386000Y-134306000D01*
X68386000Y-136906000D02*
X68386000Y-139506000D01*
X65786000Y-136906000D02*
X68386000Y-136906000D01*
X65786000Y-134306000D02*
X65786000Y-136906000D01*
X68386000Y-139506000D02*
X60646000Y-139506000D01*
X65786000Y-134306000D02*
X60646000Y-134306000D01*
X60646000Y-134306000D02*
X60646000Y-139506000D01*
X95698000Y-134306000D02*
X95698000Y-139506000D01*
X100838000Y-134306000D02*
X95698000Y-134306000D01*
X103438000Y-139506000D02*
X95698000Y-139506000D01*
X100838000Y-134306000D02*
X100838000Y-136906000D01*
X100838000Y-136906000D02*
X103438000Y-136906000D01*
X103438000Y-136906000D02*
X103438000Y-139506000D01*
X102108000Y-134306000D02*
X103438000Y-134306000D01*
X103438000Y-134306000D02*
X103438000Y-135636000D01*
X94428000Y-139386000D02*
X95758000Y-139386000D01*
X94428000Y-140716000D02*
X94428000Y-139386000D01*
X94428000Y-141986000D02*
X97088000Y-141986000D01*
X97088000Y-141986000D02*
X97088000Y-147126000D01*
X94428000Y-141986000D02*
X94428000Y-147126000D01*
X94428000Y-147126000D02*
X97088000Y-147126000D01*
X110352000Y-144866000D02*
X112152000Y-144866000D01*
X112152000Y-141646000D02*
X109702000Y-141646000D01*
X82744000Y-139386000D02*
X84074000Y-139386000D01*
X82744000Y-140716000D02*
X82744000Y-139386000D01*
X82744000Y-141986000D02*
X85404000Y-141986000D01*
X85404000Y-141986000D02*
X85404000Y-147126000D01*
X82744000Y-141986000D02*
X82744000Y-147126000D01*
X82744000Y-147126000D02*
X85404000Y-147126000D01*
X72330000Y-134306000D02*
X72330000Y-139506000D01*
X77470000Y-134306000D02*
X72330000Y-134306000D01*
X80070000Y-139506000D02*
X72330000Y-139506000D01*
X77470000Y-134306000D02*
X77470000Y-136906000D01*
X77470000Y-136906000D02*
X80070000Y-136906000D01*
X80070000Y-136906000D02*
X80070000Y-139506000D01*
X78740000Y-134306000D02*
X80070000Y-134306000D01*
X80070000Y-134306000D02*
X80070000Y-135636000D01*
X71060000Y-139386000D02*
X72390000Y-139386000D01*
X71060000Y-140716000D02*
X71060000Y-139386000D01*
X71060000Y-141986000D02*
X73720000Y-141986000D01*
X73720000Y-141986000D02*
X73720000Y-147126000D01*
X71060000Y-141986000D02*
X71060000Y-147126000D01*
X71060000Y-147126000D02*
X73720000Y-147126000D01*
X65416000Y-141646000D02*
X62966000Y-141646000D01*
X63616000Y-144866000D02*
X65416000Y-144866000D01*
X113732000Y-147126000D02*
X116392000Y-147126000D01*
X113732000Y-141986000D02*
X113732000Y-147126000D01*
X116392000Y-141986000D02*
X116392000Y-147126000D01*
X113732000Y-141986000D02*
X116392000Y-141986000D01*
X113732000Y-140716000D02*
X113732000Y-139386000D01*
X113732000Y-139386000D02*
X115062000Y-139386000D01*
X66996000Y-139386000D02*
X68326000Y-139386000D01*
X66996000Y-140716000D02*
X66996000Y-139386000D01*
X66996000Y-141986000D02*
X69656000Y-141986000D01*
X69656000Y-141986000D02*
X69656000Y-147126000D01*
X66996000Y-141986000D02*
X66996000Y-147126000D01*
X66996000Y-147126000D02*
X69656000Y-147126000D01*
X78680000Y-147126000D02*
X81340000Y-147126000D01*
X78680000Y-141986000D02*
X78680000Y-147126000D01*
X81340000Y-141986000D02*
X81340000Y-147126000D01*
X78680000Y-141986000D02*
X81340000Y-141986000D01*
X78680000Y-140716000D02*
X78680000Y-139386000D01*
X78680000Y-139386000D02*
X80010000Y-139386000D01*
X86984000Y-144866000D02*
X88784000Y-144866000D01*
X88784000Y-141646000D02*
X86334000Y-141646000D01*
X102048000Y-147126000D02*
X104708000Y-147126000D01*
X102048000Y-141986000D02*
X102048000Y-147126000D01*
X104708000Y-141986000D02*
X104708000Y-147126000D01*
X102048000Y-141986000D02*
X104708000Y-141986000D01*
X102048000Y-140716000D02*
X102048000Y-139386000D01*
X102048000Y-139386000D02*
X103378000Y-139386000D01*
X90364000Y-147126000D02*
X93024000Y-147126000D01*
X90364000Y-141986000D02*
X90364000Y-147126000D01*
X93024000Y-141986000D02*
X93024000Y-147126000D01*
X90364000Y-141986000D02*
X93024000Y-141986000D01*
X90364000Y-140716000D02*
X90364000Y-139386000D01*
X90364000Y-139386000D02*
X91694000Y-139386000D01*
X82744000Y-132902000D02*
X85404000Y-132902000D01*
X82744000Y-127762000D02*
X82744000Y-132902000D01*
X85404000Y-127762000D02*
X85404000Y-132902000D01*
X82744000Y-127762000D02*
X85404000Y-127762000D01*
X82744000Y-126492000D02*
X82744000Y-125162000D01*
X82744000Y-125162000D02*
X84074000Y-125162000D01*
X91754000Y-120082000D02*
X91754000Y-121412000D01*
X90424000Y-120082000D02*
X91754000Y-120082000D01*
X91754000Y-122682000D02*
X91754000Y-125282000D01*
X89154000Y-122682000D02*
X91754000Y-122682000D01*
X89154000Y-120082000D02*
X89154000Y-122682000D01*
X91754000Y-125282000D02*
X84014000Y-125282000D01*
X89154000Y-120082000D02*
X84014000Y-120082000D01*
X84014000Y-120082000D02*
X84014000Y-125282000D01*
X60646000Y-120082000D02*
X60646000Y-125282000D01*
X65786000Y-120082000D02*
X60646000Y-120082000D01*
X68386000Y-125282000D02*
X60646000Y-125282000D01*
X65786000Y-120082000D02*
X65786000Y-122682000D01*
X65786000Y-122682000D02*
X68386000Y-122682000D01*
X68386000Y-122682000D02*
X68386000Y-125282000D01*
X67056000Y-120082000D02*
X68386000Y-120082000D01*
X68386000Y-120082000D02*
X68386000Y-121412000D01*
X112152000Y-127422000D02*
X109702000Y-127422000D01*
X110352000Y-130642000D02*
X112152000Y-130642000D01*
X94428000Y-132902000D02*
X97088000Y-132902000D01*
X94428000Y-127762000D02*
X94428000Y-132902000D01*
X97088000Y-127762000D02*
X97088000Y-132902000D01*
X94428000Y-127762000D02*
X97088000Y-127762000D01*
X94428000Y-126492000D02*
X94428000Y-125162000D01*
X94428000Y-125162000D02*
X95758000Y-125162000D01*
X71060000Y-132902000D02*
X73720000Y-132902000D01*
X71060000Y-127762000D02*
X71060000Y-132902000D01*
X73720000Y-127762000D02*
X73720000Y-132902000D01*
X71060000Y-127762000D02*
X73720000Y-127762000D01*
X71060000Y-126492000D02*
X71060000Y-125162000D01*
X71060000Y-125162000D02*
X72390000Y-125162000D01*
X77100000Y-127422000D02*
X74650000Y-127422000D01*
X75300000Y-130642000D02*
X77100000Y-130642000D01*
X59376000Y-125162000D02*
X60706000Y-125162000D01*
X59376000Y-126492000D02*
X59376000Y-125162000D01*
X59376000Y-127762000D02*
X62036000Y-127762000D01*
X62036000Y-127762000D02*
X62036000Y-132902000D01*
X59376000Y-127762000D02*
X59376000Y-132902000D01*
X59376000Y-132902000D02*
X62036000Y-132902000D01*
X80070000Y-120082000D02*
X80070000Y-121412000D01*
X78740000Y-120082000D02*
X80070000Y-120082000D01*
X80070000Y-122682000D02*
X80070000Y-125282000D01*
X77470000Y-122682000D02*
X80070000Y-122682000D01*
X77470000Y-120082000D02*
X77470000Y-122682000D01*
X80070000Y-125282000D02*
X72330000Y-125282000D01*
X77470000Y-120082000D02*
X72330000Y-120082000D01*
X72330000Y-120082000D02*
X72330000Y-125282000D01*
X103438000Y-120082000D02*
X103438000Y-121412000D01*
X102108000Y-120082000D02*
X103438000Y-120082000D01*
X103438000Y-122682000D02*
X103438000Y-125282000D01*
X100838000Y-122682000D02*
X103438000Y-122682000D01*
X100838000Y-120082000D02*
X100838000Y-122682000D01*
X103438000Y-125282000D02*
X95698000Y-125282000D01*
X100838000Y-120082000D02*
X95698000Y-120082000D01*
X95698000Y-120082000D02*
X95698000Y-125282000D01*
X56702000Y-134306000D02*
X56702000Y-135636000D01*
X55372000Y-134306000D02*
X56702000Y-134306000D01*
X56702000Y-136906000D02*
X56702000Y-139506000D01*
X54102000Y-136906000D02*
X56702000Y-136906000D01*
X54102000Y-134306000D02*
X54102000Y-136906000D01*
X56702000Y-139506000D02*
X48962000Y-139506000D01*
X54102000Y-134306000D02*
X48962000Y-134306000D01*
X48962000Y-134306000D02*
X48962000Y-139506000D01*
X47692000Y-147126000D02*
X50352000Y-147126000D01*
X47692000Y-141986000D02*
X47692000Y-147126000D01*
X50352000Y-141986000D02*
X50352000Y-147126000D01*
X47692000Y-141986000D02*
X50352000Y-141986000D01*
X47692000Y-140716000D02*
X47692000Y-139386000D01*
X47692000Y-139386000D02*
X49022000Y-139386000D01*
X107382000Y-134306000D02*
X107382000Y-139506000D01*
X112522000Y-134306000D02*
X107382000Y-134306000D01*
X115122000Y-139506000D02*
X107382000Y-139506000D01*
X112522000Y-134306000D02*
X112522000Y-136906000D01*
X112522000Y-136906000D02*
X115122000Y-136906000D01*
X115122000Y-136906000D02*
X115122000Y-139506000D01*
X113792000Y-134306000D02*
X115122000Y-134306000D01*
X115122000Y-134306000D02*
X115122000Y-135636000D01*
X106112000Y-139386000D02*
X107442000Y-139386000D01*
X106112000Y-140716000D02*
X106112000Y-139386000D01*
X106112000Y-141986000D02*
X108772000Y-141986000D01*
X108772000Y-141986000D02*
X108772000Y-147126000D01*
X106112000Y-141986000D02*
X106112000Y-147126000D01*
X106112000Y-147126000D02*
X108772000Y-147126000D01*
X55312000Y-139386000D02*
X56642000Y-139386000D01*
X55312000Y-140716000D02*
X55312000Y-139386000D01*
X55312000Y-141986000D02*
X57972000Y-141986000D01*
X57972000Y-141986000D02*
X57972000Y-147126000D01*
X55312000Y-141986000D02*
X55312000Y-147126000D01*
X55312000Y-147126000D02*
X57972000Y-147126000D01*
X98668000Y-144866000D02*
X100468000Y-144866000D01*
X100468000Y-141646000D02*
X98018000Y-141646000D01*
X31944000Y-147126000D02*
X34604000Y-147126000D01*
X31944000Y-141986000D02*
X31944000Y-147126000D01*
X34604000Y-141986000D02*
X34604000Y-147126000D01*
X31944000Y-141986000D02*
X34604000Y-141986000D01*
X31944000Y-140716000D02*
X31944000Y-139386000D01*
X31944000Y-139386000D02*
X33274000Y-139386000D01*
X25594000Y-134306000D02*
X25594000Y-139506000D01*
X30734000Y-134306000D02*
X25594000Y-134306000D01*
X33334000Y-139506000D02*
X25594000Y-139506000D01*
X30734000Y-134306000D02*
X30734000Y-136906000D01*
X30734000Y-136906000D02*
X33334000Y-136906000D01*
X33334000Y-136906000D02*
X33334000Y-139506000D01*
X32004000Y-134306000D02*
X33334000Y-134306000D01*
X33334000Y-134306000D02*
X33334000Y-135636000D01*
X43628000Y-139386000D02*
X44958000Y-139386000D01*
X43628000Y-140716000D02*
X43628000Y-139386000D01*
X43628000Y-141986000D02*
X46288000Y-141986000D01*
X46288000Y-141986000D02*
X46288000Y-147126000D01*
X43628000Y-141986000D02*
X43628000Y-147126000D01*
X43628000Y-147126000D02*
X46288000Y-147126000D01*
X45018000Y-134306000D02*
X45018000Y-135636000D01*
X43688000Y-134306000D02*
X45018000Y-134306000D01*
X45018000Y-136906000D02*
X45018000Y-139506000D01*
X42418000Y-136906000D02*
X45018000Y-136906000D01*
X42418000Y-134306000D02*
X42418000Y-136906000D01*
X45018000Y-139506000D02*
X37278000Y-139506000D01*
X42418000Y-134306000D02*
X37278000Y-134306000D01*
X37278000Y-134306000D02*
X37278000Y-139506000D01*
X24324000Y-139386000D02*
X25654000Y-139386000D01*
X24324000Y-140716000D02*
X24324000Y-139386000D01*
X24324000Y-141986000D02*
X26984000Y-141986000D01*
X26984000Y-141986000D02*
X26984000Y-147126000D01*
X24324000Y-141986000D02*
X24324000Y-147126000D01*
X24324000Y-147126000D02*
X26984000Y-147126000D01*
X36008000Y-147126000D02*
X38668000Y-147126000D01*
X36008000Y-141986000D02*
X36008000Y-147126000D01*
X38668000Y-141986000D02*
X38668000Y-147126000D01*
X36008000Y-141986000D02*
X38668000Y-141986000D01*
X36008000Y-140716000D02*
X36008000Y-139386000D01*
X36008000Y-139386000D02*
X37338000Y-139386000D01*
X42048000Y-141646000D02*
X39598000Y-141646000D01*
X40248000Y-144866000D02*
X42048000Y-144866000D01*
X28564000Y-144866000D02*
X30364000Y-144866000D01*
X30364000Y-141646000D02*
X27914000Y-141646000D01*
X53732000Y-141646000D02*
X51282000Y-141646000D01*
X51932000Y-144866000D02*
X53732000Y-144866000D01*
X84014000Y-148530000D02*
X84014000Y-153730000D01*
X89154000Y-148530000D02*
X84014000Y-148530000D01*
X91754000Y-153730000D02*
X84014000Y-153730000D01*
X89154000Y-148530000D02*
X89154000Y-151130000D01*
X89154000Y-151130000D02*
X91754000Y-151130000D01*
X91754000Y-151130000D02*
X91754000Y-153730000D01*
X90424000Y-148530000D02*
X91754000Y-148530000D01*
X91754000Y-148530000D02*
X91754000Y-149860000D01*
X75300000Y-159090000D02*
X77100000Y-159090000D01*
X77100000Y-155870000D02*
X74650000Y-155870000D01*
X59376000Y-161350000D02*
X62036000Y-161350000D01*
X59376000Y-156210000D02*
X59376000Y-161350000D01*
X62036000Y-156210000D02*
X62036000Y-161350000D01*
X59376000Y-156210000D02*
X62036000Y-156210000D01*
X59376000Y-154940000D02*
X59376000Y-153610000D01*
X59376000Y-153610000D02*
X60706000Y-153610000D01*
X68386000Y-148530000D02*
X68386000Y-149860000D01*
X67056000Y-148530000D02*
X68386000Y-148530000D01*
X68386000Y-151130000D02*
X68386000Y-153730000D01*
X65786000Y-151130000D02*
X68386000Y-151130000D01*
X65786000Y-148530000D02*
X65786000Y-151130000D01*
X68386000Y-153730000D02*
X60646000Y-153730000D01*
X65786000Y-148530000D02*
X60646000Y-148530000D01*
X60646000Y-148530000D02*
X60646000Y-153730000D01*
X95698000Y-148530000D02*
X95698000Y-153730000D01*
X100838000Y-148530000D02*
X95698000Y-148530000D01*
X103438000Y-153730000D02*
X95698000Y-153730000D01*
X100838000Y-148530000D02*
X100838000Y-151130000D01*
X100838000Y-151130000D02*
X103438000Y-151130000D01*
X103438000Y-151130000D02*
X103438000Y-153730000D01*
X102108000Y-148530000D02*
X103438000Y-148530000D01*
X103438000Y-148530000D02*
X103438000Y-149860000D01*
X94428000Y-153610000D02*
X95758000Y-153610000D01*
X94428000Y-154940000D02*
X94428000Y-153610000D01*
X94428000Y-156210000D02*
X97088000Y-156210000D01*
X97088000Y-156210000D02*
X97088000Y-161350000D01*
X94428000Y-156210000D02*
X94428000Y-161350000D01*
X94428000Y-161350000D02*
X97088000Y-161350000D01*
X110352000Y-159090000D02*
X112152000Y-159090000D01*
X112152000Y-155870000D02*
X109702000Y-155870000D01*
X82744000Y-153610000D02*
X84074000Y-153610000D01*
X82744000Y-154940000D02*
X82744000Y-153610000D01*
X82744000Y-156210000D02*
X85404000Y-156210000D01*
X85404000Y-156210000D02*
X85404000Y-161350000D01*
X82744000Y-156210000D02*
X82744000Y-161350000D01*
X82744000Y-161350000D02*
X85404000Y-161350000D01*
X72330000Y-148530000D02*
X72330000Y-153730000D01*
X77470000Y-148530000D02*
X72330000Y-148530000D01*
X80070000Y-153730000D02*
X72330000Y-153730000D01*
X77470000Y-148530000D02*
X77470000Y-151130000D01*
X77470000Y-151130000D02*
X80070000Y-151130000D01*
X80070000Y-151130000D02*
X80070000Y-153730000D01*
X78740000Y-148530000D02*
X80070000Y-148530000D01*
X80070000Y-148530000D02*
X80070000Y-149860000D01*
X71060000Y-153610000D02*
X72390000Y-153610000D01*
X71060000Y-154940000D02*
X71060000Y-153610000D01*
X71060000Y-156210000D02*
X73720000Y-156210000D01*
X73720000Y-156210000D02*
X73720000Y-161350000D01*
X71060000Y-156210000D02*
X71060000Y-161350000D01*
X71060000Y-161350000D02*
X73720000Y-161350000D01*
X65416000Y-155870000D02*
X62966000Y-155870000D01*
X63616000Y-159090000D02*
X65416000Y-159090000D01*
X113732000Y-161350000D02*
X116392000Y-161350000D01*
X113732000Y-156210000D02*
X113732000Y-161350000D01*
X116392000Y-156210000D02*
X116392000Y-161350000D01*
X113732000Y-156210000D02*
X116392000Y-156210000D01*
X113732000Y-154940000D02*
X113732000Y-153610000D01*
X113732000Y-153610000D02*
X115062000Y-153610000D01*
X66996000Y-153610000D02*
X68326000Y-153610000D01*
X66996000Y-154940000D02*
X66996000Y-153610000D01*
X66996000Y-156210000D02*
X69656000Y-156210000D01*
X69656000Y-156210000D02*
X69656000Y-161350000D01*
X66996000Y-156210000D02*
X66996000Y-161350000D01*
X66996000Y-161350000D02*
X69656000Y-161350000D01*
X78680000Y-161350000D02*
X81340000Y-161350000D01*
X78680000Y-156210000D02*
X78680000Y-161350000D01*
X81340000Y-156210000D02*
X81340000Y-161350000D01*
X78680000Y-156210000D02*
X81340000Y-156210000D01*
X78680000Y-154940000D02*
X78680000Y-153610000D01*
X78680000Y-153610000D02*
X80010000Y-153610000D01*
X86984000Y-159090000D02*
X88784000Y-159090000D01*
X88784000Y-155870000D02*
X86334000Y-155870000D01*
X102048000Y-161350000D02*
X104708000Y-161350000D01*
X102048000Y-156210000D02*
X102048000Y-161350000D01*
X104708000Y-156210000D02*
X104708000Y-161350000D01*
X102048000Y-156210000D02*
X104708000Y-156210000D01*
X102048000Y-154940000D02*
X102048000Y-153610000D01*
X102048000Y-153610000D02*
X103378000Y-153610000D01*
X90364000Y-161350000D02*
X93024000Y-161350000D01*
X90364000Y-156210000D02*
X90364000Y-161350000D01*
X93024000Y-156210000D02*
X93024000Y-161350000D01*
X90364000Y-156210000D02*
X93024000Y-156210000D01*
X90364000Y-154940000D02*
X90364000Y-153610000D01*
X90364000Y-153610000D02*
X91694000Y-153610000D01*
X56702000Y-148530000D02*
X56702000Y-149860000D01*
X55372000Y-148530000D02*
X56702000Y-148530000D01*
X56702000Y-151130000D02*
X56702000Y-153730000D01*
X54102000Y-151130000D02*
X56702000Y-151130000D01*
X54102000Y-148530000D02*
X54102000Y-151130000D01*
X56702000Y-153730000D02*
X48962000Y-153730000D01*
X54102000Y-148530000D02*
X48962000Y-148530000D01*
X48962000Y-148530000D02*
X48962000Y-153730000D01*
X47692000Y-161350000D02*
X50352000Y-161350000D01*
X47692000Y-156210000D02*
X47692000Y-161350000D01*
X50352000Y-156210000D02*
X50352000Y-161350000D01*
X47692000Y-156210000D02*
X50352000Y-156210000D01*
X47692000Y-154940000D02*
X47692000Y-153610000D01*
X47692000Y-153610000D02*
X49022000Y-153610000D01*
X107382000Y-148530000D02*
X107382000Y-153730000D01*
X112522000Y-148530000D02*
X107382000Y-148530000D01*
X115122000Y-153730000D02*
X107382000Y-153730000D01*
X112522000Y-148530000D02*
X112522000Y-151130000D01*
X112522000Y-151130000D02*
X115122000Y-151130000D01*
X115122000Y-151130000D02*
X115122000Y-153730000D01*
X113792000Y-148530000D02*
X115122000Y-148530000D01*
X115122000Y-148530000D02*
X115122000Y-149860000D01*
X106112000Y-153610000D02*
X107442000Y-153610000D01*
X106112000Y-154940000D02*
X106112000Y-153610000D01*
X106112000Y-156210000D02*
X108772000Y-156210000D01*
X108772000Y-156210000D02*
X108772000Y-161350000D01*
X106112000Y-156210000D02*
X106112000Y-161350000D01*
X106112000Y-161350000D02*
X108772000Y-161350000D01*
X55312000Y-153610000D02*
X56642000Y-153610000D01*
X55312000Y-154940000D02*
X55312000Y-153610000D01*
X55312000Y-156210000D02*
X57972000Y-156210000D01*
X57972000Y-156210000D02*
X57972000Y-161350000D01*
X55312000Y-156210000D02*
X55312000Y-161350000D01*
X55312000Y-161350000D02*
X57972000Y-161350000D01*
X98668000Y-159090000D02*
X100468000Y-159090000D01*
X100468000Y-155870000D02*
X98018000Y-155870000D01*
X31944000Y-161350000D02*
X34604000Y-161350000D01*
X31944000Y-156210000D02*
X31944000Y-161350000D01*
X34604000Y-156210000D02*
X34604000Y-161350000D01*
X31944000Y-156210000D02*
X34604000Y-156210000D01*
X31944000Y-154940000D02*
X31944000Y-153610000D01*
X31944000Y-153610000D02*
X33274000Y-153610000D01*
X25594000Y-148530000D02*
X25594000Y-153730000D01*
X30734000Y-148530000D02*
X25594000Y-148530000D01*
X33334000Y-153730000D02*
X25594000Y-153730000D01*
X30734000Y-148530000D02*
X30734000Y-151130000D01*
X30734000Y-151130000D02*
X33334000Y-151130000D01*
X33334000Y-151130000D02*
X33334000Y-153730000D01*
X32004000Y-148530000D02*
X33334000Y-148530000D01*
X33334000Y-148530000D02*
X33334000Y-149860000D01*
X43628000Y-153610000D02*
X44958000Y-153610000D01*
X43628000Y-154940000D02*
X43628000Y-153610000D01*
X43628000Y-156210000D02*
X46288000Y-156210000D01*
X46288000Y-156210000D02*
X46288000Y-161350000D01*
X43628000Y-156210000D02*
X43628000Y-161350000D01*
X43628000Y-161350000D02*
X46288000Y-161350000D01*
X45018000Y-148530000D02*
X45018000Y-149860000D01*
X43688000Y-148530000D02*
X45018000Y-148530000D01*
X45018000Y-151130000D02*
X45018000Y-153730000D01*
X42418000Y-151130000D02*
X45018000Y-151130000D01*
X42418000Y-148530000D02*
X42418000Y-151130000D01*
X45018000Y-153730000D02*
X37278000Y-153730000D01*
X42418000Y-148530000D02*
X37278000Y-148530000D01*
X37278000Y-148530000D02*
X37278000Y-153730000D01*
X24324000Y-153610000D02*
X25654000Y-153610000D01*
X24324000Y-154940000D02*
X24324000Y-153610000D01*
X24324000Y-156210000D02*
X26984000Y-156210000D01*
X26984000Y-156210000D02*
X26984000Y-161350000D01*
X24324000Y-156210000D02*
X24324000Y-161350000D01*
X24324000Y-161350000D02*
X26984000Y-161350000D01*
X36008000Y-161350000D02*
X38668000Y-161350000D01*
X36008000Y-156210000D02*
X36008000Y-161350000D01*
X38668000Y-156210000D02*
X38668000Y-161350000D01*
X36008000Y-156210000D02*
X38668000Y-156210000D01*
X36008000Y-154940000D02*
X36008000Y-153610000D01*
X36008000Y-153610000D02*
X37338000Y-153610000D01*
X42048000Y-155870000D02*
X39598000Y-155870000D01*
X40248000Y-159090000D02*
X42048000Y-159090000D01*
X28564000Y-159090000D02*
X30364000Y-159090000D01*
X30364000Y-155870000D02*
X27914000Y-155870000D01*
X53732000Y-155870000D02*
X51282000Y-155870000D01*
X51932000Y-159090000D02*
X53732000Y-159090000D01*
X115122000Y-162754000D02*
X115122000Y-164084000D01*
X113792000Y-162754000D02*
X115122000Y-162754000D01*
X115122000Y-165354000D02*
X115122000Y-167954000D01*
X112522000Y-165354000D02*
X115122000Y-165354000D01*
X112522000Y-162754000D02*
X112522000Y-165354000D01*
X115122000Y-167954000D02*
X107382000Y-167954000D01*
X112522000Y-162754000D02*
X107382000Y-162754000D01*
X107382000Y-162754000D02*
X107382000Y-167954000D01*
X100468000Y-170094000D02*
X98018000Y-170094000D01*
X98668000Y-173314000D02*
X100468000Y-173314000D01*
X106112000Y-175574000D02*
X108772000Y-175574000D01*
X106112000Y-170434000D02*
X106112000Y-175574000D01*
X108772000Y-170434000D02*
X108772000Y-175574000D01*
X106112000Y-170434000D02*
X108772000Y-170434000D01*
X106112000Y-169164000D02*
X106112000Y-167834000D01*
X106112000Y-167834000D02*
X107442000Y-167834000D01*
X103438000Y-162754000D02*
X103438000Y-164084000D01*
X102108000Y-162754000D02*
X103438000Y-162754000D01*
X103438000Y-165354000D02*
X103438000Y-167954000D01*
X100838000Y-165354000D02*
X103438000Y-165354000D01*
X100838000Y-162754000D02*
X100838000Y-165354000D01*
X103438000Y-167954000D02*
X95698000Y-167954000D01*
X100838000Y-162754000D02*
X95698000Y-162754000D01*
X95698000Y-162754000D02*
X95698000Y-167954000D01*
X94428000Y-175574000D02*
X97088000Y-175574000D01*
X94428000Y-170434000D02*
X94428000Y-175574000D01*
X97088000Y-170434000D02*
X97088000Y-175574000D01*
X94428000Y-170434000D02*
X97088000Y-170434000D01*
X94428000Y-169164000D02*
X94428000Y-167834000D01*
X94428000Y-167834000D02*
X95758000Y-167834000D01*
X102048000Y-167834000D02*
X103378000Y-167834000D01*
X102048000Y-169164000D02*
X102048000Y-167834000D01*
X102048000Y-170434000D02*
X104708000Y-170434000D01*
X104708000Y-170434000D02*
X104708000Y-175574000D01*
X102048000Y-170434000D02*
X102048000Y-175574000D01*
X102048000Y-175574000D02*
X104708000Y-175574000D01*
X112152000Y-170094000D02*
X109702000Y-170094000D01*
X110352000Y-173314000D02*
X112152000Y-173314000D01*
X113732000Y-167834000D02*
X115062000Y-167834000D01*
X113732000Y-169164000D02*
X113732000Y-167834000D01*
X113732000Y-170434000D02*
X116392000Y-170434000D01*
X116392000Y-170434000D02*
X116392000Y-175574000D01*
X113732000Y-170434000D02*
X113732000Y-175574000D01*
X113732000Y-175574000D02*
X116392000Y-175574000D01*
X91754000Y-162754000D02*
X91754000Y-164084000D01*
X90424000Y-162754000D02*
X91754000Y-162754000D01*
X91754000Y-165354000D02*
X91754000Y-167954000D01*
X89154000Y-165354000D02*
X91754000Y-165354000D01*
X89154000Y-162754000D02*
X89154000Y-165354000D01*
X91754000Y-167954000D02*
X84014000Y-167954000D01*
X89154000Y-162754000D02*
X84014000Y-162754000D01*
X84014000Y-162754000D02*
X84014000Y-167954000D01*
X82744000Y-175574000D02*
X85404000Y-175574000D01*
X82744000Y-170434000D02*
X82744000Y-175574000D01*
X85404000Y-170434000D02*
X85404000Y-175574000D01*
X82744000Y-170434000D02*
X85404000Y-170434000D01*
X82744000Y-169164000D02*
X82744000Y-167834000D01*
X82744000Y-167834000D02*
X84074000Y-167834000D01*
X90364000Y-167834000D02*
X91694000Y-167834000D01*
X90364000Y-169164000D02*
X90364000Y-167834000D01*
X90364000Y-170434000D02*
X93024000Y-170434000D01*
X93024000Y-170434000D02*
X93024000Y-175574000D01*
X90364000Y-170434000D02*
X90364000Y-175574000D01*
X90364000Y-175574000D02*
X93024000Y-175574000D01*
X66996000Y-175574000D02*
X69656000Y-175574000D01*
X66996000Y-170434000D02*
X66996000Y-175574000D01*
X69656000Y-170434000D02*
X69656000Y-175574000D01*
X66996000Y-170434000D02*
X69656000Y-170434000D01*
X66996000Y-169164000D02*
X66996000Y-167834000D01*
X66996000Y-167834000D02*
X68326000Y-167834000D01*
X60646000Y-162754000D02*
X60646000Y-167954000D01*
X65786000Y-162754000D02*
X60646000Y-162754000D01*
X68386000Y-167954000D02*
X60646000Y-167954000D01*
X65786000Y-162754000D02*
X65786000Y-165354000D01*
X65786000Y-165354000D02*
X68386000Y-165354000D01*
X68386000Y-165354000D02*
X68386000Y-167954000D01*
X67056000Y-162754000D02*
X68386000Y-162754000D01*
X68386000Y-162754000D02*
X68386000Y-164084000D01*
X78680000Y-167834000D02*
X80010000Y-167834000D01*
X78680000Y-169164000D02*
X78680000Y-167834000D01*
X78680000Y-170434000D02*
X81340000Y-170434000D01*
X81340000Y-170434000D02*
X81340000Y-175574000D01*
X78680000Y-170434000D02*
X78680000Y-175574000D01*
X78680000Y-175574000D02*
X81340000Y-175574000D01*
X80070000Y-162754000D02*
X80070000Y-164084000D01*
X78740000Y-162754000D02*
X80070000Y-162754000D01*
X80070000Y-165354000D02*
X80070000Y-167954000D01*
X77470000Y-165354000D02*
X80070000Y-165354000D01*
X77470000Y-162754000D02*
X77470000Y-165354000D01*
X80070000Y-167954000D02*
X72330000Y-167954000D01*
X77470000Y-162754000D02*
X72330000Y-162754000D01*
X72330000Y-162754000D02*
X72330000Y-167954000D01*
X59376000Y-167834000D02*
X60706000Y-167834000D01*
X59376000Y-169164000D02*
X59376000Y-167834000D01*
X59376000Y-170434000D02*
X62036000Y-170434000D01*
X62036000Y-170434000D02*
X62036000Y-175574000D01*
X59376000Y-170434000D02*
X59376000Y-175574000D01*
X59376000Y-175574000D02*
X62036000Y-175574000D01*
X71060000Y-175574000D02*
X73720000Y-175574000D01*
X71060000Y-170434000D02*
X71060000Y-175574000D01*
X73720000Y-170434000D02*
X73720000Y-175574000D01*
X71060000Y-170434000D02*
X73720000Y-170434000D01*
X71060000Y-169164000D02*
X71060000Y-167834000D01*
X71060000Y-167834000D02*
X72390000Y-167834000D01*
X77100000Y-170094000D02*
X74650000Y-170094000D01*
X75300000Y-173314000D02*
X77100000Y-173314000D01*
X63616000Y-173314000D02*
X65416000Y-173314000D01*
X65416000Y-170094000D02*
X62966000Y-170094000D01*
X88784000Y-170094000D02*
X86334000Y-170094000D01*
X86984000Y-173314000D02*
X88784000Y-173314000D01*
X55312000Y-175574000D02*
X57972000Y-175574000D01*
X55312000Y-170434000D02*
X55312000Y-175574000D01*
X57972000Y-170434000D02*
X57972000Y-175574000D01*
X55312000Y-170434000D02*
X57972000Y-170434000D01*
X55312000Y-169164000D02*
X55312000Y-167834000D01*
X55312000Y-167834000D02*
X56642000Y-167834000D01*
X48962000Y-162754000D02*
X48962000Y-167954000D01*
X54102000Y-162754000D02*
X48962000Y-162754000D01*
X56702000Y-167954000D02*
X48962000Y-167954000D01*
X54102000Y-162754000D02*
X54102000Y-165354000D01*
X54102000Y-165354000D02*
X56702000Y-165354000D01*
X56702000Y-165354000D02*
X56702000Y-167954000D01*
X55372000Y-162754000D02*
X56702000Y-162754000D01*
X56702000Y-162754000D02*
X56702000Y-164084000D01*
X47692000Y-167834000D02*
X49022000Y-167834000D01*
X47692000Y-169164000D02*
X47692000Y-167834000D01*
X47692000Y-170434000D02*
X50352000Y-170434000D01*
X50352000Y-170434000D02*
X50352000Y-175574000D01*
X47692000Y-170434000D02*
X47692000Y-175574000D01*
X47692000Y-175574000D02*
X50352000Y-175574000D01*
X51932000Y-173314000D02*
X53732000Y-173314000D01*
X53732000Y-170094000D02*
X51282000Y-170094000D01*
X43628000Y-175574000D02*
X46288000Y-175574000D01*
X43628000Y-170434000D02*
X43628000Y-175574000D01*
X46288000Y-170434000D02*
X46288000Y-175574000D01*
X43628000Y-170434000D02*
X46288000Y-170434000D01*
X43628000Y-169164000D02*
X43628000Y-167834000D01*
X43628000Y-167834000D02*
X44958000Y-167834000D01*
X37278000Y-162754000D02*
X37278000Y-167954000D01*
X42418000Y-162754000D02*
X37278000Y-162754000D01*
X45018000Y-167954000D02*
X37278000Y-167954000D01*
X42418000Y-162754000D02*
X42418000Y-165354000D01*
X42418000Y-165354000D02*
X45018000Y-165354000D01*
X45018000Y-165354000D02*
X45018000Y-167954000D01*
X43688000Y-162754000D02*
X45018000Y-162754000D01*
X45018000Y-162754000D02*
X45018000Y-164084000D01*
X36008000Y-167834000D02*
X37338000Y-167834000D01*
X36008000Y-169164000D02*
X36008000Y-167834000D01*
X36008000Y-170434000D02*
X38668000Y-170434000D01*
X38668000Y-170434000D02*
X38668000Y-175574000D01*
X36008000Y-170434000D02*
X36008000Y-175574000D01*
X36008000Y-175574000D02*
X38668000Y-175574000D01*
X40248000Y-173314000D02*
X42048000Y-173314000D01*
X42048000Y-170094000D02*
X39598000Y-170094000D01*
X24324000Y-175574000D02*
X26984000Y-175574000D01*
X24324000Y-170434000D02*
X24324000Y-175574000D01*
X26984000Y-170434000D02*
X26984000Y-175574000D01*
X24324000Y-170434000D02*
X26984000Y-170434000D01*
X24324000Y-169164000D02*
X24324000Y-167834000D01*
X24324000Y-167834000D02*
X25654000Y-167834000D01*
X30364000Y-170094000D02*
X27914000Y-170094000D01*
X28564000Y-173314000D02*
X30364000Y-173314000D01*
X31944000Y-167834000D02*
X33274000Y-167834000D01*
X31944000Y-169164000D02*
X31944000Y-167834000D01*
X31944000Y-170434000D02*
X34604000Y-170434000D01*
X34604000Y-170434000D02*
X34604000Y-175574000D01*
X31944000Y-170434000D02*
X31944000Y-175574000D01*
X31944000Y-175574000D02*
X34604000Y-175574000D01*
X33334000Y-162754000D02*
X33334000Y-164084000D01*
X32004000Y-162754000D02*
X33334000Y-162754000D01*
X33334000Y-165354000D02*
X33334000Y-167954000D01*
X30734000Y-165354000D02*
X33334000Y-165354000D01*
X30734000Y-162754000D02*
X30734000Y-165354000D01*
X33334000Y-167954000D02*
X25594000Y-167954000D01*
X30734000Y-162754000D02*
X25594000Y-162754000D01*
X25594000Y-162754000D02*
X25594000Y-167954000D01*
M02*
