G04 #@! TF.GenerationSoftware,KiCad,Pcbnew,(5.1.4)-1*
G04 #@! TF.CreationDate,2020-04-16T11:05:27+01:00*
G04 #@! TF.ProjectId,sot23Breakout,736f7432-3342-4726-9561-6b6f75742e6b,rev?*
G04 #@! TF.SameCoordinates,Original*
G04 #@! TF.FileFunction,Soldermask,Bot*
G04 #@! TF.FilePolarity,Negative*
%FSLAX46Y46*%
G04 Gerber Fmt 4.6, Leading zero omitted, Abs format (unit mm)*
G04 Created by KiCad (PCBNEW (5.1.4)-1) date 2020-04-16 11:05:27*
%MOMM*%
%LPD*%
G04 APERTURE LIST*
%ADD10C,0.100000*%
G04 APERTURE END LIST*
D10*
G36*
X226678443Y-128645519D02*
G01*
X226744627Y-128652037D01*
X226914466Y-128703557D01*
X227070991Y-128787222D01*
X227106729Y-128816552D01*
X227208186Y-128899814D01*
X227291448Y-129001271D01*
X227320778Y-129037009D01*
X227404443Y-129193534D01*
X227455963Y-129363373D01*
X227473359Y-129540000D01*
X227455963Y-129716627D01*
X227404443Y-129886466D01*
X227320778Y-130042991D01*
X227291448Y-130078729D01*
X227208186Y-130180186D01*
X227106729Y-130263448D01*
X227070991Y-130292778D01*
X226914466Y-130376443D01*
X226744627Y-130427963D01*
X226678443Y-130434481D01*
X226612260Y-130441000D01*
X226523740Y-130441000D01*
X226457557Y-130434481D01*
X226391373Y-130427963D01*
X226221534Y-130376443D01*
X226065009Y-130292778D01*
X226029271Y-130263448D01*
X225927814Y-130180186D01*
X225844552Y-130078729D01*
X225815222Y-130042991D01*
X225731557Y-129886466D01*
X225680037Y-129716627D01*
X225662641Y-129540000D01*
X225680037Y-129363373D01*
X225731557Y-129193534D01*
X225815222Y-129037009D01*
X225844552Y-129001271D01*
X225927814Y-128899814D01*
X226029271Y-128816552D01*
X226065009Y-128787222D01*
X226221534Y-128703557D01*
X226391373Y-128652037D01*
X226457557Y-128645519D01*
X226523740Y-128639000D01*
X226612260Y-128639000D01*
X226678443Y-128645519D01*
X226678443Y-128645519D01*
G37*
G36*
X234298443Y-128645519D02*
G01*
X234364627Y-128652037D01*
X234534466Y-128703557D01*
X234690991Y-128787222D01*
X234726729Y-128816552D01*
X234828186Y-128899814D01*
X234911448Y-129001271D01*
X234940778Y-129037009D01*
X235024443Y-129193534D01*
X235075963Y-129363373D01*
X235093359Y-129540000D01*
X235075963Y-129716627D01*
X235024443Y-129886466D01*
X234940778Y-130042991D01*
X234911448Y-130078729D01*
X234828186Y-130180186D01*
X234726729Y-130263448D01*
X234690991Y-130292778D01*
X234534466Y-130376443D01*
X234364627Y-130427963D01*
X234298443Y-130434481D01*
X234232260Y-130441000D01*
X234143740Y-130441000D01*
X234077557Y-130434481D01*
X234011373Y-130427963D01*
X233841534Y-130376443D01*
X233685009Y-130292778D01*
X233649271Y-130263448D01*
X233547814Y-130180186D01*
X233464552Y-130078729D01*
X233435222Y-130042991D01*
X233351557Y-129886466D01*
X233300037Y-129716627D01*
X233282641Y-129540000D01*
X233300037Y-129363373D01*
X233351557Y-129193534D01*
X233435222Y-129037009D01*
X233464552Y-129001271D01*
X233547814Y-128899814D01*
X233649271Y-128816552D01*
X233685009Y-128787222D01*
X233841534Y-128703557D01*
X234011373Y-128652037D01*
X234077557Y-128645519D01*
X234143740Y-128639000D01*
X234232260Y-128639000D01*
X234298443Y-128645519D01*
X234298443Y-128645519D01*
G37*
G36*
X226678443Y-126105519D02*
G01*
X226744627Y-126112037D01*
X226914466Y-126163557D01*
X227070991Y-126247222D01*
X227106729Y-126276552D01*
X227208186Y-126359814D01*
X227291448Y-126461271D01*
X227320778Y-126497009D01*
X227404443Y-126653534D01*
X227455963Y-126823373D01*
X227473359Y-127000000D01*
X227455963Y-127176627D01*
X227404443Y-127346466D01*
X227320778Y-127502991D01*
X227291448Y-127538729D01*
X227208186Y-127640186D01*
X227106729Y-127723448D01*
X227070991Y-127752778D01*
X226914466Y-127836443D01*
X226744627Y-127887963D01*
X226678442Y-127894482D01*
X226612260Y-127901000D01*
X226523740Y-127901000D01*
X226457558Y-127894482D01*
X226391373Y-127887963D01*
X226221534Y-127836443D01*
X226065009Y-127752778D01*
X226029271Y-127723448D01*
X225927814Y-127640186D01*
X225844552Y-127538729D01*
X225815222Y-127502991D01*
X225731557Y-127346466D01*
X225680037Y-127176627D01*
X225662641Y-127000000D01*
X225680037Y-126823373D01*
X225731557Y-126653534D01*
X225815222Y-126497009D01*
X225844552Y-126461271D01*
X225927814Y-126359814D01*
X226029271Y-126276552D01*
X226065009Y-126247222D01*
X226221534Y-126163557D01*
X226391373Y-126112037D01*
X226457557Y-126105519D01*
X226523740Y-126099000D01*
X226612260Y-126099000D01*
X226678443Y-126105519D01*
X226678443Y-126105519D01*
G37*
G36*
X234298443Y-126105519D02*
G01*
X234364627Y-126112037D01*
X234534466Y-126163557D01*
X234690991Y-126247222D01*
X234726729Y-126276552D01*
X234828186Y-126359814D01*
X234911448Y-126461271D01*
X234940778Y-126497009D01*
X235024443Y-126653534D01*
X235075963Y-126823373D01*
X235093359Y-127000000D01*
X235075963Y-127176627D01*
X235024443Y-127346466D01*
X234940778Y-127502991D01*
X234911448Y-127538729D01*
X234828186Y-127640186D01*
X234726729Y-127723448D01*
X234690991Y-127752778D01*
X234534466Y-127836443D01*
X234364627Y-127887963D01*
X234298442Y-127894482D01*
X234232260Y-127901000D01*
X234143740Y-127901000D01*
X234077558Y-127894482D01*
X234011373Y-127887963D01*
X233841534Y-127836443D01*
X233685009Y-127752778D01*
X233649271Y-127723448D01*
X233547814Y-127640186D01*
X233464552Y-127538729D01*
X233435222Y-127502991D01*
X233351557Y-127346466D01*
X233300037Y-127176627D01*
X233282641Y-127000000D01*
X233300037Y-126823373D01*
X233351557Y-126653534D01*
X233435222Y-126497009D01*
X233464552Y-126461271D01*
X233547814Y-126359814D01*
X233649271Y-126276552D01*
X233685009Y-126247222D01*
X233841534Y-126163557D01*
X234011373Y-126112037D01*
X234077557Y-126105519D01*
X234143740Y-126099000D01*
X234232260Y-126099000D01*
X234298443Y-126105519D01*
X234298443Y-126105519D01*
G37*
G36*
X235089000Y-125361000D02*
G01*
X233287000Y-125361000D01*
X233287000Y-123559000D01*
X235089000Y-123559000D01*
X235089000Y-125361000D01*
X235089000Y-125361000D01*
G37*
G36*
X227469000Y-125361000D02*
G01*
X225667000Y-125361000D01*
X225667000Y-123559000D01*
X227469000Y-123559000D01*
X227469000Y-125361000D01*
X227469000Y-125361000D01*
G37*
G36*
X227948442Y-121025518D02*
G01*
X228014627Y-121032037D01*
X228184466Y-121083557D01*
X228340991Y-121167222D01*
X228376729Y-121196552D01*
X228478186Y-121279814D01*
X228561448Y-121381271D01*
X228590778Y-121417009D01*
X228674443Y-121573534D01*
X228725963Y-121743373D01*
X228743359Y-121920000D01*
X228725963Y-122096627D01*
X228674443Y-122266466D01*
X228590778Y-122422991D01*
X228561448Y-122458729D01*
X228478186Y-122560186D01*
X228376729Y-122643448D01*
X228340991Y-122672778D01*
X228184466Y-122756443D01*
X228014627Y-122807963D01*
X227948443Y-122814481D01*
X227882260Y-122821000D01*
X227793740Y-122821000D01*
X227727557Y-122814481D01*
X227661373Y-122807963D01*
X227491534Y-122756443D01*
X227335009Y-122672778D01*
X227299271Y-122643448D01*
X227197814Y-122560186D01*
X227114552Y-122458729D01*
X227085222Y-122422991D01*
X227001557Y-122266466D01*
X226950037Y-122096627D01*
X226932641Y-121920000D01*
X226950037Y-121743373D01*
X227001557Y-121573534D01*
X227085222Y-121417009D01*
X227114552Y-121381271D01*
X227197814Y-121279814D01*
X227299271Y-121196552D01*
X227335009Y-121167222D01*
X227491534Y-121083557D01*
X227661373Y-121032037D01*
X227727558Y-121025518D01*
X227793740Y-121019000D01*
X227882260Y-121019000D01*
X227948442Y-121025518D01*
X227948442Y-121025518D01*
G37*
G36*
X230488442Y-121025518D02*
G01*
X230554627Y-121032037D01*
X230724466Y-121083557D01*
X230880991Y-121167222D01*
X230916729Y-121196552D01*
X231018186Y-121279814D01*
X231101448Y-121381271D01*
X231130778Y-121417009D01*
X231214443Y-121573534D01*
X231265963Y-121743373D01*
X231283359Y-121920000D01*
X231265963Y-122096627D01*
X231214443Y-122266466D01*
X231130778Y-122422991D01*
X231101448Y-122458729D01*
X231018186Y-122560186D01*
X230916729Y-122643448D01*
X230880991Y-122672778D01*
X230724466Y-122756443D01*
X230554627Y-122807963D01*
X230488443Y-122814481D01*
X230422260Y-122821000D01*
X230333740Y-122821000D01*
X230267557Y-122814481D01*
X230201373Y-122807963D01*
X230031534Y-122756443D01*
X229875009Y-122672778D01*
X229839271Y-122643448D01*
X229737814Y-122560186D01*
X229654552Y-122458729D01*
X229625222Y-122422991D01*
X229541557Y-122266466D01*
X229490037Y-122096627D01*
X229472641Y-121920000D01*
X229490037Y-121743373D01*
X229541557Y-121573534D01*
X229625222Y-121417009D01*
X229654552Y-121381271D01*
X229737814Y-121279814D01*
X229839271Y-121196552D01*
X229875009Y-121167222D01*
X230031534Y-121083557D01*
X230201373Y-121032037D01*
X230267558Y-121025518D01*
X230333740Y-121019000D01*
X230422260Y-121019000D01*
X230488442Y-121025518D01*
X230488442Y-121025518D01*
G37*
G36*
X233028442Y-121025518D02*
G01*
X233094627Y-121032037D01*
X233264466Y-121083557D01*
X233420991Y-121167222D01*
X233456729Y-121196552D01*
X233558186Y-121279814D01*
X233641448Y-121381271D01*
X233670778Y-121417009D01*
X233754443Y-121573534D01*
X233805963Y-121743373D01*
X233823359Y-121920000D01*
X233805963Y-122096627D01*
X233754443Y-122266466D01*
X233670778Y-122422991D01*
X233641448Y-122458729D01*
X233558186Y-122560186D01*
X233456729Y-122643448D01*
X233420991Y-122672778D01*
X233264466Y-122756443D01*
X233094627Y-122807963D01*
X233028443Y-122814481D01*
X232962260Y-122821000D01*
X232873740Y-122821000D01*
X232807557Y-122814481D01*
X232741373Y-122807963D01*
X232571534Y-122756443D01*
X232415009Y-122672778D01*
X232379271Y-122643448D01*
X232277814Y-122560186D01*
X232194552Y-122458729D01*
X232165222Y-122422991D01*
X232081557Y-122266466D01*
X232030037Y-122096627D01*
X232012641Y-121920000D01*
X232030037Y-121743373D01*
X232081557Y-121573534D01*
X232165222Y-121417009D01*
X232194552Y-121381271D01*
X232277814Y-121279814D01*
X232379271Y-121196552D01*
X232415009Y-121167222D01*
X232571534Y-121083557D01*
X232741373Y-121032037D01*
X232807558Y-121025518D01*
X232873740Y-121019000D01*
X232962260Y-121019000D01*
X233028442Y-121025518D01*
X233028442Y-121025518D01*
G37*
G36*
X227948442Y-118485518D02*
G01*
X228014627Y-118492037D01*
X228184466Y-118543557D01*
X228340991Y-118627222D01*
X228376729Y-118656552D01*
X228478186Y-118739814D01*
X228561448Y-118841271D01*
X228590778Y-118877009D01*
X228674443Y-119033534D01*
X228725963Y-119203373D01*
X228743359Y-119380000D01*
X228725963Y-119556627D01*
X228674443Y-119726466D01*
X228590778Y-119882991D01*
X228561448Y-119918729D01*
X228478186Y-120020186D01*
X228376729Y-120103448D01*
X228340991Y-120132778D01*
X228184466Y-120216443D01*
X228014627Y-120267963D01*
X227948442Y-120274482D01*
X227882260Y-120281000D01*
X227793740Y-120281000D01*
X227727558Y-120274482D01*
X227661373Y-120267963D01*
X227491534Y-120216443D01*
X227335009Y-120132778D01*
X227299271Y-120103448D01*
X227197814Y-120020186D01*
X227114552Y-119918729D01*
X227085222Y-119882991D01*
X227001557Y-119726466D01*
X226950037Y-119556627D01*
X226932641Y-119380000D01*
X226950037Y-119203373D01*
X227001557Y-119033534D01*
X227085222Y-118877009D01*
X227114552Y-118841271D01*
X227197814Y-118739814D01*
X227299271Y-118656552D01*
X227335009Y-118627222D01*
X227491534Y-118543557D01*
X227661373Y-118492037D01*
X227727558Y-118485518D01*
X227793740Y-118479000D01*
X227882260Y-118479000D01*
X227948442Y-118485518D01*
X227948442Y-118485518D01*
G37*
G36*
X230488442Y-118485518D02*
G01*
X230554627Y-118492037D01*
X230724466Y-118543557D01*
X230880991Y-118627222D01*
X230916729Y-118656552D01*
X231018186Y-118739814D01*
X231101448Y-118841271D01*
X231130778Y-118877009D01*
X231214443Y-119033534D01*
X231265963Y-119203373D01*
X231283359Y-119380000D01*
X231265963Y-119556627D01*
X231214443Y-119726466D01*
X231130778Y-119882991D01*
X231101448Y-119918729D01*
X231018186Y-120020186D01*
X230916729Y-120103448D01*
X230880991Y-120132778D01*
X230724466Y-120216443D01*
X230554627Y-120267963D01*
X230488442Y-120274482D01*
X230422260Y-120281000D01*
X230333740Y-120281000D01*
X230267558Y-120274482D01*
X230201373Y-120267963D01*
X230031534Y-120216443D01*
X229875009Y-120132778D01*
X229839271Y-120103448D01*
X229737814Y-120020186D01*
X229654552Y-119918729D01*
X229625222Y-119882991D01*
X229541557Y-119726466D01*
X229490037Y-119556627D01*
X229472641Y-119380000D01*
X229490037Y-119203373D01*
X229541557Y-119033534D01*
X229625222Y-118877009D01*
X229654552Y-118841271D01*
X229737814Y-118739814D01*
X229839271Y-118656552D01*
X229875009Y-118627222D01*
X230031534Y-118543557D01*
X230201373Y-118492037D01*
X230267558Y-118485518D01*
X230333740Y-118479000D01*
X230422260Y-118479000D01*
X230488442Y-118485518D01*
X230488442Y-118485518D01*
G37*
G36*
X233819000Y-120281000D02*
G01*
X232017000Y-120281000D01*
X232017000Y-118479000D01*
X233819000Y-118479000D01*
X233819000Y-120281000D01*
X233819000Y-120281000D01*
G37*
M02*
