G04 #@! TF.GenerationSoftware,KiCad,Pcbnew,(5.1.4)-1*
G04 #@! TF.CreationDate,2020-04-16T11:05:27+01:00*
G04 #@! TF.ProjectId,sot23Breakout,736f7432-3342-4726-9561-6b6f75742e6b,rev?*
G04 #@! TF.SameCoordinates,Original*
G04 #@! TF.FileFunction,Legend,Top*
G04 #@! TF.FilePolarity,Positive*
%FSLAX46Y46*%
G04 Gerber Fmt 4.6, Leading zero omitted, Abs format (unit mm)*
G04 Created by KiCad (PCBNEW (5.1.4)-1) date 2020-04-16 11:05:27*
%MOMM*%
%LPD*%
G04 APERTURE LIST*
%ADD10C,0.300000*%
%ADD11C,0.120000*%
G04 APERTURE END LIST*
D10*
X229028571Y-125138571D02*
X228171428Y-125138571D01*
X228600000Y-125138571D02*
X228600000Y-123638571D01*
X228457142Y-123852857D01*
X228314285Y-123995714D01*
X228171428Y-124067142D01*
X235632571Y-120058571D02*
X234775428Y-120058571D01*
X235204000Y-120058571D02*
X235204000Y-118558571D01*
X235061142Y-118772857D01*
X234918285Y-118915714D01*
X234775428Y-118987142D01*
X226230571Y-121860285D02*
X224730571Y-121860285D01*
X226159142Y-121217428D02*
X226230571Y-121003142D01*
X226230571Y-120646000D01*
X226159142Y-120503142D01*
X226087714Y-120431714D01*
X225944857Y-120360285D01*
X225802000Y-120360285D01*
X225659142Y-120431714D01*
X225587714Y-120503142D01*
X225516285Y-120646000D01*
X225444857Y-120931714D01*
X225373428Y-121074571D01*
X225302000Y-121146000D01*
X225159142Y-121217428D01*
X225016285Y-121217428D01*
X224873428Y-121146000D01*
X224802000Y-121074571D01*
X224730571Y-120931714D01*
X224730571Y-120574571D01*
X224802000Y-120360285D01*
X226230571Y-119717428D02*
X224730571Y-119717428D01*
X224730571Y-119146000D01*
X224802000Y-119003142D01*
X224873428Y-118931714D01*
X225016285Y-118860285D01*
X225230571Y-118860285D01*
X225373428Y-118931714D01*
X225444857Y-119003142D01*
X225516285Y-119146000D01*
X225516285Y-119717428D01*
D11*
X225238000Y-123130000D02*
X226568000Y-123130000D01*
X225238000Y-124460000D02*
X225238000Y-123130000D01*
X225238000Y-125730000D02*
X227898000Y-125730000D01*
X227898000Y-125730000D02*
X227898000Y-130870000D01*
X225238000Y-125730000D02*
X225238000Y-130870000D01*
X225238000Y-130870000D02*
X227898000Y-130870000D01*
X232858000Y-130870000D02*
X235518000Y-130870000D01*
X232858000Y-125730000D02*
X232858000Y-130870000D01*
X235518000Y-125730000D02*
X235518000Y-130870000D01*
X232858000Y-125730000D02*
X235518000Y-125730000D01*
X232858000Y-124460000D02*
X232858000Y-123130000D01*
X232858000Y-123130000D02*
X234188000Y-123130000D01*
X229478000Y-128610000D02*
X231278000Y-128610000D01*
X231278000Y-125390000D02*
X228828000Y-125390000D01*
X226508000Y-118050000D02*
X226508000Y-123250000D01*
X231648000Y-118050000D02*
X226508000Y-118050000D01*
X234248000Y-123250000D02*
X226508000Y-123250000D01*
X231648000Y-118050000D02*
X231648000Y-120650000D01*
X231648000Y-120650000D02*
X234248000Y-120650000D01*
X234248000Y-120650000D02*
X234248000Y-123250000D01*
X232918000Y-118050000D02*
X234248000Y-118050000D01*
X234248000Y-118050000D02*
X234248000Y-119380000D01*
M02*
